<?xml version="1.0" standalone="no"?>
 <!DOCTYPE svg PUBLIC "-//W3C//DTD SVG 1.1//EN" 
 "http://www.w3.org/Graphics/SVG/1.1/DTD/svg11.dtd"> 
<svg
  xmlns:svg="http://www.w3.org/2000/svg"
  xmlns="http://www.w3.org/2000/svg"
  xmlns:xlink="http://www.w3.org/1999/xlink"
  version="1.1"
  width="29.700220cm" height="21.000720cm" viewBox="0 0 116930 82680">
<title>SVG Picture created as keyboard_v2-F_Fab.svg date 2020/07/24 21:35:43 </title>
  <desc>Picture generated by PCBNEW </desc>
<g style="fill:#000000; fill-opacity:1;stroke:#000000; stroke-opacity:1;
stroke-linecap:round; stroke-linejoin:round;"
 transform="translate(0 0) scale(1 1)">
</g>
<g style="fill:#000000; fill-opacity:0.0; 
stroke:#000000; stroke-width:-0.000393701; stroke-opacity:1; 
stroke-linecap:round; stroke-linejoin:round;">
</g>
<g style="fill:#848484; fill-opacity:0.0; 
stroke:#848484; stroke-width:-0.000393701; stroke-opacity:1; 
stroke-linecap:round; stroke-linejoin:round;">
</g>
<g style="fill:#848484; fill-opacity:0.0; 
stroke:#848484; stroke-width:59.0551; stroke-opacity:1; 
stroke-linecap:round; stroke-linejoin:round;">
<circle cx="153474" cy="-11573.4" r="459.554" /> 
<circle cx="185049" cy="-11464.4" r="459.554" /> 
<circle cx="128193" cy="5388.55" r="459.554" /> 
<circle cx="188165" cy="7089.55" r="459.554" /> 
<circle cx="223101" cy="6372.55" r="459.554" /> 
<circle cx="221325" cy="-27298.4" r="459.554" /> 
<circle cx="175033" cy="-26757.4" r="459.554" /> 
<circle cx="126794" cy="-26953.4" r="459.554" /> 
</g>
<g style="fill:#848484; fill-opacity:0.0; 
stroke:#848484; stroke-width:78.7402; stroke-opacity:1; 
stroke-linecap:round; stroke-linejoin:round;">
<path d="M134849 -4916
L134849 -9956
" />
<path d="M209428 5043
L209428 10083
" />
<path d="M158654 6978
L158654 7765
" />
<path d="M183957 4874
L183957 9913
" />
<path d="M177815 9913
L177815 4874
" />
<path d="M177815 4874
L183957 4874
" />
<path d="M183957 9913
L177815 9913
" />
<path d="M224520 -17261
L224520 -16211
" />
<path d="M223525 -14257
L228565 -14257
" />
<path d="M228565 -8116
L223525 -8116
" />
<path d="M215474 -17456
L221616 -17456
" />
<path d="M224520 -16211
L222470 -16211
" />
</g>
<g style="fill:#848484; fill-opacity:0.0; 
stroke:#848484; stroke-width:0.787402; stroke-opacity:1; 
stroke-linecap:round; stroke-linejoin:round;">
<path d="M220014 -10400
L220802 -10400
" />
<path d="M220014 -9613
L220014 -10400
" />
<path d="M220014 -5358
L220802 -5358
" />
<path d="M220802 -10400
L220802 -9613
" />
<path d="M220802 -9613
L220014 -9613
" />
<path d="M220802 -5358
L220802 -4570
" />
<path d="M220802 -4570
L220014 -4570
" />
<path d="M220014 -4570
L220014 -5358
" />
<circle cx="220408" cy="-7482.31" r="1259.84" /> 
</g>
<g style="fill:#848484; fill-opacity:0.0; 
stroke:#848484; stroke-width:39.3701; stroke-opacity:1; 
stroke-linecap:round; stroke-linejoin:round;">
<path d="M185496 10919
L185496 8950
" />
<path d="M185576 3933
L186560 3933
" />
<path d="M185496 8950
L184511 8950
" />
<path d="M157255 10919
L156271 10919
" />
<path d="M156271 8950
L157255 8950
" />
<path d="M184511 8950
L184511 10919
" />
<path d="M156271 10919
L156271 8950
" />
<path d="M157255 8950
L157255 10919
" />
<path d="M186560 3933
L186560 5902
" />
<path d="M184511 10919
L185496 10919
" />
<path d="M186560 5902
L185576 5902
" />
<path d="M156193 3925
L156193 5903
" />
<path d="M185576 5902
L185576 3933
" />
</g>
<g style="fill:#848484; fill-opacity:0.0; 
stroke:#848484; stroke-width:78.7402; stroke-opacity:1; 
stroke-linecap:round; stroke-linejoin:round;">
<path d="M162911 6978
L163698 6978
" />
<path d="M157867 6978
L158654 6978
" />
</g>
<g style="fill:#848484; fill-opacity:0.0; 
stroke:#848484; stroke-width:39.3701; stroke-opacity:1; 
stroke-linecap:round; stroke-linejoin:round;">
<path d="M156188 5903
L155204 5903
" />
</g>
<g style="fill:#848484; fill-opacity:0.0; 
stroke:#848484; stroke-width:78.7402; stroke-opacity:1; 
stroke-linecap:round; stroke-linejoin:round;">
<path d="M163698 6978
L163698 7765
" />
<path d="M157867 7765
L157867 6978
" />
<path d="M158654 7765
L157867 7765
" />
<path d="M163698 7765
L162911 7765
" />
<path d="M162911 7765
L162911 6978
" />
</g>
<g style="fill:#848484; fill-opacity:0.0; 
stroke:#848484; stroke-width:39.3701; stroke-opacity:1; 
stroke-linecap:round; stroke-linejoin:round;">
<path d="M155204 5903
L155204 3925
" />
</g>
<g style="fill:#848484; fill-opacity:0.0; 
stroke:#848484; stroke-width:78.7402; stroke-opacity:1; 
stroke-linecap:round; stroke-linejoin:round;">
<circle cx="160779" cy="7371.93" r="1259.84" /> 
</g>
<g style="fill:#848484; fill-opacity:0.0; 
stroke:#848484; stroke-width:39.3701; stroke-opacity:1; 
stroke-linecap:round; stroke-linejoin:round;">
<path d="M155207 3924
L156192 3924
" />
</g>
<g style="fill:#848484; fill-opacity:0.0; 
stroke:#848484; stroke-width:78.7402; stroke-opacity:1; 
stroke-linecap:round; stroke-linejoin:round;">
<path d="M121724 -29292
L121724 -34331
" />
<path d="M127866 -29292
L121724 -29292
" />
<path d="M127866 -34331
L127866 -29292
" />
<path d="M121724 -34331
L127866 -34331
" />
<path d="M133525 -28740
L133525 -34882
" />
<path d="M138565 -28740
L133525 -28740
" />
<path d="M138565 -34882
L138565 -28740
" />
<path d="M133525 -34882
L138565 -34882
" />
<path d="M141025 -28740
L141025 -34882
" />
<path d="M146065 -28740
L141025 -28740
" />
<path d="M146065 -34882
L146065 -28740
" />
<path d="M141025 -34882
L146065 -34882
" />
<path d="M148525 -28740
L148525 -34882
" />
<path d="M153565 -28740
L148525 -28740
" />
<path d="M153565 -34882
L153565 -28740
" />
<path d="M148525 -34882
L153565 -34882
" />
<path d="M156025 -28740
L156025 -34882
" />
<path d="M161065 -28740
L156025 -28740
" />
<path d="M161065 -34882
L161065 -28740
" />
<path d="M156025 -34882
L161065 -34882
" />
<path d="M167275 -28740
L167275 -34882
" />
<path d="M172315 -28740
L167275 -28740
" />
<path d="M172315 -34882
L172315 -28740
" />
<path d="M167275 -34882
L172315 -34882
" />
<path d="M174775 -28740
L174775 -34882
" />
<path d="M179815 -28740
L174775 -28740
" />
<path d="M179815 -34882
L179815 -28740
" />
<path d="M174775 -34882
L179815 -34882
" />
<path d="M182275 -28740
L182275 -34882
" />
<path d="M187315 -28740
L182275 -28740
" />
<path d="M187315 -34882
L187315 -28740
" />
<path d="M182275 -34882
L187315 -34882
" />
<path d="M189775 -28740
L189775 -34882
" />
<path d="M194815 -28740
L189775 -28740
" />
<path d="M194815 -34882
L194815 -28740
" />
<path d="M189775 -34882
L194815 -34882
" />
<path d="M201025 -28740
L201025 -34882
" />
<path d="M206065 -28740
L201025 -28740
" />
<path d="M206065 -34882
L206065 -28740
" />
<path d="M201025 -34882
L206065 -34882
" />
<path d="M208525 -28740
L208525 -34882
" />
<path d="M213565 -28740
L208525 -28740
" />
<path d="M213565 -34882
L213565 -28740
" />
<path d="M208525 -34882
L213565 -34882
" />
<path d="M216025 -28740
L216025 -34882
" />
<path d="M221065 -28740
L216025 -28740
" />
<path d="M221065 -34882
L221065 -28740
" />
<path d="M216025 -34882
L221065 -34882
" />
<path d="M223525 -28740
L223525 -34882
" />
<path d="M228564 -28740
L223525 -28740
" />
<path d="M228564 -34882
L228564 -28740
" />
<path d="M223525 -34882
L228564 -34882
" />
<path d="M121724 -19916
L121724 -24956
" />
<path d="M127866 -19916
L121724 -19916
" />
<path d="M127866 -24956
L127866 -19916
" />
<path d="M121724 -24956
L127866 -24956
" />
<path d="M129224 -19916
L129224 -24956
" />
<path d="M135366 -19916
L129224 -19916
" />
<path d="M135366 -24956
L135366 -19916
" />
<path d="M129224 -24956
L135366 -24956
" />
<path d="M136724 -19916
L136724 -24956
" />
<path d="M142866 -19916
L136724 -19916
" />
<path d="M142866 -24956
L142866 -19916
" />
<path d="M136724 -24956
L142866 -24956
" />
<path d="M144224 -19916
L144224 -24956
" />
<path d="M150366 -19916
L144224 -19916
" />
<path d="M150366 -24956
L150366 -19916
" />
<path d="M144224 -24956
L150366 -24956
" />
<path d="M151724 -19916
L151724 -24956
" />
<path d="M157865 -19916
L151724 -19916
" />
<path d="M157865 -24956
L157865 -19916
" />
<path d="M151724 -24956
L157865 -24956
" />
<path d="M159224 -19916
L159224 -24956
" />
<path d="M165365 -19916
L159224 -19916
" />
<path d="M165365 -24956
L165365 -19916
" />
<path d="M159224 -24956
L165365 -24956
" />
<path d="M166724 -19916
L166724 -24956
" />
<path d="M172866 -19916
L166724 -19916
" />
<path d="M172866 -24956
L172866 -19916
" />
<path d="M166724 -24956
L172866 -24956
" />
<path d="M174224 -19916
L174224 -24956
" />
<path d="M180366 -19916
L174224 -19916
" />
<path d="M180366 -24956
L180366 -19916
" />
<path d="M174224 -24956
L180366 -24956
" />
<path d="M181724 -19916
L181724 -24956
" />
<path d="M187866 -19916
L181724 -19916
" />
<path d="M187866 -24956
L187866 -19916
" />
<path d="M181724 -24956
L187866 -24956
" />
<path d="M189224 -19916
L189224 -24956
" />
<path d="M195366 -19916
L189224 -19916
" />
<path d="M195366 -24956
L195366 -19916
" />
<path d="M189224 -24956
L195366 -24956
" />
<path d="M196724 -19916
L196724 -24956
" />
<path d="M202866 -19916
L196724 -19916
" />
<path d="M202866 -24956
L202866 -19916
" />
<path d="M196724 -24956
L202866 -24956
" />
<path d="M204224 -19916
L204224 -24956
" />
<path d="M210366 -19916
L204224 -19916
" />
<path d="M210366 -24956
L210366 -19916
" />
<path d="M204224 -24956
L210366 -24956
" />
<path d="M211724 -19916
L211724 -24956
" />
<path d="M217866 -19916
L211724 -19916
" />
<path d="M217866 -24956
L217866 -19916
" />
<path d="M211724 -24956
L217866 -24956
" />
<path d="M221099 -19916
L221099 -24956
" />
<path d="M227240 -19916
L221099 -19916
" />
<path d="M227240 -24956
L227240 -19916
" />
<path d="M221099 -24956
L227240 -24956
" />
<path d="M222470 -16211
L222470 -17261
" />
<path d="M222470 -17261
L224520 -17261
" />
<path d="M123599 -12416
L123599 -17456
" />
<path d="M129740 -12416
L123599 -12416
" />
<path d="M129740 -17456
L129740 -12416
" />
<path d="M123599 -17456
L129740 -17456
" />
<path d="M132974 -12416
L132974 -17456
" />
<path d="M139116 -12416
L132974 -12416
" />
<path d="M139116 -17456
L139116 -12416
" />
<path d="M132974 -17456
L139116 -17456
" />
<path d="M140474 -12416
L140474 -17456
" />
<path d="M146616 -12416
L140474 -12416
" />
<path d="M146616 -17456
L146616 -12416
" />
<path d="M140474 -17456
L146616 -17456
" />
<path d="M147974 -12416
L147974 -17456
" />
<path d="M154116 -12416
L147974 -12416
" />
<path d="M154116 -17456
L154116 -12416
" />
<path d="M147974 -17456
L154116 -17456
" />
<path d="M155474 -12416
L155474 -17456
" />
<path d="M161616 -12416
L155474 -12416
" />
<path d="M161616 -17456
L161616 -12416
" />
<path d="M155474 -17456
L161616 -17456
" />
<path d="M162974 -12416
L162974 -17456
" />
<path d="M169116 -12416
L162974 -12416
" />
<path d="M169116 -17456
L169116 -12416
" />
<path d="M162974 -17456
L169116 -17456
" />
<path d="M170474 -12416
L170474 -17456
" />
<path d="M176616 -12416
L170474 -12416
" />
<path d="M176616 -17456
L176616 -12416
" />
<path d="M170474 -17456
L176616 -17456
" />
<path d="M177974 -12416
L177974 -17456
" />
<path d="M184116 -12416
L177974 -12416
" />
<path d="M184116 -17456
L184116 -12416
" />
<path d="M177974 -17456
L184116 -17456
" />
<path d="M185474 -12416
L185474 -17456
" />
<path d="M191616 -12416
L185474 -12416
" />
<path d="M191616 -17456
L191616 -12416
" />
<path d="M185474 -17456
L191616 -17456
" />
<path d="M192974 -12416
L192974 -17456
" />
<path d="M199116 -12416
L192974 -12416
" />
<path d="M199116 -17456
L199116 -12416
" />
<path d="M192974 -17456
L199116 -17456
" />
<path d="M200474 -12416
L200474 -17456
" />
<path d="M206616 -12416
L200474 -12416
" />
<path d="M206616 -17456
L206616 -12416
" />
<path d="M200474 -17456
L206616 -17456
" />
<path d="M207974 -12416
L207974 -17456
" />
<path d="M214116 -12416
L207974 -12416
" />
<path d="M214116 -17456
L214116 -12416
" />
<path d="M207974 -17456
L214116 -17456
" />
<path d="M215474 -12416
L215474 -17456
" />
<path d="M221616 -12416
L215474 -12416
" />
<path d="M221616 -17456
L221616 -12416
" />
<path d="M223525 -8116
L223525 -14257
" />
<path d="M228565 -14257
L228565 -8116
" />
<path d="M222470 -5112
L222470 -6162
" />
<path d="M224520 -5112
L222470 -5112
" />
<path d="M224520 -6162
L224520 -5112
" />
<path d="M222470 -6162
L224520 -6162
" />
<path d="M124536 -4916
L124536 -9956
" />
<path d="M130678 -4916
L124536 -4916
" />
<path d="M130678 -9956
L130678 -4916
" />
<path d="M124536 -9956
L130678 -9956
" />
<path d="M140990 -4916
L134849 -4916
" />
<path d="M140990 -9956
L140990 -4916
" />
<path d="M134849 -9956
L140990 -9956
" />
<path d="M142349 -4916
L142349 -9956
" />
<path d="M148490 -4916
L142349 -4916
" />
<path d="M148490 -9956
L148490 -4916
" />
<path d="M142349 -9956
L148490 -9956
" />
<path d="M149849 -4916
L149849 -9956
" />
<path d="M155990 -4916
L149849 -4916
" />
<path d="M155990 -9956
L155990 -4916
" />
<path d="M149849 -9956
L155990 -9956
" />
<path d="M157349 -4916
L157349 -9956
" />
<path d="M163490 -4916
L157349 -4916
" />
<path d="M163490 -9956
L163490 -4916
" />
<path d="M157349 -9956
L163490 -9956
" />
<path d="M164849 -4916
L164849 -9956
" />
<path d="M170990 -4916
L164849 -4916
" />
<path d="M170990 -9956
L170990 -4916
" />
<path d="M164849 -9956
L170990 -9956
" />
<path d="M172349 -4916
L172349 -9956
" />
<path d="M178490 -4916
L172349 -4916
" />
<path d="M178490 -9956
L178490 -4916
" />
<path d="M172349 -9956
L178490 -9956
" />
<path d="M179849 -4916
L179849 -9956
" />
<path d="M185990 -4916
L179849 -4916
" />
<path d="M185990 -9956
L185990 -4916
" />
<path d="M179849 -9956
L185990 -9956
" />
<path d="M187349 -4916
L187349 -9956
" />
<path d="M193490 -4916
L187349 -4916
" />
<path d="M193490 -9956
L193490 -4916
" />
<path d="M187349 -9956
L193490 -9956
" />
<path d="M194849 -4916
L194849 -9956
" />
<path d="M200990 -4916
L194849 -4916
" />
<path d="M200990 -9956
L200990 -4916
" />
<path d="M194849 -9956
L200990 -9956
" />
<path d="M202349 -4916
L202349 -9956
" />
<path d="M208490 -4916
L202349 -4916
" />
<path d="M208490 -9956
L208490 -4916
" />
<path d="M202349 -9956
L208490 -9956
" />
<path d="M209849 -4916
L209849 -9956
" />
<path d="M215990 -4916
L209849 -4916
" />
<path d="M215990 -9956
L215990 -4916
" />
<path d="M209849 -9956
L215990 -9956
" />
<path d="M122383 -3862
L122383 -5911
" />
<path d="M123432 -3862
L122383 -3862
" />
<path d="M123432 -5911
L123432 -3862
" />
<path d="M122383 -5911
L123432 -5911
" />
<path d="M131782 -3862
L131782 -5911
" />
<path d="M132832 -3862
L131782 -3862
" />
<path d="M132832 -5911
L132832 -3862
" />
<path d="M131782 -5911
L132832 -5911
" />
<path d="M126411 2583
L126411 -2456
" />
<path d="M132553 2583
L126411 2583
" />
<path d="M132553 -2456
L132553 2583
" />
<path d="M126411 -2456
L132553 -2456
" />
<path d="M138599 2583
L138599 -2456
" />
<path d="M144740 2583
L138599 2583
" />
<path d="M144740 -2456
L144740 2583
" />
<path d="M138599 -2456
L144740 -2456
" />
<path d="M146099 2583
L146099 -2456
" />
<path d="M152240 2583
L146099 2583
" />
<path d="M152240 -2456
L152240 2583
" />
<path d="M146099 -2456
L152240 -2456
" />
<path d="M153599 2583
L153599 -2456
" />
<path d="M159740 2583
L153599 2583
" />
<path d="M159740 -2456
L159740 2583
" />
<path d="M153599 -2456
L159740 -2456
" />
<path d="M161099 2583
L161099 -2456
" />
<path d="M167240 2583
L161099 2583
" />
<path d="M167240 -2456
L167240 2583
" />
<path d="M161099 -2456
L167240 -2456
" />
<path d="M168599 2583
L168599 -2456
" />
<path d="M174740 2583
L168599 2583
" />
<path d="M174740 -2456
L174740 2583
" />
<path d="M168599 -2456
L174740 -2456
" />
<path d="M176099 2583
L176099 -2456
" />
<path d="M182240 2583
L176099 2583
" />
<path d="M182240 -2456
L182240 2583
" />
<path d="M176099 -2456
L182240 -2456
" />
<path d="M183599 2583
L183599 -2456
" />
<path d="M189740 2583
L183599 2583
" />
<path d="M189740 -2456
L189740 2583
" />
<path d="M183599 -2456
L189740 -2456
" />
<path d="M191099 2583
L191099 -2456
" />
<path d="M197240 2583
L191099 2583
" />
<path d="M197240 -2456
L197240 2583
" />
<path d="M191099 -2456
L197240 -2456
" />
<path d="M198599 2583
L198599 -2456
" />
<path d="M204740 2583
L198599 2583
" />
<path d="M204740 -2456
L204740 2583
" />
<path d="M198599 -2456
L204740 -2456
" />
<path d="M206099 2583
L206099 -2456
" />
<path d="M212240 2583
L206099 2583
" />
<path d="M212240 -2456
L212240 2583
" />
<path d="M206099 -2456
L212240 -2456
" />
<path d="M213599 2583
L213599 -2456
" />
<path d="M219740 2583
L213599 2583
" />
<path d="M219740 -2456
L219740 2583
" />
<path d="M213599 -2456
L219740 -2456
" />
<path d="M222037 2583
L222037 -2456
" />
<path d="M228178 2583
L222037 2583
" />
<path d="M228178 -2456
L228178 2583
" />
<path d="M222037 -2456
L228178 -2456
" />
<path d="M123408 3637
L123408 1588
" />
<path d="M124458 3637
L123408 3637
" />
<path d="M124458 1588
L124458 3637
" />
<path d="M123408 1588
L124458 1588
" />
<path d="M134507 3637
L134507 1588
" />
<path d="M135557 3637
L134507 3637
" />
<path d="M135557 1588
L135557 3637
" />
<path d="M134507 1588
L135557 1588
" />
<path d="M132036 10083
L132036 5043
" />
<path d="M138178 10083
L132036 10083
" />
<path d="M138178 5043
L138178 10083
" />
<path d="M132036 5043
L138178 5043
" />
<path d="M143286 10083
L143286 5043
" />
<path d="M149428 10083
L143286 10083
" />
<path d="M149428 5043
L149428 10083
" />
<path d="M143286 5043
L149428 5043
" />
<path d="M192037 10083
L192037 5043
" />
<path d="M198178 10083
L192037 10083
" />
<path d="M198178 5043
L198178 10083
" />
<path d="M192037 5043
L198178 5043
" />
<path d="M203287 10083
L203287 5043
" />
<path d="M209428 10083
L203287 10083
" />
<path d="M203287 5043
L209428 5043
" />
<path d="M212661 10083
L212661 5043
" />
<path d="M218803 10083
L212661 10083
" />
<path d="M218803 5043
L218803 10083
" />
<path d="M212661 5043
L218803 5043
" />
<path d="M141132 5960
L141132 3910
" />
<path d="M142182 5960
L141132 5960
" />
<path d="M142182 3910
L142182 5960
" />
<path d="M141132 3910
L142182 3910
" />
<path d="M150532 5960
L150532 3910
" />
<path d="M151582 5960
L150532 5960
" />
<path d="M151582 3910
L151582 5960
" />
<path d="M150532 3910
L151582 3910
" />
<path d="M189883 5940
L189883 3891
" />
<path d="M190932 5940
L189883 5940
" />
<path d="M190932 3891
L190932 5940
" />
<path d="M189883 3891
L190932 3891
" />
<path d="M199283 5940
L199283 3891
" />
<path d="M200332 5940
L199283 5940
" />
<path d="M200332 3891
L200332 5940
" />
<path d="M199283 3891
L200332 3891
" />
<path d="M120454 -36349
L230386 -36349
" />
<path d="M120439 -36348
L120454 -36349
" />
<path d="M120423 -36346
L120439 -36348
" />
<path d="M120408 -36343
L120423 -36346
" />
<path d="M120394 -36339
L120408 -36343
" />
<path d="M120379 -36334
L120394 -36339
" />
<path d="M120365 -36327
L120379 -36334
" />
<path d="M120351 -36320
L120365 -36327
" />
<path d="M120339 -36311
L120351 -36320
" />
<path d="M120326 -36301
L120339 -36311
" />
<path d="M120315 -36291
L120326 -36301
" />
<path d="M120305 -36280
L120315 -36291
" />
<path d="M120295 -36268
L120305 -36280
" />
<path d="M120286 -36255
L120295 -36268
" />
<path d="M120279 -36241
L120286 -36255
" />
<path d="M120273 -36227
L120279 -36241
" />
<path d="M120267 -36212
L120273 -36227
" />
<path d="M120263 -36198
L120267 -36212
" />
<path d="M120260 -36183
L120263 -36198
" />
<path d="M120258 -36168
L120260 -36183
" />
<path d="M120257 -36152
L120258 -36168
" />
<path d="M120257 11903
L120257 -36152
" />
<path d="M120258 11919
L120257 11903
" />
<path d="M120260 11934
L120258 11919
" />
<path d="M120263 11949
L120260 11934
" />
<path d="M120267 11965
L120263 11949
" />
<path d="M120273 11979
L120267 11965
" />
<path d="M120279 11993
L120273 11979
" />
<path d="M120286 12006
L120279 11993
" />
<path d="M120295 12019
L120286 12006
" />
<path d="M120305 12031
L120295 12019
" />
<path d="M120315 12043
L120305 12031
" />
<path d="M120326 12053
L120315 12043
" />
<path d="M120339 12063
L120326 12053
" />
<path d="M120351 12071
L120339 12063
" />
<path d="M120365 12079
L120351 12071
" />
<path d="M120379 12086
L120365 12079
" />
<path d="M120394 12090
L120379 12086
" />
<path d="M120408 12095
L120394 12090
" />
<path d="M120423 12097
L120408 12095
" />
<path d="M120439 12100
L120423 12097
" />
<path d="M120454 12100
L120439 12100
" />
<path d="M230386 12100
L120454 12100
" />
<path d="M230401 12100
L230386 12100
" />
<path d="M230416 12097
L230401 12100
" />
<path d="M230431 12095
L230416 12097
" />
<path d="M230447 12090
L230431 12095
" />
<path d="M230461 12086
L230447 12090
" />
<path d="M230475 12079
L230461 12086
" />
<path d="M230488 12071
L230475 12079
" />
<path d="M230501 12063
L230488 12071
" />
<path d="M230513 12053
L230501 12063
" />
<path d="M230525 12043
L230513 12053
" />
<path d="M230536 12031
L230525 12043
" />
<path d="M230545 12019
L230536 12031
" />
<path d="M230553 12006
L230545 12019
" />
<path d="M230561 11993
L230553 12006
" />
<path d="M230573 11965
L230561 11993
" />
<path d="M230577 11949
L230573 11965
" />
<path d="M230580 11934
L230577 11949
" />
<path d="M230582 11919
L230580 11934
" />
<path d="M230583 11903
L230582 11919
" />
<path d="M230583 -36152
L230583 11903
" />
<path d="M230582 -36168
L230583 -36152
" />
<path d="M230580 -36183
L230582 -36168
" />
<path d="M230577 -36198
L230580 -36183
" />
<path d="M230573 -36212
L230577 -36198
" />
<path d="M230567 -36227
L230573 -36212
" />
<path d="M230561 -36241
L230567 -36227
" />
<path d="M230553 -36255
L230561 -36241
" />
<path d="M230545 -36268
L230553 -36255
" />
<path d="M230536 -36280
L230545 -36268
" />
<path d="M230525 -36291
L230536 -36280
" />
<path d="M230513 -36301
L230525 -36291
" />
<path d="M230501 -36311
L230513 -36301
" />
<path d="M230488 -36320
L230501 -36311
" />
<path d="M230475 -36327
L230488 -36320
" />
<path d="M230461 -36334
L230475 -36327
" />
<path d="M230447 -36339
L230461 -36334
" />
<path d="M230431 -36343
L230447 -36339
" />
<path d="M230416 -36346
L230431 -36343
" />
<path d="M230401 -36348
L230416 -36346
" />
<path d="M230386 -36349
L230401 -36348
" />
<g >
</g>
<g >
</g>
<g >
</g>
<g >
</g>
<g >
</g>
<g >
</g>
<g >
</g>
<g >
</g>
<g >
</g>
<g >
</g>
<g >
</g>
<g >
</g>
<g >
</g>
<g >
</g>
<g >
</g>
<g >
</g>
<g >
</g>
<g >
</g>
<g >
</g>
<g >
</g>
<g >
</g>
<g >
</g>
<g >
</g>
<g >
</g>
<g >
</g>
<g >
</g>
<g >
</g>
<g >
</g>
<g >
</g>
<g >
</g>
<g >
</g>
<g >
</g>
<g >
</g>
<g >
</g>
<g >
</g>
<g >
</g>
<g >
</g>
<g >
</g>
<g >
</g>
<g >
</g>
<g >
</g>
<g >
</g>
<g >
</g>
<g >
</g>
<g >
</g>
<g >
</g>
<g >
</g>
<g >
</g>
<g >
</g>
<g >
</g>
<g >
</g>
<g >
</g>
<g >
</g>
<g >
</g>
<g >
</g>
<g >
</g>
<g >
</g>
<g >
</g>
<g >
</g>
<g >
</g>
<g >
</g>
<g >
</g>
<g >
</g>
<g >
</g>
<g >
</g>
<g >
</g>
<g >
</g>
<g >
</g>
<g >
</g>
<g >
</g>
<g >
</g>
<g >
</g>
<g >
</g>
<g >
</g>
<g >
</g>
<g >
</g>
<g >
</g>
<g >
</g>
<g >
</g>
<g >
</g>
<g >
</g>
<g >
</g>
<g >
</g>
<g >
</g>
<g >
</g>
<g >
</g>
<g >
</g>
<g >
</g>
<g >
</g>
<g >
</g>
<g >
</g>
<g >
</g>
<g >
</g>
<g >
</g>
<g >
</g>
<g >
</g>
<g >
</g>
<g >
</g>
<g >
</g>
<g >
</g>
<g >
</g>
<g >
</g>
<g >
</g>
<g >
</g>
<g >
</g>
<g >
</g>
<g >
</g>
<g >
</g>
<g >
</g>
<g >
</g>
<g >
</g>
<g >
</g>
<g >
</g>
<g >
</g>
<g >
</g>
<g >
</g>
<g >
</g>
<g >
</g>
<g >
</g>
<g >
</g>
<g >
</g>
<g >
</g>
<g >
</g>
<g >
</g>
<g >
</g>
<g >
</g>
<g >
</g>
<g >
</g>
<g >
</g>
<g >
</g>
<g >
</g>
<g >
</g>
<g >
</g>
<g >
</g>
<g >
</g>
<g >
</g>
<g >
</g>
<g >
</g>
<g >
</g>
<g >
</g>
<g >
</g>
<g >
</g>
<g >
</g>
<g >
</g>
<g >
</g>
<g >
</g>
<g >
</g>
<g >
</g>
<g >
</g>
<g >
</g>
<g >
</g>
<g >
</g>
<g >
</g>
<g >
</g>
<g >
</g>
<g >
</g>
<g >
</g>
<g >
</g>
<g >
</g>
<g >
</g>
<g >
</g>
<g >
</g>
<g >
</g>
<g >
</g>
<g >
</g>
<g >
</g>
<g >
</g>
<g >
</g>
<g >
</g>
<g >
</g>
<g >
</g>
<g >
</g>
<g >
</g>
<g >
</g>
<g >
</g>
<g >
</g>
<g >
</g>
<g >
</g>
</g>
<g style="fill:#848484; fill-opacity:0.0; 
stroke:#848484; stroke-width:78.7402; stroke-opacity:1; 
stroke-linecap:round; stroke-linejoin:round;">
</g>
<g style="fill:#848484; fill-opacity:0.0; 
stroke:#848484; stroke-width:59.0551; stroke-opacity:1; 
stroke-linecap:round; stroke-linejoin:round;">
<text x="153478" y="-12634"
textLength="589.801" font-size="524.934" lengthAdjust="spacingAndGlyphs"
text-anchor="middle" opacity="0">-</text>
<path d="M153328 -12802
L153627 -12802
" />
<text x="153478" y="-10114.3"
textLength="1576.58" font-size="524.934" lengthAdjust="spacingAndGlyphs"
text-anchor="middle" opacity="0">Val**</text>
<path d="M152765 -10526
L152896 -10133
L153028 -10526
" />
<path d="M153328 -10133
L153328 -10339
L153309 -10376
L153271 -10395
L153196 -10395
L153159 -10376
" />
<path d="M153328 -10151
L153290 -10133
L153196 -10133
L153159 -10151
L153140 -10189
L153140 -10226
L153159 -10264
L153196 -10283
L153290 -10283
L153328 -10301
" />
<path d="M153571 -10133
L153534 -10151
L153515 -10189
L153515 -10526
" />
<path d="M153777 -10526
L153777 -10433
" />
<path d="M153684 -10470
L153777 -10433
L153871 -10470
" />
<path d="M153721 -10358
L153777 -10433
L153834 -10358
" />
<path d="M154077 -10526
L154077 -10433
" />
<path d="M153984 -10470
L154077 -10433
L154171 -10470
" />
<path d="M154021 -10358
L154077 -10433
L154134 -10358
" />
<text x="185053" y="-12525"
textLength="564.211" font-size="524.934" lengthAdjust="spacingAndGlyphs"
text-anchor="middle" opacity="0">-</text>
<path d="M184903 -12693
L185202 -12693
" />
<text x="185053" y="-10005.3"
textLength="1576.58" font-size="524.934" lengthAdjust="spacingAndGlyphs"
text-anchor="middle" opacity="0">Val**</text>
<path d="M184340 -10417
L184471 -10024
L184603 -10417
" />
<path d="M184903 -10024
L184903 -10230
L184884 -10267
L184846 -10286
L184771 -10286
L184734 -10267
" />
<path d="M184903 -10042
L184865 -10024
L184771 -10024
L184734 -10042
L184715 -10080
L184715 -10117
L184734 -10155
L184771 -10174
L184865 -10174
L184903 -10192
" />
<path d="M185146 -10024
L185109 -10042
L185090 -10080
L185090 -10417
" />
<path d="M185352 -10417
L185352 -10324
" />
<path d="M185259 -10361
L185352 -10324
L185446 -10361
" />
<path d="M185296 -10249
L185352 -10324
L185409 -10249
" />
<path d="M185652 -10417
L185652 -10324
" />
<path d="M185559 -10361
L185652 -10324
L185746 -10361
" />
<path d="M185596 -10249
L185652 -10324
L185709 -10249
" />
<text x="128197" y="4328.01"
textLength="1632.83" font-size="524.934" lengthAdjust="spacingAndGlyphs"
text-anchor="middle" opacity="0">Ref**</text>
<path d="M127737 4309
L127606 4121
" />
<path d="M127512 4309
L127512 3915
L127662 3915
L127700 3934
L127718 3953
L127737 3990
L127737 4046
L127718 4084
L127700 4103
L127662 4121
L127512 4121
" />
<path d="M128056 4290
L128018 4309
L127943 4309
L127906 4290
L127887 4253
L127887 4103
L127906 4065
L127943 4046
L128018 4046
L128056 4065
L128075 4103
L128075 4140
L127887 4178
" />
<path d="M128187 4046
L128337 4046
" />
<path d="M128243 4309
L128243 3971
L128262 3934
L128300 3915
L128337 3915
" />
<path d="M128525 3915
L128525 4009
" />
<path d="M128431 3971
L128525 4009
L128618 3971
" />
<path d="M128468 4084
L128525 4009
L128581 4084
" />
<path d="M128825 3915
L128825 4009
" />
<path d="M128731 3971
L128825 4009
L128918 3971
" />
<path d="M128768 4084
L128825 4009
L128881 4084
" />
<text x="128197" y="6847.69"
textLength="1576.58" font-size="524.934" lengthAdjust="spacingAndGlyphs"
text-anchor="middle" opacity="0">Val**</text>
<path d="M127484 6435
L127615 6828
L127747 6435
" />
<path d="M128047 6828
L128047 6622
L128028 6585
L127990 6566
L127915 6566
L127878 6585
" />
<path d="M128047 6810
L128009 6828
L127915 6828
L127878 6810
L127859 6772
L127859 6735
L127878 6697
L127915 6678
L128009 6678
L128047 6660
" />
<path d="M128290 6828
L128253 6810
L128234 6772
L128234 6435
" />
<path d="M128496 6435
L128496 6528
" />
<path d="M128403 6491
L128496 6528
L128590 6491
" />
<path d="M128440 6603
L128496 6528
L128553 6603
" />
<path d="M128796 6435
L128796 6528
" />
<path d="M128703 6491
L128796 6528
L128890 6491
" />
<path d="M128740 6603
L128796 6528
L128853 6603
" />
<text x="188169" y="6029.01"
textLength="264.248" font-size="524.934" lengthAdjust="spacingAndGlyphs"
text-anchor="middle" opacity="0">.</text>
<path d="M188169 5972
L188187 5991
L188169 6010
L188150 5991
L188169 5972
L188169 6010
" />
<text x="188169" y="8548.69"
textLength="1576.58" font-size="524.934" lengthAdjust="spacingAndGlyphs"
text-anchor="middle" opacity="0">Val**</text>
<path d="M187456 8136
L187587 8529
L187719 8136
" />
<path d="M188019 8529
L188019 8323
L188000 8286
L187962 8267
L187887 8267
L187850 8286
" />
<path d="M188019 8511
L187981 8529
L187887 8529
L187850 8511
L187831 8473
L187831 8436
L187850 8398
L187887 8379
L187981 8379
L188019 8361
" />
<path d="M188262 8529
L188225 8511
L188206 8473
L188206 8136
" />
<path d="M188468 8136
L188468 8229
" />
<path d="M188375 8192
L188468 8229
L188562 8192
" />
<path d="M188412 8304
L188468 8229
L188525 8304
" />
<path d="M188768 8136
L188768 8229
" />
<path d="M188675 8192
L188768 8229
L188862 8192
" />
<path d="M188712 8304
L188768 8229
L188825 8304
" />
<text x="223105" y="5312.01"
textLength="1632.83" font-size="524.934" lengthAdjust="spacingAndGlyphs"
text-anchor="middle" opacity="0">Ref**</text>
<path d="M222645 5293
L222514 5105
" />
<path d="M222420 5293
L222420 4899
L222570 4899
L222608 4918
L222626 4937
L222645 4974
L222645 5030
L222626 5068
L222608 5087
L222570 5105
L222420 5105
" />
<path d="M222964 5274
L222926 5293
L222851 5293
L222814 5274
L222795 5237
L222795 5087
L222814 5049
L222851 5030
L222926 5030
L222964 5049
L222983 5087
L222983 5124
L222795 5162
" />
<path d="M223095 5030
L223245 5030
" />
<path d="M223151 5293
L223151 4955
L223170 4918
L223208 4899
L223245 4899
" />
<path d="M223433 4899
L223433 4993
" />
<path d="M223339 4955
L223433 4993
L223526 4955
" />
<path d="M223376 5068
L223433 4993
L223489 5068
" />
<path d="M223733 4899
L223733 4993
" />
<path d="M223639 4955
L223733 4993
L223826 4955
" />
<path d="M223676 5068
L223733 4993
L223789 5068
" />
<text x="223105" y="7831.69"
textLength="1576.58" font-size="524.934" lengthAdjust="spacingAndGlyphs"
text-anchor="middle" opacity="0">Val**</text>
<path d="M222392 7419
L222523 7812
L222655 7419
" />
<path d="M222955 7812
L222955 7606
L222936 7569
L222898 7550
L222823 7550
L222786 7569
" />
<path d="M222955 7794
L222917 7812
L222823 7812
L222786 7794
L222767 7756
L222767 7719
L222786 7681
L222823 7662
L222917 7662
L222955 7644
" />
<path d="M223198 7812
L223161 7794
L223142 7756
L223142 7419
" />
<path d="M223404 7419
L223404 7512
" />
<path d="M223311 7475
L223404 7512
L223498 7475
" />
<path d="M223348 7587
L223404 7512
L223461 7587
" />
<path d="M223704 7419
L223704 7512
" />
<path d="M223611 7475
L223704 7512
L223798 7475
" />
<path d="M223648 7587
L223704 7512
L223761 7587
" />
<text x="221329" y="-28359"
textLength="564.211" font-size="524.934" lengthAdjust="spacingAndGlyphs"
text-anchor="middle" opacity="0">-</text>
<path d="M221179 -28527
L221478 -28527
" />
<text x="221329" y="-25839.3"
textLength="1576.58" font-size="524.934" lengthAdjust="spacingAndGlyphs"
text-anchor="middle" opacity="0">Val**</text>
<path d="M220616 -26251
L220747 -25858
L220879 -26251
" />
<path d="M221179 -25858
L221179 -26064
L221160 -26101
L221122 -26120
L221047 -26120
L221010 -26101
" />
<path d="M221179 -25876
L221141 -25858
L221047 -25858
L221010 -25876
L220991 -25914
L220991 -25951
L221010 -25989
L221047 -26008
L221141 -26008
L221179 -26026
" />
<path d="M221422 -25858
L221385 -25876
L221366 -25914
L221366 -26251
" />
<path d="M221628 -26251
L221628 -26158
" />
<path d="M221535 -26195
L221628 -26158
L221722 -26195
" />
<path d="M221572 -26083
L221628 -26158
L221685 -26083
" />
<path d="M221928 -26251
L221928 -26158
" />
<path d="M221835 -26195
L221928 -26158
L222022 -26195
" />
<path d="M221872 -26083
L221928 -26158
L221985 -26083
" />
<text x="175037" y="-27818"
textLength="1632.83" font-size="524.934" lengthAdjust="spacingAndGlyphs"
text-anchor="middle" opacity="0">Ref**</text>
<path d="M174577 -27836
L174446 -28024
" />
<path d="M174352 -27836
L174352 -28230
L174502 -28230
L174540 -28211
L174558 -28192
L174577 -28155
L174577 -28099
L174558 -28061
L174540 -28042
L174502 -28024
L174352 -28024
" />
<path d="M174896 -27855
L174858 -27836
L174783 -27836
L174746 -27855
L174727 -27892
L174727 -28042
L174746 -28080
L174783 -28099
L174858 -28099
L174896 -28080
L174915 -28042
L174915 -28005
L174727 -27967
" />
<path d="M175027 -28099
L175177 -28099
" />
<path d="M175083 -27836
L175083 -28174
L175102 -28211
L175140 -28230
L175177 -28230
" />
<path d="M175365 -28230
L175365 -28136
" />
<path d="M175271 -28174
L175365 -28136
L175458 -28174
" />
<path d="M175308 -28061
L175365 -28136
L175421 -28061
" />
<path d="M175665 -28230
L175665 -28136
" />
<path d="M175571 -28174
L175665 -28136
L175758 -28174
" />
<path d="M175608 -28061
L175665 -28136
L175721 -28061
" />
<text x="175037" y="-25298.3"
textLength="1576.58" font-size="524.934" lengthAdjust="spacingAndGlyphs"
text-anchor="middle" opacity="0">Val**</text>
<path d="M174324 -25710
L174455 -25317
L174587 -25710
" />
<path d="M174887 -25317
L174887 -25523
L174868 -25560
L174830 -25579
L174755 -25579
L174718 -25560
" />
<path d="M174887 -25335
L174849 -25317
L174755 -25317
L174718 -25335
L174699 -25373
L174699 -25410
L174718 -25448
L174755 -25467
L174849 -25467
L174887 -25485
" />
<path d="M175130 -25317
L175093 -25335
L175074 -25373
L175074 -25710
" />
<path d="M175336 -25710
L175336 -25617
" />
<path d="M175243 -25654
L175336 -25617
L175430 -25654
" />
<path d="M175280 -25542
L175336 -25617
L175393 -25542
" />
<path d="M175636 -25710
L175636 -25617
" />
<path d="M175543 -25654
L175636 -25617
L175730 -25654
" />
<path d="M175580 -25542
L175636 -25617
L175693 -25542
" />
<text x="126798" y="-28014"
textLength="1632.83" font-size="524.934" lengthAdjust="spacingAndGlyphs"
text-anchor="middle" opacity="0">Ref**</text>
<path d="M126338 -28032
L126207 -28220
" />
<path d="M126113 -28032
L126113 -28426
L126263 -28426
L126301 -28407
L126319 -28388
L126338 -28351
L126338 -28295
L126319 -28257
L126301 -28238
L126263 -28220
L126113 -28220
" />
<path d="M126657 -28051
L126619 -28032
L126544 -28032
L126507 -28051
L126488 -28088
L126488 -28238
L126507 -28276
L126544 -28295
L126619 -28295
L126657 -28276
L126676 -28238
L126676 -28201
L126488 -28163
" />
<path d="M126788 -28295
L126938 -28295
" />
<path d="M126844 -28032
L126844 -28370
L126863 -28407
L126901 -28426
L126938 -28426
" />
<path d="M127126 -28426
L127126 -28332
" />
<path d="M127032 -28370
L127126 -28332
L127219 -28370
" />
<path d="M127069 -28257
L127126 -28332
L127182 -28257
" />
<path d="M127426 -28426
L127426 -28332
" />
<path d="M127332 -28370
L127426 -28332
L127519 -28370
" />
<path d="M127369 -28257
L127426 -28332
L127482 -28257
" />
<text x="126798" y="-25494.3"
textLength="1576.58" font-size="524.934" lengthAdjust="spacingAndGlyphs"
text-anchor="middle" opacity="0">Val**</text>
<path d="M126085 -25906
L126216 -25513
L126348 -25906
" />
<path d="M126648 -25513
L126648 -25719
L126629 -25756
L126591 -25775
L126516 -25775
L126479 -25756
" />
<path d="M126648 -25531
L126610 -25513
L126516 -25513
L126479 -25531
L126460 -25569
L126460 -25606
L126479 -25644
L126516 -25663
L126610 -25663
L126648 -25681
" />
<path d="M126891 -25513
L126854 -25531
L126835 -25569
L126835 -25906
" />
<path d="M127097 -25906
L127097 -25813
" />
<path d="M127004 -25850
L127097 -25813
L127191 -25850
" />
<path d="M127041 -25738
L127097 -25813
L127154 -25738
" />
<path d="M127397 -25906
L127397 -25813
" />
<path d="M127304 -25850
L127397 -25813
L127491 -25850
" />
<path d="M127341 -25738
L127397 -25813
L127454 -25738
" />
<g >
</g>
</g>
<g style="fill:#000000; fill-opacity:0.0; 
stroke:#000000; stroke-width:59.0551; stroke-opacity:1; 
stroke-linecap:round; stroke-linejoin:round;">
</g>
<g style="fill:#C2C200; fill-opacity:0.0; 
stroke:#C2C200; stroke-width:59.0551; stroke-opacity:1; 
stroke-linecap:round; stroke-linejoin:round;">
</g>
<g style="fill:#C2C200; fill-opacity:0.0; 
stroke:#C2C200; stroke-width:39.3701; stroke-opacity:1; 
stroke-linecap:round; stroke-linejoin:round;">
<path d="M120887 11194
L121137 11469
" />
<path d="M120887 -35524
L121226 -35819
" />
<path d="M229689 11470
L230030 11124
" />
<path d="M120887 -35525
L120887 11194
" />
<path d="M230030 11124
L230030 -35624
" />
<path d="M121139 11470
L229689 11470
" />
<path d="M230030 -35624
L229836 -35820
" />
<path d="M229836 -35820
L121232 -35820
" />
<g >
</g>
<g >
</g>
<g >
</g>
<g >
</g>
<g >
</g>
<g >
</g>
<g >
</g>
<g >
</g>
<g >
</g>
<g >
</g>
<g >
</g>
<g >
</g>
<g >
</g>
<g >
</g>
<g >
</g>
<g >
</g>
<g >
</g>
<g >
</g>
<g >
</g>
<g >
</g>
<g >
</g>
<g >
</g>
<g >
</g>
<g >
</g>
<g >
</g>
<g >
</g>
<g >
</g>
<g >
</g>
<g >
</g>
<g >
</g>
<g >
</g>
<g >
</g>
<g >
</g>
<g >
</g>
<g >
</g>
<g >
</g>
<g >
</g>
<g >
</g>
<g >
</g>
<g >
</g>
<g >
</g>
<g >
</g>
<g >
</g>
<g >
</g>
<g >
</g>
<g >
</g>
<g >
</g>
<g >
</g>
<g >
</g>
<g >
</g>
<g >
</g>
<g >
</g>
<g >
</g>
<g >
</g>
<g >
</g>
<g >
</g>
<g >
</g>
<g >
</g>
<g >
</g>
<g >
</g>
<g >
</g>
<g >
</g>
<g >
</g>
<g >
</g>
<g >
</g>
<g >
</g>
<g >
</g>
<g >
</g>
<g >
</g>
<g >
</g>
<g >
</g>
<g >
</g>
<g >
</g>
<g >
</g>
<g >
</g>
<g >
</g>
<g >
</g>
<g >
</g>
<g >
</g>
<g >
</g>
<g >
</g>
<g >
</g>
<g >
</g>
<g >
</g>
<g >
</g>
<g >
</g>
<g >
</g>
<g >
</g>
<g >
</g>
<g >
</g>
<g >
</g>
<g >
</g>
<g >
</g>
<g >
</g>
<g >
</g>
<g >
</g>
<g >
</g>
<g >
</g>
<g >
</g>
<g >
</g>
<g >
</g>
<g >
</g>
<g >
</g>
<g >
</g>
<g >
</g>
<g >
</g>
<g >
</g>
<g >
</g>
<g >
</g>
<g >
</g>
<g >
</g>
<g >
</g>
<g >
</g>
<g >
</g>
<g >
</g>
<g >
</g>
<g >
</g>
<g >
</g>
<g >
</g>
<g >
</g>
<g >
</g>
<g >
</g>
<g >
</g>
<g >
</g>
<g >
</g>
<g >
</g>
<g >
</g>
<g >
</g>
<g >
</g>
<g >
</g>
<g >
</g>
<g >
</g>
<g >
</g>
<g >
</g>
<g >
</g>
<g >
</g>
<g >
</g>
<g >
</g>
<g >
</g>
<g >
</g>
<g >
</g>
<g >
</g>
<g >
</g>
<g >
</g>
<g >
</g>
<g >
</g>
<g >
</g>
<g >
</g>
<g >
</g>
<g >
</g>
<g >
</g>
<g >
</g>
<g >
</g>
<g >
</g>
<g >
</g>
<g >
</g>
<g >
</g>
<g >
</g>
<g >
</g>
<g >
</g>
<g >
</g>
<g >
</g>
<g >
</g>
<g >
</g>
<g >
</g>
<g >
</g>
<g >
</g>
<g >
</g>
<g >
</g>
<g >
</g>
<g >
</g>
<g >
</g>
<g >
</g>
<g >
</g>
<g >
</g>
<g >
</g>
<g >
</g>
<g >
</g>
<g >
</g>
</g> 
</svg>
