<?xml version="1.0" standalone="no"?>
 <!DOCTYPE svg PUBLIC "-//W3C//DTD SVG 1.1//EN" 
 "http://www.w3.org/Graphics/SVG/1.1/DTD/svg11.dtd"> 
<svg
  xmlns:svg="http://www.w3.org/2000/svg"
  xmlns="http://www.w3.org/2000/svg"
  xmlns:xlink="http://www.w3.org/1999/xlink"
  version="1.1"
  width="29.700220cm" height="21.000720cm" viewBox="0 0 116930 82680">
<title>SVG Picture created as keyboard_v2-Dwgs_User.svg date 2020/07/16 23:46:34 </title>
  <desc>Picture generated by PCBNEW </desc>
<g style="fill:#000000; fill-opacity:1;stroke:#000000; stroke-opacity:1;
stroke-linecap:round; stroke-linejoin:round;"
 transform="translate(0 0) scale(1 1)">
</g>
<g style="fill:#000000; fill-opacity:0.0; 
stroke:#000000; stroke-width:-0.000393701; stroke-opacity:1; 
stroke-linecap:round; stroke-linejoin:round;">
</g>
<g style="fill:#000000; fill-opacity:0.0; 
stroke:#000000; stroke-width:39.3701; stroke-opacity:1; 
stroke-linecap:round; stroke-linejoin:round;">
</g>
<g style="fill:#000000; fill-opacity:0.0; 
stroke:#000000; stroke-width:59.0551; stroke-opacity:1; 
stroke-linecap:round; stroke-linejoin:round;">
<rect x="69685.9" y="65357.2" width="42519.7" height="12598.4" rx="0" />
</g>
<g style="fill:#000000; fill-opacity:0.0; 
stroke:#000000; stroke-width:39.3701; stroke-opacity:1; 
stroke-linecap:round; stroke-linejoin:round;">
</g>
<g style="fill:#000000; fill-opacity:0.0; 
stroke:#000000; stroke-width:59.0551; stroke-opacity:1; 
stroke-linecap:round; stroke-linejoin:round;">
<rect x="3937.01" y="3937.01" width="109056" height="74806" rx="0" />
</g>
<g style="fill:#000000; fill-opacity:0.0; 
stroke:#000000; stroke-width:39.3701; stroke-opacity:1; 
stroke-linecap:round; stroke-linejoin:round;">
</g>
<g style="fill:#000000; fill-opacity:0.0; 
stroke:#000000; stroke-width:59.0551; stroke-opacity:1; 
stroke-linecap:round; stroke-linejoin:round;">
<rect x="4724.41" y="4724.41" width="107481" height="73231.2" rx="0" />
</g>
<g style="fill:#000000; fill-opacity:0.0; 
stroke:#000000; stroke-width:39.3701; stroke-opacity:1; 
stroke-linecap:round; stroke-linejoin:round;">
</g>
<g style="fill:#000000; fill-opacity:0.0; 
stroke:#000000; stroke-width:59.0551; stroke-opacity:1; 
stroke-linecap:round; stroke-linejoin:round;">
<path d="M23622 4724
L23622 3937
" />
</g>
<g style="fill:#000000; fill-opacity:0.0; 
stroke:#000000; stroke-width:39.3701; stroke-opacity:1; 
stroke-linecap:round; stroke-linejoin:round;">
</g>
<g style="fill:#000000; fill-opacity:0.0; 
stroke:#000000; stroke-width:59.0551; stroke-opacity:1; 
stroke-linecap:round; stroke-linejoin:round;">
<path d="M43307 4724
L43307 3937
" />
</g>
<g style="fill:#000000; fill-opacity:0.0; 
stroke:#000000; stroke-width:39.3701; stroke-opacity:1; 
stroke-linecap:round; stroke-linejoin:round;">
</g>
<g style="fill:#000000; fill-opacity:0.0; 
stroke:#000000; stroke-width:59.0551; stroke-opacity:1; 
stroke-linecap:round; stroke-linejoin:round;">
<path d="M62992 4724
L62992 3937
" />
</g>
<g style="fill:#000000; fill-opacity:0.0; 
stroke:#000000; stroke-width:39.3701; stroke-opacity:1; 
stroke-linecap:round; stroke-linejoin:round;">
</g>
<g style="fill:#000000; fill-opacity:0.0; 
stroke:#000000; stroke-width:59.0551; stroke-opacity:1; 
stroke-linecap:round; stroke-linejoin:round;">
<path d="M82677 4724
L82677 3937
" />
</g>
<g style="fill:#000000; fill-opacity:0.0; 
stroke:#000000; stroke-width:39.3701; stroke-opacity:1; 
stroke-linecap:round; stroke-linejoin:round;">
</g>
<g style="fill:#000000; fill-opacity:0.0; 
stroke:#000000; stroke-width:59.0551; stroke-opacity:1; 
stroke-linecap:round; stroke-linejoin:round;">
<path d="M102362 4724
L102362 3937
" />
</g>
<g style="fill:#000000; fill-opacity:0.0; 
stroke:#000000; stroke-width:39.3701; stroke-opacity:1; 
stroke-linecap:round; stroke-linejoin:round;">
</g>
<g style="fill:#000000; fill-opacity:0.0; 
stroke:#000000; stroke-width:59.0551; stroke-opacity:1; 
stroke-linecap:round; stroke-linejoin:round;">
<text x="13779.5" y="4586.61"
textLength="546.494" font-size="682.415" lengthAdjust="spacingAndGlyphs"
text-anchor="start" opacity="0">1</text>
<path d="M14199 4562
L13906 4562
" />
<path d="M14052 4562
L14052 4050
L14004 4123
L13955 4172
L13906 4196
" />
</g>
<g style="fill:#000000; fill-opacity:0.0; 
stroke:#000000; stroke-width:39.3701; stroke-opacity:1; 
stroke-linecap:round; stroke-linejoin:round;">
</g>
<g style="fill:#000000; fill-opacity:0.0; 
stroke:#000000; stroke-width:59.0551; stroke-opacity:1; 
stroke-linecap:round; stroke-linejoin:round;">
<text x="33464.6" y="4586.61"
textLength="546.494" font-size="682.415" lengthAdjust="spacingAndGlyphs"
text-anchor="start" opacity="0">2</text>
<path d="M33591 4099
L33615 4074
L33664 4050
L33786 4050
L33835 4074
L33859 4099
L33884 4147
L33884 4196
L33859 4269
L33567 4562
L33884 4562
" />
</g>
<g style="fill:#000000; fill-opacity:0.0; 
stroke:#000000; stroke-width:39.3701; stroke-opacity:1; 
stroke-linecap:round; stroke-linejoin:round;">
</g>
<g style="fill:#000000; fill-opacity:0.0; 
stroke:#000000; stroke-width:59.0551; stroke-opacity:1; 
stroke-linecap:round; stroke-linejoin:round;">
<text x="53149.6" y="4586.61"
textLength="546.494" font-size="682.415" lengthAdjust="spacingAndGlyphs"
text-anchor="start" opacity="0">3</text>
<path d="M53252 4050
L53569 4050
L53398 4245
L53471 4245
L53520 4269
L53544 4294
L53569 4342
L53569 4464
L53544 4513
L53520 4537
L53471 4562
L53325 4562
L53276 4537
L53252 4513
" />
</g>
<g style="fill:#000000; fill-opacity:0.0; 
stroke:#000000; stroke-width:39.3701; stroke-opacity:1; 
stroke-linecap:round; stroke-linejoin:round;">
</g>
<g style="fill:#000000; fill-opacity:0.0; 
stroke:#000000; stroke-width:59.0551; stroke-opacity:1; 
stroke-linecap:round; stroke-linejoin:round;">
<text x="72834.6" y="4586.61"
textLength="546.494" font-size="682.415" lengthAdjust="spacingAndGlyphs"
text-anchor="start" opacity="0">4</text>
<path d="M73205 4221
L73205 4562
" />
<path d="M73083 4026
L72961 4391
L73278 4391
" />
</g>
<g style="fill:#000000; fill-opacity:0.0; 
stroke:#000000; stroke-width:39.3701; stroke-opacity:1; 
stroke-linecap:round; stroke-linejoin:round;">
</g>
<g style="fill:#000000; fill-opacity:0.0; 
stroke:#000000; stroke-width:59.0551; stroke-opacity:1; 
stroke-linecap:round; stroke-linejoin:round;">
<text x="92519.7" y="4586.61"
textLength="546.494" font-size="682.415" lengthAdjust="spacingAndGlyphs"
text-anchor="start" opacity="0">5</text>
<path d="M92914 4050
L92671 4050
L92646 4294
L92671 4269
L92719 4245
L92841 4245
L92890 4269
L92914 4294
L92939 4342
L92939 4464
L92914 4513
L92890 4537
L92841 4562
L92719 4562
L92671 4537
L92646 4513
" />
</g>
<g style="fill:#000000; fill-opacity:0.0; 
stroke:#000000; stroke-width:39.3701; stroke-opacity:1; 
stroke-linecap:round; stroke-linejoin:round;">
</g>
<g style="fill:#000000; fill-opacity:0.0; 
stroke:#000000; stroke-width:59.0551; stroke-opacity:1; 
stroke-linecap:round; stroke-linejoin:round;">
<text x="112205" y="4586.61"
textLength="546.494" font-size="682.415" lengthAdjust="spacingAndGlyphs"
text-anchor="start" opacity="0">6</text>
<path d="M112575 4050
L112477 4050
L112429 4074
L112404 4099
L112356 4172
L112331 4269
L112331 4464
L112356 4513
L112380 4537
L112429 4562
L112526 4562
L112575 4537
L112599 4513
L112624 4464
L112624 4342
L112599 4294
L112575 4269
L112526 4245
L112429 4245
L112380 4269
L112356 4294
L112331 4342
" />
</g>
<g style="fill:#000000; fill-opacity:0.0; 
stroke:#000000; stroke-width:39.3701; stroke-opacity:1; 
stroke-linecap:round; stroke-linejoin:round;">
</g>
<g style="fill:#000000; fill-opacity:0.0; 
stroke:#000000; stroke-width:59.0551; stroke-opacity:1; 
stroke-linecap:round; stroke-linejoin:round;">
<path d="M23622 77955
L23622 78742
" />
</g>
<g style="fill:#000000; fill-opacity:0.0; 
stroke:#000000; stroke-width:39.3701; stroke-opacity:1; 
stroke-linecap:round; stroke-linejoin:round;">
</g>
<g style="fill:#000000; fill-opacity:0.0; 
stroke:#000000; stroke-width:59.0551; stroke-opacity:1; 
stroke-linecap:round; stroke-linejoin:round;">
<path d="M43307 77955
L43307 78742
" />
</g>
<g style="fill:#000000; fill-opacity:0.0; 
stroke:#000000; stroke-width:39.3701; stroke-opacity:1; 
stroke-linecap:round; stroke-linejoin:round;">
</g>
<g style="fill:#000000; fill-opacity:0.0; 
stroke:#000000; stroke-width:59.0551; stroke-opacity:1; 
stroke-linecap:round; stroke-linejoin:round;">
<path d="M62992 77955
L62992 78742
" />
</g>
<g style="fill:#000000; fill-opacity:0.0; 
stroke:#000000; stroke-width:39.3701; stroke-opacity:1; 
stroke-linecap:round; stroke-linejoin:round;">
</g>
<g style="fill:#000000; fill-opacity:0.0; 
stroke:#000000; stroke-width:59.0551; stroke-opacity:1; 
stroke-linecap:round; stroke-linejoin:round;">
<path d="M82677 77955
L82677 78742
" />
</g>
<g style="fill:#000000; fill-opacity:0.0; 
stroke:#000000; stroke-width:39.3701; stroke-opacity:1; 
stroke-linecap:round; stroke-linejoin:round;">
</g>
<g style="fill:#000000; fill-opacity:0.0; 
stroke:#000000; stroke-width:59.0551; stroke-opacity:1; 
stroke-linecap:round; stroke-linejoin:round;">
<path d="M102362 77955
L102362 78742
" />
</g>
<g style="fill:#000000; fill-opacity:0.0; 
stroke:#000000; stroke-width:39.3701; stroke-opacity:1; 
stroke-linecap:round; stroke-linejoin:round;">
</g>
<g style="fill:#000000; fill-opacity:0.0; 
stroke:#000000; stroke-width:59.0551; stroke-opacity:1; 
stroke-linecap:round; stroke-linejoin:round;">
<text x="13779.5" y="78605.2"
textLength="546.494" font-size="682.415" lengthAdjust="spacingAndGlyphs"
text-anchor="start" opacity="0">1</text>
<path d="M14199 78580
L13906 78580
" />
<path d="M14052 78580
L14052 78069
L14004 78142
L13955 78190
L13906 78215
" />
</g>
<g style="fill:#000000; fill-opacity:0.0; 
stroke:#000000; stroke-width:39.3701; stroke-opacity:1; 
stroke-linecap:round; stroke-linejoin:round;">
</g>
<g style="fill:#000000; fill-opacity:0.0; 
stroke:#000000; stroke-width:59.0551; stroke-opacity:1; 
stroke-linecap:round; stroke-linejoin:round;">
<text x="33464.6" y="78605.2"
textLength="546.494" font-size="682.415" lengthAdjust="spacingAndGlyphs"
text-anchor="start" opacity="0">2</text>
<path d="M33591 78117
L33615 78093
L33664 78069
L33786 78069
L33835 78093
L33859 78117
L33884 78166
L33884 78215
L33859 78288
L33567 78580
L33884 78580
" />
</g>
<g style="fill:#000000; fill-opacity:0.0; 
stroke:#000000; stroke-width:39.3701; stroke-opacity:1; 
stroke-linecap:round; stroke-linejoin:round;">
</g>
<g style="fill:#000000; fill-opacity:0.0; 
stroke:#000000; stroke-width:59.0551; stroke-opacity:1; 
stroke-linecap:round; stroke-linejoin:round;">
<text x="53149.6" y="78605.2"
textLength="546.494" font-size="682.415" lengthAdjust="spacingAndGlyphs"
text-anchor="start" opacity="0">3</text>
<path d="M53252 78069
L53569 78069
L53398 78263
L53471 78263
L53520 78288
L53544 78312
L53569 78361
L53569 78483
L53544 78532
L53520 78556
L53471 78580
L53325 78580
L53276 78556
L53252 78532
" />
</g>
<g style="fill:#000000; fill-opacity:0.0; 
stroke:#000000; stroke-width:39.3701; stroke-opacity:1; 
stroke-linecap:round; stroke-linejoin:round;">
</g>
<g style="fill:#000000; fill-opacity:0.0; 
stroke:#000000; stroke-width:59.0551; stroke-opacity:1; 
stroke-linecap:round; stroke-linejoin:round;">
<text x="72834.6" y="78605.2"
textLength="546.494" font-size="682.415" lengthAdjust="spacingAndGlyphs"
text-anchor="start" opacity="0">4</text>
<path d="M73205 78239
L73205 78580
" />
<path d="M73083 78044
L72961 78410
L73278 78410
" />
</g>
<g style="fill:#000000; fill-opacity:0.0; 
stroke:#000000; stroke-width:39.3701; stroke-opacity:1; 
stroke-linecap:round; stroke-linejoin:round;">
</g>
<g style="fill:#000000; fill-opacity:0.0; 
stroke:#000000; stroke-width:59.0551; stroke-opacity:1; 
stroke-linecap:round; stroke-linejoin:round;">
<text x="92519.7" y="78605.2"
textLength="546.494" font-size="682.415" lengthAdjust="spacingAndGlyphs"
text-anchor="start" opacity="0">5</text>
<path d="M92914 78069
L92671 78069
L92646 78312
L92671 78288
L92719 78263
L92841 78263
L92890 78288
L92914 78312
L92939 78361
L92939 78483
L92914 78532
L92890 78556
L92841 78580
L92719 78580
L92671 78556
L92646 78532
" />
</g>
<g style="fill:#000000; fill-opacity:0.0; 
stroke:#000000; stroke-width:39.3701; stroke-opacity:1; 
stroke-linecap:round; stroke-linejoin:round;">
</g>
<g style="fill:#000000; fill-opacity:0.0; 
stroke:#000000; stroke-width:59.0551; stroke-opacity:1; 
stroke-linecap:round; stroke-linejoin:round;">
<text x="112205" y="78605.2"
textLength="546.494" font-size="682.415" lengthAdjust="spacingAndGlyphs"
text-anchor="start" opacity="0">6</text>
<path d="M112575 78069
L112477 78069
L112429 78093
L112404 78117
L112356 78190
L112331 78288
L112331 78483
L112356 78532
L112380 78556
L112429 78580
L112526 78580
L112575 78556
L112599 78532
L112624 78483
L112624 78361
L112599 78312
L112575 78288
L112526 78263
L112429 78263
L112380 78288
L112356 78312
L112331 78361
" />
</g>
<g style="fill:#000000; fill-opacity:0.0; 
stroke:#000000; stroke-width:39.3701; stroke-opacity:1; 
stroke-linecap:round; stroke-linejoin:round;">
</g>
<g style="fill:#000000; fill-opacity:0.0; 
stroke:#000000; stroke-width:59.0551; stroke-opacity:1; 
stroke-linecap:round; stroke-linejoin:round;">
<path d="M3937 23622
L4724 23622
" />
</g>
<g style="fill:#000000; fill-opacity:0.0; 
stroke:#000000; stroke-width:39.3701; stroke-opacity:1; 
stroke-linecap:round; stroke-linejoin:round;">
</g>
<g style="fill:#000000; fill-opacity:0.0; 
stroke:#000000; stroke-width:59.0551; stroke-opacity:1; 
stroke-linecap:round; stroke-linejoin:round;">
<path d="M3937 43307
L4724 43307
" />
</g>
<g style="fill:#000000; fill-opacity:0.0; 
stroke:#000000; stroke-width:39.3701; stroke-opacity:1; 
stroke-linecap:round; stroke-linejoin:round;">
</g>
<g style="fill:#000000; fill-opacity:0.0; 
stroke:#000000; stroke-width:59.0551; stroke-opacity:1; 
stroke-linecap:round; stroke-linejoin:round;">
<path d="M3937 62992
L4724 62992
" />
</g>
<g style="fill:#000000; fill-opacity:0.0; 
stroke:#000000; stroke-width:39.3701; stroke-opacity:1; 
stroke-linecap:round; stroke-linejoin:round;">
</g>
<g style="fill:#000000; fill-opacity:0.0; 
stroke:#000000; stroke-width:59.0551; stroke-opacity:1; 
stroke-linecap:round; stroke-linejoin:round;">
<text x="4330.71" y="14035.4"
textLength="497.75" font-size="682.415" lengthAdjust="spacingAndGlyphs"
text-anchor="middle" opacity="0">A</text>
<path d="M4208 13864
L4452 13864
" />
<path d="M4160 14011
L4330 13499
L4501 14011
" />
</g>
<g style="fill:#000000; fill-opacity:0.0; 
stroke:#000000; stroke-width:39.3701; stroke-opacity:1; 
stroke-linecap:round; stroke-linejoin:round;">
</g>
<g style="fill:#000000; fill-opacity:0.0; 
stroke:#000000; stroke-width:59.0551; stroke-opacity:1; 
stroke-linecap:round; stroke-linejoin:round;">
<text x="4330.71" y="33720.5"
textLength="570.866" font-size="682.415" lengthAdjust="spacingAndGlyphs"
text-anchor="middle" opacity="0">B</text>
<path d="M4367 33428
L4440 33452
L4464 33476
L4489 33525
L4489 33598
L4464 33647
L4440 33671
L4391 33696
L4196 33696
L4196 33184
L4367 33184
L4416 33208
L4440 33233
L4464 33281
L4464 33330
L4440 33379
L4416 33403
L4367 33428
L4196 33428
" />
</g>
<g style="fill:#000000; fill-opacity:0.0; 
stroke:#000000; stroke-width:39.3701; stroke-opacity:1; 
stroke-linecap:round; stroke-linejoin:round;">
</g>
<g style="fill:#000000; fill-opacity:0.0; 
stroke:#000000; stroke-width:59.0551; stroke-opacity:1; 
stroke-linecap:round; stroke-linejoin:round;">
<text x="4330.71" y="53405.5"
textLength="570.866" font-size="682.415" lengthAdjust="spacingAndGlyphs"
text-anchor="middle" opacity="0">C</text>
<path d="M4489 53332
L4464 53356
L4391 53381
L4342 53381
L4269 53356
L4221 53308
L4196 53259
L4172 53161
L4172 53088
L4196 52991
L4221 52942
L4269 52893
L4342 52869
L4391 52869
L4464 52893
L4489 52918
" />
</g>
<g style="fill:#000000; fill-opacity:0.0; 
stroke:#000000; stroke-width:39.3701; stroke-opacity:1; 
stroke-linecap:round; stroke-linejoin:round;">
</g>
<g style="fill:#000000; fill-opacity:0.0; 
stroke:#000000; stroke-width:59.0551; stroke-opacity:1; 
stroke-linecap:round; stroke-linejoin:round;">
<text x="4330.71" y="73090.6"
textLength="570.866" font-size="682.415" lengthAdjust="spacingAndGlyphs"
text-anchor="middle" opacity="0">D</text>
<path d="M4196 73066
L4196 72554
L4318 72554
L4391 72578
L4440 72627
L4464 72676
L4489 72773
L4489 72846
L4464 72944
L4440 72993
L4391 73041
L4318 73066
L4196 73066
" />
</g>
<g style="fill:#000000; fill-opacity:0.0; 
stroke:#000000; stroke-width:39.3701; stroke-opacity:1; 
stroke-linecap:round; stroke-linejoin:round;">
</g>
<g style="fill:#000000; fill-opacity:0.0; 
stroke:#000000; stroke-width:59.0551; stroke-opacity:1; 
stroke-linecap:round; stroke-linejoin:round;">
<path d="M112992 23622
L112205 23622
" />
</g>
<g style="fill:#000000; fill-opacity:0.0; 
stroke:#000000; stroke-width:39.3701; stroke-opacity:1; 
stroke-linecap:round; stroke-linejoin:round;">
</g>
<g style="fill:#000000; fill-opacity:0.0; 
stroke:#000000; stroke-width:59.0551; stroke-opacity:1; 
stroke-linecap:round; stroke-linejoin:round;">
<path d="M112992 43307
L112205 43307
" />
</g>
<g style="fill:#000000; fill-opacity:0.0; 
stroke:#000000; stroke-width:39.3701; stroke-opacity:1; 
stroke-linecap:round; stroke-linejoin:round;">
</g>
<g style="fill:#000000; fill-opacity:0.0; 
stroke:#000000; stroke-width:59.0551; stroke-opacity:1; 
stroke-linecap:round; stroke-linejoin:round;">
<path d="M112992 62992
L112205 62992
" />
</g>
<g style="fill:#000000; fill-opacity:0.0; 
stroke:#000000; stroke-width:39.3701; stroke-opacity:1; 
stroke-linecap:round; stroke-linejoin:round;">
</g>
<g style="fill:#000000; fill-opacity:0.0; 
stroke:#000000; stroke-width:59.0551; stroke-opacity:1; 
stroke-linecap:round; stroke-linejoin:round;">
<text x="112599" y="14035.4"
textLength="497.75" font-size="682.415" lengthAdjust="spacingAndGlyphs"
text-anchor="middle" opacity="0">A</text>
<path d="M112477 13864
L112721 13864
" />
<path d="M112428 14011
L112599 13499
L112769 14011
" />
</g>
<g style="fill:#000000; fill-opacity:0.0; 
stroke:#000000; stroke-width:39.3701; stroke-opacity:1; 
stroke-linecap:round; stroke-linejoin:round;">
</g>
<g style="fill:#000000; fill-opacity:0.0; 
stroke:#000000; stroke-width:59.0551; stroke-opacity:1; 
stroke-linecap:round; stroke-linejoin:round;">
<text x="112599" y="33720.5"
textLength="570.866" font-size="682.415" lengthAdjust="spacingAndGlyphs"
text-anchor="middle" opacity="0">B</text>
<path d="M112635 33428
L112708 33452
L112733 33476
L112757 33525
L112757 33598
L112733 33647
L112708 33671
L112660 33696
L112465 33696
L112465 33184
L112635 33184
L112684 33208
L112708 33233
L112733 33281
L112733 33330
L112708 33379
L112684 33403
L112635 33428
L112465 33428
" />
</g>
<g style="fill:#000000; fill-opacity:0.0; 
stroke:#000000; stroke-width:39.3701; stroke-opacity:1; 
stroke-linecap:round; stroke-linejoin:round;">
</g>
<g style="fill:#000000; fill-opacity:0.0; 
stroke:#000000; stroke-width:59.0551; stroke-opacity:1; 
stroke-linecap:round; stroke-linejoin:round;">
<text x="112599" y="53405.5"
textLength="570.866" font-size="682.415" lengthAdjust="spacingAndGlyphs"
text-anchor="middle" opacity="0">C</text>
<path d="M112757 53332
L112733 53356
L112660 53381
L112611 53381
L112538 53356
L112489 53308
L112465 53259
L112440 53161
L112440 53088
L112465 52991
L112489 52942
L112538 52893
L112611 52869
L112660 52869
L112733 52893
L112757 52918
" />
</g>
<g style="fill:#000000; fill-opacity:0.0; 
stroke:#000000; stroke-width:39.3701; stroke-opacity:1; 
stroke-linecap:round; stroke-linejoin:round;">
</g>
<g style="fill:#000000; fill-opacity:0.0; 
stroke:#000000; stroke-width:59.0551; stroke-opacity:1; 
stroke-linecap:round; stroke-linejoin:round;">
<text x="112599" y="73090.6"
textLength="570.866" font-size="682.415" lengthAdjust="spacingAndGlyphs"
text-anchor="middle" opacity="0">D</text>
<path d="M112465 73066
L112465 72554
L112587 72554
L112660 72578
L112708 72627
L112733 72676
L112757 72773
L112757 72846
L112733 72944
L112708 72993
L112660 73041
L112587 73066
L112465 73066
" />
</g>
<g style="fill:#000000; fill-opacity:0.0; 
stroke:#000000; stroke-width:39.3701; stroke-opacity:1; 
stroke-linecap:round; stroke-linejoin:round;">
</g>
<g style="fill:#000000; fill-opacity:0.0; 
stroke:#000000; stroke-width:59.0551; stroke-opacity:1; 
stroke-linecap:round; stroke-linejoin:round;">
<text x="78741" y="76321.7"
textLength="2758.72" font-size="787.402" lengthAdjust="spacingAndGlyphs"
text-anchor="start" opacity="0">Date: </text>
<path d="M78911 76293
L78911 75703
L79051 75703
L79136 75731
L79192 75787
L79220 75843
L79248 75956
L79248 76040
L79220 76153
L79192 76209
L79136 76265
L79051 76293
L78911 76293
" />
<path d="M79754 76293
L79754 75984
L79726 75928
L79670 75899
L79557 75899
L79501 75928
" />
<path d="M79754 76265
L79698 76293
L79557 76293
L79501 76265
L79473 76209
L79473 76153
L79501 76096
L79557 76068
L79698 76068
L79754 76040
" />
<path d="M79951 75899
L80176 75899
" />
<path d="M80036 75703
L80036 76209
L80064 76265
L80120 76293
L80176 76293
" />
<path d="M80598 76265
L80542 76293
L80429 76293
L80373 76265
L80345 76209
L80345 75984
L80373 75928
L80429 75899
L80542 75899
L80598 75928
L80626 75984
L80626 76040
L80345 76096
" />
<path d="M80879 76237
L80907 76265
L80879 76293
L80851 76265
L80879 76237
L80879 76293
" />
<path d="M80879 75928
L80907 75956
L80879 75984
L80851 75956
L80879 75928
L80879 75984
" />
</g>
<g style="fill:#000000; fill-opacity:0.0; 
stroke:#000000; stroke-width:39.3701; stroke-opacity:1; 
stroke-linecap:round; stroke-linejoin:round;">
</g>
<g style="fill:#000000; fill-opacity:0.0; 
stroke:#000000; stroke-width:59.0551; stroke-opacity:1; 
stroke-linecap:round; stroke-linejoin:round;">
<path d="M69685 76577
L112205 76577
" />
</g>
<g style="fill:#000000; fill-opacity:0.0; 
stroke:#000000; stroke-width:39.3701; stroke-opacity:1; 
stroke-linecap:round; stroke-linejoin:round;">
</g>
<g style="fill:#000000; fill-opacity:0.0; 
stroke:#000000; stroke-width:59.0551; stroke-opacity:1; 
stroke-linecap:round; stroke-linejoin:round;">
<text x="70079.6" y="77424.1"
textLength="13529.2" font-size="787.402" lengthAdjust="spacingAndGlyphs"
text-anchor="start" opacity="0">KiCad E.D.A.  kicad (5.1.6)-1</text>
<path d="M70249 77395
L70249 76805
" />
<path d="M70587 77395
L70334 77058
" />
<path d="M70587 76805
L70249 77142
" />
<path d="M70840 77395
L70840 77002
" />
<path d="M70840 76805
L70812 76833
L70840 76861
L70868 76833
L70840 76805
L70840 76861
" />
<path d="M71458 77339
L71430 77367
L71346 77395
L71290 77395
L71205 77367
L71149 77311
L71121 77255
L71093 77142
L71093 77058
L71121 76946
L71149 76889
L71205 76833
L71290 76805
L71346 76805
L71430 76833
L71458 76861
" />
<path d="M71965 77395
L71965 77086
L71937 77030
L71880 77002
L71768 77002
L71712 77030
" />
<path d="M71965 77367
L71908 77395
L71768 77395
L71712 77367
L71683 77311
L71683 77255
L71712 77199
L71768 77171
L71908 77171
L71965 77142
" />
<path d="M72499 77395
L72499 76805
" />
<path d="M72499 77367
L72443 77395
L72330 77395
L72274 77367
L72246 77339
L72218 77283
L72218 77114
L72246 77058
L72274 77030
L72330 77002
L72443 77002
L72499 77030
" />
<path d="M73230 77086
L73427 77086
" />
<path d="M73511 77395
L73230 77395
L73230 76805
L73511 76805
" />
<path d="M73764 77339
L73793 77367
L73764 77395
L73736 77367
L73764 77339
L73764 77395
" />
<path d="M74046 77395
L74046 76805
L74186 76805
L74271 76833
L74327 76889
L74355 76946
L74383 77058
L74383 77142
L74355 77255
L74327 77311
L74271 77367
L74186 77395
L74046 77395
" />
<path d="M74636 77339
L74664 77367
L74636 77395
L74608 77367
L74636 77339
L74636 77395
" />
<path d="M74889 77227
L75171 77227
" />
<path d="M74833 77395
L75030 76805
L75227 77395
" />
<path d="M75424 77339
L75452 77367
L75424 77395
L75395 77367
L75424 77339
L75424 77395
" />
<path d="M76605 77395
L76605 76805
" />
<path d="M76661 77171
L76830 77395
" />
<path d="M76830 77002
L76605 77227
" />
<path d="M77083 77395
L77083 77002
" />
<path d="M77083 76805
L77055 76833
L77083 76861
L77111 76833
L77083 76805
L77083 76861
" />
<path d="M77617 77367
L77561 77395
L77448 77395
L77392 77367
L77364 77339
L77336 77283
L77336 77114
L77364 77058
L77392 77030
L77448 77002
L77561 77002
L77617 77030
" />
<path d="M78123 77395
L78123 77086
L78095 77030
L78039 77002
L77926 77002
L77870 77030
" />
<path d="M78123 77367
L78067 77395
L77926 77395
L77870 77367
L77842 77311
L77842 77255
L77870 77199
L77926 77171
L78067 77171
L78123 77142
" />
<path d="M78658 77395
L78658 76805
" />
<path d="M78658 77367
L78601 77395
L78489 77395
L78433 77367
L78404 77339
L78376 77283
L78376 77114
L78404 77058
L78433 77030
L78489 77002
L78601 77002
L78658 77030
" />
<path d="M79557 77620
L79529 77592
L79473 77508
L79445 77452
L79417 77367
L79389 77227
L79389 77114
L79417 76974
L79445 76889
L79473 76833
L79529 76749
L79557 76721
" />
<path d="M80064 76805
L79782 76805
L79754 77086
L79782 77058
L79839 77030
L79979 77030
L80036 77058
L80064 77086
L80092 77142
L80092 77283
L80064 77339
L80036 77367
L79979 77395
L79839 77395
L79782 77367
L79754 77339
" />
<path d="M80345 77339
L80373 77367
L80345 77395
L80317 77367
L80345 77339
L80345 77395
" />
<path d="M80935 77395
L80598 77395
" />
<path d="M80767 77395
L80767 76805
L80710 76889
L80654 76946
L80598 76974
" />
<path d="M81188 77339
L81217 77367
L81188 77395
L81160 77367
L81188 77339
L81188 77395
" />
<path d="M81723 76805
L81610 76805
L81554 76833
L81526 76861
L81470 76946
L81442 77058
L81442 77283
L81470 77339
L81498 77367
L81554 77395
L81667 77395
L81723 77367
L81751 77339
L81779 77283
L81779 77142
L81751 77086
L81723 77058
L81667 77030
L81554 77030
L81498 77058
L81470 77086
L81442 77142
" />
<path d="M81976 77620
L82004 77592
L82060 77508
L82088 77452
L82117 77367
L82145 77227
L82145 77114
L82117 76974
L82088 76889
L82060 76833
L82004 76749
L81976 76721
" />
<path d="M82426 77171
L82876 77171
" />
<path d="M83466 77395
L83129 77395
" />
<path d="M83298 77395
L83298 76805
L83241 76889
L83185 76946
L83129 76974
" />
</g>
<g style="fill:#000000; fill-opacity:0.0; 
stroke:#000000; stroke-width:39.3701; stroke-opacity:1; 
stroke-linecap:round; stroke-linejoin:round;">
</g>
<g style="fill:#000000; fill-opacity:0.0; 
stroke:#000000; stroke-width:59.0551; stroke-opacity:1; 
stroke-linecap:round; stroke-linejoin:round;">
<path d="M69685 75396
L112205 75396
" />
</g>
<g style="fill:#000000; fill-opacity:0.0; 
stroke:#000000; stroke-width:39.3701; stroke-opacity:1; 
stroke-linecap:round; stroke-linejoin:round;">
</g>
<g style="fill:#000000; fill-opacity:0.0; 
stroke:#000000; stroke-width:118.11; stroke-opacity:1; 
stroke-linecap:round; stroke-linejoin:round;">
<text x="103544" y="76321.7"
textLength="2336.9" font-size="787.402" lengthAdjust="spacingAndGlyphs"
text-anchor="start" opacity="0">Rev: </text>
<path d="M104099 76293
L103902 76012
" />
<path d="M103761 76293
L103761 75703
L103986 75703
L104042 75731
L104070 75759
L104099 75815
L104099 75899
L104070 75956
L104042 75984
L103986 76012
L103761 76012
" />
<path d="M104577 76265
L104520 76293
L104408 76293
L104352 76265
L104323 76209
L104323 75984
L104352 75928
L104408 75899
L104520 75899
L104577 75928
L104605 75984
L104605 76040
L104323 76096
" />
<path d="M104802 75899
L104942 76293
L105083 75899
" />
<path d="M105308 76237
L105336 76265
L105308 76293
L105280 76265
L105308 76237
L105308 76293
" />
<path d="M105308 75928
L105336 75956
L105308 75984
L105280 75956
L105308 75928
L105308 75984
" />
</g>
<g style="fill:#000000; fill-opacity:0.0; 
stroke:#000000; stroke-width:39.3701; stroke-opacity:1; 
stroke-linecap:round; stroke-linejoin:round;">
</g>
<g style="fill:#000000; fill-opacity:0.0; 
stroke:#000000; stroke-width:59.0551; stroke-opacity:1; 
stroke-linecap:round; stroke-linejoin:round;">
<text x="70079.6" y="76321.7"
textLength="3781.21" font-size="787.402" lengthAdjust="spacingAndGlyphs"
text-anchor="start" opacity="0">Size: A4</text>
<path d="M70221 76265
L70305 76293
L70446 76293
L70502 76265
L70530 76237
L70559 76181
L70559 76124
L70530 76068
L70502 76040
L70446 76012
L70334 75984
L70277 75956
L70249 75928
L70221 75871
L70221 75815
L70249 75759
L70277 75731
L70334 75703
L70474 75703
L70559 75731
" />
<path d="M70812 76293
L70812 75899
" />
<path d="M70812 75703
L70784 75731
L70812 75759
L70840 75731
L70812 75703
L70812 75759
" />
<path d="M71037 75899
L71346 75899
L71037 76293
L71346 76293
" />
<path d="M71796 76265
L71740 76293
L71627 76293
L71571 76265
L71543 76209
L71543 75984
L71571 75928
L71627 75899
L71740 75899
L71796 75928
L71824 75984
L71824 76040
L71543 76096
" />
<path d="M72077 76237
L72105 76265
L72077 76293
L72049 76265
L72077 76237
L72077 76293
" />
<path d="M72077 75928
L72105 75956
L72077 75984
L72049 75956
L72077 75928
L72077 75984
" />
<path d="M72780 76124
L73061 76124
" />
<path d="M72724 76293
L72921 75703
L73118 76293
" />
<path d="M73568 75899
L73568 76293
" />
<path d="M73427 75674
L73286 76096
L73652 76096
" />
</g>
<g style="fill:#000000; fill-opacity:0.0; 
stroke:#000000; stroke-width:39.3701; stroke-opacity:1; 
stroke-linecap:round; stroke-linejoin:round;">
</g>
<g style="fill:#000000; fill-opacity:0.0; 
stroke:#000000; stroke-width:59.0551; stroke-opacity:1; 
stroke-linecap:round; stroke-linejoin:round;">
<text x="103544" y="77424.1"
textLength="3349.27" font-size="787.402" lengthAdjust="spacingAndGlyphs"
text-anchor="start" opacity="0">Id: 1/1</text>
<path d="M103714 77395
L103714 76805
" />
<path d="M104248 77395
L104248 76805
" />
<path d="M104248 77367
L104192 77395
L104079 77395
L104023 77367
L103995 77339
L103967 77283
L103967 77114
L103995 77058
L104023 77030
L104079 77002
L104192 77002
L104248 77030
" />
<path d="M104529 77339
L104557 77367
L104529 77395
L104501 77367
L104529 77339
L104529 77395
" />
<path d="M104529 77030
L104557 77058
L104529 77086
L104501 77058
L104529 77030
L104529 77086
" />
<path d="M105570 77395
L105232 77395
" />
<path d="M105401 77395
L105401 76805
L105345 76889
L105289 76946
L105232 76974
" />
<path d="M106245 76777
L105739 77536
" />
<path d="M106751 77395
L106413 77395
" />
<path d="M106582 77395
L106582 76805
L106526 76889
L106470 76946
L106413 76974
" />
</g>
<g style="fill:#000000; fill-opacity:0.0; 
stroke:#000000; stroke-width:39.3701; stroke-opacity:1; 
stroke-linecap:round; stroke-linejoin:round;">
</g>
<g style="fill:#000000; fill-opacity:0.0; 
stroke:#000000; stroke-width:59.0551; stroke-opacity:1; 
stroke-linecap:round; stroke-linejoin:round;">
<path d="M69685 73821
L112205 73821
" />
</g>
<g style="fill:#000000; fill-opacity:0.0; 
stroke:#000000; stroke-width:39.3701; stroke-opacity:1; 
stroke-linecap:round; stroke-linejoin:round;">
</g>
<g style="fill:#000000; fill-opacity:0.0; 
stroke:#000000; stroke-width:157.48; stroke-opacity:1; 
stroke-linecap:round; stroke-linejoin:round;">
<text x="70079.6" y="74924.1"
textLength="3701.14" font-size="1049.87" lengthAdjust="spacingAndGlyphs"
text-anchor="start" opacity="0">Title: </text>
<path d="M70360 74099
L70810 74099
" />
<path d="M70486 74886
L70585 74099
" />
<path d="M70974 74886
L71039 74361
" />
<path d="M71072 74099
L71030 74136
L71063 74174
L71105 74136
L71072 74099
L71063 74174
" />
<path d="M71302 74361
L71602 74361
" />
<path d="M71447 74099
L71363 74774
L71391 74849
L71461 74886
L71536 74886
" />
<path d="M71911 74886
L71841 74849
L71813 74774
L71897 74099
" />
<path d="M72516 74849
L72436 74886
L72286 74886
L72216 74849
L72187 74774
L72225 74474
L72272 74399
L72352 74361
L72501 74361
L72572 74399
L72600 74474
L72591 74549
L72206 74624
" />
<path d="M72895 74811
L72928 74849
L72886 74886
L72853 74849
L72895 74811
L72886 74886
" />
<path d="M72947 74399
L72980 74436
L72937 74474
L72905 74436
L72947 74399
L72937 74474
" />
</g>
<g style="fill:#000000; fill-opacity:0.0; 
stroke:#000000; stroke-width:39.3701; stroke-opacity:1; 
stroke-linecap:round; stroke-linejoin:round;">
</g>
<g style="fill:#000000; fill-opacity:0.0; 
stroke:#000000; stroke-width:59.0551; stroke-opacity:1; 
stroke-linecap:round; stroke-linejoin:round;">
<text x="70079.6" y="73408.3"
textLength="12578.2" font-size="787.402" lengthAdjust="spacingAndGlyphs"
text-anchor="start" opacity="0">File: keyboard_v2.kicad_pcb</text>
<path d="M70446 73070
L70249 73070
" />
<path d="M70249 73380
L70249 72789
L70530 72789
" />
<path d="M70755 73380
L70755 72986
" />
<path d="M70755 72789
L70727 72817
L70755 72845
L70784 72817
L70755 72789
L70755 72845
" />
<path d="M71121 73380
L71065 73352
L71037 73295
L71037 72789
" />
<path d="M71571 73352
L71515 73380
L71402 73380
L71346 73352
L71318 73295
L71318 73070
L71346 73014
L71402 72986
L71515 72986
L71571 73014
L71599 73070
L71599 73127
L71318 73183
" />
<path d="M71852 73323
L71880 73352
L71852 73380
L71824 73352
L71852 73323
L71852 73380
" />
<path d="M71852 73014
L71880 73042
L71852 73070
L71824 73042
L71852 73014
L71852 73070
" />
<path d="M72583 73380
L72583 72789
" />
<path d="M72640 73155
L72808 73380
" />
<path d="M72808 72986
L72583 73211
" />
<path d="M73286 73352
L73230 73380
L73118 73380
L73061 73352
L73033 73295
L73033 73070
L73061 73014
L73118 72986
L73230 72986
L73286 73014
L73314 73070
L73314 73127
L73033 73183
" />
<path d="M73511 72986
L73652 73380
" />
<path d="M73793 72986
L73652 73380
L73596 73520
L73568 73548
L73511 73577
" />
<path d="M74018 73380
L74018 72789
" />
<path d="M74018 73014
L74074 72986
L74186 72986
L74242 73014
L74271 73042
L74299 73099
L74299 73267
L74271 73323
L74242 73352
L74186 73380
L74074 73380
L74018 73352
" />
<path d="M74636 73380
L74580 73352
L74552 73323
L74524 73267
L74524 73099
L74552 73042
L74580 73014
L74636 72986
L74721 72986
L74777 73014
L74805 73042
L74833 73099
L74833 73267
L74805 73323
L74777 73352
L74721 73380
L74636 73380
" />
<path d="M75339 73380
L75339 73070
L75311 73014
L75255 72986
L75142 72986
L75086 73014
" />
<path d="M75339 73352
L75283 73380
L75142 73380
L75086 73352
L75058 73295
L75058 73239
L75086 73183
L75142 73155
L75283 73155
L75339 73127
" />
<path d="M75620 73380
L75620 72986
" />
<path d="M75620 73099
L75649 73042
L75677 73014
L75733 72986
L75789 72986
" />
<path d="M76239 73380
L76239 72789
" />
<path d="M76239 73352
L76183 73380
L76070 73380
L76014 73352
L75986 73323
L75958 73267
L75958 73099
L75986 73042
L76014 73014
L76070 72986
L76183 72986
L76239 73014
" />
<path d="M76380 73436
L76830 73436
" />
<path d="M76914 72986
L77055 73380
L77195 72986
" />
<path d="M77392 72845
L77420 72817
L77476 72789
L77617 72789
L77673 72817
L77701 72845
L77730 72902
L77730 72958
L77701 73042
L77364 73380
L77730 73380
" />
<path d="M77983 73323
L78011 73352
L77983 73380
L77955 73352
L77983 73323
L77983 73380
" />
<path d="M78264 73380
L78264 72789
" />
<path d="M78320 73155
L78489 73380
" />
<path d="M78489 72986
L78264 73211
" />
<path d="M78742 73380
L78742 72986
" />
<path d="M78742 72789
L78714 72817
L78742 72845
L78770 72817
L78742 72789
L78742 72845
" />
<path d="M79276 73352
L79220 73380
L79108 73380
L79051 73352
L79023 73323
L78995 73267
L78995 73099
L79023 73042
L79051 73014
L79108 72986
L79220 72986
L79276 73014
" />
<path d="M79782 73380
L79782 73070
L79754 73014
L79698 72986
L79586 72986
L79529 73014
" />
<path d="M79782 73352
L79726 73380
L79586 73380
L79529 73352
L79501 73295
L79501 73239
L79529 73183
L79586 73155
L79726 73155
L79782 73127
" />
<path d="M80317 73380
L80317 72789
" />
<path d="M80317 73352
L80260 73380
L80148 73380
L80092 73352
L80064 73323
L80036 73267
L80036 73099
L80064 73042
L80092 73014
L80148 72986
L80260 72986
L80317 73014
" />
<path d="M80457 73436
L80907 73436
" />
<path d="M81048 72986
L81048 73577
" />
<path d="M81048 73014
L81104 72986
L81217 72986
L81273 73014
L81301 73042
L81329 73099
L81329 73267
L81301 73323
L81273 73352
L81217 73380
L81104 73380
L81048 73352
" />
<path d="M81835 73352
L81779 73380
L81667 73380
L81610 73352
L81582 73323
L81554 73267
L81554 73099
L81582 73042
L81610 73014
L81667 72986
L81779 72986
L81835 73014
" />
<path d="M82088 73380
L82088 72789
" />
<path d="M82088 73014
L82145 72986
L82257 72986
L82313 73014
L82341 73042
L82370 73099
L82370 73267
L82341 73323
L82313 73352
L82257 73380
L82145 73380
L82088 73352
" />
</g>
<g style="fill:#000000; fill-opacity:0.0; 
stroke:#000000; stroke-width:39.3701; stroke-opacity:1; 
stroke-linecap:round; stroke-linejoin:round;">
</g>
<g style="fill:#000000; fill-opacity:0.0; 
stroke:#000000; stroke-width:59.0551; stroke-opacity:1; 
stroke-linecap:round; stroke-linejoin:round;">
<path d="M69685 71459
L112205 71459
" />
</g>
<g style="fill:#000000; fill-opacity:0.0; 
stroke:#000000; stroke-width:39.3701; stroke-opacity:1; 
stroke-linecap:round; stroke-linejoin:round;">
</g>
<g style="fill:#000000; fill-opacity:0.0; 
stroke:#000000; stroke-width:59.0551; stroke-opacity:1; 
stroke-linecap:round; stroke-linejoin:round;">
<text x="70079.6" y="72345.4"
textLength="3236.78" font-size="787.402" lengthAdjust="spacingAndGlyphs"
text-anchor="start" opacity="0">Sheet: </text>
<path d="M70221 72289
L70305 72317
L70446 72317
L70502 72289
L70530 72260
L70559 72204
L70559 72148
L70530 72092
L70502 72064
L70446 72036
L70334 72007
L70277 71979
L70249 71951
L70221 71895
L70221 71839
L70249 71782
L70277 71754
L70334 71726
L70474 71726
L70559 71754
" />
<path d="M70812 72317
L70812 71726
" />
<path d="M71065 72317
L71065 72007
L71037 71951
L70980 71923
L70896 71923
L70840 71951
L70812 71979
" />
<path d="M71571 72289
L71515 72317
L71402 72317
L71346 72289
L71318 72232
L71318 72007
L71346 71951
L71402 71923
L71515 71923
L71571 71951
L71599 72007
L71599 72064
L71318 72120
" />
<path d="M72077 72289
L72021 72317
L71908 72317
L71852 72289
L71824 72232
L71824 72007
L71852 71951
L71908 71923
L72021 71923
L72077 71951
L72105 72007
L72105 72064
L71824 72120
" />
<path d="M72274 71923
L72499 71923
" />
<path d="M72358 71726
L72358 72232
L72386 72289
L72443 72317
L72499 72317
" />
<path d="M72696 72260
L72724 72289
L72696 72317
L72668 72289
L72696 72260
L72696 72317
" />
<path d="M72696 71951
L72724 71979
L72696 72007
L72668 71979
L72696 71951
L72696 72007
" />
</g>
<g style="fill:#000000; fill-opacity:0.0; 
stroke:#000000; stroke-width:39.3701; stroke-opacity:1; 
stroke-linecap:round; stroke-linejoin:round;">
</g>
<g style="fill:#000000; fill-opacity:0.0; 
stroke:#000000; stroke-width:59.0551; stroke-opacity:1; 
stroke-linecap:round; stroke-linejoin:round;">
<path d="M77559 75396
L77559 76577
" />
</g>
<g style="fill:#000000; fill-opacity:0.0; 
stroke:#000000; stroke-width:39.3701; stroke-opacity:1; 
stroke-linecap:round; stroke-linejoin:round;">
</g>
<g style="fill:#000000; fill-opacity:0.0; 
stroke:#000000; stroke-width:59.0551; stroke-opacity:1; 
stroke-linecap:round; stroke-linejoin:round;">
<path d="M102756 75396
L102756 77955
" />
</g>
<g style="fill:#C2C2C2; fill-opacity:0.0; 
stroke:#C2C2C2; stroke-width:59.0551; stroke-opacity:1; 
stroke-linecap:round; stroke-linejoin:round;">
</g>
<g style="fill:#C2C2C2; fill-opacity:0.0; 
stroke:#C2C2C2; stroke-width:0.787402; stroke-opacity:1; 
stroke-linecap:round; stroke-linejoin:round;">
<path d="M107147 43111
L107147 44095
" />
</g>
<g style="fill:#C2C2C2; fill-opacity:0.0; 
stroke:#C2C2C2; stroke-width:78.7402; stroke-opacity:1; 
stroke-linecap:round; stroke-linejoin:round;">
<path d="M107186 43132
L107186 44405
" />
<path d="M111229 35260
L111229 41402
" />
<path d="M106189 41402
L106189 35260
" />
<path d="M36780 37100
L30638 37100
" />
<path d="M100530 29600
L94388 29600
" />
<path d="M94388 24561
L100530 24561
" />
<path d="M85530 29600
L79388 29600
" />
<path d="M104280 15186
L104280 20226
" />
<path d="M49388 20226
L49388 15186
" />
<path d="M30642 15189
L30642 20228
" />
<path d="M44280 15186
L44280 20226
" />
<path d="M15638 15186
L21780 15186
" />
<path d="M4388 15186
L10530 15186
" />
<path d="M10530 15186
L10530 20226
" />
<path d="M4388 20226
L4388 15186
" />
<path d="M21780 20226
L15638 20226
" />
<path d="M29280 20226
L23138 20226
" />
<path d="M29280 15186
L29280 20226
" />
<path d="M15638 20226
L15638 15186
" />
<path d="M10530 20226
L4388 20226
" />
<path d="M23138 15186
L29280 15186
" />
<path d="M23138 20226
L23138 15186
" />
<path d="M63030 15186
L63030 20226
" />
<path d="M34388 24561
L40529 24561
" />
<path d="M78030 20226
L71888 20226
" />
<path d="M18030 24561
L18030 29600
" />
<path d="M89280 20226
L83138 20226
" />
<path d="M104280 20226
L98138 20226
" />
<path d="M19388 24561
L25530 24561
" />
<path d="M90638 20226
L90638 15186
" />
<path d="M4388 29600
L4388 24561
" />
<path d="M19388 29600
L19388 24561
" />
<path d="M10530 29600
L4388 29600
" />
<path d="M26888 24561
L33030 24561
" />
<path d="M33030 29600
L26888 29600
" />
<path d="M41888 24561
L48029 24561
" />
<path d="M41888 29600
L41888 24561
" />
<path d="M96780 15186
L96780 20226
" />
<path d="M40529 24561
L40529 29600
" />
<path d="M105638 20226
L105638 15186
" />
<path d="M63030 20226
L56888 20226
" />
<path d="M70530 20226
L64388 20226
" />
<path d="M105638 15186
L111780 15186
" />
<path d="M34388 29600
L34388 24561
" />
<path d="M44280 20226
L38138 20226
" />
<path d="M55530 15186
L55530 20226
" />
<path d="M49388 15186
L55530 15186
" />
<path d="M18030 29600
L11888 29600
" />
<path d="M98138 20226
L98138 15186
" />
<path d="M111780 20226
L105638 20226
" />
<path d="M48029 29600
L41888 29600
" />
<path d="M83138 20226
L83138 15186
" />
<path d="M78030 15186
L78030 20226
" />
<path d="M10530 24561
L10530 29600
" />
<path d="M71888 20226
L71888 15186
" />
<path d="M48029 24561
L48029 29600
" />
<path d="M90638 15186
L96780 15186
" />
<path d="M71888 15186
L78030 15186
" />
<path d="M83138 15186
L89280 15186
" />
<path d="M36780 20226
L30638 20226
" />
<path d="M36780 15186
L36780 20226
" />
<path d="M30638 15186
L36780 15186
" />
<path d="M64388 20226
L64388 15186
" />
<path d="M89280 15186
L89280 20226
" />
<path d="M55530 20226
L49388 20226
" />
<path d="M38138 20226
L38138 15186
" />
<path d="M38138 15186
L44280 15186
" />
<path d="M26888 29600
L26888 24561
" />
<path d="M64388 15186
L70530 15186
" />
<path d="M4388 24561
L10530 24561
" />
<path d="M25530 24561
L25530 29600
" />
<path d="M33030 24561
L33030 29600
" />
<path d="M96780 20226
L90638 20226
" />
<path d="M111780 15186
L111780 20226
" />
<path d="M25530 29600
L19388 29600
" />
<path d="M11888 24561
L18030 24561
" />
<path d="M70530 15186
L70530 20226
" />
<path d="M56888 20226
L56888 15186
" />
<path d="M98138 15186
L104280 15186
" />
<path d="M11888 29600
L11888 24561
" />
<path d="M40529 29600
L34388 29600
" />
<path d="M56888 15186
L63030 15186
" />
<path d="M38138 32061
L44280 32061
" />
<path d="M51780 32061
L51780 37100
" />
<path d="M66780 37100
L60638 37100
" />
<path d="M66780 32061
L66780 37100
" />
<path d="M68138 32061
L74280 32061
" />
<path d="M75638 37100
L75638 32061
" />
<path d="M81780 37100
L75638 37100
" />
<path d="M75638 32061
L81780 32061
" />
<path d="M15638 32061
L21780 32061
" />
<path d="M45638 37100
L45638 32061
" />
<path d="M23138 37100
L23138 32061
" />
<path d="M29280 32061
L29280 37100
" />
<path d="M30638 32061
L36780 32061
" />
<path d="M74280 37100
L68138 37100
" />
<path d="M59280 32061
L59280 37100
" />
<path d="M51780 37100
L45638 37100
" />
<path d="M53138 37100
L53138 32061
" />
<path d="M81780 32061
L81780 37100
" />
<path d="M60638 37100
L60638 32061
" />
<path d="M100530 24561
L100530 29600
" />
<path d="M53138 32061
L59280 32061
" />
<path d="M60638 32061
L66780 32061
" />
<path d="M109904 29600
L103763 29600
" />
<path d="M83138 37100
L83138 32061
" />
<path d="M45638 32061
L51780 32061
" />
<path d="M12404 37100
L6263 37100
" />
<path d="M36780 32061
L36780 37100
" />
<path d="M103763 29600
L103763 24561
" />
<path d="M109904 24561
L109904 29600
" />
<path d="M103763 24561
L109904 24561
" />
<path d="M44280 37100
L38138 37100
" />
<path d="M74280 32061
L74280 37100
" />
<path d="M6263 37100
L6263 32061
" />
<path d="M12404 32061
L12404 37100
" />
<path d="M38138 37100
L38138 32061
" />
<path d="M6263 32061
L12404 32061
" />
<path d="M15638 37100
L15638 32061
" />
<path d="M59280 37100
L53138 37100
" />
<path d="M21780 37100
L15638 37100
" />
<path d="M29280 37100
L23138 37100
" />
<path d="M23138 32061
L29280 32061
" />
<path d="M30638 37100
L30638 32061
" />
<path d="M44280 32061
L44280 37100
" />
<path d="M106189 35260
L111229 35260
" />
<path d="M7200 44600
L7200 39561
" />
<path d="M77513 39561
L83654 39561
" />
<path d="M7200 39561
L13342 39561
" />
<path d="M61154 39561
L61154 44600
" />
<path d="M92513 44600
L92513 39561
" />
<path d="M17513 44600
L17513 39561
" />
<path d="M38654 39561
L38654 44600
" />
<path d="M76154 44600
L70013 44600
" />
<path d="M91154 44600
L85013 44600
" />
<path d="M46154 39561
L46154 44600
" />
<path d="M55013 39561
L61154 39561
" />
<path d="M13342 44600
L7200 44600
" />
<path d="M23654 44600
L17513 44600
" />
<path d="M76154 39561
L76154 44600
" />
<path d="M53654 44600
L47513 44600
" />
<path d="M47513 39561
L53654 39561
" />
<path d="M68654 44600
L62513 44600
" />
<path d="M31154 39561
L31154 44600
" />
<path d="M70013 44600
L70013 39561
" />
<path d="M89280 37100
L83138 37100
" />
<path d="M111229 41402
L106189 41402
" />
<path d="M13342 39561
L13342 44600
" />
<path d="M23654 39561
L23654 44600
" />
<path d="M83654 39561
L83654 44600
" />
<path d="M61154 44600
L55013 44600
" />
<path d="M68654 39561
L68654 44600
" />
<path d="M89280 32061
L89280 37100
" />
<path d="M83138 32061
L89280 32061
" />
<path d="M46154 44600
L40013 44600
" />
<path d="M32513 39561
L38654 39561
" />
<path d="M70013 39561
L76154 39561
" />
<path d="M17513 39561
L23654 39561
" />
<path d="M38654 44600
L32513 44600
" />
<path d="M55013 44600
L55013 39561
" />
<path d="M40013 44600
L40013 39561
" />
<path d="M47513 44600
L47513 39561
" />
<path d="M90638 37100
L90638 32061
" />
<path d="M98138 32061
L104280 32061
" />
<path d="M31154 44600
L25013 44600
" />
<path d="M40013 39561
L46154 39561
" />
<path d="M96780 37100
L90638 37100
" />
<path d="M96780 32061
L96780 37100
" />
<path d="M90638 32061
L96780 32061
" />
<path d="M98138 37100
L98138 32061
" />
<path d="M104280 37100
L98138 37100
" />
<path d="M32513 44600
L32513 39561
" />
<path d="M77513 44600
L77513 39561
" />
<path d="M85013 39561
L91154 39561
" />
<path d="M53654 39561
L53654 44600
" />
<path d="M62513 39561
L68654 39561
" />
<path d="M91154 39561
L91154 44600
" />
<path d="M85013 44600
L85013 39561
" />
<path d="M25013 39561
L31154 39561
" />
<path d="M104280 32061
L104280 37100
" />
<path d="M62513 44600
L62513 39561
" />
<path d="M83654 44600
L77513 44600
" />
<path d="M25013 44600
L25013 39561
" />
<path d="M49904 47061
L49904 52100
" />
<path d="M94904 47061
L94904 52100
" />
<path d="M21263 52100
L21263 47061
" />
<path d="M36263 52100
L36263 47061
" />
<path d="M27404 52100
L21263 52100
" />
<path d="M15217 52100
L9075 52100
" />
<path d="M98654 44600
L92513 44600
" />
<path d="M21263 47061
L27404 47061
" />
<path d="M58763 52100
L58763 47061
" />
<path d="M98654 39561
L98654 44600
" />
<path d="M92513 39561
L98654 39561
" />
<path d="M51263 52100
L51263 47061
" />
<path d="M102404 47061
L102404 52100
" />
<path d="M58763 47061
L64904 47061
" />
<path d="M96263 52100
L96263 47061
" />
<path d="M87404 52100
L81263 52100
" />
<path d="M28763 47061
L34904 47061
" />
<path d="M66263 52100
L66263 47061
" />
<path d="M94904 52100
L88763 52100
" />
<path d="M28763 52100
L28763 47061
" />
<path d="M88763 47061
L94904 47061
" />
<path d="M79904 47061
L79904 52100
" />
<path d="M34904 47061
L34904 52100
" />
<path d="M43763 47061
L49904 47061
" />
<path d="M87404 47061
L87404 52100
" />
<path d="M88763 52100
L88763 47061
" />
<path d="M81263 52100
L81263 47061
" />
<path d="M57404 52100
L51263 52100
" />
<path d="M96263 47061
L102404 47061
" />
<path d="M51263 47061
L57404 47061
" />
<path d="M73763 47061
L79904 47061
" />
<path d="M73763 52100
L73763 47061
" />
<path d="M49904 52100
L43763 52100
" />
<path d="M110842 47061
L110842 52100
" />
<path d="M104700 47061
L110842 47061
" />
<path d="M64904 52100
L58763 52100
" />
<path d="M79904 52100
L73763 52100
" />
<path d="M102404 52100
L96263 52100
" />
<path d="M104700 52100
L104700 47061
" />
<path d="M72404 47061
L72404 52100
" />
<path d="M72404 52100
L66263 52100
" />
<path d="M9075 52100
L9075 47061
" />
<path d="M15217 47061
L15217 52100
" />
<path d="M64904 47061
L64904 52100
" />
<path d="M9075 47061
L15217 47061
" />
<path d="M66263 47061
L72404 47061
" />
<path d="M27404 47061
L27404 52100
" />
<path d="M34904 52100
L28763 52100
" />
<path d="M110842 52100
L104700 52100
" />
<path d="M42404 47061
L42404 52100
" />
<path d="M42404 52100
L36263 52100
" />
<path d="M81263 47061
L87404 47061
" />
<path d="M43763 52100
L43763 47061
" />
<path d="M36263 47061
L42404 47061
" />
<path d="M57404 47061
L57404 52100
" />
<path d="M95325 59600
L95325 54561
" />
<path d="M92092 59600
L85951 59600
" />
<path d="M101467 54561
L101467 59600
" />
<path d="M20842 59600
L14700 59600
" />
<path d="M14700 59600
L14700 54561
" />
<path d="M20842 54561
L20842 59600
" />
<path d="M14700 54561
L20842 54561
" />
<path d="M85951 54561
L92092 54561
" />
<path d="M101467 59600
L95325 59600
" />
<path d="M95325 54561
L101467 54561
" />
<path d="M92092 54561
L92092 59600
" />
<path d="M85951 59600
L85951 54561
" />
<path d="M93030 29600
L86888 29600
" />
<path d="M71888 24561
L78030 24561
" />
<path d="M63030 29600
L56888 29600
" />
<path d="M79388 29600
L79388 24561
" />
<path d="M56888 29600
L56888 24561
" />
<path d="M63030 24561
L63030 29600
" />
<path d="M71888 29600
L71888 24561
" />
<path d="M85530 24561
L85530 29600
" />
<path d="M86888 29600
L86888 24561
" />
<path d="M64388 29600
L64388 24561
" />
<path d="M70530 29600
L64388 29600
" />
<path d="M64388 24561
L70530 24561
" />
<path d="M93030 24561
L93030 29600
" />
<path d="M55530 24561
L55530 29600
" />
<path d="M49388 29600
L49388 24561
" />
<path d="M55530 29600
L49388 29600
" />
<path d="M49388 24561
L55530 24561
" />
<path d="M56888 24561
L63030 24561
" />
<path d="M70530 24561
L70530 29600
" />
<path d="M78030 29600
L71888 29600
" />
<path d="M78030 24561
L78030 29600
" />
<path d="M79388 24561
L85530 24561
" />
<path d="M86888 24561
L93030 24561
" />
<path d="M94388 29600
L94388 24561
" />
<circle cx="60168" cy="22373.7" r="479.498" /> 
<circle cx="5375.99" cy="22269.7" r="479.498" /> 
<circle cx="67480" cy="38179.7" r="479.498" /> 
<circle cx="37468" cy="38133.7" r="479.498" /> 
<circle cx="10214" cy="54951.7" r="479.498" /> 
<circle cx="71920" cy="56927.7" r="479.498" /> 
<circle cx="105626" cy="56393.7" r="479.498" /> 
<circle cx="111048" cy="21947.7" r="479.498" /> 
<path d="M112036 60834.2 A428.628 428.628 0.0 0 0 112465 60413.8" />
<path d="M112465 14384.8 A428.628 428.628 0.0 0 0 112036 13956.2" />
<path d="M4142.28 13952.2 A428.628 428.628 0.0 0 0 3713.66 14380.8" />
<path d="M3713.66 60405.5 A428.628 428.628 0.0 0 0 4142.28 60834.1" />
</g>
<g style="fill:#C2C2C2; fill-opacity:0.0; 
stroke:#C2C2C2; stroke-width:39.3701; stroke-opacity:1; 
stroke-linecap:round; stroke-linejoin:round;">
<path d="M40484 57336
L40484 56549
" />
<path d="M41271 57336
L40484 57336
" />
</g>
<g style="fill:#C2C2C2; fill-opacity:0.0; 
stroke:#C2C2C2; stroke-width:78.7402; stroke-opacity:1; 
stroke-linecap:round; stroke-linejoin:round;">
<path d="M45517 56556
L46305 56556
" />
<path d="M46305 56556
L46305 57344
" />
<path d="M46305 57344
L45517 57344
" />
</g>
<g style="fill:#C2C2C2; fill-opacity:0.0; 
stroke:#C2C2C2; stroke-width:39.3701; stroke-opacity:1; 
stroke-linecap:round; stroke-linejoin:round;">
<path d="M45528 57336
L45528 56549
" />
</g>
<g style="fill:#C2C2C2; fill-opacity:0.0; 
stroke:#C2C2C2; stroke-width:78.7402; stroke-opacity:1; 
stroke-linecap:round; stroke-linejoin:round;">
<path d="M45517 57344
L45517 56556
" />
<path d="M40473 57344
L40473 56556
" />
<path d="M41260 57344
L40473 57344
" />
<path d="M40473 56556
L41260 56556
" />
<circle cx="43385.7" cy="56950.7" r="1259.84" /> 
<path d="M41260 56556
L41260 57344
" />
</g>
<g style="fill:#C2C2C2; fill-opacity:0.0; 
stroke:#C2C2C2; stroke-width:39.3701; stroke-opacity:1; 
stroke-linecap:round; stroke-linejoin:round;">
<path d="M38791 55478
L37806 55478
" />
<path d="M37806 53509
L38791 53509
" />
<path d="M37806 55478
L37806 53509
" />
<path d="M38791 53509
L38791 55478
" />
</g>
<g style="fill:#C2C2C2; fill-opacity:0.0; 
stroke:#C2C2C2; stroke-width:78.7402; stroke-opacity:1; 
stroke-linecap:round; stroke-linejoin:round;">
<path d="M76667 54539
L76667 59578
" />
<path d="M82808 54539
L82494 54539
" />
<path d="M76982 54302
L76982 54539
" />
<path d="M82494 54539
L82494 54302
" />
<path d="M76667 59578
L76982 59578
" />
<path d="M82494 59814
L82494 59578
" />
<path d="M82494 59578
L82808 59578
" />
<path d="M82494 54302
L76982 54302
" />
<path d="M76982 59578
L76982 59814
" />
<path d="M76982 59814
L82494 59814
" />
<path d="M82808 59578
L82808 54539
" />
<path d="M76982 54539
L76667 54539
" />
<path d="M24192 54489
L24192 59528
" />
<path d="M30333 54489
L30019 54489
" />
<path d="M24507 54252
L24507 54489
" />
<path d="M30019 54489
L30019 54252
" />
<path d="M24192 59528
L24507 59528
" />
<path d="M30019 59764
L30019 59528
" />
<path d="M30019 59528
L30333 59528
" />
<path d="M30019 54252
L24507 54252
" />
<path d="M24507 59528
L24507 59764
" />
<path d="M24507 59764
L30019 59764
" />
<path d="M30333 59528
L30333 54489
" />
<path d="M24507 54489
L24192 54489
" />
</g>
<g style="fill:#C2C2C2; fill-opacity:0.0; 
stroke:#C2C2C2; stroke-width:0.787402; stroke-opacity:1; 
stroke-linecap:round; stroke-linejoin:round;">
<circle cx="103050" cy="42017.7" r="1259.84" /> 
<path d="M102656 44929
L102656 44141
" />
<path d="M103443 44929
L102656 44929
" />
<path d="M103443 44141
L103443 44929
" />
</g>
<g style="fill:#C2C2C2; fill-opacity:0.0; 
stroke:#C2C2C2; stroke-width:78.7402; stroke-opacity:1; 
stroke-linecap:round; stroke-linejoin:round;">
<path d="M105136 44405
L105136 43132
" />
<path d="M105136 43132
L107186 43132
" />
</g>
<g style="fill:#C2C2C2; fill-opacity:0.0; 
stroke:#C2C2C2; stroke-width:0.787402; stroke-opacity:1; 
stroke-linecap:round; stroke-linejoin:round;">
<path d="M111230 35242
L111230 35557
" />
</g>
<g style="fill:#C2C2C2; fill-opacity:0.0; 
stroke:#C2C2C2; stroke-width:78.7402; stroke-opacity:1; 
stroke-linecap:round; stroke-linejoin:round;">
<path d="M111231 35575
L111231 35260
" />
<path d="M107186 44405
L105136 44405
" />
<path d="M111231 41401
L111231 41087
" />
</g>
<g style="fill:#C2C2C2; fill-opacity:0.0; 
stroke:#C2C2C2; stroke-width:0.787402; stroke-opacity:1; 
stroke-linecap:round; stroke-linejoin:round;">
<path d="M102656 44141
L103443 44141
" />
</g>
<g style="fill:#C2C2C2; fill-opacity:0.0; 
stroke:#C2C2C2; stroke-width:78.7402; stroke-opacity:1; 
stroke-linecap:round; stroke-linejoin:round;">
<path d="M105136 33306
L105136 32256
" />
</g>
<g style="fill:#C2C2C2; fill-opacity:0.0; 
stroke:#C2C2C2; stroke-width:0.787402; stroke-opacity:1; 
stroke-linecap:round; stroke-linejoin:round;">
<path d="M111230 41069
L111230 41384
" />
<path d="M102656 39099
L103443 39099
" />
</g>
<g style="fill:#C2C2C2; fill-opacity:0.0; 
stroke:#C2C2C2; stroke-width:78.7402; stroke-opacity:1; 
stroke-linecap:round; stroke-linejoin:round;">
<path d="M107186 33306
L105136 33306
" />
</g>
<g style="fill:#C2C2C2; fill-opacity:0.0; 
stroke:#C2C2C2; stroke-width:0.787402; stroke-opacity:1; 
stroke-linecap:round; stroke-linejoin:round;">
<path d="M103443 39886
L102656 39886
" />
<path d="M102656 39886
L102656 39099
" />
</g>
<g style="fill:#C2C2C2; fill-opacity:0.0; 
stroke:#C2C2C2; stroke-width:78.7402; stroke-opacity:1; 
stroke-linecap:round; stroke-linejoin:round;">
<path d="M107186 32256
L107186 33306
" />
</g>
<g style="fill:#C2C2C2; fill-opacity:0.0; 
stroke:#C2C2C2; stroke-width:0.787402; stroke-opacity:1; 
stroke-linecap:round; stroke-linejoin:round;">
<path d="M106191 35242
L111230 35242
" />
<path d="M106191 35557
L106191 35242
" />
<path d="M103443 39099
L103443 39886
" />
</g>
<g style="fill:#C2C2C2; fill-opacity:0.0; 
stroke:#C2C2C2; stroke-width:78.7402; stroke-opacity:1; 
stroke-linecap:round; stroke-linejoin:round;">
<path d="M105136 32256
L107186 32256
" />
</g>
<g style="fill:#C2C2C2; fill-opacity:0.0; 
stroke:#C2C2C2; stroke-width:0.787402; stroke-opacity:1; 
stroke-linecap:round; stroke-linejoin:round;">
<path d="M106191 41384
L106191 41069
" />
<path d="M111230 41384
L106191 41384
" />
</g>
<g style="fill:#C2C2C2; fill-opacity:0.0; 
stroke:#C2C2C2; stroke-width:39.3701; stroke-opacity:1; 
stroke-linecap:round; stroke-linejoin:round;">
<path d="M32266 53500
L31281 53500
" />
<path d="M84759 53512
L83775 53512
" />
<path d="M39862 60498
L38877 60498
" />
<path d="M68182 53512
L69167 53512
" />
<path d="M68102 60498
L68102 58529
" />
<path d="M74708 55480
L74708 53512
" />
<path d="M68102 58529
L67118 58529
" />
<path d="M68182 55480
L68182 53512
" />
<path d="M22214 55469
L22214 53500
" />
<path d="M67118 58529
L67118 60498
" />
<path d="M38877 60498
L38877 58529
" />
<path d="M38877 58529
L39862 58529
" />
<path d="M67118 60498
L68102 60498
" />
<path d="M38795 53500
L38795 55469
" />
<path d="M37811 53500
L38795 53500
" />
<path d="M69167 55480
L68182 55480
" />
<path d="M32266 55469
L32266 53500
" />
<path d="M39862 58529
L39862 60498
" />
<path d="M69167 53512
L69167 55480
" />
<path d="M75692 53512
L75692 55480
" />
<path d="M82809 59524
L82809 54484
" />
<path d="M31281 53500
L31281 55469
" />
<path d="M31281 55469
L32266 55469
" />
<path d="M60428 54484
L60428 59524
" />
<path d="M84759 55480
L84759 53512
" />
<path d="M83775 53512
L83775 55480
" />
<path d="M66570 59524
L66570 54484
" />
<path d="M74708 53512
L75692 53512
" />
<path d="M22214 53500
L23199 53500
" />
<path d="M76667 54484
L76667 59524
" />
<path d="M75692 55480
L74708 55480
" />
<path d="M60428 59524
L60743 59524
" />
<path d="M83775 55480
L84759 55480
" />
<path d="M76982 54484
L76667 54484
" />
<path d="M23199 53500
L23199 55469
" />
<path d="M23199 55469
L22214 55469
" />
<path d="M60743 54484
L60428 54484
" />
<path d="M66255 59524
L66570 59524
" />
<path d="M29994 59524
L30309 59524
" />
<path d="M82809 54484
L82494 54484
" />
<path d="M24167 59524
L24482 59524
" />
<path d="M66570 54484
L66255 54484
" />
<path d="M30309 59524
L30309 54484
" />
<path d="M82494 59524
L82809 59524
" />
<path d="M76667 59524
L76982 59524
" />
<path d="M41271 56549
L41271 57336
" />
<path d="M30309 54484
L29994 54484
" />
<path d="M24482 54484
L24167 54484
" />
<path d="M24167 54484
L24167 59524
" />
</g>
<g style="fill:#C2C2C2; fill-opacity:0.0; 
stroke:#C2C2C2; stroke-width:78.7402; stroke-opacity:1; 
stroke-linecap:round; stroke-linejoin:round;">
<path d="M112062 60834
L4142 60834
" />
<path d="M66546 59499
L66546 54460
" />
<path d="M66232 59735
L66232 59499
" />
<path d="M60719 54460
L60405 54460
" />
<path d="M66232 54460
L66232 54224
" />
<path d="M60405 59499
L60719 59499
" />
<path d="M60719 59735
L66232 59735
" />
<path d="M60719 59499
L60719 59735
" />
<path d="M66546 54460
L66232 54460
" />
<path d="M66232 54224
L60719 54224
" />
<path d="M66232 59499
L66546 59499
" />
<path d="M60405 54460
L60405 59499
" />
<path d="M60719 54224
L60719 54460
" />
<path d="M21784 20228
L21784 15189
" />
<path d="M30957 15189
L30642 15189
" />
<path d="M57207 15189
L56892 15189
" />
<path d="M111784 15189
L111469 15189
" />
<path d="M55534 29603
L55534 24564
" />
<path d="M49392 24564
L49392 29603
" />
<path d="M12408 37103
L12408 32064
" />
<path d="M6267 32064
L6267 37103
" />
<path d="M21784 37103
L21784 32064
" />
<path d="M68142 32064
L68142 37103
" />
<path d="M81784 37103
L81784 32064
" />
<path d="M75642 32064
L75642 37103
" />
<path d="M13031 39327
L7519 39327
" />
<path d="M13031 39564
L13031 39327
" />
<path d="M13346 39564
L13031 39564
" />
<path d="M13346 44603
L13346 39564
" />
<path d="M13031 44603
L13346 44603
" />
<path d="M13031 44839
L13031 44603
" />
<path d="M7519 44839
L13031 44839
" />
<path d="M7519 44603
L7519 44839
" />
<path d="M7204 44603
L7519 44603
" />
<path d="M7204 39564
L7204 44603
" />
<path d="M7519 39564
L7204 39564
" />
<path d="M7519 39327
L7519 39564
" />
<path d="M23344 39327
L17832 39327
" />
<path d="M23344 39564
L23344 39327
" />
<path d="M23658 39564
L23344 39564
" />
<path d="M23658 44603
L23658 39564
" />
<path d="M23344 44603
L23658 44603
" />
<path d="M23344 44839
L23344 44603
" />
<path d="M17832 44839
L23344 44839
" />
<path d="M17832 44603
L17832 44839
" />
<path d="M17517 44603
L17832 44603
" />
<path d="M17517 39564
L17517 44603
" />
<path d="M17832 39564
L17517 39564
" />
<path d="M17832 39327
L17832 39564
" />
<path d="M30844 39327
L25332 39327
" />
<path d="M30844 39564
L30844 39327
" />
<path d="M31158 39564
L30844 39564
" />
<path d="M31158 44603
L31158 39564
" />
<path d="M30844 44603
L31158 44603
" />
<path d="M30844 44839
L30844 44603
" />
<path d="M25332 44839
L30844 44839
" />
<path d="M25332 44603
L25332 44839
" />
<path d="M25017 44603
L25332 44603
" />
<path d="M25017 39564
L25017 44603
" />
<path d="M25332 39564
L25017 39564
" />
<path d="M25332 39327
L25332 39564
" />
<path d="M38344 39327
L32832 39327
" />
<path d="M38344 39564
L38344 39327
" />
<path d="M38658 39564
L38344 39564
" />
<path d="M38658 44603
L38658 39564
" />
<path d="M38344 44603
L38658 44603
" />
<path d="M38344 44839
L38344 44603
" />
<path d="M32832 44839
L38344 44839
" />
<path d="M32832 44603
L32832 44839
" />
<path d="M32517 44603
L32832 44603
" />
<path d="M32517 39564
L32517 44603
" />
<path d="M32832 39564
L32517 39564
" />
<path d="M32832 39327
L32832 39564
" />
<path d="M45844 39327
L40332 39327
" />
<path d="M45844 39564
L45844 39327
" />
<path d="M46158 39564
L45844 39564
" />
<path d="M46158 44603
L46158 39564
" />
<path d="M45844 44603
L46158 44603
" />
<path d="M45844 44839
L45844 44603
" />
<path d="M40332 44839
L45844 44839
" />
<path d="M40332 44603
L40332 44839
" />
<path d="M40017 44603
L40332 44603
" />
<path d="M40017 39564
L40017 44603
" />
<path d="M40332 39564
L40017 39564
" />
<path d="M40332 39327
L40332 39564
" />
<path d="M53344 39327
L47832 39327
" />
<path d="M53344 39564
L53344 39327
" />
<path d="M53658 39564
L53344 39564
" />
<path d="M53658 44603
L53658 39564
" />
<path d="M53344 44603
L53658 44603
" />
<path d="M53344 44839
L53344 44603
" />
<path d="M47832 44839
L53344 44839
" />
<path d="M47832 44603
L47832 44839
" />
<path d="M47517 44603
L47832 44603
" />
<path d="M47517 39564
L47517 44603
" />
<path d="M47832 39564
L47517 39564
" />
<path d="M47832 39327
L47832 39564
" />
<path d="M60844 39327
L55332 39327
" />
<path d="M60844 39564
L60844 39327
" />
<path d="M61158 39564
L60844 39564
" />
<path d="M61158 44603
L61158 39564
" />
<path d="M60844 44603
L61158 44603
" />
<path d="M60844 44839
L60844 44603
" />
<path d="M55332 44839
L60844 44839
" />
<path d="M55332 44603
L55332 44839
" />
<path d="M55017 44603
L55332 44603
" />
<path d="M55017 39564
L55017 44603
" />
<path d="M55332 39564
L55017 39564
" />
<path d="M55332 39327
L55332 39564
" />
<path d="M68344 39327
L62832 39327
" />
<path d="M68344 39564
L68344 39327
" />
<path d="M68658 39564
L68344 39564
" />
<path d="M68658 44603
L68658 39564
" />
<path d="M68344 44603
L68658 44603
" />
<path d="M68344 44839
L68344 44603
" />
<path d="M62832 44839
L68344 44839
" />
<path d="M62832 44603
L62832 44839
" />
<path d="M62517 44603
L62832 44603
" />
<path d="M62517 39564
L62517 44603
" />
<path d="M62832 39564
L62517 39564
" />
<path d="M62832 39327
L62832 39564
" />
<path d="M75844 39327
L70332 39327
" />
<path d="M75844 39564
L75844 39327
" />
<path d="M76158 39564
L75844 39564
" />
<path d="M76158 44603
L76158 39564
" />
<path d="M75844 44603
L76158 44603
" />
<path d="M75844 44839
L75844 44603
" />
<path d="M70332 44839
L75844 44839
" />
<path d="M70332 44603
L70332 44839
" />
<path d="M70017 44603
L70332 44603
" />
<path d="M70017 39564
L70017 44603
" />
<path d="M70332 39564
L70017 39564
" />
<path d="M70332 39327
L70332 39564
" />
<path d="M83344 39327
L77832 39327
" />
<path d="M83344 39564
L83344 39327
" />
<path d="M83658 39564
L83344 39564
" />
<path d="M83658 44603
L83658 39564
" />
<path d="M83344 44603
L83658 44603
" />
<path d="M83344 44839
L83344 44603
" />
<path d="M77832 44839
L83344 44839
" />
<path d="M77832 44603
L77832 44839
" />
<path d="M77517 44603
L77832 44603
" />
<path d="M77517 39564
L77517 44603
" />
<path d="M77832 39564
L77517 39564
" />
<path d="M77832 39327
L77832 39564
" />
<path d="M90844 39327
L85332 39327
" />
<path d="M90844 39564
L90844 39327
" />
<path d="M91158 39564
L90844 39564
" />
<path d="M91158 44603
L91158 39564
" />
<path d="M90844 44603
L91158 44603
" />
<path d="M90844 44839
L90844 44603
" />
<path d="M85332 44839
L90844 44839
" />
<path d="M85332 44603
L85332 44839
" />
<path d="M85017 44603
L85332 44603
" />
<path d="M85017 39564
L85017 44603
" />
<path d="M85332 39564
L85017 39564
" />
<path d="M85332 39327
L85332 39564
" />
<path d="M98344 39327
L92832 39327
" />
<path d="M98344 39564
L98344 39327
" />
<path d="M98658 39564
L98344 39564
" />
<path d="M98658 44603
L98658 39564
" />
<path d="M98344 44603
L98658 44603
" />
<path d="M98344 44839
L98344 44603
" />
<path d="M92832 44839
L98344 44839
" />
<path d="M92832 44603
L92832 44839
" />
<path d="M92517 44603
L92832 44603
" />
<path d="M92517 39564
L92517 44603
" />
<path d="M92832 39564
L92517 39564
" />
<path d="M92832 39327
L92832 39564
" />
<path d="M5051 45658
L5051 43608
" />
<path d="M6100 45658
L5051 45658
" />
<path d="M6100 43608
L6100 45658
" />
<path d="M5051 43608
L6100 43608
" />
<path d="M14450 45658
L14450 43608
" />
<path d="M15500 45658
L14450 45658
" />
<path d="M15500 43608
L15500 45658
" />
<path d="M14450 43608
L15500 43608
" />
<path d="M14906 46827
L9395 46827
" />
<path d="M14906 47064
L14906 46827
" />
<path d="M15221 47064
L14906 47064
" />
<path d="M15221 52103
L15221 47064
" />
<path d="M14906 52103
L15221 52103
" />
<path d="M14906 52339
L14906 52103
" />
<path d="M9395 52339
L14906 52339
" />
<path d="M9395 52103
L9395 52339
" />
<path d="M9079 52103
L9395 52103
" />
<path d="M9079 47064
L9079 52103
" />
<path d="M9395 47064
L9079 47064
" />
<path d="M9395 46827
L9395 47064
" />
<path d="M27094 46827
L21582 46827
" />
<path d="M27094 47064
L27094 46827
" />
<path d="M27408 47064
L27094 47064
" />
<path d="M27408 52103
L27408 47064
" />
<path d="M27094 52103
L27408 52103
" />
<path d="M27094 52339
L27094 52103
" />
<path d="M21582 52339
L27094 52339
" />
<path d="M21582 52103
L21582 52339
" />
<path d="M21267 52103
L21582 52103
" />
<path d="M21267 47064
L21267 52103
" />
<path d="M21582 47064
L21267 47064
" />
<path d="M21582 46827
L21582 47064
" />
<path d="M34594 46827
L29082 46827
" />
<path d="M34594 47064
L34594 46827
" />
<path d="M34908 47064
L34594 47064
" />
<path d="M34908 52103
L34908 47064
" />
<path d="M34594 52103
L34908 52103
" />
<path d="M34594 52339
L34594 52103
" />
<path d="M29082 52339
L34594 52339
" />
<path d="M29082 52103
L29082 52339
" />
<path d="M28767 52103
L29082 52103
" />
<path d="M28767 47064
L28767 52103
" />
<path d="M29082 47064
L28767 47064
" />
<path d="M29082 46827
L29082 47064
" />
<path d="M42094 46827
L36582 46827
" />
<path d="M42094 47064
L42094 46827
" />
<path d="M42408 47064
L42094 47064
" />
<path d="M42408 52103
L42408 47064
" />
<path d="M42094 52103
L42408 52103
" />
<path d="M42094 52339
L42094 52103
" />
<path d="M36582 52339
L42094 52339
" />
<path d="M36582 52103
L36582 52339
" />
<path d="M36267 52103
L36582 52103
" />
<path d="M36267 47064
L36267 52103
" />
<path d="M36582 47064
L36267 47064
" />
<path d="M36582 46827
L36582 47064
" />
<path d="M49594 46827
L44082 46827
" />
<path d="M49594 47064
L49594 46827
" />
<path d="M49908 47064
L49594 47064
" />
<path d="M49908 52103
L49908 47064
" />
<path d="M49594 52103
L49908 52103
" />
<path d="M49594 52339
L49594 52103
" />
<path d="M44082 52339
L49594 52339
" />
<path d="M44082 52103
L44082 52339
" />
<path d="M43767 52103
L44082 52103
" />
<path d="M43767 47064
L43767 52103
" />
<path d="M44082 47064
L43767 47064
" />
<path d="M44082 46827
L44082 47064
" />
<path d="M57094 46827
L51582 46827
" />
<path d="M57094 47064
L57094 46827
" />
<path d="M57408 47064
L57094 47064
" />
<path d="M57408 52103
L57408 47064
" />
<path d="M57094 52103
L57408 52103
" />
<path d="M57094 52339
L57094 52103
" />
<path d="M51582 52339
L57094 52339
" />
<path d="M51582 52103
L51582 52339
" />
<path d="M51267 52103
L51582 52103
" />
<path d="M51267 47064
L51267 52103
" />
<path d="M51582 47064
L51267 47064
" />
<path d="M51582 46827
L51582 47064
" />
<path d="M64594 46827
L59082 46827
" />
<path d="M64594 47064
L64594 46827
" />
<path d="M64908 47064
L64594 47064
" />
<path d="M64908 52103
L64908 47064
" />
<path d="M64594 52103
L64908 52103
" />
<path d="M64594 52339
L64594 52103
" />
<path d="M59082 52339
L64594 52339
" />
<path d="M59082 52103
L59082 52339
" />
<path d="M58767 52103
L59082 52103
" />
<path d="M58767 47064
L58767 52103
" />
<path d="M59082 47064
L58767 47064
" />
<path d="M59082 46827
L59082 47064
" />
<path d="M72094 46827
L66582 46827
" />
<path d="M72094 47064
L72094 46827
" />
<path d="M72408 47064
L72094 47064
" />
<path d="M72408 52103
L72408 47064
" />
<path d="M72094 52103
L72408 52103
" />
<path d="M72094 52339
L72094 52103
" />
<path d="M66582 52339
L72094 52339
" />
<path d="M66582 52103
L66582 52339
" />
<path d="M66267 52103
L66582 52103
" />
<path d="M66267 47064
L66267 52103
" />
<path d="M66582 47064
L66267 47064
" />
<path d="M66582 46827
L66582 47064
" />
<path d="M79594 46827
L74082 46827
" />
<path d="M79594 47064
L79594 46827
" />
<path d="M79908 47064
L79594 47064
" />
<path d="M79908 52103
L79908 47064
" />
<path d="M79594 52103
L79908 52103
" />
<path d="M79594 52339
L79594 52103
" />
<path d="M74082 52339
L79594 52339
" />
<path d="M74082 52103
L74082 52339
" />
<path d="M73767 52103
L74082 52103
" />
<path d="M73767 47064
L73767 52103
" />
<path d="M74082 47064
L73767 47064
" />
<path d="M74082 46827
L74082 47064
" />
<path d="M87094 46827
L81582 46827
" />
<path d="M87094 47064
L87094 46827
" />
<path d="M87408 47064
L87094 47064
" />
<path d="M87408 52103
L87408 47064
" />
<path d="M87094 52103
L87408 52103
" />
<path d="M87094 52339
L87094 52103
" />
<path d="M81582 52339
L87094 52339
" />
<path d="M81582 52103
L81582 52339
" />
<path d="M81267 52103
L81582 52103
" />
<path d="M81267 47064
L81267 52103
" />
<path d="M81582 47064
L81267 47064
" />
<path d="M81582 46827
L81582 47064
" />
<path d="M94594 46827
L89082 46827
" />
<path d="M94594 47064
L94594 46827
" />
<path d="M94908 47064
L94594 47064
" />
<path d="M94908 52103
L94908 47064
" />
<path d="M94594 52103
L94908 52103
" />
<path d="M94594 52339
L94594 52103
" />
<path d="M89082 52339
L94594 52339
" />
<path d="M89082 52103
L89082 52339
" />
<path d="M88767 52103
L89082 52103
" />
<path d="M88767 47064
L88767 52103
" />
<path d="M89082 47064
L88767 47064
" />
<path d="M89082 46827
L89082 47064
" />
<path d="M102094 46827
L96582 46827
" />
<path d="M102094 47064
L102094 46827
" />
<path d="M102408 47064
L102094 47064
" />
<path d="M102408 52103
L102408 47064
" />
<path d="M102094 52103
L102408 52103
" />
<path d="M102094 52339
L102094 52103
" />
<path d="M96582 52339
L102094 52339
" />
<path d="M96582 52103
L96582 52339
" />
<path d="M96267 52103
L96582 52103
" />
<path d="M96267 47064
L96267 52103
" />
<path d="M96582 47064
L96267 47064
" />
<path d="M96582 46827
L96582 47064
" />
<path d="M110531 46827
L105019 46827
" />
<path d="M110531 47064
L110531 46827
" />
<path d="M110846 47064
L110531 47064
" />
<path d="M110846 52103
L110846 47064
" />
<path d="M110531 52103
L110846 52103
" />
<path d="M110531 52339
L110531 52103
" />
<path d="M105019 52339
L110531 52339
" />
<path d="M105019 52103
L105019 52339
" />
<path d="M104704 52103
L105019 52103
" />
<path d="M104704 47064
L104704 52103
" />
<path d="M105019 47064
L104704 47064
" />
<path d="M105019 46827
L105019 47064
" />
<path d="M6076 53158
L6076 51108
" />
<path d="M7126 53158
L6076 53158
" />
<path d="M7126 51108
L7126 53158
" />
<path d="M6076 51108
L7126 51108
" />
<path d="M17175 53158
L17175 51108
" />
<path d="M18225 53158
L17175 53158
" />
<path d="M18225 51108
L18225 53158
" />
<path d="M17175 51108
L18225 51108
" />
<path d="M20531 54327
L15019 54327
" />
<path d="M20531 54564
L20531 54327
" />
<path d="M20846 54564
L20531 54564
" />
<path d="M20846 59603
L20846 54564
" />
<path d="M20531 59603
L20846 59603
" />
<path d="M20531 59839
L20531 59603
" />
<path d="M15019 59839
L20531 59839
" />
<path d="M15019 59603
L15019 59839
" />
<path d="M14704 59603
L15019 59603
" />
<path d="M14704 54564
L14704 59603
" />
<path d="M15019 54564
L14704 54564
" />
<path d="M15019 54327
L15019 54564
" />
<path d="M91781 54327
L86269 54327
" />
<path d="M91781 54564
L91781 54327
" />
<path d="M92096 54564
L91781 54564
" />
<path d="M92096 59603
L92096 54564
" />
<path d="M91781 59603
L92096 59603
" />
<path d="M91781 59839
L91781 59603
" />
<path d="M86269 59839
L91781 59839
" />
<path d="M86269 59603
L86269 59839
" />
<path d="M85954 59603
L86269 59603
" />
<path d="M85954 54564
L85954 59603
" />
<path d="M86269 54564
L85954 54564
" />
<path d="M86269 54327
L86269 54564
" />
<path d="M101156 54327
L95645 54327
" />
<path d="M101156 54564
L101156 54327
" />
<path d="M101471 54564
L101156 54564
" />
<path d="M101471 59603
L101471 54564
" />
<path d="M101156 59603
L101471 59603
" />
<path d="M101156 59839
L101156 59603
" />
<path d="M95645 59839
L101156 59839
" />
<path d="M95645 59603
L95645 59839
" />
<path d="M95329 59603
L95645 59603
" />
<path d="M95329 54564
L95329 59603
" />
<path d="M95645 54564
L95329 54564
" />
<path d="M95645 54327
L95645 54564
" />
<path d="M3713 60405
L3713 14380
" />
<path d="M112464 14370
L112464 60416
" />
<path d="M4142 13952
L112054 13956
" />
<g >
</g>
</g>
<g style="fill:#000000; fill-opacity:0.0; 
stroke:#000000; stroke-width:78.7402; stroke-opacity:1; 
stroke-linecap:round; stroke-linejoin:round;">
<g >
</g>
</g> 
</svg>
