%TF.GenerationSoftware,KiCad,Pcbnew,(5.1.6)-1*%
%TF.CreationDate,2020-07-30T22:43:25+09:00*%
%TF.ProjectId,keyboard_v2,6b657962-6f61-4726-945f-76322e6b6963,rev?*%
%TF.SameCoordinates,Original*%
%TF.FileFunction,Soldermask,Top*%
%TF.FilePolarity,Negative*%
%FSLAX46Y46*%
G04 Gerber Fmt 4.6, Leading zero omitted, Abs format (unit mm)*
G04 Created by KiCad (PCBNEW (5.1.6)-1) date 2020-07-30 22:43:25*
%MOMM*%
%LPD*%
G01*
G04 APERTURE LIST*
%ADD10C,0.650000*%
%ADD11O,1.000000X2.100000*%
%ADD12O,1.000000X1.600000*%
%ADD13R,0.950000X1.300000*%
%ADD14R,1.397000X1.397000*%
%ADD15C,1.397000*%
%ADD16C,5.000000*%
%ADD17R,1.300000X0.950000*%
%ADD18O,1.600000X1.000000*%
%ADD19O,2.100000X1.000000*%
%ADD20C,2.100000*%
%ADD21C,1.750000*%
G04 APERTURE END LIST*
D10*
%TO.C,USB2*%
X505769200Y85641400D03*
X499989200Y85641400D03*
D11*
X498559200Y85111400D03*
X507199200Y85111400D03*
D12*
X498559200Y89291400D03*
X507199200Y89291400D03*
%TD*%
D13*
%TO.C,R1*%
X333850000Y25955000D03*
X333850000Y29505000D03*
D14*
X333850000Y31540000D03*
D15*
X333850000Y23920000D03*
%TD*%
D16*
%TO.C,Ref\u002A\u002A*%
X322066920Y68455540D03*
%TD*%
D17*
%TO.C,R8*%
X439537300Y-25768300D03*
X443087300Y-25768300D03*
D14*
X445122300Y-25768300D03*
D15*
X437502300Y-25768300D03*
%TD*%
%TO.C,C3*%
X415508440Y-21056600D03*
D14*
X415508440Y-13436600D03*
D13*
X415508440Y-15471600D03*
X415508440Y-19021600D03*
%TD*%
D16*
%TO.C,Ref\u002A\u002A*%
X325620380Y-13693140D03*
%TD*%
%TO.C,.*%
X477949260Y-18013680D03*
%TD*%
%TO.C,Ref\u002A\u002A*%
X566686700Y-16192500D03*
%TD*%
%TO.C,-*%
X562175660Y69331840D03*
%TD*%
%TO.C,Ref\u002A\u002A*%
X444593980Y67957700D03*
%TD*%
D13*
%TO.C,R2*%
X336430000Y25855000D03*
X336430000Y29405000D03*
D14*
X336430000Y31440000D03*
D15*
X336430000Y23820000D03*
%TD*%
%TO.C,D5*%
X412582200Y80105800D03*
D14*
X412582200Y72485800D03*
D13*
X412582200Y74520800D03*
X412582200Y78070800D03*
%TD*%
D15*
%TO.C,R7*%
X508467200Y67761400D03*
D14*
X516087200Y67761400D03*
D17*
X514052200Y67761400D03*
X510502200Y67761400D03*
%TD*%
D15*
%TO.C,D45*%
X436305800Y21841200D03*
D14*
X436305800Y14221200D03*
D13*
X436305800Y16256200D03*
X436305800Y19806200D03*
%TD*%
D15*
%TO.C,D44*%
X417255800Y21962200D03*
D14*
X417255800Y14342200D03*
D13*
X417255800Y16377200D03*
X417255800Y19927200D03*
%TD*%
D15*
%TO.C,D41*%
X359978800Y21965200D03*
D14*
X359978800Y14345200D03*
D13*
X359978800Y16380200D03*
X359978800Y19930200D03*
%TD*%
D15*
%TO.C,D42*%
X379028800Y21965200D03*
D14*
X379028800Y14345200D03*
D13*
X379028800Y16380200D03*
X379028800Y19930200D03*
%TD*%
D15*
%TO.C,D40*%
X564829800Y39364200D03*
D14*
X564829800Y31744200D03*
D13*
X564829800Y33779200D03*
X564829800Y37329200D03*
%TD*%
D15*
%TO.C,D39*%
X545652800Y40888200D03*
D14*
X545652800Y33268200D03*
D13*
X545652800Y35303200D03*
X545652800Y38853200D03*
%TD*%
D15*
%TO.C,D43*%
X398205800Y21965200D03*
D14*
X398205800Y14345200D03*
D13*
X398205800Y16380200D03*
X398205800Y19930200D03*
%TD*%
D15*
%TO.C,D37*%
X507743300Y41393200D03*
D14*
X507743300Y33773200D03*
D13*
X507743300Y35808200D03*
X507743300Y39358200D03*
%TD*%
D15*
%TO.C,D27*%
X579307800Y60446200D03*
D14*
X579307800Y52826200D03*
D13*
X579307800Y54861200D03*
X579307800Y58411200D03*
%TD*%
D15*
%TO.C,D30*%
X374329800Y41650200D03*
D14*
X374329800Y34030200D03*
D13*
X374329800Y36065200D03*
X374329800Y39615200D03*
%TD*%
D15*
%TO.C,D24*%
X517204800Y60954200D03*
D14*
X517204800Y53334200D03*
D13*
X517204800Y55369200D03*
X517204800Y58919200D03*
%TD*%
D15*
%TO.C,D25*%
X536254800Y60700200D03*
D14*
X536254800Y53080200D03*
D13*
X536254800Y55115200D03*
X536254800Y58665200D03*
%TD*%
D15*
%TO.C,D23*%
X498154800Y61208200D03*
D14*
X498154800Y53588200D03*
D13*
X498154800Y55623200D03*
X498154800Y59173200D03*
%TD*%
D15*
%TO.C,D29*%
X355279800Y41650200D03*
D14*
X355279800Y34030200D03*
D13*
X355279800Y36065200D03*
X355279800Y39615200D03*
%TD*%
D15*
%TO.C,D26*%
X555304800Y60700200D03*
D14*
X555304800Y53080200D03*
D13*
X555304800Y55115200D03*
X555304800Y58665200D03*
%TD*%
D15*
%TO.C,D22*%
X479104800Y61208200D03*
D14*
X479104800Y53588200D03*
D13*
X479104800Y55623200D03*
X479104800Y59173200D03*
%TD*%
D15*
%TO.C,D21*%
X460054800Y61208200D03*
D14*
X460054800Y53588200D03*
D13*
X460054800Y55623200D03*
X460054800Y59173200D03*
%TD*%
D15*
%TO.C,D20*%
X441004800Y61208200D03*
D14*
X441004800Y53588200D03*
D13*
X441004800Y55623200D03*
X441004800Y59173200D03*
%TD*%
D15*
%TO.C,D19*%
X422208800Y61208200D03*
D14*
X422208800Y53588200D03*
D13*
X422208800Y55623200D03*
X422208800Y59173200D03*
%TD*%
D15*
%TO.C,D28*%
X332400000Y42510000D03*
D14*
X332400000Y34890000D03*
D13*
X332400000Y36925000D03*
X332400000Y40475000D03*
%TD*%
D15*
%TO.C,D18*%
X402904800Y61208200D03*
D14*
X402904800Y53588200D03*
D13*
X402904800Y55623200D03*
X402904800Y59173200D03*
%TD*%
D15*
%TO.C,D32*%
X412556800Y41650200D03*
D14*
X412556800Y34030200D03*
D13*
X412556800Y36065200D03*
X412556800Y39615200D03*
%TD*%
D15*
%TO.C,D38*%
X526729800Y40951700D03*
D14*
X526729800Y33331700D03*
D13*
X526729800Y35366700D03*
X526729800Y38916700D03*
%TD*%
D15*
%TO.C,D31*%
X393379800Y41650200D03*
D14*
X393379800Y34030200D03*
D13*
X393379800Y36065200D03*
X393379800Y39615200D03*
%TD*%
D15*
%TO.C,D33*%
X431606800Y41650200D03*
D14*
X431606800Y34030200D03*
D13*
X431606800Y36065200D03*
X431606800Y39615200D03*
%TD*%
D15*
%TO.C,D2*%
X355152800Y84576200D03*
D14*
X355152800Y76956200D03*
D13*
X355152800Y78991200D03*
X355152800Y82541200D03*
%TD*%
D15*
%TO.C,D13*%
X574634200Y69920400D03*
D14*
X567014200Y69920400D03*
D17*
X569049200Y69920400D03*
X572599200Y69920400D03*
%TD*%
D15*
%TO.C,D17*%
X383854800Y61208200D03*
D14*
X383854800Y53588200D03*
D13*
X383854800Y55623200D03*
X383854800Y59173200D03*
%TD*%
D15*
%TO.C,D8*%
X479143060Y84322920D03*
D14*
X479143060Y76702920D03*
D13*
X479143060Y78737920D03*
X479143060Y82287920D03*
%TD*%
D15*
%TO.C,D3*%
X374482200Y84576200D03*
D14*
X374482200Y76956200D03*
D13*
X374482200Y78991200D03*
X374482200Y82541200D03*
%TD*%
D15*
%TO.C,D6*%
X441004800Y84576200D03*
D14*
X441004800Y76956200D03*
D13*
X441004800Y78991200D03*
X441004800Y82541200D03*
%TD*%
D15*
%TO.C,D15*%
X345500800Y61208200D03*
D14*
X345500800Y53588200D03*
D13*
X345500800Y55623200D03*
X345500800Y59173200D03*
%TD*%
%TO.C,C7*%
X441592460Y-16812760D03*
X441592460Y-13262760D03*
D14*
X441592460Y-11227760D03*
D15*
X441592460Y-18847760D03*
%TD*%
D13*
%TO.C,C6*%
X443794640Y-16812760D03*
X443794640Y-13262760D03*
D14*
X443794640Y-11227760D03*
D15*
X443794640Y-18847760D03*
%TD*%
%TO.C,D7*%
X459800800Y84576200D03*
D14*
X459800800Y76956200D03*
D13*
X459800800Y78991200D03*
X459800800Y82541200D03*
%TD*%
D15*
%TO.C,D4*%
X393252800Y84576200D03*
D14*
X393252800Y76956200D03*
D13*
X393252800Y78991200D03*
X393252800Y82541200D03*
%TD*%
D15*
%TO.C,D1*%
X326933400Y84576200D03*
D14*
X326933400Y76956200D03*
D13*
X326933400Y78991200D03*
X326933400Y82541200D03*
%TD*%
D15*
%TO.C,D14*%
X326704800Y61208200D03*
D14*
X326704800Y53588200D03*
D13*
X326704800Y55623200D03*
X326704800Y59173200D03*
%TD*%
D15*
%TO.C,D10*%
X526856800Y86608200D03*
D14*
X526856800Y78988200D03*
D13*
X526856800Y81023200D03*
X526856800Y84573200D03*
%TD*%
D15*
%TO.C,D16*%
X364804800Y61208200D03*
D14*
X364804800Y53588200D03*
D13*
X364804800Y55623200D03*
X364804800Y59173200D03*
%TD*%
D15*
%TO.C,D12*%
X564956800Y86608200D03*
D14*
X564956800Y78988200D03*
D13*
X564956800Y81023200D03*
X564956800Y84573200D03*
%TD*%
D15*
%TO.C,D9*%
X491576200Y71444400D03*
D14*
X483956200Y71444400D03*
D17*
X485991200Y71444400D03*
X489541200Y71444400D03*
%TD*%
D15*
%TO.C,D11*%
X545652800Y86608200D03*
D14*
X545652800Y78988200D03*
D13*
X545652800Y81023200D03*
X545652800Y84573200D03*
%TD*%
%TO.C,D48*%
X493455800Y19803200D03*
X493455800Y16253200D03*
D14*
X493455800Y14218200D03*
D15*
X493455800Y21838200D03*
%TD*%
%TO.C,D53*%
X334000000Y19410000D03*
D14*
X334000000Y11790000D03*
D13*
X334000000Y13825000D03*
X334000000Y17375000D03*
%TD*%
D15*
%TO.C,D55*%
X388680800Y3293200D03*
D14*
X388680800Y-4326800D03*
D13*
X388680800Y-2291800D03*
X388680800Y1258200D03*
%TD*%
D15*
%TO.C,D56*%
X407476800Y3296200D03*
D14*
X407476800Y-4323800D03*
D13*
X407476800Y-2288800D03*
X407476800Y1261200D03*
%TD*%
%TO.C,D57*%
X426700000Y3675000D03*
X426700000Y125000D03*
D14*
X426700000Y-1910000D03*
D15*
X426700000Y5710000D03*
%TD*%
%TO.C,D49*%
X512378800Y21838200D03*
D14*
X512378800Y14218200D03*
D13*
X512378800Y16253200D03*
X512378800Y19803200D03*
%TD*%
%TO.C,D58*%
X445754600Y1616800D03*
X445754600Y-1933200D03*
D14*
X445754600Y-3968200D03*
D15*
X445754600Y3651800D03*
%TD*%
%TO.C,D46*%
X455228800Y21835200D03*
D14*
X455228800Y14215200D03*
D13*
X455228800Y16250200D03*
X455228800Y19800200D03*
%TD*%
%TO.C,D47*%
X474405800Y19800200D03*
X474405800Y16250200D03*
D14*
X474405800Y14215200D03*
D15*
X474405800Y21835200D03*
%TD*%
D13*
%TO.C,C4*%
X446060000Y-16935000D03*
X446060000Y-13385000D03*
D14*
X446060000Y-11350000D03*
D15*
X446060000Y-18970000D03*
%TD*%
D13*
%TO.C,D51*%
X550351800Y19803200D03*
X550351800Y16253200D03*
D14*
X550351800Y14218200D03*
D15*
X550351800Y21838200D03*
%TD*%
D13*
%TO.C,C5*%
X439244740Y-16758460D03*
X439244740Y-13208460D03*
D14*
X439244740Y-11173460D03*
D15*
X439244740Y-18793460D03*
%TD*%
D13*
%TO.C,D50*%
X531555800Y19800200D03*
X531555800Y16250200D03*
D14*
X531555800Y14215200D03*
D15*
X531555800Y21835200D03*
%TD*%
%TO.C,D54*%
X369503800Y3296200D03*
D14*
X369503800Y-4323800D03*
D13*
X369503800Y-2288800D03*
X369503800Y1261200D03*
%TD*%
D15*
%TO.C,D52*%
X574481800Y18155200D03*
D14*
X574481800Y10535200D03*
D13*
X574481800Y12570200D03*
X574481800Y16120200D03*
%TD*%
D15*
%TO.C,R4*%
X315250000Y19260000D03*
D14*
X315250000Y11640000D03*
D13*
X315250000Y13675000D03*
X315250000Y17225000D03*
%TD*%
D18*
%TO.C,USB1*%
X308756200Y30425400D03*
X308756200Y21785400D03*
D19*
X312936200Y30425400D03*
X312936200Y21785400D03*
D10*
X312406200Y23215400D03*
X312406200Y28995400D03*
%TD*%
D13*
%TO.C,D66*%
X338642800Y1515200D03*
X338642800Y-2034800D03*
D14*
X338642800Y-4069800D03*
D15*
X338642800Y3550200D03*
%TD*%
D13*
%TO.C,D67*%
X352943000Y-17560200D03*
X352943000Y-21110200D03*
D14*
X352943000Y-23145200D03*
D15*
X352943000Y-15525200D03*
%TD*%
%TO.C,D35*%
X469579800Y41650200D03*
D14*
X469579800Y34030200D03*
D13*
X469579800Y36065200D03*
X469579800Y39615200D03*
%TD*%
%TO.C,F4*%
X498100000Y77775000D03*
X498100000Y74225000D03*
D14*
X498100000Y72190000D03*
D15*
X498100000Y79810000D03*
%TD*%
%TO.C,D63*%
X540953800Y3296200D03*
D14*
X540953800Y-4323800D03*
D13*
X540953800Y-2288800D03*
X540953800Y1261200D03*
%TD*%
D17*
%TO.C,R3*%
X420664200Y78667400D03*
X417114200Y78667400D03*
D14*
X415079200Y78667400D03*
D15*
X422699200Y78667400D03*
%TD*%
D13*
%TO.C,D36*%
X488756800Y36065200D03*
D14*
X488756800Y34030200D03*
D15*
X488756800Y41650200D03*
D13*
X488756800Y39615200D03*
%TD*%
%TO.C,D34*%
X450529800Y39615200D03*
X450529800Y36065200D03*
D14*
X450529800Y34030200D03*
D15*
X450529800Y41650200D03*
%TD*%
D13*
%TO.C,D68*%
X381798000Y-20037000D03*
X381798000Y-23587000D03*
D14*
X381798000Y-25622000D03*
D15*
X381798000Y-18002000D03*
%TD*%
D13*
%TO.C,R5*%
X311871200Y36014400D03*
X311871200Y39564400D03*
D14*
X311871200Y41599400D03*
D15*
X311871200Y33979400D03*
%TD*%
%TO.C,R9*%
X501863200Y79702400D03*
D14*
X501863200Y72082400D03*
D13*
X501863200Y74117400D03*
X501863200Y77667400D03*
%TD*%
%TO.C,R10*%
X504403200Y77664400D03*
X504403200Y74114400D03*
D14*
X504403200Y72079400D03*
D15*
X504403200Y79699400D03*
%TD*%
D13*
%TO.C,D62*%
X522030800Y1261200D03*
X522030800Y-2288800D03*
D14*
X522030800Y-4323800D03*
D15*
X522030800Y3296200D03*
%TD*%
%TO.C,D72*%
X557692400Y-16465000D03*
D14*
X557692400Y-24085000D03*
D13*
X557692400Y-22050000D03*
X557692400Y-18500000D03*
%TD*%
D15*
%TO.C,D61*%
X502853800Y3296200D03*
D14*
X502853800Y-4323800D03*
D13*
X502853800Y-2288800D03*
X502853800Y1261200D03*
%TD*%
%TO.C,D59*%
X464753800Y1261200D03*
X464753800Y-2288800D03*
D14*
X464753800Y-4323800D03*
D15*
X464753800Y3296200D03*
%TD*%
%TO.C,F3*%
X312580000Y19210000D03*
D14*
X312580000Y11590000D03*
D13*
X312580000Y13625000D03*
X312580000Y17175000D03*
%TD*%
D15*
%TO.C,D60*%
X483803800Y3296200D03*
D14*
X483803800Y-4323800D03*
D13*
X483803800Y-2288800D03*
X483803800Y1261200D03*
%TD*%
D15*
%TO.C,D64*%
X560003800Y3369400D03*
D14*
X560003800Y-4250600D03*
D13*
X560003800Y-2215600D03*
X560003800Y1334400D03*
%TD*%
%TO.C,D65*%
X581146000Y1230400D03*
X581146000Y-2319600D03*
D14*
X581146000Y-4354600D03*
D15*
X581146000Y3265400D03*
%TD*%
D17*
%TO.C,R6*%
X494748200Y67761400D03*
X491198200Y67761400D03*
D14*
X489163200Y67761400D03*
D15*
X496783200Y67761400D03*
%TD*%
D13*
%TO.C,D69*%
X469323420Y-19380660D03*
X469323420Y-22930660D03*
D14*
X469323420Y-24965660D03*
D15*
X469323420Y-17345660D03*
%TD*%
D13*
%TO.C,D70*%
X505378000Y-18812000D03*
X505378000Y-22362000D03*
D14*
X505378000Y-24397000D03*
D15*
X505378000Y-16777000D03*
%TD*%
%TO.C,D71*%
X533838000Y-16727000D03*
D14*
X533838000Y-24347000D03*
D13*
X533838000Y-22312000D03*
X533838000Y-18762000D03*
%TD*%
D20*
%TO.C,SW1*%
X413731000Y85134200D03*
D21*
X414991000Y87624200D03*
X419491000Y87624200D03*
D20*
X420741000Y85134200D03*
%TD*%
M02*
