M48
; DRILL file {KiCad (5.1.6)-1} date 07/30/20 22:39:54
; FORMAT={-:-/ absolute / metric / decimal}
; #@! TF.CreationDate,2020-07-30T22:39:54+09:00
; #@! TF.GenerationSoftware,Kicad,Pcbnew,(5.1.6)-1
FMAT,2
METRIC
T1C0.400
T2C0.600
T3C0.813
T4C0.990
T5C1.300
T6C1.470
T7C0.650
T8C4.800
%
G90
G05
T1
X314.06Y7.71
X315.28Y30.69
X317.754Y36.704
X322.5Y30.7
X324.2Y10.8
X329.87Y64.684
X331.254Y62.441
X336.94Y20.5
X360.4Y-4.9
X362.73Y-8.771
X380.1Y-21.4
X392.641Y-16.81
X396.3Y-24.922
X414.32Y-10.32
X415.567Y71.949
X418.6Y-24.2
X420.8Y-26.4
X421.068Y-18.514
X421.099Y-16.899
X422.117Y-17.831
X422.287Y-16.041
X422.781Y85.199
X426.21Y-20.92
X427.02Y-28.11
X427.751Y-17.45
X428.666Y-27.427
X429.151Y-22.759
X429.417Y-24.42
X430.66Y-17.536
X430.847Y-24.356
X432.7Y-27.9
X433.99Y-11.52
X434.41Y0.68
X435.28Y-11.8
X437.18Y-11.57
X451.637Y-10.951
X452.288Y-12.474
X454.177Y-14.369
X454.707Y-8.251
X454.747Y-9.221
X455.187Y-11.601
X456.545Y-24.544
X482.76Y-12.29
X487.077Y65.029
X488.227Y62.989
X507.017Y70.289
X507.22Y-9.47
X507.747Y82.599
X509.473Y76.327
X542.617Y-9.501
X542.97Y-7.5
X547.94Y-6.23
X577.695Y8.918
T3
X474.406Y21.835
X474.406Y14.215
X508.467Y67.761
X516.087Y67.761
X498.1Y79.81
X498.1Y72.19
X379.029Y21.965
X379.029Y14.345
X334.0Y19.41
X334.0Y11.79
X526.857Y86.608
X526.857Y78.988
X469.323Y-17.346
X469.323Y-24.966
X441.005Y61.208
X441.005Y53.588
X464.754Y3.296
X464.754Y-4.324
X355.153Y84.576
X355.153Y76.956
X567.014Y69.92
X574.634Y69.92
X531.556Y21.835
X531.556Y14.215
X359.979Y21.965
X359.979Y14.345
X338.643Y3.55
X338.643Y-4.07
X315.25Y19.26
X315.25Y11.64
X388.681Y3.293
X388.681Y-4.327
X493.456Y21.838
X493.456Y14.218
X393.253Y84.576
X393.253Y76.956
X437.502Y-25.768
X445.122Y-25.768
X501.863Y79.702
X501.863Y72.082
X489.163Y67.761
X496.783Y67.761
X412.557Y41.65
X412.557Y34.03
X488.757Y41.65
X488.757Y34.03
X402.905Y61.208
X402.905Y53.588
X355.28Y41.65
X355.28Y34.03
X579.308Y60.446
X579.308Y52.826
X446.06Y-11.35
X446.06Y-18.97
X545.653Y40.888
X545.653Y33.268
X469.58Y41.65
X469.58Y34.03
X398.206Y21.965
X398.206Y14.345
X550.352Y21.838
X550.352Y14.218
X326.705Y61.208
X326.705Y53.588
X483.956Y71.444
X491.576Y71.444
X326.933Y84.576
X326.933Y76.956
X415.508Y-13.437
X415.508Y-21.057
X311.871Y41.599
X311.871Y33.979
X581.146Y3.265
X581.146Y-4.355
X374.482Y84.576
X374.482Y76.956
X502.854Y3.296
X502.854Y-4.324
X498.155Y61.208
X498.155Y53.588
X417.256Y21.962
X417.256Y14.342
X512.379Y21.838
X512.379Y14.218
X507.743Y41.393
X507.743Y33.773
X352.943Y-15.525
X352.943Y-23.145
X564.83Y39.364
X564.83Y31.744
X364.805Y61.208
X364.805Y53.588
X564.957Y86.608
X564.957Y78.988
X545.653Y86.608
X545.653Y78.988
X415.079Y78.667
X422.699Y78.667
X560.004Y3.369
X560.004Y-4.251
X479.143Y84.323
X479.143Y76.703
X557.692Y-16.465
X557.692Y-24.085
X332.4Y42.51
X332.4Y34.89
X436.306Y21.841
X436.306Y14.221
X439.245Y-11.173
X439.245Y-18.793
X517.205Y60.954
X517.205Y53.334
X574.482Y18.155
X574.482Y10.535
X441.005Y84.576
X441.005Y76.956
X443.795Y-11.228
X443.795Y-18.848
X407.477Y3.296
X407.477Y-4.324
X381.798Y-18.002
X381.798Y-25.622
X522.031Y3.296
X522.031Y-4.324
X526.73Y40.952
X526.73Y33.332
X504.403Y79.699
X504.403Y72.079
X555.305Y60.7
X555.305Y53.08
X336.43Y31.44
X336.43Y23.82
X455.229Y21.835
X455.229Y14.215
X536.255Y60.7
X536.255Y53.08
X445.755Y3.652
X445.755Y-3.968
X459.801Y84.576
X459.801Y76.956
X441.592Y-11.228
X441.592Y-18.848
X533.838Y-16.727
X533.838Y-24.347
X333.85Y31.54
X333.85Y23.92
X505.378Y-16.777
X505.378Y-24.397
X422.209Y61.208
X422.209Y53.588
X450.53Y41.65
X450.53Y34.03
X383.855Y61.208
X383.855Y53.588
X479.105Y61.208
X479.105Y53.588
X369.504Y3.296
X369.504Y-4.324
X412.582Y80.106
X412.582Y72.486
X540.954Y3.296
X540.954Y-4.324
X374.33Y41.65
X374.33Y34.03
X345.501Y61.208
X345.501Y53.588
X426.7Y5.71
X426.7Y-1.91
X312.58Y19.21
X312.58Y11.59
X431.607Y41.65
X431.607Y34.03
X483.804Y3.296
X483.804Y-4.324
X460.055Y61.208
X460.055Y53.588
X393.38Y41.65
X393.38Y34.03
T4
X414.991Y87.624
X419.491Y87.624
T5
X413.731Y85.134
X420.741Y85.134
T6
X369.138Y-15.227
X374.138Y-14.727
X552.779Y42.018
X557.779Y42.518
X419.417Y42.018
X424.417Y42.518
X481.38Y22.993
X486.38Y23.493
X524.357Y61.017
X529.357Y61.517
X443.255Y23.006
X448.255Y23.506
X569.416Y3.867
X574.416Y4.367
X467.054Y61.017
X472.054Y61.517
X514.705Y41.993
X519.705Y42.493
X471.779Y3.931
X476.779Y4.431
X405.231Y22.981
X410.231Y23.481
X500.455Y22.981
X505.455Y23.481
X340.829Y-15.132
X345.829Y-14.632
X314.667Y84.893
X319.667Y85.393
X426.891Y83.368
X427.391Y78.368
X447.966Y60.979
X452.966Y61.479
X569.738Y30.973
X570.238Y25.973
X319.442Y41.98
X324.442Y42.48
X314.654Y61.081
X319.654Y61.581
X357.542Y3.931
X362.542Y4.431
X533.717Y41.98
X538.717Y42.48
X543.28Y61.017
X548.28Y61.517
X376.617Y3.939
X381.617Y4.439
X457.568Y42.014
X462.568Y42.514
X567.08Y61.106
X572.08Y61.606
X326.567Y3.956
X331.567Y4.456
X445.979Y83.402
X446.479Y78.402
X428.942Y61.068
X433.942Y61.568
X343.255Y42.043
X348.255Y42.543
X484.117Y83.38
X484.617Y78.38
X512.705Y83.38
X513.205Y78.38
X409.93Y61.081
X414.93Y61.581
X424.217Y23.006
X429.217Y23.506
X362.241Y42.081
X367.241Y42.581
X400.519Y42.064
X405.519Y42.564
X347.979Y22.968
X352.979Y23.468
X545.591Y-15.132
X550.591Y-14.632
X390.854Y61.093
X395.854Y61.593
X395.594Y4.025
X400.594Y4.525
X371.779Y61.081
X376.779Y61.581
X386.117Y22.968
X391.117Y23.468
X493.158Y-15.207
X498.158Y-14.707
X465.054Y83.38
X465.554Y78.38
X547.966Y3.943
X552.966Y4.443
X505.192Y61.055
X510.192Y61.555
X531.75Y83.39
X532.25Y78.39
X381.403Y42.136
X386.403Y42.636
X462.305Y22.993
X467.305Y23.493
X360.305Y83.368
X360.805Y78.368
X521.777Y-15.068
X526.777Y-14.569
X352.716Y61.093
X357.716Y61.593
X528.992Y3.931
X533.992Y4.431
X538.492Y22.993
X543.492Y23.493
X321.83Y22.955
X326.83Y23.455
X509.917Y3.969
X514.917Y4.469
X456.92Y-14.802
X461.92Y-14.302
X550.729Y83.38
X551.229Y78.38
X379.355Y83.38
X379.855Y78.38
X414.61Y3.99
X419.61Y4.49
X333.679Y61.093
X338.679Y61.593
X398.417Y83.431
X398.917Y78.431
X341.229Y83.406
X341.729Y78.406
X367.055Y22.968
X372.055Y23.468
X519.531Y22.981
X524.531Y23.481
X476.572Y42.021
X481.572Y42.521
X495.655Y42.094
X500.655Y42.594
X452.707Y3.939
X457.707Y4.439
X490.867Y3.918
X495.867Y4.418
X486.13Y61.017
X491.13Y61.517
X433.62Y3.89
X438.62Y4.39
X569.791Y83.393
X570.291Y78.393
X438.454Y42.005
X443.454Y42.505
T7
X312.406Y28.995
X312.406Y23.215
X499.989Y85.641
X505.769Y85.641
T8
X566.687Y-16.192
X322.067Y68.456
X562.176Y69.332
X444.594Y67.958
X477.949Y-18.014
X325.62Y-13.693
T2
G00X308.456Y30.425
M15
G01X309.056Y30.425
M16
G05
G00X308.456Y21.785
M15
G01X309.056Y21.785
M16
G05
G00X312.386Y30.425
M15
G01X313.486Y30.425
M16
G05
G00X312.386Y21.785
M15
G01X313.486Y21.785
M16
G05
G00X498.559Y89.591
M15
G01X498.559Y88.991
M16
G05
G00X498.559Y85.661
M15
G01X498.559Y84.561
M16
G05
G00X507.199Y89.591
M15
G01X507.199Y88.991
M16
G05
G00X507.199Y85.661
M15
G01X507.199Y84.561
M16
G05
T0
M30
