%TF.GenerationSoftware,KiCad,Pcbnew,(5.1.6)-1*%
%TF.CreationDate,2020-07-30T22:43:25+09:00*%
%TF.ProjectId,keyboard_v2,6b657962-6f61-4726-945f-76322e6b6963,rev?*%
%TF.SameCoordinates,Original*%
%TF.FileFunction,Paste,Bot*%
%TF.FilePolarity,Positive*%
%FSLAX46Y46*%
G04 Gerber Fmt 4.6, Leading zero omitted, Abs format (unit mm)*
G04 Created by KiCad (PCBNEW (5.1.6)-1) date 2020-07-30 22:43:25*
%MOMM*%
%LPD*%
G01*
G04 APERTURE LIST*
%ADD10R,0.600000X2.450000*%
%ADD11R,0.300000X2.450000*%
%ADD12R,0.950000X1.300000*%
%ADD13R,0.508000X1.473200*%
%ADD14R,1.473200X0.508000*%
%ADD15R,2.800000X1.200000*%
%ADD16R,2.800000X1.000000*%
%ADD17C,0.100000*%
%ADD18R,1.300000X0.950000*%
%ADD19R,2.450000X0.300000*%
%ADD20R,2.450000X0.600000*%
%ADD21R,2.100000X1.800000*%
G04 APERTURE END LIST*
D10*
%TO.C,USB2*%
X506104200Y83696400D03*
X499654200Y83696400D03*
X505329200Y83696400D03*
X500429200Y83696400D03*
D11*
X501129200Y83696400D03*
X504629200Y83696400D03*
X501629200Y83696400D03*
X504129200Y83696400D03*
X502129200Y83696400D03*
X503629200Y83696400D03*
X503129200Y83696400D03*
X502629200Y83696400D03*
%TD*%
%TO.C,C1*%
G36*
G01*
X425397500Y-5555000D02*
X425397500Y-4305000D01*
G75*
G02*
X425647500Y-4055000I250000J0D01*
G01*
X426572500Y-4055000D01*
G75*
G02*
X426822500Y-4305000I0J-250000D01*
G01*
X426822500Y-5555000D01*
G75*
G02*
X426572500Y-5805000I-250000J0D01*
G01*
X425647500Y-5805000D01*
G75*
G02*
X425397500Y-5555000I0J250000D01*
G01*
G37*
G36*
G01*
X428372500Y-5555000D02*
X428372500Y-4305000D01*
G75*
G02*
X428622500Y-4055000I250000J0D01*
G01*
X429547500Y-4055000D01*
G75*
G02*
X429797500Y-4305000I0J-250000D01*
G01*
X429797500Y-5555000D01*
G75*
G02*
X429547500Y-5805000I-250000J0D01*
G01*
X428622500Y-5805000D01*
G75*
G02*
X428372500Y-5555000I0J250000D01*
G01*
G37*
%TD*%
D12*
%TO.C,R1*%
X333850000Y29505000D03*
X333850000Y25955000D03*
%TD*%
D13*
%TO.C,U1*%
X426247400Y-25863000D03*
X427034800Y-25863000D03*
X427847600Y-25863000D03*
X428635000Y-25863000D03*
X429447800Y-25863000D03*
X430235200Y-25863000D03*
X431022600Y-25863000D03*
X431835400Y-25863000D03*
X432622800Y-25863000D03*
X433435600Y-25863000D03*
X434223000Y-25863000D03*
D14*
X435975600Y-24110400D03*
X435975600Y-23323000D03*
X435975600Y-22510200D03*
X435975600Y-21722800D03*
X435975600Y-20910000D03*
X435975600Y-20122600D03*
X435975600Y-19335200D03*
X435975600Y-18522400D03*
X435975600Y-17735000D03*
X435975600Y-16922200D03*
X435975600Y-16134800D03*
D13*
X434223000Y-14382200D03*
X433435600Y-14382200D03*
X432622800Y-14382200D03*
X431835400Y-14382200D03*
X431022600Y-14382200D03*
X430235200Y-14382200D03*
X429447800Y-14382200D03*
X428635000Y-14382200D03*
X427847600Y-14382200D03*
X427034800Y-14382200D03*
X426247400Y-14382200D03*
D14*
X424494800Y-16134800D03*
X424494800Y-16922200D03*
X424494800Y-17735000D03*
X424494800Y-18522400D03*
X424494800Y-19335200D03*
X424494800Y-20122600D03*
X424494800Y-20910000D03*
X424494800Y-21722800D03*
X424494800Y-22510200D03*
X424494800Y-23323000D03*
X424494800Y-24110400D03*
%TD*%
D15*
%TO.C,D74*%
X504572200Y69794400D03*
D16*
X504572200Y68074400D03*
X500972200Y68074400D03*
D17*
G36*
X499572200Y70474400D02*
G01*
X502372200Y70474400D01*
X502372200Y69474400D01*
X499572200Y69474400D01*
X499572200Y70474400D01*
G37*
%TD*%
D18*
%TO.C,R8*%
X443087300Y-25768300D03*
X439537300Y-25768300D03*
%TD*%
D12*
%TO.C,C3*%
X415508440Y-19021600D03*
X415508440Y-15471600D03*
%TD*%
%TO.C,R2*%
X336430000Y29405000D03*
X336430000Y25855000D03*
%TD*%
%TO.C,D5*%
X412582200Y78070800D03*
X412582200Y74520800D03*
%TD*%
D18*
%TO.C,R7*%
X510502200Y67761400D03*
X514052200Y67761400D03*
%TD*%
D12*
%TO.C,D45*%
X436305800Y19806200D03*
X436305800Y16256200D03*
%TD*%
%TO.C,D44*%
X417255800Y19927200D03*
X417255800Y16377200D03*
%TD*%
%TO.C,D41*%
X359978800Y19930200D03*
X359978800Y16380200D03*
%TD*%
%TO.C,D42*%
X379028800Y19930200D03*
X379028800Y16380200D03*
%TD*%
%TO.C,D40*%
X564829800Y37329200D03*
X564829800Y33779200D03*
%TD*%
%TO.C,D39*%
X545652800Y38853200D03*
X545652800Y35303200D03*
%TD*%
%TO.C,D43*%
X398205800Y19930200D03*
X398205800Y16380200D03*
%TD*%
%TO.C,D37*%
X507743300Y39358200D03*
X507743300Y35808200D03*
%TD*%
%TO.C,D27*%
X579307800Y58411200D03*
X579307800Y54861200D03*
%TD*%
%TO.C,D30*%
X374329800Y39615200D03*
X374329800Y36065200D03*
%TD*%
%TO.C,D24*%
X517204800Y58919200D03*
X517204800Y55369200D03*
%TD*%
%TO.C,D25*%
X536254800Y58665200D03*
X536254800Y55115200D03*
%TD*%
%TO.C,D23*%
X498154800Y59173200D03*
X498154800Y55623200D03*
%TD*%
%TO.C,D29*%
X355279800Y39615200D03*
X355279800Y36065200D03*
%TD*%
%TO.C,D26*%
X555304800Y58665200D03*
X555304800Y55115200D03*
%TD*%
%TO.C,D22*%
X479104800Y59173200D03*
X479104800Y55623200D03*
%TD*%
%TO.C,D21*%
X460054800Y59173200D03*
X460054800Y55623200D03*
%TD*%
%TO.C,D20*%
X441004800Y59173200D03*
X441004800Y55623200D03*
%TD*%
%TO.C,D19*%
X422208800Y59173200D03*
X422208800Y55623200D03*
%TD*%
%TO.C,D28*%
X332400000Y40475000D03*
X332400000Y36925000D03*
%TD*%
%TO.C,D18*%
X402904800Y59173200D03*
X402904800Y55623200D03*
%TD*%
%TO.C,D32*%
X412556800Y39615200D03*
X412556800Y36065200D03*
%TD*%
%TO.C,D38*%
X526729800Y38916700D03*
X526729800Y35366700D03*
%TD*%
%TO.C,D31*%
X393379800Y39615200D03*
X393379800Y36065200D03*
%TD*%
%TO.C,D33*%
X431606800Y39615200D03*
X431606800Y36065200D03*
%TD*%
%TO.C,D2*%
X355152800Y82541200D03*
X355152800Y78991200D03*
%TD*%
D18*
%TO.C,D13*%
X572599200Y69920400D03*
X569049200Y69920400D03*
%TD*%
D12*
%TO.C,D17*%
X383854800Y59173200D03*
X383854800Y55623200D03*
%TD*%
%TO.C,D8*%
X479143060Y82287920D03*
X479143060Y78737920D03*
%TD*%
%TO.C,D3*%
X374482200Y82541200D03*
X374482200Y78991200D03*
%TD*%
%TO.C,D6*%
X441004800Y82541200D03*
X441004800Y78991200D03*
%TD*%
%TO.C,D15*%
X345500800Y59173200D03*
X345500800Y55623200D03*
%TD*%
%TO.C,C7*%
X441592460Y-13262760D03*
X441592460Y-16812760D03*
%TD*%
%TO.C,C6*%
X443794640Y-13262760D03*
X443794640Y-16812760D03*
%TD*%
%TO.C,D7*%
X459800800Y82541200D03*
X459800800Y78991200D03*
%TD*%
%TO.C,D4*%
X393252800Y82541200D03*
X393252800Y78991200D03*
%TD*%
%TO.C,D1*%
X326933400Y82541200D03*
X326933400Y78991200D03*
%TD*%
%TO.C,D14*%
X326704800Y59173200D03*
X326704800Y55623200D03*
%TD*%
%TO.C,D10*%
X526856800Y84573200D03*
X526856800Y81023200D03*
%TD*%
%TO.C,D16*%
X364804800Y59173200D03*
X364804800Y55623200D03*
%TD*%
%TO.C,D12*%
X564956800Y84573200D03*
X564956800Y81023200D03*
%TD*%
D18*
%TO.C,D9*%
X489541200Y71444400D03*
X485991200Y71444400D03*
%TD*%
D12*
%TO.C,D11*%
X545652800Y84573200D03*
X545652800Y81023200D03*
%TD*%
%TO.C,D48*%
X493455800Y16253200D03*
X493455800Y19803200D03*
%TD*%
%TO.C,D53*%
X334000000Y17375000D03*
X334000000Y13825000D03*
%TD*%
%TO.C,D55*%
X388680800Y1258200D03*
X388680800Y-2291800D03*
%TD*%
%TO.C,D56*%
X407476800Y1261200D03*
X407476800Y-2288800D03*
%TD*%
%TO.C,D57*%
X426700000Y125000D03*
X426700000Y3675000D03*
%TD*%
%TO.C,D49*%
X512378800Y19803200D03*
X512378800Y16253200D03*
%TD*%
%TO.C,D58*%
X445754600Y-1933200D03*
X445754600Y1616800D03*
%TD*%
%TO.C,D46*%
X455228800Y19800200D03*
X455228800Y16250200D03*
%TD*%
%TO.C,D47*%
X474405800Y16250200D03*
X474405800Y19800200D03*
%TD*%
%TO.C,C4*%
X446060000Y-13385000D03*
X446060000Y-16935000D03*
%TD*%
%TO.C,D51*%
X550351800Y16253200D03*
X550351800Y19803200D03*
%TD*%
%TO.C,C5*%
X439244740Y-13208460D03*
X439244740Y-16758460D03*
%TD*%
%TO.C,D50*%
X531555800Y16250200D03*
X531555800Y19800200D03*
%TD*%
%TO.C,D54*%
X369503800Y1261200D03*
X369503800Y-2288800D03*
%TD*%
%TO.C,D52*%
X574481800Y16120200D03*
X574481800Y12570200D03*
%TD*%
%TO.C,R4*%
X315250000Y17225000D03*
X315250000Y13675000D03*
%TD*%
D19*
%TO.C,USB1*%
X314351200Y25855400D03*
X314351200Y26355400D03*
X314351200Y26855400D03*
X314351200Y25355400D03*
X314351200Y27355400D03*
X314351200Y24855400D03*
X314351200Y27855400D03*
X314351200Y24355400D03*
D20*
X314351200Y23655400D03*
X314351200Y28555400D03*
X314351200Y22880400D03*
X314351200Y29330400D03*
%TD*%
D17*
%TO.C,D73*%
G36*
X319158000Y29463000D02*
G01*
X321958000Y29463000D01*
X321958000Y28463000D01*
X319158000Y28463000D01*
X319158000Y29463000D01*
G37*
D16*
X320558000Y27063000D03*
X324158000Y27063000D03*
D15*
X324158000Y28783000D03*
%TD*%
D12*
%TO.C,D66*%
X338642800Y-2034800D03*
X338642800Y1515200D03*
%TD*%
%TO.C,D67*%
X352943000Y-21110200D03*
X352943000Y-17560200D03*
%TD*%
%TO.C,D35*%
X469579800Y39615200D03*
X469579800Y36065200D03*
%TD*%
%TO.C,F4*%
X498100000Y74225000D03*
X498100000Y77775000D03*
%TD*%
%TO.C,D63*%
X540953800Y1261200D03*
X540953800Y-2288800D03*
%TD*%
D18*
%TO.C,R3*%
X417114200Y78667400D03*
X420664200Y78667400D03*
%TD*%
D12*
%TO.C,D36*%
X488756800Y39615200D03*
X488756800Y36065200D03*
%TD*%
%TO.C,D34*%
X450529800Y36065200D03*
X450529800Y39615200D03*
%TD*%
%TO.C,D68*%
X381798000Y-23587000D03*
X381798000Y-20037000D03*
%TD*%
%TO.C,R5*%
X311871200Y39564400D03*
X311871200Y36014400D03*
%TD*%
%TO.C,R9*%
X501863200Y77667400D03*
X501863200Y74117400D03*
%TD*%
%TO.C,R10*%
X504403200Y74114400D03*
X504403200Y77664400D03*
%TD*%
%TO.C,D62*%
X522030800Y-2288800D03*
X522030800Y1261200D03*
%TD*%
%TO.C,D72*%
X557692400Y-18500000D03*
X557692400Y-22050000D03*
%TD*%
%TO.C,D61*%
X502853800Y1261200D03*
X502853800Y-2288800D03*
%TD*%
%TO.C,D59*%
X464753800Y-2288800D03*
X464753800Y1261200D03*
%TD*%
%TO.C,F3*%
X312580000Y17175000D03*
X312580000Y13625000D03*
%TD*%
%TO.C,D60*%
X483803800Y1261200D03*
X483803800Y-2288800D03*
%TD*%
%TO.C,D64*%
X560003800Y1334400D03*
X560003800Y-2215600D03*
%TD*%
%TO.C,D65*%
X581146000Y-2319600D03*
X581146000Y1230400D03*
%TD*%
D18*
%TO.C,R6*%
X491198200Y67761400D03*
X494748200Y67761400D03*
%TD*%
D12*
%TO.C,D69*%
X469323420Y-22930660D03*
X469323420Y-19380660D03*
%TD*%
%TO.C,D70*%
X505378000Y-22362000D03*
X505378000Y-18812000D03*
%TD*%
%TO.C,D71*%
X533838000Y-18762000D03*
X533838000Y-22312000D03*
%TD*%
D21*
%TO.C,Y1*%
X426100000Y-7210000D03*
X429000000Y-7210000D03*
X429000000Y-9510000D03*
X426100000Y-9510000D03*
%TD*%
%TO.C,C2*%
G36*
G01*
X429690000Y-11185000D02*
X429690000Y-12435000D01*
G75*
G02*
X429440000Y-12685000I-250000J0D01*
G01*
X428515000Y-12685000D01*
G75*
G02*
X428265000Y-12435000I0J250000D01*
G01*
X428265000Y-11185000D01*
G75*
G02*
X428515000Y-10935000I250000J0D01*
G01*
X429440000Y-10935000D01*
G75*
G02*
X429690000Y-11185000I0J-250000D01*
G01*
G37*
G36*
G01*
X426715000Y-11185000D02*
X426715000Y-12435000D01*
G75*
G02*
X426465000Y-12685000I-250000J0D01*
G01*
X425540000Y-12685000D01*
G75*
G02*
X425290000Y-12435000I0J250000D01*
G01*
X425290000Y-11185000D01*
G75*
G02*
X425540000Y-10935000I250000J0D01*
G01*
X426465000Y-10935000D01*
G75*
G02*
X426715000Y-11185000I0J-250000D01*
G01*
G37*
%TD*%
M02*
