%TF.GenerationSoftware,KiCad,Pcbnew,(5.1.6)-1*%
%TF.CreationDate,2020-07-30T22:43:25+09:00*%
%TF.ProjectId,keyboard_v2,6b657962-6f61-4726-945f-76322e6b6963,rev?*%
%TF.SameCoordinates,Original*%
%TF.FileFunction,Other,Fab,Bot*%
%FSLAX46Y46*%
G04 Gerber Fmt 4.6, Leading zero omitted, Abs format (unit mm)*
G04 Created by KiCad (PCBNEW (5.1.6)-1) date 2020-07-30 22:43:25*
%MOMM*%
%LPD*%
G01*
G04 APERTURE LIST*
%ADD10C,0.150000*%
%ADD11C,0.100000*%
%ADD12C,0.120000*%
%ADD13C,0.075000*%
%ADD14C,0.105000*%
G04 APERTURE END LIST*
D10*
X425190000Y-23870000D02*
X426360000Y-25090000D01*
D11*
%TO.C,C1*%
X425997500Y-4130000D02*
X425997500Y-5730000D01*
X425997500Y-5730000D02*
X429197500Y-5730000D01*
X429197500Y-5730000D02*
X429197500Y-4130000D01*
X429197500Y-4130000D02*
X425997500Y-4130000D01*
%TO.C,D74*%
X501572200Y70524400D02*
X501572200Y67524400D01*
X501572200Y67524400D02*
X503972200Y67524400D01*
X503972200Y67524400D02*
X503972200Y70024400D01*
X503372200Y70524400D02*
X501572200Y70524400D01*
X503372200Y70524400D02*
X503972200Y70024400D01*
%TO.C,D73*%
X322958000Y29513000D02*
X323558000Y29013000D01*
X322958000Y29513000D02*
X321158000Y29513000D01*
X323558000Y26513000D02*
X323558000Y29013000D01*
X321158000Y26513000D02*
X323558000Y26513000D01*
X321158000Y29513000D02*
X321158000Y26513000D01*
%TO.C,SW1*%
X418991000Y91474200D02*
X418991000Y90214200D01*
X415491000Y91474200D02*
X415491000Y90214200D01*
X418991000Y91474200D02*
X415491000Y91474200D01*
X413791000Y83424200D02*
X413791000Y86764200D01*
X420991000Y83424200D02*
X420691000Y83424200D01*
X420691000Y86764200D02*
X413791000Y86764200D01*
X413491000Y83424200D02*
X413491000Y90214200D01*
X420991000Y90214200D02*
X413491000Y90214200D01*
X420991000Y83424200D02*
X420991000Y90214200D01*
X413791000Y83424200D02*
X413491000Y83424200D01*
X420691000Y83424200D02*
X420691000Y86764200D01*
%TO.C,Y1*%
X425950000Y-8110000D02*
X426950000Y-7110000D01*
X429150000Y-9610000D02*
X425950000Y-9610000D01*
X429150000Y-7110000D02*
X429150000Y-9610000D01*
X425950000Y-7110000D02*
X429150000Y-7110000D01*
X425950000Y-9610000D02*
X425950000Y-7110000D01*
%TO.C,C2*%
X429090000Y-12610000D02*
X429090000Y-11010000D01*
X429090000Y-11010000D02*
X425890000Y-11010000D01*
X425890000Y-11010000D02*
X425890000Y-12610000D01*
X425890000Y-12610000D02*
X429090000Y-12610000D01*
%TD*%
%TO.C,C1*%
D10*
X429240357Y-2657619D02*
X429192738Y-2610000D01*
X429097500Y-2562380D01*
X428859404Y-2562380D01*
X428764166Y-2610000D01*
X428716547Y-2657619D01*
X428668928Y-2752857D01*
X428668928Y-2848095D01*
X428716547Y-2990952D01*
X429287976Y-3562380D01*
X428668928Y-3562380D01*
X428287976Y-2657619D02*
X428240357Y-2610000D01*
X428145119Y-2562380D01*
X427907023Y-2562380D01*
X427811785Y-2610000D01*
X427764166Y-2657619D01*
X427716547Y-2752857D01*
X427716547Y-2848095D01*
X427764166Y-2990952D01*
X428335595Y-3562380D01*
X427716547Y-3562380D01*
X427287976Y-2895714D02*
X427287976Y-3895714D01*
X427287976Y-2943333D02*
X427192738Y-2895714D01*
X427002261Y-2895714D01*
X426907023Y-2943333D01*
X426859404Y-2990952D01*
X426811785Y-3086190D01*
X426811785Y-3371904D01*
X426859404Y-3467142D01*
X426907023Y-3514761D01*
X427002261Y-3562380D01*
X427192738Y-3562380D01*
X427287976Y-3514761D01*
X426049880Y-3038571D02*
X426383214Y-3038571D01*
X426383214Y-3562380D02*
X426383214Y-2562380D01*
X425907023Y-2562380D01*
D12*
X427730833Y-5215714D02*
X427768928Y-5253809D01*
X427883214Y-5291904D01*
X427959404Y-5291904D01*
X428073690Y-5253809D01*
X428149880Y-5177619D01*
X428187976Y-5101428D01*
X428226071Y-4949047D01*
X428226071Y-4834761D01*
X428187976Y-4682380D01*
X428149880Y-4606190D01*
X428073690Y-4530000D01*
X427959404Y-4491904D01*
X427883214Y-4491904D01*
X427768928Y-4530000D01*
X427730833Y-4568095D01*
X426968928Y-5291904D02*
X427426071Y-5291904D01*
X427197500Y-5291904D02*
X427197500Y-4491904D01*
X427273690Y-4606190D01*
X427349880Y-4682380D01*
X427426071Y-4720476D01*
%TO.C,D74*%
D10*
X507292200Y66092019D02*
X507292200Y67092019D01*
X506911247Y67092019D01*
X506816009Y67044400D01*
X506768390Y66996780D01*
X506720771Y66901542D01*
X506720771Y66758685D01*
X506768390Y66663447D01*
X506816009Y66615828D01*
X506911247Y66568209D01*
X507292200Y66568209D01*
X505720771Y66092019D02*
X506054104Y66568209D01*
X506292200Y66092019D02*
X506292200Y67092019D01*
X505911247Y67092019D01*
X505816009Y67044400D01*
X505768390Y66996780D01*
X505720771Y66901542D01*
X505720771Y66758685D01*
X505768390Y66663447D01*
X505816009Y66615828D01*
X505911247Y66568209D01*
X506292200Y66568209D01*
X505435057Y67092019D02*
X504863628Y67092019D01*
X505149342Y66092019D02*
X505149342Y67092019D01*
X503958866Y66092019D02*
X504292200Y66568209D01*
X504530295Y66092019D02*
X504530295Y67092019D01*
X504149342Y67092019D01*
X504054104Y67044400D01*
X504006485Y66996780D01*
X503958866Y66901542D01*
X503958866Y66758685D01*
X504006485Y66663447D01*
X504054104Y66615828D01*
X504149342Y66568209D01*
X504530295Y66568209D01*
X503054104Y67092019D02*
X503530295Y67092019D01*
X503577914Y66615828D01*
X503530295Y66663447D01*
X503435057Y66711066D01*
X503196961Y66711066D01*
X503101723Y66663447D01*
X503054104Y66615828D01*
X503006485Y66520590D01*
X503006485Y66282495D01*
X503054104Y66187257D01*
X503101723Y66139638D01*
X503196961Y66092019D01*
X503435057Y66092019D01*
X503530295Y66139638D01*
X503577914Y66187257D01*
X502720771Y67092019D02*
X502387438Y66092019D01*
X502054104Y67092019D01*
X501530295Y67092019D02*
X501435057Y67092019D01*
X501339819Y67044400D01*
X501292200Y66996780D01*
X501244580Y66901542D01*
X501196961Y66711066D01*
X501196961Y66472971D01*
X501244580Y66282495D01*
X501292200Y66187257D01*
X501339819Y66139638D01*
X501435057Y66092019D01*
X501530295Y66092019D01*
X501625533Y66139638D01*
X501673152Y66187257D01*
X501720771Y66282495D01*
X501768390Y66472971D01*
X501768390Y66711066D01*
X501720771Y66901542D01*
X501673152Y66996780D01*
X501625533Y67044400D01*
X501530295Y67092019D01*
X500768390Y67092019D02*
X500768390Y66282495D01*
X500720771Y66187257D01*
X500673152Y66139638D01*
X500577914Y66092019D01*
X500387438Y66092019D01*
X500292200Y66139638D01*
X500244580Y66187257D01*
X500196961Y66282495D01*
X500196961Y67092019D01*
X499768390Y66996780D02*
X499720771Y67044400D01*
X499625533Y67092019D01*
X499387438Y67092019D01*
X499292200Y67044400D01*
X499244580Y66996780D01*
X499196961Y66901542D01*
X499196961Y66806304D01*
X499244580Y66663447D01*
X499816009Y66092019D01*
X499196961Y66092019D01*
X498863628Y67092019D02*
X498196961Y66092019D01*
X498196961Y67092019D02*
X498863628Y66092019D01*
D13*
X502998390Y69631542D02*
X502498390Y69631542D01*
X502498390Y69512495D01*
X502522200Y69441066D01*
X502569819Y69393447D01*
X502617438Y69369638D01*
X502712676Y69345828D01*
X502784104Y69345828D01*
X502879342Y69369638D01*
X502926961Y69393447D01*
X502974580Y69441066D01*
X502998390Y69512495D01*
X502998390Y69631542D01*
X502498390Y69179161D02*
X502498390Y68845828D01*
X502998390Y69060114D01*
X502665057Y68441066D02*
X502998390Y68441066D01*
X502474580Y68560114D02*
X502831723Y68679161D01*
X502831723Y68369638D01*
%TO.C,D73*%
D10*
X326878000Y25080619D02*
X326878000Y26080619D01*
X326497047Y26080619D01*
X326401809Y26033000D01*
X326354190Y25985380D01*
X326306571Y25890142D01*
X326306571Y25747285D01*
X326354190Y25652047D01*
X326401809Y25604428D01*
X326497047Y25556809D01*
X326878000Y25556809D01*
X325306571Y25080619D02*
X325639904Y25556809D01*
X325878000Y25080619D02*
X325878000Y26080619D01*
X325497047Y26080619D01*
X325401809Y26033000D01*
X325354190Y25985380D01*
X325306571Y25890142D01*
X325306571Y25747285D01*
X325354190Y25652047D01*
X325401809Y25604428D01*
X325497047Y25556809D01*
X325878000Y25556809D01*
X325020857Y26080619D02*
X324449428Y26080619D01*
X324735142Y25080619D02*
X324735142Y26080619D01*
X323544666Y25080619D02*
X323878000Y25556809D01*
X324116095Y25080619D02*
X324116095Y26080619D01*
X323735142Y26080619D01*
X323639904Y26033000D01*
X323592285Y25985380D01*
X323544666Y25890142D01*
X323544666Y25747285D01*
X323592285Y25652047D01*
X323639904Y25604428D01*
X323735142Y25556809D01*
X324116095Y25556809D01*
X322639904Y26080619D02*
X323116095Y26080619D01*
X323163714Y25604428D01*
X323116095Y25652047D01*
X323020857Y25699666D01*
X322782761Y25699666D01*
X322687523Y25652047D01*
X322639904Y25604428D01*
X322592285Y25509190D01*
X322592285Y25271095D01*
X322639904Y25175857D01*
X322687523Y25128238D01*
X322782761Y25080619D01*
X323020857Y25080619D01*
X323116095Y25128238D01*
X323163714Y25175857D01*
X322306571Y26080619D02*
X321973238Y25080619D01*
X321639904Y26080619D01*
X321116095Y26080619D02*
X321020857Y26080619D01*
X320925619Y26033000D01*
X320878000Y25985380D01*
X320830380Y25890142D01*
X320782761Y25699666D01*
X320782761Y25461571D01*
X320830380Y25271095D01*
X320878000Y25175857D01*
X320925619Y25128238D01*
X321020857Y25080619D01*
X321116095Y25080619D01*
X321211333Y25128238D01*
X321258952Y25175857D01*
X321306571Y25271095D01*
X321354190Y25461571D01*
X321354190Y25699666D01*
X321306571Y25890142D01*
X321258952Y25985380D01*
X321211333Y26033000D01*
X321116095Y26080619D01*
X320354190Y26080619D02*
X320354190Y25271095D01*
X320306571Y25175857D01*
X320258952Y25128238D01*
X320163714Y25080619D01*
X319973238Y25080619D01*
X319878000Y25128238D01*
X319830380Y25175857D01*
X319782761Y25271095D01*
X319782761Y26080619D01*
X319354190Y25985380D02*
X319306571Y26033000D01*
X319211333Y26080619D01*
X318973238Y26080619D01*
X318878000Y26033000D01*
X318830380Y25985380D01*
X318782761Y25890142D01*
X318782761Y25794904D01*
X318830380Y25652047D01*
X319401809Y25080619D01*
X318782761Y25080619D01*
X318449428Y26080619D02*
X317782761Y25080619D01*
X317782761Y26080619D02*
X318449428Y25080619D01*
D13*
X322965142Y27786809D02*
X322965142Y28286809D01*
X322846095Y28286809D01*
X322774666Y28263000D01*
X322727047Y28215380D01*
X322703238Y28167761D01*
X322679428Y28072523D01*
X322679428Y28001095D01*
X322703238Y27905857D01*
X322727047Y27858238D01*
X322774666Y27810619D01*
X322846095Y27786809D01*
X322965142Y27786809D01*
X322512761Y28286809D02*
X322179428Y28286809D01*
X322393714Y27786809D01*
X322036571Y28286809D02*
X321727047Y28286809D01*
X321893714Y28096333D01*
X321822285Y28096333D01*
X321774666Y28072523D01*
X321750857Y28048714D01*
X321727047Y28001095D01*
X321727047Y27882047D01*
X321750857Y27834428D01*
X321774666Y27810619D01*
X321822285Y27786809D01*
X321965142Y27786809D01*
X322012761Y27810619D01*
X322036571Y27834428D01*
%TO.C,SW1*%
D10*
X420288619Y81829558D02*
X420145761Y81781939D01*
X419907666Y81781939D01*
X419812428Y81829558D01*
X419764809Y81877177D01*
X419717190Y81972415D01*
X419717190Y82067653D01*
X419764809Y82162891D01*
X419812428Y82210510D01*
X419907666Y82258129D01*
X420098142Y82305748D01*
X420193380Y82353367D01*
X420241000Y82400986D01*
X420288619Y82496224D01*
X420288619Y82591462D01*
X420241000Y82686700D01*
X420193380Y82734320D01*
X420098142Y82781939D01*
X419860047Y82781939D01*
X419717190Y82734320D01*
X419383857Y82781939D02*
X419145761Y81781939D01*
X418955285Y82496224D01*
X418764809Y81781939D01*
X418526714Y82781939D01*
X418383857Y81686700D02*
X417621952Y81686700D01*
X417383857Y81781939D02*
X417383857Y82781939D01*
X417002904Y82781939D01*
X416907666Y82734320D01*
X416860047Y82686700D01*
X416812428Y82591462D01*
X416812428Y82448605D01*
X416860047Y82353367D01*
X416907666Y82305748D01*
X417002904Y82258129D01*
X417383857Y82258129D01*
X415955285Y82448605D02*
X415955285Y81781939D01*
X416383857Y82448605D02*
X416383857Y81924796D01*
X416336238Y81829558D01*
X416241000Y81781939D01*
X416098142Y81781939D01*
X416002904Y81829558D01*
X415955285Y81877177D01*
X415526714Y81829558D02*
X415431476Y81781939D01*
X415241000Y81781939D01*
X415145761Y81829558D01*
X415098142Y81924796D01*
X415098142Y81972415D01*
X415145761Y82067653D01*
X415241000Y82115272D01*
X415383857Y82115272D01*
X415479095Y82162891D01*
X415526714Y82258129D01*
X415526714Y82305748D01*
X415479095Y82400986D01*
X415383857Y82448605D01*
X415241000Y82448605D01*
X415145761Y82400986D01*
X414669571Y81781939D02*
X414669571Y82781939D01*
X414241000Y81781939D02*
X414241000Y82305748D01*
X414288619Y82400986D01*
X414383857Y82448605D01*
X414526714Y82448605D01*
X414621952Y82400986D01*
X414669571Y82353367D01*
X418574333Y85539438D02*
X418431476Y85491819D01*
X418193380Y85491819D01*
X418098142Y85539438D01*
X418050523Y85587057D01*
X418002904Y85682295D01*
X418002904Y85777533D01*
X418050523Y85872771D01*
X418098142Y85920390D01*
X418193380Y85968009D01*
X418383857Y86015628D01*
X418479095Y86063247D01*
X418526714Y86110866D01*
X418574333Y86206104D01*
X418574333Y86301342D01*
X418526714Y86396580D01*
X418479095Y86444200D01*
X418383857Y86491819D01*
X418145761Y86491819D01*
X418002904Y86444200D01*
X417669571Y86491819D02*
X417431476Y85491819D01*
X417241000Y86206104D01*
X417050523Y85491819D01*
X416812428Y86491819D01*
X415907666Y85491819D02*
X416479095Y85491819D01*
X416193380Y85491819D02*
X416193380Y86491819D01*
X416288619Y86348961D01*
X416383857Y86253723D01*
X416479095Y86206104D01*
%TO.C,Y1*%
X429240476Y-5762380D02*
X429811904Y-5762380D01*
X429526190Y-5762380D02*
X429526190Y-4762380D01*
X429621428Y-4905238D01*
X429716666Y-5000476D01*
X429811904Y-5048095D01*
X428383333Y-4762380D02*
X428573809Y-4762380D01*
X428669047Y-4810000D01*
X428716666Y-4857619D01*
X428811904Y-5000476D01*
X428859523Y-5190952D01*
X428859523Y-5571904D01*
X428811904Y-5667142D01*
X428764285Y-5714761D01*
X428669047Y-5762380D01*
X428478571Y-5762380D01*
X428383333Y-5714761D01*
X428335714Y-5667142D01*
X428288095Y-5571904D01*
X428288095Y-5333809D01*
X428335714Y-5238571D01*
X428383333Y-5190952D01*
X428478571Y-5143333D01*
X428669047Y-5143333D01*
X428764285Y-5190952D01*
X428811904Y-5238571D01*
X428859523Y-5333809D01*
X427859523Y-5762380D02*
X427859523Y-4762380D01*
X427526190Y-5476666D01*
X427192857Y-4762380D01*
X427192857Y-5762380D01*
X426716666Y-5762380D02*
X426716666Y-4762380D01*
X426716666Y-5238571D02*
X426145238Y-5238571D01*
X426145238Y-5762380D02*
X426145238Y-4762380D01*
X425764285Y-5095714D02*
X425240476Y-5095714D01*
X425764285Y-5762380D01*
X425240476Y-5762380D01*
D14*
X427883333Y-8343333D02*
X427883333Y-8676666D01*
X428116666Y-7976666D02*
X427883333Y-8343333D01*
X427650000Y-7976666D01*
X427050000Y-8676666D02*
X427450000Y-8676666D01*
X427250000Y-8676666D02*
X427250000Y-7976666D01*
X427316666Y-8076666D01*
X427383333Y-8143333D01*
X427450000Y-8176666D01*
%TO.C,C2*%
D10*
X429132857Y-13177619D02*
X429085238Y-13130000D01*
X428990000Y-13082380D01*
X428751904Y-13082380D01*
X428656666Y-13130000D01*
X428609047Y-13177619D01*
X428561428Y-13272857D01*
X428561428Y-13368095D01*
X428609047Y-13510952D01*
X429180476Y-14082380D01*
X428561428Y-14082380D01*
X428180476Y-13177619D02*
X428132857Y-13130000D01*
X428037619Y-13082380D01*
X427799523Y-13082380D01*
X427704285Y-13130000D01*
X427656666Y-13177619D01*
X427609047Y-13272857D01*
X427609047Y-13368095D01*
X427656666Y-13510952D01*
X428228095Y-14082380D01*
X427609047Y-14082380D01*
X427180476Y-13415714D02*
X427180476Y-14415714D01*
X427180476Y-13463333D02*
X427085238Y-13415714D01*
X426894761Y-13415714D01*
X426799523Y-13463333D01*
X426751904Y-13510952D01*
X426704285Y-13606190D01*
X426704285Y-13891904D01*
X426751904Y-13987142D01*
X426799523Y-14034761D01*
X426894761Y-14082380D01*
X427085238Y-14082380D01*
X427180476Y-14034761D01*
X425942380Y-13558571D02*
X426275714Y-13558571D01*
X426275714Y-14082380D02*
X426275714Y-13082380D01*
X425799523Y-13082380D01*
D12*
X427623333Y-12095714D02*
X427661428Y-12133809D01*
X427775714Y-12171904D01*
X427851904Y-12171904D01*
X427966190Y-12133809D01*
X428042380Y-12057619D01*
X428080476Y-11981428D01*
X428118571Y-11829047D01*
X428118571Y-11714761D01*
X428080476Y-11562380D01*
X428042380Y-11486190D01*
X427966190Y-11410000D01*
X427851904Y-11371904D01*
X427775714Y-11371904D01*
X427661428Y-11410000D01*
X427623333Y-11448095D01*
X427318571Y-11448095D02*
X427280476Y-11410000D01*
X427204285Y-11371904D01*
X427013809Y-11371904D01*
X426937619Y-11410000D01*
X426899523Y-11448095D01*
X426861428Y-11524285D01*
X426861428Y-11600476D01*
X426899523Y-11714761D01*
X427356666Y-12171904D01*
X426861428Y-12171904D01*
%TD*%
M02*
