%TF.GenerationSoftware,KiCad,Pcbnew,(5.1.6)-1*%
%TF.CreationDate,2020-07-30T22:43:25+09:00*%
%TF.ProjectId,keyboard_v2,6b657962-6f61-4726-945f-76322e6b6963,rev?*%
%TF.SameCoordinates,Original*%
%TF.FileFunction,Soldermask,Bot*%
%TF.FilePolarity,Negative*%
%FSLAX46Y46*%
G04 Gerber Fmt 4.6, Leading zero omitted, Abs format (unit mm)*
G04 Created by KiCad (PCBNEW (5.1.6)-1) date 2020-07-30 22:43:25*
%MOMM*%
%LPD*%
G01*
G04 APERTURE LIST*
%ADD10R,0.600000X2.450000*%
%ADD11R,0.300000X2.450000*%
%ADD12C,0.650000*%
%ADD13C,2.250000*%
%ADD14R,0.950000X1.300000*%
%ADD15R,1.397000X1.397000*%
%ADD16C,1.397000*%
%ADD17C,5.000000*%
%ADD18R,0.508000X1.473200*%
%ADD19R,1.473200X0.508000*%
%ADD20R,2.800000X1.200000*%
%ADD21R,2.800000X1.000000*%
%ADD22C,0.100000*%
%ADD23R,1.300000X0.950000*%
%ADD24R,2.450000X0.300000*%
%ADD25R,2.450000X0.600000*%
%ADD26C,2.100000*%
%ADD27C,1.750000*%
%ADD28R,2.100000X1.800000*%
G04 APERTURE END LIST*
D10*
%TO.C,USB2*%
X506104200Y83696400D03*
X499654200Y83696400D03*
X505329200Y83696400D03*
X500429200Y83696400D03*
D11*
X501129200Y83696400D03*
X504629200Y83696400D03*
X501629200Y83696400D03*
X504129200Y83696400D03*
X502129200Y83696400D03*
X503629200Y83696400D03*
X503129200Y83696400D03*
X502629200Y83696400D03*
D12*
X505769200Y85641400D03*
X499989200Y85641400D03*
%TD*%
D13*
%TO.C,MX55*%
X419610000Y4490000D03*
X414610000Y3990000D03*
%TD*%
%TO.C,C1*%
G36*
G01*
X425397500Y-5555000D02*
X425397500Y-4305000D01*
G75*
G02*
X425647500Y-4055000I250000J0D01*
G01*
X426572500Y-4055000D01*
G75*
G02*
X426822500Y-4305000I0J-250000D01*
G01*
X426822500Y-5555000D01*
G75*
G02*
X426572500Y-5805000I-250000J0D01*
G01*
X425647500Y-5805000D01*
G75*
G02*
X425397500Y-5555000I0J250000D01*
G01*
G37*
G36*
G01*
X428372500Y-5555000D02*
X428372500Y-4305000D01*
G75*
G02*
X428622500Y-4055000I250000J0D01*
G01*
X429547500Y-4055000D01*
G75*
G02*
X429797500Y-4305000I0J-250000D01*
G01*
X429797500Y-5555000D01*
G75*
G02*
X429547500Y-5805000I-250000J0D01*
G01*
X428622500Y-5805000D01*
G75*
G02*
X428372500Y-5555000I0J250000D01*
G01*
G37*
%TD*%
D14*
%TO.C,R1*%
X333850000Y29505000D03*
D15*
X333850000Y31540000D03*
D16*
X333850000Y23920000D03*
D14*
X333850000Y25955000D03*
%TD*%
D13*
%TO.C,MX6*%
X427390900Y78367800D03*
X426890900Y83367800D03*
%TD*%
%TO.C,MX26*%
X324442300Y42479900D03*
X319442300Y41979900D03*
%TD*%
%TO.C,F1*%
X513204800Y78380500D03*
X512704800Y83380500D03*
%TD*%
D17*
%TO.C,Ref\u002A\u002A*%
X322066920Y68455540D03*
%TD*%
D13*
%TO.C,MX52*%
X357542300Y3930700D03*
X362542300Y4430700D03*
%TD*%
%TO.C,MX5*%
X398417500Y83431300D03*
X398917500Y78431300D03*
%TD*%
D18*
%TO.C,U1*%
X426247400Y-25863000D03*
X427034800Y-25863000D03*
X427847600Y-25863000D03*
X428635000Y-25863000D03*
X429447800Y-25863000D03*
X430235200Y-25863000D03*
X431022600Y-25863000D03*
X431835400Y-25863000D03*
X432622800Y-25863000D03*
X433435600Y-25863000D03*
X434223000Y-25863000D03*
D19*
X435975600Y-24110400D03*
X435975600Y-23323000D03*
X435975600Y-22510200D03*
X435975600Y-21722800D03*
X435975600Y-20910000D03*
X435975600Y-20122600D03*
X435975600Y-19335200D03*
X435975600Y-18522400D03*
X435975600Y-17735000D03*
X435975600Y-16922200D03*
X435975600Y-16134800D03*
D18*
X434223000Y-14382200D03*
X433435600Y-14382200D03*
X432622800Y-14382200D03*
X431835400Y-14382200D03*
X431022600Y-14382200D03*
X430235200Y-14382200D03*
X429447800Y-14382200D03*
X428635000Y-14382200D03*
X427847600Y-14382200D03*
X427034800Y-14382200D03*
X426247400Y-14382200D03*
D19*
X424494800Y-16134800D03*
X424494800Y-16922200D03*
X424494800Y-17735000D03*
X424494800Y-18522400D03*
X424494800Y-19335200D03*
X424494800Y-20122600D03*
X424494800Y-20910000D03*
X424494800Y-21722800D03*
X424494800Y-22510200D03*
X424494800Y-23323000D03*
X424494800Y-24110400D03*
%TD*%
D13*
%TO.C,MX68*%
X493158000Y-15207000D03*
X498158000Y-14707000D03*
%TD*%
D20*
%TO.C,D74*%
X504572200Y69794400D03*
D21*
X504572200Y68074400D03*
X500972200Y68074400D03*
D22*
G36*
X499572200Y70474400D02*
G01*
X502372200Y70474400D01*
X502372200Y69474400D01*
X499572200Y69474400D01*
X499572200Y70474400D01*
G37*
%TD*%
D13*
%TO.C,MX56*%
X438620000Y4390000D03*
X433620000Y3890000D03*
%TD*%
%TO.C,MX27*%
X343254800Y42043400D03*
X348254800Y42543400D03*
%TD*%
%TO.C,MX67*%
X461919800Y-14301800D03*
X456919800Y-14801800D03*
%TD*%
D23*
%TO.C,R8*%
X443087300Y-25768300D03*
D15*
X445122300Y-25768300D03*
D16*
X437502300Y-25768300D03*
D23*
X439537300Y-25768300D03*
%TD*%
D14*
%TO.C,C3*%
X415508440Y-19021600D03*
D16*
X415508440Y-21056600D03*
D15*
X415508440Y-13436600D03*
D14*
X415508440Y-15471600D03*
%TD*%
D13*
%TO.C,MX54*%
X400594200Y4525400D03*
X395594200Y4025400D03*
%TD*%
%TO.C,MX50*%
X570238000Y25973000D03*
X569738000Y30973000D03*
%TD*%
%TO.C,MX32*%
X443454000Y42505300D03*
X438454000Y42005300D03*
%TD*%
%TO.C,MX59*%
X495866900Y4418000D03*
X490866900Y3918000D03*
%TD*%
%TO.C,MX41*%
X386117300Y22968000D03*
X391117300Y23468000D03*
%TD*%
D17*
%TO.C,Ref\u002A\u002A*%
X325620380Y-13693140D03*
%TD*%
%TO.C,.*%
X477949260Y-18013680D03*
%TD*%
%TO.C,Ref\u002A\u002A*%
X566686700Y-16192500D03*
%TD*%
%TO.C,-*%
X562175660Y69331840D03*
%TD*%
%TO.C,Ref\u002A\u002A*%
X444593980Y67957700D03*
%TD*%
D13*
%TO.C,MX4*%
X379854800Y78380500D03*
X379354800Y83380500D03*
%TD*%
%TO.C,MX63*%
X574416400Y4367200D03*
X569416400Y3867200D03*
%TD*%
%TO.C,MX69*%
X526777200Y-14568500D03*
X521777200Y-15068500D03*
%TD*%
%TO.C,MX17*%
X414929800Y61580700D03*
X409929800Y61080700D03*
%TD*%
%TO.C,MX66*%
X374138000Y-14727000D03*
X369138000Y-15227000D03*
%TD*%
%TO.C,MX2*%
X341729400Y78405900D03*
X341229400Y83405900D03*
%TD*%
D14*
%TO.C,R2*%
X336430000Y29405000D03*
D15*
X336430000Y31440000D03*
D16*
X336430000Y23820000D03*
D14*
X336430000Y25855000D03*
%TD*%
%TO.C,D5*%
X412582200Y78070800D03*
D16*
X412582200Y80105800D03*
D15*
X412582200Y72485800D03*
D14*
X412582200Y74520800D03*
%TD*%
D23*
%TO.C,R7*%
X510502200Y67761400D03*
D16*
X508467200Y67761400D03*
D15*
X516087200Y67761400D03*
D23*
X514052200Y67761400D03*
%TD*%
D14*
%TO.C,D45*%
X436305800Y19806200D03*
D16*
X436305800Y21841200D03*
D15*
X436305800Y14221200D03*
D14*
X436305800Y16256200D03*
%TD*%
%TO.C,D44*%
X417255800Y19927200D03*
D16*
X417255800Y21962200D03*
D15*
X417255800Y14342200D03*
D14*
X417255800Y16377200D03*
%TD*%
%TO.C,D41*%
X359978800Y19930200D03*
D16*
X359978800Y21965200D03*
D15*
X359978800Y14345200D03*
D14*
X359978800Y16380200D03*
%TD*%
%TO.C,D42*%
X379028800Y19930200D03*
D16*
X379028800Y21965200D03*
D15*
X379028800Y14345200D03*
D14*
X379028800Y16380200D03*
%TD*%
%TO.C,D40*%
X564829800Y37329200D03*
D16*
X564829800Y39364200D03*
D15*
X564829800Y31744200D03*
D14*
X564829800Y33779200D03*
%TD*%
%TO.C,D39*%
X545652800Y38853200D03*
D16*
X545652800Y40888200D03*
D15*
X545652800Y33268200D03*
D14*
X545652800Y35303200D03*
%TD*%
%TO.C,D43*%
X398205800Y19930200D03*
D16*
X398205800Y21965200D03*
D15*
X398205800Y14345200D03*
D14*
X398205800Y16380200D03*
%TD*%
%TO.C,D37*%
X507743300Y39358200D03*
D16*
X507743300Y41393200D03*
D15*
X507743300Y33773200D03*
D14*
X507743300Y35808200D03*
%TD*%
%TO.C,D27*%
X579307800Y58411200D03*
D16*
X579307800Y60446200D03*
D15*
X579307800Y52826200D03*
D14*
X579307800Y54861200D03*
%TD*%
%TO.C,D30*%
X374329800Y39615200D03*
D16*
X374329800Y41650200D03*
D15*
X374329800Y34030200D03*
D14*
X374329800Y36065200D03*
%TD*%
%TO.C,D24*%
X517204800Y58919200D03*
D16*
X517204800Y60954200D03*
D15*
X517204800Y53334200D03*
D14*
X517204800Y55369200D03*
%TD*%
%TO.C,D25*%
X536254800Y58665200D03*
D16*
X536254800Y60700200D03*
D15*
X536254800Y53080200D03*
D14*
X536254800Y55115200D03*
%TD*%
%TO.C,D23*%
X498154800Y59173200D03*
D16*
X498154800Y61208200D03*
D15*
X498154800Y53588200D03*
D14*
X498154800Y55623200D03*
%TD*%
%TO.C,D29*%
X355279800Y39615200D03*
D16*
X355279800Y41650200D03*
D15*
X355279800Y34030200D03*
D14*
X355279800Y36065200D03*
%TD*%
%TO.C,D26*%
X555304800Y58665200D03*
D16*
X555304800Y60700200D03*
D15*
X555304800Y53080200D03*
D14*
X555304800Y55115200D03*
%TD*%
%TO.C,D22*%
X479104800Y59173200D03*
D16*
X479104800Y61208200D03*
D15*
X479104800Y53588200D03*
D14*
X479104800Y55623200D03*
%TD*%
%TO.C,D21*%
X460054800Y59173200D03*
D16*
X460054800Y61208200D03*
D15*
X460054800Y53588200D03*
D14*
X460054800Y55623200D03*
%TD*%
%TO.C,D20*%
X441004800Y59173200D03*
D16*
X441004800Y61208200D03*
D15*
X441004800Y53588200D03*
D14*
X441004800Y55623200D03*
%TD*%
%TO.C,D19*%
X422208800Y59173200D03*
D16*
X422208800Y61208200D03*
D15*
X422208800Y53588200D03*
D14*
X422208800Y55623200D03*
%TD*%
%TO.C,D28*%
X332400000Y40475000D03*
D16*
X332400000Y42510000D03*
D15*
X332400000Y34890000D03*
D14*
X332400000Y36925000D03*
%TD*%
%TO.C,D18*%
X402904800Y59173200D03*
D16*
X402904800Y61208200D03*
D15*
X402904800Y53588200D03*
D14*
X402904800Y55623200D03*
%TD*%
%TO.C,D32*%
X412556800Y39615200D03*
D16*
X412556800Y41650200D03*
D15*
X412556800Y34030200D03*
D14*
X412556800Y36065200D03*
%TD*%
%TO.C,D38*%
X526729800Y38916700D03*
D16*
X526729800Y40951700D03*
D15*
X526729800Y33331700D03*
D14*
X526729800Y35366700D03*
%TD*%
%TO.C,D31*%
X393379800Y39615200D03*
D16*
X393379800Y41650200D03*
D15*
X393379800Y34030200D03*
D14*
X393379800Y36065200D03*
%TD*%
%TO.C,D33*%
X431606800Y39615200D03*
D16*
X431606800Y41650200D03*
D15*
X431606800Y34030200D03*
D14*
X431606800Y36065200D03*
%TD*%
%TO.C,D2*%
X355152800Y82541200D03*
D16*
X355152800Y84576200D03*
D15*
X355152800Y76956200D03*
D14*
X355152800Y78991200D03*
%TD*%
D23*
%TO.C,D13*%
X572599200Y69920400D03*
D16*
X574634200Y69920400D03*
D15*
X567014200Y69920400D03*
D23*
X569049200Y69920400D03*
%TD*%
D14*
%TO.C,D17*%
X383854800Y59173200D03*
D16*
X383854800Y61208200D03*
D15*
X383854800Y53588200D03*
D14*
X383854800Y55623200D03*
%TD*%
%TO.C,D8*%
X479143060Y82287920D03*
D16*
X479143060Y84322920D03*
D15*
X479143060Y76702920D03*
D14*
X479143060Y78737920D03*
%TD*%
%TO.C,D3*%
X374482200Y82541200D03*
D16*
X374482200Y84576200D03*
D15*
X374482200Y76956200D03*
D14*
X374482200Y78991200D03*
%TD*%
%TO.C,D6*%
X441004800Y82541200D03*
D16*
X441004800Y84576200D03*
D15*
X441004800Y76956200D03*
D14*
X441004800Y78991200D03*
%TD*%
%TO.C,D15*%
X345500800Y59173200D03*
D16*
X345500800Y61208200D03*
D15*
X345500800Y53588200D03*
D14*
X345500800Y55623200D03*
%TD*%
%TO.C,C7*%
X441592460Y-13262760D03*
D15*
X441592460Y-11227760D03*
D16*
X441592460Y-18847760D03*
D14*
X441592460Y-16812760D03*
%TD*%
%TO.C,C6*%
X443794640Y-13262760D03*
D15*
X443794640Y-11227760D03*
D16*
X443794640Y-18847760D03*
D14*
X443794640Y-16812760D03*
%TD*%
%TO.C,D7*%
X459800800Y82541200D03*
D16*
X459800800Y84576200D03*
D15*
X459800800Y76956200D03*
D14*
X459800800Y78991200D03*
%TD*%
%TO.C,D4*%
X393252800Y82541200D03*
D16*
X393252800Y84576200D03*
D15*
X393252800Y76956200D03*
D14*
X393252800Y78991200D03*
%TD*%
%TO.C,D1*%
X326933400Y82541200D03*
D16*
X326933400Y84576200D03*
D15*
X326933400Y76956200D03*
D14*
X326933400Y78991200D03*
%TD*%
%TO.C,D14*%
X326704800Y59173200D03*
D16*
X326704800Y61208200D03*
D15*
X326704800Y53588200D03*
D14*
X326704800Y55623200D03*
%TD*%
%TO.C,D10*%
X526856800Y84573200D03*
D16*
X526856800Y86608200D03*
D15*
X526856800Y78988200D03*
D14*
X526856800Y81023200D03*
%TD*%
%TO.C,D16*%
X364804800Y59173200D03*
D16*
X364804800Y61208200D03*
D15*
X364804800Y53588200D03*
D14*
X364804800Y55623200D03*
%TD*%
%TO.C,D12*%
X564956800Y84573200D03*
D16*
X564956800Y86608200D03*
D15*
X564956800Y78988200D03*
D14*
X564956800Y81023200D03*
%TD*%
D23*
%TO.C,D9*%
X489541200Y71444400D03*
D16*
X491576200Y71444400D03*
D15*
X483956200Y71444400D03*
D23*
X485991200Y71444400D03*
%TD*%
D14*
%TO.C,D11*%
X545652800Y84573200D03*
D16*
X545652800Y86608200D03*
D15*
X545652800Y78988200D03*
D14*
X545652800Y81023200D03*
%TD*%
%TO.C,D48*%
X493455800Y16253200D03*
D15*
X493455800Y14218200D03*
D16*
X493455800Y21838200D03*
D14*
X493455800Y19803200D03*
%TD*%
%TO.C,D53*%
X334000000Y17375000D03*
D16*
X334000000Y19410000D03*
D15*
X334000000Y11790000D03*
D14*
X334000000Y13825000D03*
%TD*%
%TO.C,D55*%
X388680800Y1258200D03*
D16*
X388680800Y3293200D03*
D15*
X388680800Y-4326800D03*
D14*
X388680800Y-2291800D03*
%TD*%
%TO.C,D56*%
X407476800Y1261200D03*
D16*
X407476800Y3296200D03*
D15*
X407476800Y-4323800D03*
D14*
X407476800Y-2288800D03*
%TD*%
%TO.C,D57*%
X426700000Y125000D03*
D15*
X426700000Y-1910000D03*
D16*
X426700000Y5710000D03*
D14*
X426700000Y3675000D03*
%TD*%
%TO.C,D49*%
X512378800Y19803200D03*
D16*
X512378800Y21838200D03*
D15*
X512378800Y14218200D03*
D14*
X512378800Y16253200D03*
%TD*%
%TO.C,D58*%
X445754600Y-1933200D03*
D15*
X445754600Y-3968200D03*
D16*
X445754600Y3651800D03*
D14*
X445754600Y1616800D03*
%TD*%
%TO.C,D46*%
X455228800Y19800200D03*
D16*
X455228800Y21835200D03*
D15*
X455228800Y14215200D03*
D14*
X455228800Y16250200D03*
%TD*%
%TO.C,D47*%
X474405800Y16250200D03*
D15*
X474405800Y14215200D03*
D16*
X474405800Y21835200D03*
D14*
X474405800Y19800200D03*
%TD*%
%TO.C,C4*%
X446060000Y-13385000D03*
D15*
X446060000Y-11350000D03*
D16*
X446060000Y-18970000D03*
D14*
X446060000Y-16935000D03*
%TD*%
%TO.C,D51*%
X550351800Y16253200D03*
D15*
X550351800Y14218200D03*
D16*
X550351800Y21838200D03*
D14*
X550351800Y19803200D03*
%TD*%
%TO.C,C5*%
X439244740Y-13208460D03*
D15*
X439244740Y-11173460D03*
D16*
X439244740Y-18793460D03*
D14*
X439244740Y-16758460D03*
%TD*%
%TO.C,D50*%
X531555800Y16250200D03*
D15*
X531555800Y14215200D03*
D16*
X531555800Y21835200D03*
D14*
X531555800Y19800200D03*
%TD*%
%TO.C,D54*%
X369503800Y1261200D03*
D16*
X369503800Y3296200D03*
D15*
X369503800Y-4323800D03*
D14*
X369503800Y-2288800D03*
%TD*%
%TO.C,D52*%
X574481800Y16120200D03*
D16*
X574481800Y18155200D03*
D15*
X574481800Y10535200D03*
D14*
X574481800Y12570200D03*
%TD*%
%TO.C,R4*%
X315250000Y17225000D03*
D16*
X315250000Y19260000D03*
D15*
X315250000Y11640000D03*
D14*
X315250000Y13675000D03*
%TD*%
D12*
%TO.C,USB1*%
X312406200Y23215400D03*
X312406200Y28995400D03*
D24*
X314351200Y25855400D03*
X314351200Y26355400D03*
X314351200Y26855400D03*
X314351200Y25355400D03*
X314351200Y27355400D03*
X314351200Y24855400D03*
X314351200Y27855400D03*
X314351200Y24355400D03*
D25*
X314351200Y23655400D03*
X314351200Y28555400D03*
X314351200Y22880400D03*
X314351200Y29330400D03*
%TD*%
D22*
%TO.C,D73*%
G36*
X319158000Y29463000D02*
G01*
X321958000Y29463000D01*
X321958000Y28463000D01*
X319158000Y28463000D01*
X319158000Y29463000D01*
G37*
D21*
X320558000Y27063000D03*
X324158000Y27063000D03*
D20*
X324158000Y28783000D03*
%TD*%
D14*
%TO.C,D66*%
X338642800Y-2034800D03*
D15*
X338642800Y-4069800D03*
D16*
X338642800Y3550200D03*
D14*
X338642800Y1515200D03*
%TD*%
%TO.C,D67*%
X352943000Y-21110200D03*
D15*
X352943000Y-23145200D03*
D16*
X352943000Y-15525200D03*
D14*
X352943000Y-17560200D03*
%TD*%
%TO.C,D35*%
X469579800Y39615200D03*
D16*
X469579800Y41650200D03*
D15*
X469579800Y34030200D03*
D14*
X469579800Y36065200D03*
%TD*%
%TO.C,F4*%
X498100000Y74225000D03*
D15*
X498100000Y72190000D03*
D16*
X498100000Y79810000D03*
D14*
X498100000Y77775000D03*
%TD*%
%TO.C,D63*%
X540953800Y1261200D03*
D16*
X540953800Y3296200D03*
D15*
X540953800Y-4323800D03*
D14*
X540953800Y-2288800D03*
%TD*%
D23*
%TO.C,R3*%
X417114200Y78667400D03*
D15*
X415079200Y78667400D03*
D16*
X422699200Y78667400D03*
D23*
X420664200Y78667400D03*
%TD*%
D14*
%TO.C,D36*%
X488756800Y39615200D03*
X488756800Y36065200D03*
D15*
X488756800Y34030200D03*
D16*
X488756800Y41650200D03*
%TD*%
D14*
%TO.C,D34*%
X450529800Y36065200D03*
D15*
X450529800Y34030200D03*
D16*
X450529800Y41650200D03*
D14*
X450529800Y39615200D03*
%TD*%
%TO.C,D68*%
X381798000Y-23587000D03*
D15*
X381798000Y-25622000D03*
D16*
X381798000Y-18002000D03*
D14*
X381798000Y-20037000D03*
%TD*%
%TO.C,R5*%
X311871200Y39564400D03*
D15*
X311871200Y41599400D03*
D16*
X311871200Y33979400D03*
D14*
X311871200Y36014400D03*
%TD*%
%TO.C,R9*%
X501863200Y77667400D03*
D16*
X501863200Y79702400D03*
D15*
X501863200Y72082400D03*
D14*
X501863200Y74117400D03*
%TD*%
%TO.C,R10*%
X504403200Y74114400D03*
D15*
X504403200Y72079400D03*
D16*
X504403200Y79699400D03*
D14*
X504403200Y77664400D03*
%TD*%
%TO.C,D62*%
X522030800Y-2288800D03*
D15*
X522030800Y-4323800D03*
D16*
X522030800Y3296200D03*
D14*
X522030800Y1261200D03*
%TD*%
%TO.C,D72*%
X557692400Y-18500000D03*
D16*
X557692400Y-16465000D03*
D15*
X557692400Y-24085000D03*
D14*
X557692400Y-22050000D03*
%TD*%
%TO.C,D61*%
X502853800Y1261200D03*
D16*
X502853800Y3296200D03*
D15*
X502853800Y-4323800D03*
D14*
X502853800Y-2288800D03*
%TD*%
%TO.C,D59*%
X464753800Y-2288800D03*
D15*
X464753800Y-4323800D03*
D16*
X464753800Y3296200D03*
D14*
X464753800Y1261200D03*
%TD*%
%TO.C,F3*%
X312580000Y17175000D03*
D16*
X312580000Y19210000D03*
D15*
X312580000Y11590000D03*
D14*
X312580000Y13625000D03*
%TD*%
%TO.C,D60*%
X483803800Y1261200D03*
D16*
X483803800Y3296200D03*
D15*
X483803800Y-4323800D03*
D14*
X483803800Y-2288800D03*
%TD*%
%TO.C,D64*%
X560003800Y1334400D03*
D16*
X560003800Y3369400D03*
D15*
X560003800Y-4250600D03*
D14*
X560003800Y-2215600D03*
%TD*%
%TO.C,D65*%
X581146000Y-2319600D03*
D15*
X581146000Y-4354600D03*
D16*
X581146000Y3265400D03*
D14*
X581146000Y1230400D03*
%TD*%
D23*
%TO.C,R6*%
X491198200Y67761400D03*
D15*
X489163200Y67761400D03*
D16*
X496783200Y67761400D03*
D23*
X494748200Y67761400D03*
%TD*%
D14*
%TO.C,D69*%
X469323420Y-22930660D03*
D15*
X469323420Y-24965660D03*
D16*
X469323420Y-17345660D03*
D14*
X469323420Y-19380660D03*
%TD*%
%TO.C,D70*%
X505378000Y-22362000D03*
D15*
X505378000Y-24397000D03*
D16*
X505378000Y-16777000D03*
D14*
X505378000Y-18812000D03*
%TD*%
%TO.C,D71*%
X533838000Y-18762000D03*
D16*
X533838000Y-16727000D03*
D15*
X533838000Y-24347000D03*
D14*
X533838000Y-22312000D03*
%TD*%
D26*
%TO.C,SW1*%
X413731000Y85134200D03*
D27*
X414991000Y87624200D03*
X419491000Y87624200D03*
D26*
X420741000Y85134200D03*
%TD*%
D13*
%TO.C,MX1*%
X314667100Y84893200D03*
X319667100Y85393200D03*
%TD*%
%TO.C,MX3*%
X360304800Y83367800D03*
X360804800Y78367800D03*
%TD*%
%TO.C,MX7*%
X445979160Y83401540D03*
X446479160Y78401540D03*
%TD*%
%TO.C,MX8*%
X465554400Y78380500D03*
X465054400Y83380500D03*
%TD*%
%TO.C,MX9*%
X484617100Y78380500D03*
X484117100Y83380500D03*
%TD*%
%TO.C,MX10*%
X550728600Y83380500D03*
X551228600Y78380500D03*
%TD*%
%TO.C,MX11*%
X569791300Y83393200D03*
X570291300Y78393200D03*
%TD*%
%TO.C,MX12*%
X314654400Y61080700D03*
X319654400Y61580700D03*
%TD*%
%TO.C,MX13*%
X338679000Y61593400D03*
X333679000Y61093400D03*
%TD*%
%TO.C,MX14*%
X352716300Y61093400D03*
X357716300Y61593400D03*
%TD*%
%TO.C,MX15*%
X376779000Y61580700D03*
X371779000Y61080700D03*
%TD*%
%TO.C,MX16*%
X390854400Y61093400D03*
X395854400Y61593400D03*
%TD*%
%TO.C,MX18*%
X428941700Y61068000D03*
X433941700Y61568000D03*
%TD*%
%TO.C,MX19*%
X452966300Y61479100D03*
X447966300Y60979100D03*
%TD*%
%TO.C,MX20*%
X467054400Y61017200D03*
X472054400Y61517200D03*
%TD*%
%TO.C,MX21*%
X486129800Y61017200D03*
X491129800Y61517200D03*
%TD*%
%TO.C,MX22*%
X505192500Y61055300D03*
X510192500Y61555300D03*
%TD*%
%TO.C,MX23*%
X529356800Y61517200D03*
X524356800Y61017200D03*
%TD*%
%TO.C,MX24*%
X548279800Y61517200D03*
X543279800Y61017200D03*
%TD*%
%TO.C,MX25*%
X567079600Y61106100D03*
X572079600Y61606100D03*
%TD*%
%TO.C,MX28*%
X367241300Y42581500D03*
X362241300Y42081500D03*
%TD*%
%TO.C,MX31*%
X419416700Y42018000D03*
X424416700Y42518000D03*
%TD*%
%TO.C,MX35*%
X495654800Y42094200D03*
X500654800Y42594200D03*
%TD*%
%TO.C,MX36*%
X519704800Y42492600D03*
X514704800Y41992600D03*
%TD*%
%TO.C,MX37*%
X533716700Y41979900D03*
X538716700Y42479900D03*
%TD*%
%TO.C,MX38*%
X557779400Y42518000D03*
X552779400Y42018000D03*
%TD*%
%TO.C,MX39*%
X347979200Y22968000D03*
X352979200Y23468000D03*
%TD*%
%TO.C,MX40*%
X372054600Y23468000D03*
X367054600Y22968000D03*
%TD*%
%TO.C,MX42*%
X410230800Y23480700D03*
X405230800Y22980700D03*
%TD*%
%TO.C,MX43*%
X424217300Y23006100D03*
X429217300Y23506100D03*
%TD*%
%TO.C,MX44*%
X443254600Y23006100D03*
X448254600Y23506100D03*
%TD*%
%TO.C,MX45*%
X467304600Y23493400D03*
X462304600Y22993400D03*
%TD*%
%TO.C,MX46*%
X481380000Y22993400D03*
X486380000Y23493400D03*
%TD*%
%TO.C,MX47*%
X505455400Y23480700D03*
X500455400Y22980700D03*
%TD*%
%TO.C,MX48*%
X519530800Y22980700D03*
X524530800Y23480700D03*
%TD*%
%TO.C,MX49*%
X543491900Y23493400D03*
X538491900Y22993400D03*
%TD*%
%TO.C,MX51*%
X326829900Y23455300D03*
X321829900Y22955300D03*
%TD*%
%TO.C,MX53*%
X381617200Y4439400D03*
X376617200Y3939400D03*
%TD*%
%TO.C,MX57*%
X457707200Y4439400D03*
X452707200Y3939400D03*
%TD*%
%TO.C,MX58*%
X471778800Y3930700D03*
X476778800Y4430700D03*
%TD*%
%TO.C,MX60*%
X509916900Y3968800D03*
X514916900Y4468800D03*
%TD*%
%TO.C,MX61*%
X533992300Y4430700D03*
X528992300Y3930700D03*
%TD*%
%TO.C,MX62*%
X547966100Y3943400D03*
X552966100Y4443400D03*
%TD*%
%TO.C,MX64*%
X331567000Y4456100D03*
X326567000Y3956100D03*
%TD*%
%TO.C,MX65*%
X345829100Y-14632000D03*
X340829100Y-15132000D03*
%TD*%
%TO.C,MX70*%
X545591200Y-15132000D03*
X550591200Y-14632000D03*
%TD*%
%TO.C,MX29*%
X381403220Y42135560D03*
X386403220Y42635560D03*
%TD*%
%TO.C,MX30*%
X405519260Y42564440D03*
X400519260Y42064440D03*
%TD*%
%TO.C,MX33*%
X457567660Y42013640D03*
X462567660Y42513640D03*
%TD*%
%TO.C,MX34*%
X481571940Y42521260D03*
X476571940Y42021260D03*
%TD*%
D28*
%TO.C,Y1*%
X426100000Y-7210000D03*
X429000000Y-7210000D03*
X429000000Y-9510000D03*
X426100000Y-9510000D03*
%TD*%
D13*
%TO.C,F2*%
X531750000Y83390000D03*
X532250000Y78390000D03*
%TD*%
%TO.C,C2*%
G36*
G01*
X429690000Y-11185000D02*
X429690000Y-12435000D01*
G75*
G02*
X429440000Y-12685000I-250000J0D01*
G01*
X428515000Y-12685000D01*
G75*
G02*
X428265000Y-12435000I0J250000D01*
G01*
X428265000Y-11185000D01*
G75*
G02*
X428515000Y-10935000I250000J0D01*
G01*
X429440000Y-10935000D01*
G75*
G02*
X429690000Y-11185000I0J-250000D01*
G01*
G37*
G36*
G01*
X426715000Y-11185000D02*
X426715000Y-12435000D01*
G75*
G02*
X426465000Y-12685000I-250000J0D01*
G01*
X425540000Y-12685000D01*
G75*
G02*
X425290000Y-12435000I0J250000D01*
G01*
X425290000Y-11185000D01*
G75*
G02*
X425540000Y-10935000I250000J0D01*
G01*
X426465000Y-10935000D01*
G75*
G02*
X426715000Y-11185000I0J-250000D01*
G01*
G37*
%TD*%
M02*
