0
SECTION
2
HEADER
9
$INSUNITS
70
4
9
$ACADVER
1
AC1014
9
$HANDSEED
5
FFFF
0
ENDSEC
0
SECTION
2
TABLES
0
TABLE
2
VPORT
5
8
100
AcDbSymbolTable
0
ENDTAB
0
TABLE
2
LTYPE
5
5
100
AcDbSymbolTable
0
LTYPE
5
14
100
AcDbSymbolTableRecord
100
AcDbLinetypeTableRecord
2
BYBLOCK
70
0
0
LTYPE
5
15
100
AcDbSymbolTableRecord
100
AcDbLinetypeTableRecord
2
BYLAYER
70
0
0
ENDTAB
0
TABLE
2
LAYER
5
2
100
AcDbSymbolTable
70
2
0
LAYER
5
50
100
AcDbSymbolTableRecord
100
AcDbLayerTableRecord
2
0
70
0
6
CONTINUOUS
0
ENDTAB
0
TABLE
2
STYLE
5
3
100
AcDbSymbolTable
70
1
0
STYLE
5
11
100
AcDbSymbolTableRecord
100
AcDbTextStyleTableRecord
2
STANDARD
70
0
0
ENDTAB
0
TABLE
2
VIEW
5
6
100
AcDbSymbolTable
70
0
0
ENDTAB
0
TABLE
2
UCS
5
7
100
AcDbSymbolTable
70
0
0
ENDTAB
0
TABLE
2
APPID
5
9
100
AcDbSymbolTable
70
2
0
APPID
5
12
100
AcDbSymbolTableRecord
100
AcDbRegAppTableRecord
2
ACAD
70
0
0
ENDTAB
0
TABLE
2
DIMSTYLE
5
A
100
AcDbSymbolTable
70
1
0
ENDTAB
0
TABLE
2
BLOCK_RECORD
5
1
100
AcDbSymbolTable
70
1
0
BLOCK_RECORD
5
1F
100
AcDbSymbolTableRecord
100
AcDbBlockTableRecord
2
*MODEL_SPACE
0
BLOCK_RECORD
5
1B
100
AcDbSymbolTableRecord
100
AcDbBlockTableRecord
2
*PAPER_SPACE
0
ENDTAB
0
ENDSEC
0
SECTION
2
BLOCKS
0
BLOCK
5
20
100
AcDbEntity
100
AcDbBlockBegin
2
*MODEL_SPACE
0
ENDBLK
5
21
100
AcDbEntity
100
AcDbBlockEnd
0
BLOCK
5
1C
100
AcDbEntity
100
AcDbBlockBegin
2
*PAPER_SPACE
0
ENDBLK
5
1D
100
AcDbEntity
100
AcDbBlockEnd
0
ENDSEC
0
SECTION
2
ENTITIES
0
LWPOLYLINE
5
100
100
AcDbEntity
8
0
100
AcDbPolyline
90
4
70
1
43
0.0
10
138.21155999999996
20
36.85286
10
122.61341999999992
20
36.852860000000007
10
122.61341999999992
20
24.053800000000003
10
138.21155999999996
20
24.053800000000003
0
LWPOLYLINE
5
101
100
AcDbEntity
8
0
100
AcDbPolyline
90
4
70
1
43
0.0
10
62.011559999999974
20
24.053800000000003
10
62.011559999999974
20
36.85286
10
46.413419999999945
20
36.852860000000007
10
46.413419999999945
20
24.053800000000003
0
LWPOLYLINE
5
102
100
AcDbEntity
8
0
100
AcDbPolyline
90
4
70
1
43
0.0
10
31.056579999999983
20
24.053800000000003
10
31.056579999999983
20
36.85286
10
15.4558999999999
20
36.852860000000007
10
15.4558999999999
20
24.053800000000003
0
LWPOLYLINE
5
103
100
AcDbEntity
8
0
100
AcDbPolyline
90
4
70
1
43
0.0
10
179.76341999999994
20
36.852860000000007
10
179.76341999999994
20
24.053800000000003
10
195.36156
20
24.053800000000003
10
195.36156
20
36.85286
0
LWPOLYLINE
5
104
100
AcDbEntity
8
0
100
AcDbPolyline
90
4
70
1
43
0.0
10
157.26155999999997
20
24.053800000000003
10
157.26155999999997
20
36.85286
10
141.66341999999992
20
36.852860000000007
10
141.66341999999992
20
24.053800000000003
0
LWPOLYLINE
5
105
100
AcDbEntity
8
0
100
AcDbPolyline
90
4
70
1
43
0.0
10
233.46156000000008
20
36.85286
10
217.86341999999991
20
36.852860000000007
10
217.86341999999991
20
24.053800000000003
10
233.46156000000008
20
24.053800000000003
0
LWPOLYLINE
5
106
100
AcDbEntity
8
0
100
AcDbPolyline
90
4
70
1
43
0.0
10
189.28842000000003
20
55.902859999999997
10
189.28842000000003
20
43.101259999999996
10
204.88655999999997
20
43.101259999999996
10
204.88655999999997
20
55.90285999999999
0
LWPOLYLINE
5
107
100
AcDbEntity
8
0
100
AcDbPolyline
90
4
70
1
43
0.0
10
227.38841999999991
20
43.101259999999996
10
242.98655999999994
20
43.101259999999996
10
242.98655999999994
20
55.90285999999999
10
227.38841999999991
20
55.902859999999997
0
LWPOLYLINE
5
108
100
AcDbEntity
8
0
100
AcDbPolyline
90
4
70
1
43
0.0
10
5.2247799999999955
20
40.424099999999996
10
7.8892399999999441
20
40.424099999999996
10
7.8892399999999441
20
45.62856
10
5.2247799999999955
20
45.62856
0
LWPOLYLINE
5
109
100
AcDbEntity
8
0
100
AcDbPolyline
90
4
70
1
43
0.0
10
52.847239999999971
20
20.683220000000006
10
52.847239999999971
20
15.476220000000007
10
55.514239999999972
20
15.476220000000007
10
55.514239999999972
20
20.683220000000006
0
LWPOLYLINE
5
110
100
AcDbEntity
8
0
100
AcDbPolyline
90
4
70
1
43
0.0
10
198.81341999999989
20
24.053800000000003
10
214.41156000000001
20
24.053800000000003
10
214.41156000000001
20
36.85286
10
198.81341999999989
20
36.852860000000007
0
LWPOLYLINE
5
111
100
AcDbEntity
8
0
100
AcDbPolyline
90
4
70
1
43
0.0
10
223.93655999999999
20
43.101259999999996
10
223.93655999999999
20
55.90285999999999
10
208.3384199999999
20
55.902859999999997
10
208.3384199999999
20
43.101259999999996
0
LWPOLYLINE
5
112
100
AcDbEntity
8
0
100
AcDbPolyline
90
4
70
1
43
0.0
10
81.061559999999986
20
24.053800000000003
10
81.061559999999986
20
36.85286
10
65.463419999999957
20
36.852860000000007
10
65.463419999999957
20
24.053800000000003
0
LWPOLYLINE
5
113
100
AcDbEntity
8
0
100
AcDbPolyline
90
4
70
1
43
0.0
10
160.71341999999993
20
24.053800000000003
10
176.31155999999999
20
24.053800000000003
10
176.31155999999999
20
36.85286
10
160.71341999999993
20
36.852860000000007
0
LWPOLYLINE
5
114
100
AcDbEntity
8
0
100
AcDbPolyline
90
4
70
1
43
0.0
10
36.019739999999985
20
26.581100000000003
10
36.019739999999985
20
21.376640000000002
10
38.686739999999915
20
21.376640000000002
10
38.686739999999915
20
26.581100000000003
0
LWPOLYLINE
5
115
100
AcDbEntity
8
0
100
AcDbPolyline
90
4
70
1
43
0.0
10
185.83656000000005
20
55.90285999999999
10
170.23841999999996
20
55.902859999999997
10
170.23841999999996
20
43.101259999999996
10
185.83656000000005
20
43.101259999999996
0
LWPOLYLINE
5
116
100
AcDbEntity
8
0
100
AcDbPolyline
90
4
70
1
43
0.0
10
182.14594
20
5.0038000000000027
10
197.74407999999994
20
5.0038000000000027
10
197.74407999999994
20
17.805399999999999
10
182.14594
20
17.805399999999999
0
LWPOLYLINE
5
117
100
AcDbEntity
8
0
100
AcDbPolyline
90
4
70
1
43
0.0
10
10.495279999999951
20
21.376640000000002
10
10.495279999999951
20
26.581100000000003
10
7.8282800000000208
20
26.581100000000003
10
7.8282800000000208
20
21.376640000000002
0
LWPOLYLINE
5
118
100
AcDbEntity
8
0
100
AcDbPolyline
90
4
70
1
43
0.0
10
250.13157999999999
20
5.0038000000000027
10
250.13157999999999
20
17.805399999999999
10
234.53089999999997
20
17.805399999999999
10
234.53089999999997
20
5.0038000000000027
0
LWPOLYLINE
5
119
100
AcDbEntity
8
0
100
AcDbPolyline
90
4
70
1
43
0.0
10
45.344080000000062
20
17.805399999999999
10
29.743399999999909
20
17.805399999999999
10
29.743399999999909
20
5.0038000000000027
10
45.344080000000062
20
5.0038000000000027
0
LWPOLYLINE
5
120
100
AcDbEntity
8
0
100
AcDbPolyline
90
4
70
1
43
0.0
10
200.55077999999995
20
20.731480000000012
10
200.55077999999995
20
15.52702
10
203.21523999999997
20
15.52702
10
203.21523999999997
20
20.731480000000001
0
LWPOLYLINE
5
121
100
AcDbEntity
8
0
100
AcDbPolyline
90
4
70
1
43
0.0
10
58.318399999999926
20
17.805399999999999
10
58.318399999999926
20
5.0038000000000027
10
73.919080000000079
20
5.0038000000000027
10
73.919080000000079
20
17.805399999999999
0
LWPOLYLINE
5
122
100
AcDbEntity
8
0
100
AcDbPolyline
90
4
70
1
43
0.0
10
236.91342000000006
20
24.053800000000003
10
252.51155999999995
20
24.053800000000003
10
252.51155999999995
20
36.85286
10
236.91342000000006
20
36.852860000000007
0
LWPOLYLINE
5
123
100
AcDbEntity
8
0
100
AcDbPolyline
90
4
70
1
43
0.0
10
210.72093999999998
20
5.0038000000000027
10
226.31907999999996
20
5.0038000000000027
10
226.31907999999996
20
17.805399999999999
10
210.72093999999998
20
17.805399999999999
0
LWPOLYLINE
5
124
100
AcDbEntity
8
0
100
AcDbPolyline
90
4
70
1
43
0.0
10
273.94407999999999
20
36.85286
10
258.34593999999993
20
36.852860000000007
10
258.34593999999993
20
24.053800000000003
10
273.94407999999999
20
24.053800000000003
0
LWPOLYLINE
5
125
100
AcDbEntity
8
0
100
AcDbPolyline
90
4
70
1
43
0.0
10
76.723240000000033
20
20.683220000000006
10
76.723240000000033
20
15.476220000000007
10
79.390239999999821
20
15.476220000000007
10
79.390239999999821
20
20.683220000000006
0
LWPOLYLINE
5
126
100
AcDbEntity
8
0
100
AcDbPolyline
90
4
70
1
43
0.0
10
176.67477999999994
20
15.52702
10
179.33923999999996
20
15.52702
10
179.33923999999996
20
20.731480000000001
10
176.67477999999994
20
20.731480000000012
0
LINE
5
127
100
AcDbEntity
8
0
100
AcDbLine
10
279.55277999999987
20
-0.119379999999987
30
0
11
279.55239999999998
21
-0.11937999999999338
31
0
0
LWPOLYLINE
5
128
100
AcDbEntity
8
0
100
AcDbPolyline
90
4
70
1
43
0.0
10
103.56341999999977
20
24.053800000000003
10
119.16156000000001
20
24.053800000000003
10
119.16156000000001
20
36.85286
10
103.56341999999977
20
36.852860000000007
0
LWPOLYLINE
5
129
100
AcDbEntity
8
0
100
AcDbPolyline
90
4
70
1
43
0.0
10
29.098239999999933
20
45.62856
10
29.098239999999933
20
40.424099999999996
10
31.765239999999864
20
40.424099999999996
10
31.765239999999864
20
45.62856
0
LWPOLYLINE
5
130
100
AcDbEntity
8
0
100
AcDbPolyline
90
4
70
1
43
0.0
10
19.151600000000002
20
117.81536000000001
10
3.5509199999999197
20
117.81536000000001
10
3.5509199999999197
20
105.01629999999999
10
19.151600000000002
20
105.01629999999999
0
LWPOLYLINE
5
131
100
AcDbEntity
8
0
100
AcDbPolyline
90
4
70
1
43
0.0
10
161.62273999999991
20
18.234660000000005
10
146.02205999999995
20
18.234660000000005
10
146.02205999999995
20
5.4356000000000027
10
161.62273999999991
20
5.4356000000000027
0
LWPOLYLINE
5
132
100
AcDbEntity
8
0
100
AcDbPolyline
90
4
70
1
43
0.0
10
165.65371999999991
20
20.731480000000001
10
165.65371999999991
20
15.52702
10
168.32072000000005
20
15.52702
10
168.32072000000005
20
20.731480000000001
0
LWPOLYLINE
5
133
100
AcDbEntity
8
0
100
AcDbPolyline
90
4
70
1
43
0.0
10
110.16587999999996
20
12.891500000000002
10
108.16589999999991
20
12.891500000000002
10
108.16589999999991
20
10.891520000000003
10
110.16587999999996
20
10.891520000000003
0
LWPOLYLINE
5
134
100
AcDbEntity
8
0
100
AcDbPolyline
90
4
70
1
43
0.0
10
165.62069999999991
20
2.7762200000000048
10
165.6207
20
7.983220000000002
10
162.95369999999997
20
7.983220000000002
10
162.95369999999986
20
2.7762200000000048
0
LWPOLYLINE
5
135
100
AcDbEntity
8
0
100
AcDbPolyline
90
4
70
1
43
0.0
10
264.65276000000006
20
71.790559999999999
10
264.65276000000006
20
74.457560000000001
10
259.44575999999989
20
74.457560000000001
10
259.44575999999989
20
71.790560000000013
0
LWPOLYLINE
5
136
100
AcDbEntity
8
0
100
AcDbPolyline
90
4
70
1
43
0.0
10
95.354140000000029
20
12.891500000000002
10
95.354140000000029
20
10.891520000000003
10
97.354119999999938
20
10.891520000000003
10
97.354119999999938
20
12.891500000000002
0
LWPOLYLINE
5
137
100
AcDbEntity
8
0
100
AcDbPolyline
90
4
70
1
43
0.0
10
253.27609999999993
20
54.998620000000003
10
255.27607999999989
20
54.998620000000003
10
255.27607999999989
20
56.998599999999996
10
253.27609999999993
20
56.998599999999996
0
LWPOLYLINE
5
138
100
AcDbEntity
8
0
100
AcDbPolyline
90
4
70
1
43
0.0
10
253.27609999999993
20
42.18432
10
255.27607999999989
20
42.18432
10
255.27607999999989
20
44.186839999999997
10
253.27609999999993
20
44.186839999999997
0
LWPOLYLINE
5
139
100
AcDbEntity
8
0
100
AcDbPolyline
90
4
70
1
43
0.0
10
91.180919999999972
20
20.731480000000001
10
88.513919999999899
20
20.731480000000001
10
88.513919999999899
20
15.52702
10
91.180919999999972
20
15.52702
0
LWPOLYLINE
5
140
100
AcDbEntity
8
0
100
AcDbPolyline
90
4
70
1
43
0.0
10
262.12545999999986
20
51.229259999999996
10
274.92705999999993
20
51.229259999999996
10
274.92705999999993
20
66.827399999999997
10
262.12545999999986
20
66.827399999999997
0
LWPOLYLINE
5
141
100
AcDbEntity
8
0
100
AcDbPolyline
90
4
70
1
43
0.0
10
103.47705999999988
20
119.21489999999999
10
90.675459999999859
20
119.21489999999999
10
90.675459999999859
20
103.61421999999999
10
103.47705999999988
20
103.61421999999999
0
LWPOLYLINE
5
142
100
AcDbEntity
8
0
100
AcDbPolyline
90
4
70
1
43
0.0
10
33.525460000000038
20
119.21489999999999
10
33.525460000000038
20
103.61421999999999
10
46.327059999999989
20
103.61421999999999
10
46.327059999999989
20
119.21489999999999
0
LWPOLYLINE
5
143
100
AcDbEntity
8
0
100
AcDbPolyline
90
4
70
1
43
0.0
10
91.224099999999879
20
7.9933800000000099
10
91.224099999999879
20
2.7863799999999994
10
93.88855999999997
20
2.7863799999999994
10
93.88855999999997
20
7.9933800000000099
0
LWPOLYLINE
5
144
100
AcDbEntity
8
0
100
AcDbPolyline
90
4
70
1
43
0.0
10
36.88841999999994
20
55.902859999999997
10
36.88841999999994
20
43.101259999999996
10
52.486559999999969
20
43.101259999999996
10
52.486559999999969
20
55.90285999999999
0
LWPOLYLINE
5
145
100
AcDbEntity
8
0
100
AcDbPolyline
90
4
70
1
43
0.0
10
224.02545999999995
20
119.21489999999999
10
224.02545999999995
20
103.61421999999999
10
236.82705999999996
20
103.61421999999999
10
236.82705999999996
20
119.21489999999999
0
LWPOLYLINE
5
146
100
AcDbEntity
8
0
100
AcDbPolyline
90
4
70
1
43
0.0
10
38.201600000000013
20
81.201260000000005
10
38.201600000000013
20
94.002859999999998
10
22.600919999999931
20
94.002859999999998
10
22.600919999999931
20
81.201260000000005
0
LWPOLYLINE
5
147
100
AcDbEntity
8
0
100
AcDbPolyline
90
4
70
1
43
0.0
10
57.251599999999954
20
94.002859999999998
10
41.650919999999942
20
94.002859999999998
10
41.650919999999942
20
81.201260000000005
10
57.251599999999954
20
81.201260000000005
0
LWPOLYLINE
5
148
100
AcDbEntity
8
0
100
AcDbPolyline
90
4
70
1
43
0.0
10
119.25045999999988
20
119.21489999999999
10
119.25045999999988
20
103.61421999999999
10
132.0520599999999
20
103.61421999999999
10
132.0520599999999
20
119.21489999999999
0
LWPOLYLINE
5
149
100
AcDbEntity
8
0
100
AcDbPolyline
90
4
70
1
43
0.0
10
60.700919999999954
20
94.002859999999998
10
60.700919999999954
20
81.201260000000005
10
76.301599999999965
20
81.201260000000005
10
76.301599999999965
20
94.002859999999998
0
LWPOLYLINE
5
150
100
AcDbEntity
8
0
100
AcDbPolyline
90
4
70
1
43
0.0
10
243.07545999999988
20
103.61421999999999
10
255.87705999999991
20
103.61421999999999
10
255.87705999999991
20
119.21489999999999
10
243.07545999999988
20
119.21489999999999
0
LWPOLYLINE
5
151
100
AcDbEntity
8
0
100
AcDbPolyline
90
4
70
1
43
0.0
10
117.85091999999992
20
94.002859999999998
10
117.85091999999992
20
81.201260000000005
10
133.45159999999998
20
81.201260000000005
10
133.45159999999998
20
94.002859999999998
0
LWPOLYLINE
5
152
100
AcDbEntity
8
0
100
AcDbPolyline
90
4
70
1
43
0.0
10
170.15205999999992
20
103.61421999999999
10
170.15205999999992
20
119.21489999999999
10
157.35045999999997
20
119.21489999999999
10
157.35045999999997
20
103.61421999999999
0
LWPOLYLINE
5
153
100
AcDbEntity
8
0
100
AcDbPolyline
90
4
70
1
43
0.0
10
257.27660000000003
20
74.952860000000001
10
241.67591999999991
20
74.952860000000001
10
241.67591999999991
20
62.151259999999994
10
257.27660000000003
20
62.151259999999994
0
LWPOLYLINE
5
154
100
AcDbEntity
8
0
100
AcDbPolyline
90
4
70
1
43
0.0
10
19.151600000000002
20
81.201260000000005
10
19.151600000000002
20
94.002859999999998
10
3.5509199999999197
20
94.002859999999998
10
3.5509199999999197
20
81.201260000000005
0
LWPOLYLINE
5
155
100
AcDbEntity
8
0
100
AcDbPolyline
90
4
70
1
43
0.0
10
26.294079999999909
20
55.90285999999999
10
10.693399999999968
20
55.90285999999999
10
10.693399999999968
20
43.101259999999996
10
26.29407999999998
20
43.101259999999996
0
LWPOLYLINE
5
156
100
AcDbEntity
8
0
100
AcDbPolyline
90
4
70
1
43
0.0
10
71.62545999999999
20
103.61421999999999
10
84.427059999999869
20
103.61421999999999
10
84.427059999999869
20
119.21489999999999
10
71.62545999999999
20
119.21489999999999
0
LWPOLYLINE
5
157
100
AcDbEntity
8
0
100
AcDbPolyline
90
4
70
1
43
0.0
10
176.4004599999999
20
119.21489999999999
10
176.4004599999999
20
103.61421999999999
10
189.20205999999993
20
103.61421999999999
10
189.20205999999993
20
119.21489999999999
0
LWPOLYLINE
5
158
100
AcDbEntity
8
0
100
AcDbPolyline
90
4
70
1
43
0.0
10
274.92451999999986
20
119.21489999999999
10
262.12545999999986
20
119.21489999999999
10
262.12545999999986
20
103.61421999999999
10
274.92451999999986
20
103.61421999999999
0
LWPOLYLINE
5
159
100
AcDbEntity
8
0
100
AcDbPolyline
90
4
70
1
43
0.0
10
65.37706
20
103.61421999999999
10
65.37706
20
119.21489999999999
10
52.575460000000049
20
119.21489999999999
10
52.575460000000049
20
103.61421999999999
0
LWPOLYLINE
5
160
100
AcDbEntity
8
0
100
AcDbPolyline
90
4
70
1
43
0.0
10
217.77705999999995
20
119.21489999999999
10
204.97545999999994
20
119.21489999999999
10
204.97545999999994
20
103.61421999999999
10
217.77705999999995
20
103.61421999999999
0
LWPOLYLINE
5
161
100
AcDbEntity
8
0
100
AcDbPolyline
90
4
70
1
43
0.0
10
151.10205999999991
20
119.21489999999999
10
138.30045999999987
20
119.21489999999999
10
138.30045999999987
20
103.61421999999999
10
151.10205999999991
20
103.61421999999999
0
LWPOLYLINE
5
162
100
AcDbEntity
8
0
100
AcDbPolyline
90
4
70
1
43
0.0
10
79.750919999999752
20
94.002859999999998
10
79.750919999999752
20
81.201260000000005
10
95.349059999999994
20
81.201260000000005
10
95.349059999999994
20
94.002859999999998
0
LWPOLYLINE
5
163
100
AcDbEntity
8
0
100
AcDbPolyline
90
4
70
1
43
0.0
10
104.87659999999991
20
62.151259999999994
10
104.87659999999991
20
74.952860000000001
10
89.2759199999999
20
74.952860000000001
10
89.2759199999999
20
62.151259999999994
0
LWPOLYLINE
5
164
100
AcDbEntity
8
0
100
AcDbPolyline
90
4
70
1
43
0.0
10
24.513539999999949
20
74.952860000000001
10
8.3134199999999225
20
74.952860000000001
10
8.3134199999999225
20
62.151259999999994
10
24.513539999999949
20
62.151259999999994
0
LWPOLYLINE
5
165
100
AcDbEntity
8
0
100
AcDbPolyline
90
4
70
1
43
0.0
10
194.05091999999991
20
94.002859999999998
10
194.05091999999991
20
81.201260000000005
10
209.65159999999997
20
81.201260000000005
10
209.65159999999997
20
94.002859999999998
0
LWPOLYLINE
5
166
100
AcDbEntity
8
0
100
AcDbPolyline
90
4
70
1
43
0.0
10
32.125919999999937
20
74.952860000000001
10
32.125919999999937
20
62.151259999999994
10
47.726599999999948
20
62.151259999999994
10
47.726599999999948
20
74.952860000000001
0
LWPOLYLINE
5
167
100
AcDbEntity
8
0
100
AcDbPolyline
90
4
70
1
43
0.0
10
228.70159999999998
20
81.201260000000005
10
228.70159999999998
20
94.002859999999998
10
213.10092000000003
20
94.002859999999998
10
213.10092000000003
20
81.201260000000005
0
LWPOLYLINE
5
168
100
AcDbEntity
8
0
100
AcDbPolyline
90
4
70
1
43
0.0
10
255.96341999999993
20
81.201260000000005
10
271.56155999999999
20
81.201260000000005
10
271.56155999999999
20
94.002859999999998
10
255.96341999999993
20
94.002859999999998
0
LWPOLYLINE
5
169
100
AcDbEntity
8
0
100
AcDbPolyline
90
4
70
1
43
0.0
10
247.75159999999994
20
81.201260000000005
10
247.75159999999994
20
94.002859999999998
10
232.15091999999993
20
94.002859999999998
10
232.15091999999993
20
81.201260000000005
0
LWPOLYLINE
5
170
100
AcDbEntity
8
0
100
AcDbPolyline
90
4
70
1
43
0.0
10
165.47592000000009
20
62.151259999999994
10
181.07659999999996
20
62.151259999999994
10
181.07659999999996
20
74.952860000000001
10
165.47592000000009
20
74.952860000000001
0
LWPOLYLINE
5
171
100
AcDbEntity
8
0
100
AcDbPolyline
90
4
70
1
43
0.0
10
152.50159999999994
20
94.002859999999998
10
136.90091999999993
20
94.002859999999998
10
136.90091999999993
20
81.201260000000005
10
152.50159999999994
20
81.201260000000005
0
LWPOLYLINE
5
172
100
AcDbEntity
8
0
100
AcDbPolyline
90
4
70
1
43
0.0
10
155.95091999999994
20
81.201260000000005
10
171.55159999999989
20
81.201260000000005
10
171.55159999999989
20
94.002859999999998
10
155.95091999999994
20
94.002859999999998
0
LWPOLYLINE
5
173
100
AcDbEntity
8
0
100
AcDbPolyline
90
4
70
1
43
0.0
10
108.32591999999984
20
74.952860000000001
10
108.32591999999984
20
62.151259999999994
10
123.92659999999992
20
62.151259999999994
10
123.92659999999992
20
74.952860000000001
0
LWPOLYLINE
5
174
100
AcDbEntity
8
0
100
AcDbPolyline
90
4
70
1
43
0.0
10
66.776599999999959
20
62.151259999999994
10
66.776599999999959
20
74.952860000000001
10
51.175919999999948
20
74.952860000000001
10
51.175919999999948
20
62.151259999999994
0
LWPOLYLINE
5
175
100
AcDbEntity
8
0
100
AcDbPolyline
90
4
70
1
43
0.0
10
203.57591999999988
20
74.952860000000001
10
203.57591999999988
20
62.151259999999994
10
219.17659999999989
20
62.151259999999994
10
219.17659999999989
20
74.952860000000001
0
LWPOLYLINE
5
176
100
AcDbEntity
8
0
100
AcDbPolyline
90
4
70
1
43
0.0
10
98.800919999999763
20
94.002859999999998
10
98.800919999999763
20
81.201260000000005
10
114.39906000000001
20
81.201260000000005
10
114.39906000000001
20
94.002859999999998
0
LWPOLYLINE
5
177
100
AcDbEntity
8
0
100
AcDbPolyline
90
4
70
1
43
0.0
10
94.038419999999903
20
43.101259999999996
10
109.63656
20
43.101259999999996
10
109.63656
20
55.90285999999999
10
94.038419999999903
20
55.902859999999997
0
LWPOLYLINE
5
178
100
AcDbEntity
8
0
100
AcDbPolyline
90
4
70
1
43
0.0
10
71.53655999999998
20
55.90285999999999
10
55.938419999999951
20
55.902859999999997
10
55.938419999999951
20
43.101259999999996
10
71.53655999999998
20
43.101259999999996
0
LWPOLYLINE
5
179
100
AcDbEntity
8
0
100
AcDbPolyline
90
4
70
1
43
0.0
10
113.08841999999991
20
43.101259999999996
10
128.68655999999993
20
43.101259999999996
10
128.68655999999993
20
55.90285999999999
10
113.08841999999991
20
55.902859999999997
0
LWPOLYLINE
5
180
100
AcDbEntity
8
0
100
AcDbPolyline
90
4
70
1
43
0.0
10
70.225919999999888
20
62.151259999999994
10
85.826599999999971
20
62.151259999999994
10
85.826599999999971
20
74.952860000000001
10
70.225919999999888
20
74.952860000000001
0
LWPOLYLINE
5
181
100
AcDbEntity
8
0
100
AcDbPolyline
90
4
70
1
43
0.0
10
127.37591999999992
20
74.952860000000001
10
127.37591999999992
20
62.151259999999994
10
142.97659999999993
20
62.151259999999994
10
142.97659999999993
20
74.952860000000001
0
LWPOLYLINE
5
182
100
AcDbEntity
8
0
100
AcDbPolyline
90
4
70
1
43
0.0
10
175.00091999999995
20
81.201260000000005
10
190.60159999999996
20
81.201260000000005
10
190.60159999999996
20
94.002859999999998
10
175.00091999999995
20
94.002859999999998
0
LWPOLYLINE
5
183
100
AcDbEntity
8
0
100
AcDbPolyline
90
4
70
1
43
0.0
10
166.78655999999995
20
43.101259999999996
10
166.78655999999995
20
55.90285999999999
10
151.18841999999995
20
55.902859999999997
10
151.18841999999995
20
43.101259999999996
0
LWPOLYLINE
5
184
100
AcDbEntity
8
0
100
AcDbPolyline
90
4
70
1
43
0.0
10
162.02659999999995
20
74.952860000000001
10
146.42591999999993
20
74.952860000000001
10
146.42591999999993
20
62.151259999999994
10
162.02659999999995
20
62.151259999999994
0
LWPOLYLINE
5
185
100
AcDbEntity
8
0
100
AcDbPolyline
90
4
70
1
43
0.0
10
132.13841999999994
20
43.101259999999996
10
147.73655999999994
20
43.101259999999996
10
147.73655999999994
20
55.90285999999999
10
132.13841999999994
20
55.902859999999997
0
LWPOLYLINE
5
186
100
AcDbEntity
8
0
100
AcDbPolyline
90
4
70
1
43
0.0
10
74.988419999999891
20
55.902859999999997
10
74.988419999999891
20
43.101259999999996
10
90.586559999999992
20
43.101259999999996
10
90.586559999999992
20
55.90285999999999
0
LWPOLYLINE
5
187
100
AcDbEntity
8
0
100
AcDbPolyline
90
4
70
1
43
0.0
10
264.65276000000006
20
43.5991
10
264.65276000000006
20
46.266100000000002
10
259.44575999999989
20
46.266100000000002
10
259.44575999999989
20
43.5991
0
LWPOLYLINE
5
188
100
AcDbEntity
8
0
100
AcDbPolyline
90
4
70
1
43
0.0
10
184.52591999999987
20
62.151259999999994
10
200.12659999999988
20
62.151259999999994
10
200.12659999999988
20
74.952860000000001
10
184.52591999999987
20
74.952860000000001
0
LWPOLYLINE
5
189
100
AcDbEntity
8
0
100
AcDbPolyline
90
4
70
1
43
0.0
10
222.62591999999989
20
62.151259999999994
10
238.22659999999999
20
62.151259999999994
10
238.22659999999999
20
74.952860000000001
10
222.62591999999989
20
74.952860000000001
0
LWPOLYLINE
5
190
100
AcDbEntity
8
0
100
AcDbPolyline
90
4
70
1
43
0.0
10
100.11156
20
36.85286
10
84.513419999999755
20
36.852860000000007
10
84.513419999999755
20
24.053800000000003
10
100.11156
20
24.053800000000003
0
CIRCLE
5
191
100
AcDbEntity
8
0
100
AcDbCircle
10
16.42871999999997
20
99.076256000000015
30
0
40
1.1999999999999942
210
0
220
0
230
1
0
CIRCLE
5
192
100
AcDbEntity
8
0
100
AcDbCircle
10
138.95577999999995
20
98.578416000000004
30
0
40
1.2000000000000028
210
0
220
0
230
1
0
CIRCLE
5
193
100
AcDbEntity
8
0
100
AcDbCircle
10
256.5374599999999
20
99.952556000000001
30
0
40
1.1999999999999971
210
0
220
0
230
1
0
CIRCLE
5
194
100
AcDbEntity
8
0
100
AcDbCircle
10
19.982179999999943
20
16.927703000000001
30
0
40
1.1999999999999988
210
0
220
0
230
1
0
CIRCLE
5
195
100
AcDbEntity
8
0
100
AcDbCircle
10
172.31105999999997
20
12.607163000000005
30
0
40
1.2000000000000075
210
0
220
0
230
1
0
CIRCLE
5
196
100
AcDbEntity
8
0
100
AcDbCircle
10
261.04849999999993
20
14.428343000000003
30
0
40
1.1999999999999942
210
0
220
0
230
1
0
LWPOLYLINE
5
197
100
AcDbEntity
8
0
100
AcDbPolyline
90
8
70
1
43
0.0
10
-0.42525897356091602
20
122.69006686719865
42
-0.41506854204660976
10
0.075185966727460141
20
123.19107980111363
10
279.55322596672733
20
122.94180388814
42
-0.41395234520026419
10
280.05277999999987
20
122.44180408702634
10
280.05277999999987
20
0.38062000000001822
42
-0.41421356237313556
10
279.55277999999987
20
-0.119379999999987
10
0.32249944009203524
20
-0.11938007861539188
42
-0.41362012435611301
10
-0.17749953332344889
20
0.37960664736392147
0
CIRCLE
5
198
100
AcDbEntity
8
0
100
AcDbCircle
10
254.27685999999989
20
49.584178200000004
30
0
40
3.1999999999999984
210
0
220
0
230
1
0
CIRCLE
5
199
100
AcDbEntity
8
0
100
AcDbCircle
10
102.75061999999991
20
11.889917800000001
30
0
40
3.2000000000000011
210
0
220
0
230
1
0
ENDSEC
0
SECTION
2
OBJECTS
0
DICTIONARY
5
C
100
AcDbDictionary
3
ACAD_GROUP
350
D
3
ACAD_MLINESTYLE
350
17
0
DICTIONARY
5
D
100
AcDbDictionary
0
DICTIONARY
5
1A
330
C
100
AcDbDictionary
0
DICTIONARY
5
17
100
AcDbDictionary
0
ENDSEC
0
EOF
