  0
SECTION
  2
HEADER
  9
$ACADVER
  1
AC1027
  9
$ACADMAINTVER
 70
   125
  9
$DWGCODEPAGE
  3
ANSI_1252
  9
$REQUIREDVERSIONS
160
                 0
  9
$INSBASE
 10
0.0
 20
0.0
 30
0.0
  9
$EXTMIN
 10
1.000000000000000E+20
 20
1.000000000000000E+20
 30
1.000000000000000E+20
  9
$EXTMAX
 10
-1.000000000000000E+20
 20
-1.000000000000000E+20
 30
-1.000000000000000E+20
  9
$LIMMIN
 10
0.0
 20
0.0
  9
$LIMMAX
 10
12.0
 20
9.0
  9
$ORTHOMODE
 70
     0
  9
$REGENMODE
 70
     1
  9
$FILLMODE
 70
     1
  9
$QTEXTMODE
 70
     0
  9
$MIRRTEXT
 70
     0
  9
$LTSCALE
 40
1.0
  9
$ATTMODE
 70
     1
  9
$TEXTSIZE
 40
0.2
  9
$TRACEWID
 40
0.05
  9
$TEXTSTYLE
  7
Standard
  9
$CLAYER
  8
0
  9
$CELTYPE
  6
ByLayer
  9
$CECOLOR
 62
   256
  9
$CELTSCALE
 40
1.0
  9
$DISPSILH
 70
     0
  9
$DIMSCALE
 40
1.0
  9
$DIMASZ
 40
0.18
  9
$DIMEXO
 40
0.0625
  9
$DIMDLI
 40
0.38
  9
$DIMRND
 40
0.0
  9
$DIMDLE
 40
0.0
  9
$DIMEXE
 40
0.18
  9
$DIMTP
 40
0.0
  9
$DIMTM
 40
0.0
  9
$DIMTXT
 40
0.18
  9
$DIMCEN
 40
0.09
  9
$DIMTSZ
 40
0.0
  9
$DIMTOL
 70
     0
  9
$DIMLIM
 70
     0
  9
$DIMTIH
 70
     1
  9
$DIMTOH
 70
     1
  9
$DIMSE1
 70
     0
  9
$DIMSE2
 70
     0
  9
$DIMTAD
 70
     0
  9
$DIMZIN
 70
     0
  9
$DIMBLK
  1

  9
$DIMASO
 70
     1
  9
$DIMSHO
 70
     1
  9
$DIMPOST
  1

  9
$DIMAPOST
  1

  9
$DIMALT
 70
     0
  9
$DIMALTD
 70
     2
  9
$DIMALTF
 40
25.4
  9
$DIMLFAC
 40
1.0
  9
$DIMTOFL
 70
     0
  9
$DIMTVP
 40
0.0
  9
$DIMTIX
 70
     0
  9
$DIMSOXD
 70
     0
  9
$DIMSAH
 70
     0
  9
$DIMBLK1
  1

  9
$DIMBLK2
  1

  9
$DIMSTYLE
  2
Standard
  9
$DIMCLRD
 70
     0
  9
$DIMCLRE
 70
     0
  9
$DIMCLRT
 70
     0
  9
$DIMTFAC
 40
1.0
  9
$DIMGAP
 40
0.09
  9
$DIMJUST
 70
     0
  9
$DIMSD1
 70
     0
  9
$DIMSD2
 70
     0
  9
$DIMTOLJ
 70
     1
  9
$DIMTZIN
 70
     0
  9
$DIMALTZ
 70
     0
  9
$DIMALTTZ
 70
     0
  9
$DIMUPT
 70
     0
  9
$DIMDEC
 70
     4
  9
$DIMTDEC
 70
     4
  9
$DIMALTU
 70
     2
  9
$DIMALTTD
 70
     2
  9
$DIMTXSTY
  7
Standard
  9
$DIMAUNIT
 70
     0
  9
$DIMADEC
 70
     0
  9
$DIMALTRND
 40
0.0
  9
$DIMAZIN
 70
     0
  9
$DIMDSEP
 70
    46
  9
$DIMATFIT
 70
     3
  9
$DIMFRAC
 70
     0
  9
$DIMLDRBLK
  1

  9
$DIMLUNIT
 70
     2
  9
$DIMLWD
 70
    -2
  9
$DIMLWE
 70
    -2
  9
$DIMTMOVE
 70
     0
  9
$DIMFXL
 40
1.0
  9
$DIMFXLON
 70
     0
  9
$DIMJOGANG
 40
0.7853981633974483
  9
$DIMTFILL
 70
     0
  9
$DIMTFILLCLR
 70
     0
  9
$DIMARCSYM
 70
     0
  9
$DIMLTYPE
  6

  9
$DIMLTEX1
  6

  9
$DIMLTEX2
  6

  9
$DIMTXTDIRECTION
 70
     0
  9
$LUNITS
 70
     2
  9
$LUPREC
 70
     4
  9
$SKETCHINC
 40
0.1
  9
$FILLETRAD
 40
0.0
  9
$AUNITS
 70
     0
  9
$AUPREC
 70
     0
  9
$MENU
  1
.
  9
$ELEVATION
 40
0.0
  9
$PELEVATION
 40
0.0
  9
$THICKNESS
 40
0.0
  9
$LIMCHECK
 70
     0
  9
$CHAMFERA
 40
0.0
  9
$CHAMFERB
 40
0.0
  9
$CHAMFERC
 40
0.0
  9
$CHAMFERD
 40
0.0
  9
$SKPOLY
 70
     0
  9
$TDCREATE
 40
2459047.588252315
  9
$TDUCREATE
 40
2459047.588252315
  9
$TDUPDATE
 40
2459047.588252315
  9
$TDUUPDATE
 40
2459047.588252315
  9
$TDINDWG
 40
0.0000000000
  9
$TDUSRTIMER
 40
0.0000000000
  9
$USRTIMER
 70
     1
  9
$ANGBASE
 50
0.0
  9
$ANGDIR
 70
     0
  9
$PDMODE
 70
     0
  9
$PDSIZE
 40
0.0
  9
$PLINEWID
 40
0.0
  9
$SPLFRAME
 70
     0
  9
$SPLINETYPE
 70
     6
  9
$SPLINESEGS
 70
     8
  9
$HANDSEED
  5
234
  9
$SURFTAB1
 70
     6
  9
$SURFTAB2
 70
     6
  9
$SURFTYPE
 70
     6
  9
$SURFU
 70
     6
  9
$SURFV
 70
     6
  9
$UCSBASE
  2

  9
$UCSNAME
  2

  9
$UCSORG
 10
0.0
 20
0.0
 30
0.0
  9
$UCSXDIR
 10
1.0
 20
0.0
 30
0.0
  9
$UCSYDIR
 10
0.0
 20
1.0
 30
0.0
  9
$UCSORTHOREF
  2

  9
$UCSORTHOVIEW
 70
     0
  9
$UCSORGTOP
 10
0.0
 20
0.0
 30
0.0
  9
$UCSORGBOTTOM
 10
0.0
 20
0.0
 30
0.0
  9
$UCSORGLEFT
 10
0.0
 20
0.0
 30
0.0
  9
$UCSORGRIGHT
 10
0.0
 20
0.0
 30
0.0
  9
$UCSORGFRONT
 10
0.0
 20
0.0
 30
0.0
  9
$UCSORGBACK
 10
0.0
 20
0.0
 30
0.0
  9
$PUCSBASE
  2

  9
$PUCSNAME
  2

  9
$PUCSORG
 10
0.0
 20
0.0
 30
0.0
  9
$PUCSXDIR
 10
1.0
 20
0.0
 30
0.0
  9
$PUCSYDIR
 10
0.0
 20
1.0
 30
0.0
  9
$PUCSORTHOREF
  2

  9
$PUCSORTHOVIEW
 70
     0
  9
$PUCSORGTOP
 10
0.0
 20
0.0
 30
0.0
  9
$PUCSORGBOTTOM
 10
0.0
 20
0.0
 30
0.0
  9
$PUCSORGLEFT
 10
0.0
 20
0.0
 30
0.0
  9
$PUCSORGRIGHT
 10
0.0
 20
0.0
 30
0.0
  9
$PUCSORGFRONT
 10
0.0
 20
0.0
 30
0.0
  9
$PUCSORGBACK
 10
0.0
 20
0.0
 30
0.0
  9
$USERI1
 70
     0
  9
$USERI2
 70
     0
  9
$USERI3
 70
     0
  9
$USERI4
 70
     0
  9
$USERI5
 70
     0
  9
$USERR1
 40
0.0
  9
$USERR2
 40
0.0
  9
$USERR3
 40
0.0
  9
$USERR4
 40
0.0
  9
$USERR5
 40
0.0
  9
$WORLDVIEW
 70
     1
  9
$SHADEDGE
 70
     3
  9
$SHADEDIF
 70
    70
  9
$TILEMODE
 70
     1
  9
$MAXACTVP
 70
    64
  9
$PINSBASE
 10
0.0
 20
0.0
 30
0.0
  9
$PLIMCHECK
 70
     0
  9
$PEXTMIN
 10
1.000000000000000E+20
 20
1.000000000000000E+20
 30
1.000000000000000E+20
  9
$PEXTMAX
 10
-1.000000000000000E+20
 20
-1.000000000000000E+20
 30
-1.000000000000000E+20
  9
$PLIMMIN
 10
0.0
 20
0.0
  9
$PLIMMAX
 10
12.0
 20
9.0
  9
$UNITMODE
 70
     0
  9
$VISRETAIN
 70
     1
  9
$PLINEGEN
 70
     0
  9
$PSLTSCALE
 70
     1
  9
$TREEDEPTH
 70
  3020
  9
$CMLSTYLE
  2
Standard
  9
$CMLJUST
 70
     0
  9
$CMLSCALE
 40
1.0
  9
$PROXYGRAPHICS
 70
     1
  9
$MEASUREMENT
 70
     0
  9
$CELWEIGHT
370
    -1
  9
$ENDCAPS
280
     0
  9
$JOINSTYLE
280
     0
  9
$LWDISPLAY
290
     0
  9
$INSUNITS
 70
     5
  9
$HYPERLINKBASE
  1

  9
$STYLESHEET
  1

  9
$XEDIT
290
     1
  9
$CEPSNTYPE
380
     0
  9
$PSTYLEMODE
290
     1
  9
$FINGERPRINTGUID
  2
{2CC40BD5-53E6-6140-BE99-6B177508E21E}
  9
$VERSIONGUID
  2
{B2ED0217-6541-4E48-9E27-B7FF803EAC78}
  9
$EXTNAMES
290
     1
  9
$PSVPSCALE
 40
0.0
  9
$OLESTARTUP
290
     0
  9
$SORTENTS
280
   127
  9
$INDEXCTL
280
     0
  9
$HIDETEXT
280
     1
  9
$XCLIPFRAME
280
     2
  9
$HALOGAP
280
     0
  9
$OBSCOLOR
 70
   257
  9
$OBSLTYPE
280
     0
  9
$INTERSECTIONDISPLAY
280
     0
  9
$INTERSECTIONCOLOR
 70
   257
  9
$DIMASSOC
280
     2
  9
$PROJECTNAME
  1

  9
$CAMERADISPLAY
290
     0
  9
$LENSLENGTH
 40
50.0
  9
$CAMERAHEIGHT
 40
0.0
  9
$STEPSPERSEC
 40
2.0
  9
$STEPSIZE
 40
6.0
  9
$3DDWFPREC
 40
2.0
  9
$PSOLWIDTH
 40
0.25
  9
$PSOLHEIGHT
 40
4.0
  9
$LOFTANG1
 40
1.570796326794896
  9
$LOFTANG2
 40
1.570796326794896
  9
$LOFTMAG1
 40
0.0
  9
$LOFTMAG2
 40
0.0
  9
$LOFTPARAM
 70
     7
  9
$LOFTNORMALS
280
     1
  9
$LATITUDE
 40
37.795
  9
$LONGITUDE
 40
-122.394
  9
$NORTHDIRECTION
 40
0.0
  9
$TIMEZONE
 70
 -8000
  9
$LIGHTGLYPHDISPLAY
280
     1
  9
$TILEMODELIGHTSYNCH
280
     1
  9
$CMATERIAL
347
11
  9
$SOLIDHIST
280
     0
  9
$SHOWHIST
280
     1
  9
$DWFFRAME
280
     2
  9
$DGNFRAME
280
     0
  9
$REALWORLDSCALE
290
     1
  9
$INTERFERECOLOR
 62
     1
  9
$INTERFEREOBJVS
345
33
  9
$INTERFEREVPVS
346
30
  9
$CSHADOW
280
     0
  9
$SHADOWPLANELOCATION
 40
0.0
  0
ENDSEC
  0
SECTION
  2
CLASSES
  0
CLASS
  1
ACDBDICTIONARYWDFLT
  2
AcDbDictionaryWithDefault
  3
ObjectDBX Classes
 90
        0
 91
        1
280
     0
281
     0
  0
CLASS
  1
MATERIAL
  2
AcDbMaterial
  3
ObjectDBX Classes
 90
     1153
 91
        3
280
     0
281
     0
  0
CLASS
  1
VISUALSTYLE
  2
AcDbVisualStyle
  3
ObjectDBX Classes
 90
     4095
 91
       24
280
     0
281
     0
  0
CLASS
  1
SCALE
  2
AcDbScale
  3
ObjectDBX Classes
 90
     1153
 91
       17
280
     0
281
     0
  0
CLASS
  1
TABLESTYLE
  2
AcDbTableStyle
  3
ObjectDBX Classes
 90
     4095
 91
        1
280
     0
281
     0
  0
CLASS
  1
MLEADERSTYLE
  2
AcDbMLeaderStyle
  3
ACDB_MLEADERSTYLE_CLASS
 90
     4095
 91
        1
280
     0
281
     0
  0
CLASS
  1
ACDBSECTIONVIEWSTYLE
  2
AcDbSectionViewStyle
  3
ObjectDBX Classes
 90
     1025
 91
        1
280
     0
281
     0
  0
CLASS
  1
ACDBDETAILVIEWSTYLE
  2
AcDbDetailViewStyle
  3
ObjectDBX Classes
 90
     1025
 91
        1
280
     0
281
     0
  0
CLASS
  1
DICTIONARYVAR
  2
AcDbDictionaryVar
  3
ObjectDBX Classes
 90
        0
 91
        5
280
     0
281
     0
  0
CLASS
  1
CELLSTYLEMAP
  2
AcDbCellStyleMap
  3
ObjectDBX Classes
 90
     1152
 91
        1
280
     0
281
     0
  0
ENDSEC
  0
SECTION
  2
TABLES
  0
TABLE
  2
VPORT
  5
8
330
0
100
AcDbSymbolTable
 70
     1
1001
ACAD
1000
DbSaveVer
1071
      224
  0
VPORT
  5
57
330
8
100
AcDbSymbolTableRecord
100
AcDbViewportTableRecord
  2
*Active
 70
     0
 10
0.0
 20
0.0
 11
1.0
 21
1.0
 12
500.0
 22
500.0
 13
0.0
 23
0.0
 14
1.0
 24
1.0
 15
0.0
 25
0.0
 16
0.0
 26
0.0
 36
1.0
 17
0.0
 27
0.0
 37
0.0
 40
12.0
 41
1.0
 42
50.0
 43
0.0
 44
0.0
 50
0.0
 51
0.0
 71
     0
 72
   100
 73
     1
 74
     1
 75
     0
 76
     0
 77
     0
 78
     0
281
     0
 65
     1
110
0.0
120
0.0
130
0.0
111
1.0
121
0.0
131
0.0
112
0.0
122
1.0
132
0.0
 79
     0
146
0.0
 60
     3
 61
     5
292
     1
282
     1
141
0.0
142
0.0
 63
   250
421
  3355443
  0
ENDTAB
  0
TABLE
  2
LTYPE
  5
5
330
0
100
AcDbSymbolTable
 70
     1
  0
LTYPE
  5
5B
330
5
100
AcDbSymbolTableRecord
100
AcDbLinetypeTableRecord
  2
ByBlock
 70
     0
  3

 72
    65
 73
     0
 40
0.0
  0
LTYPE
  5
5C
330
5
100
AcDbSymbolTableRecord
100
AcDbLinetypeTableRecord
  2
ByLayer
 70
     0
  3

 72
    65
 73
     0
 40
0.0
  0
LTYPE
  5
5D
330
5
100
AcDbSymbolTableRecord
100
AcDbLinetypeTableRecord
  2
Continuous
 70
     0
  3
Solid line
 72
    65
 73
     0
 40
0.0
  0
ENDTAB
  0
TABLE
  2
LAYER
  5
2
330
0
100
AcDbSymbolTable
 70
     8
  0
LAYER
  5
54
330
2
100
AcDbSymbolTableRecord
100
AcDbLayerTableRecord
  2
0
 70
     0
 62
     7
  6
Continuous
370
    -3
390
F
347
21
348
0
  0
LAYER
  5
7A
330
2
100
AcDbSymbolTableRecord
100
AcDbLayerTableRecord
  2
Ringo-Row-keyboard v13 v8_Ringo-Row-keyboard v13_Sketch1
 70
     0
 62
     7
  6
Continuous
370
    -3
390
F
347
21
348
0
1001
NFusion_SketchTransform
1000
1.000000;0.000000;0.000000;0.000000;0.000000;1.000000;0.000000;0.000000;0.000000;0.000000;1.000000;0.000000;0.000000;0.000000;0.000000;1.000000
  0
LAYER
  5
7C
330
2
100
AcDbSymbolTableRecord
100
AcDbLayerTableRecord
  2
Ringo-Row-keyboard v13 v8_Ringo-Row-keyboard v13_Sketch2
 70
     0
 62
     7
  6
Continuous
370
    -3
390
F
347
21
348
0
1001
NFusion_SketchTransform
1000
1.000000;0.000000;0.000000;0.000000;0.000000;1.000000;0.000000;0.000000;0.000000;0.000000;1.000000;0.000000;0.000000;0.000000;0.000000;1.000000
  0
LAYER
  5
7E
330
2
100
AcDbSymbolTableRecord
100
AcDbLayerTableRecord
  2
Ringo-Row-keyboard v13 v8_Ringo-Row-keyboard v13_Sketch3
 70
     0
 62
     7
  6
Continuous
370
    -3
390
F
347
21
348
0
1001
NFusion_SketchTransform
1000
1.000000;0.000000;0.000000;0.000000;0.000000;1.000000;0.000000;0.000000;0.000000;0.000000;1.000000;0.000000;0.000000;0.000000;0.000000;1.000000
  0
LAYER
  5
80
330
2
100
AcDbSymbolTableRecord
100
AcDbLayerTableRecord
  2
Ringo-Row-keyboard v13 v8_Ringo-Row-keyboard v13_Sketch4
 70
     0
 62
     7
  6
Continuous
370
    -3
390
F
347
21
348
0
1001
NFusion_SketchTransform
1000
1.000000;0.000000;0.000000;0.299000;0.000000;1.000000;0.000000;-0.110000;0.000000;0.000000;1.000000;0.000000;0.000000;0.000000;0.000000;1.000000
  0
LAYER
  5
221
330
2
100
AcDbSymbolTableRecord
100
AcDbLayerTableRecord
  2
Ringo-Row-keyboard v13 v8_Ringo-Row-keyboard v13_Sketch6
 70
     0
 62
     7
  6
Continuous
370
    -3
390
F
347
21
348
0
1001
NFusion_SketchTransform
1000
1.000000;0.000000;0.000000;0.000000;0.000000;1.000000;0.000000;0.000000;0.000000;0.000000;1.000000;0.000000;0.000000;0.000000;0.000000;1.000000
  0
LAYER
  5
223
330
2
100
AcDbSymbolTableRecord
100
AcDbLayerTableRecord
  2
Ringo-Row-keyboard v13 v8_Ringo-Row-keyboard v13_Sketch7
 70
     0
 62
     7
  6
Continuous
370
    -3
390
F
347
21
348
0
1001
NFusion_SketchTransform
1000
1.000000;0.000000;0.000000;0.000000;0.000000;1.000000;0.000000;0.000000;0.000000;0.000000;1.000000;0.000000;0.000000;0.000000;0.000000;1.000000
  0
LAYER
  5
225
330
2
100
AcDbSymbolTableRecord
100
AcDbLayerTableRecord
  2
Ringo-Row-keyboard v13 v8_Ringo-Row-keyboard v13_Sketch8
 70
     0
 62
     7
  6
Continuous
370
    -3
390
F
347
21
348
0
1001
NFusion_SketchTransform
1000
1.000000;0.000000;0.000000;0.000000;0.000000;1.000000;0.000000;0.000000;0.000000;0.000000;1.000000;0.000000;0.000000;0.000000;0.000000;1.000000
  0
ENDTAB
  0
TABLE
  2
STYLE
  5
3
330
0
100
AcDbSymbolTable
 70
     2
  0
STYLE
  5
55
330
3
100
AcDbSymbolTableRecord
100
AcDbTextStyleTableRecord
  2
Standard
 70
     0
 40
0.0
 41
1.0
 50
0.0
 71
     0
 42
0.2
  3
txt
  4

  0
STYLE
  5
5A
330
3
100
AcDbSymbolTableRecord
100
AcDbTextStyleTableRecord
  2
Annotative
 70
     0
 40
0.0
 41
1.0
 50
0.0
 71
     0
 42
0.2
  3
txt
  4

1001
AcadAnnotative
1000
AnnotativeData
1002
{
1070
     1
1070
     1
1002
}
  0
ENDTAB
  0
TABLE
  2
VIEW
  5
6
330
0
100
AcDbSymbolTable
 70
     0
  0
ENDTAB
  0
TABLE
  2
UCS
  5
7
330
0
100
AcDbSymbolTable
 70
     0
  0
ENDTAB
  0
TABLE
  2
APPID
  5
9
330
0
100
AcDbSymbolTable
 70
     4
  0
APPID
  5
56
330
9
100
AcDbSymbolTableRecord
100
AcDbRegAppTableRecord
  2
ACAD
 70
     0
  0
APPID
  5
5E
330
9
100
AcDbSymbolTableRecord
100
AcDbRegAppTableRecord
  2
AcadAnnotative
 70
     0
  0
APPID
  5
78
330
9
100
AcDbSymbolTableRecord
100
AcDbRegAppTableRecord
  2
EDIT_IN_FUSION_ACAD_ADDIN
 70
     0
  0
APPID
  5
79
330
9
100
AcDbSymbolTableRecord
100
AcDbRegAppTableRecord
  2
NFusion_SketchTransform
 70
     0
  0
ENDTAB
  0
TABLE
  2
DIMSTYLE
  5
A
330
0
100
AcDbSymbolTable
 70
     2
100
AcDbDimStyleTable
 71
     0
  0
DIMSTYLE
105
58
330
A
100
AcDbSymbolTableRecord
100
AcDbDimStyleTableRecord
  2
Standard
 70
     0
340
55
  0
DIMSTYLE
105
59
330
A
100
AcDbSymbolTableRecord
100
AcDbDimStyleTableRecord
  2
Annotative
 70
     0
340
55
1001
AcadAnnotative
1000
AnnotativeData
1002
{
1070
     1
1070
     1
1002
}
  0
ENDTAB
  0
TABLE
  2
BLOCK_RECORD
  5
1
330
0
100
AcDbSymbolTable
 70
     1
  0
BLOCK_RECORD
  5
70
330
1
100
AcDbSymbolTableRecord
100
AcDbBlockTableRecord
  2
*Model_Space
340
73
 70
     0
280
     1
281
     0
  0
BLOCK_RECORD
  5
6C
330
1
100
AcDbSymbolTableRecord
100
AcDbBlockTableRecord
  2
*Paper_Space
340
6F
 70
     0
280
     1
281
     0
  0
BLOCK_RECORD
  5
74
330
1
100
AcDbSymbolTableRecord
100
AcDbBlockTableRecord
  2
*Paper_Space0
340
77
 70
     0
280
     1
281
     0
  0
ENDTAB
  0
ENDSEC
  0
SECTION
  2
BLOCKS
  0
BLOCK
  5
71
330
70
100
AcDbEntity
  8
0
100
AcDbBlockBegin
  2
*Model_Space
 70
     0
 10
0.0
 20
0.0
 30
0.0
  3
*Model_Space
  1

  0
ENDBLK
  5
72
330
70
100
AcDbEntity
  8
0
100
AcDbBlockEnd
  0
BLOCK
  5
6D
330
6C
100
AcDbEntity
 67
     1
  8
0
100
AcDbBlockBegin
  2
*Paper_Space
 70
     0
 10
0.0
 20
0.0
 30
0.0
  3
*Paper_Space
  1

  0
ENDBLK
  5
6E
330
6C
100
AcDbEntity
 67
     1
  8
0
100
AcDbBlockEnd
  0
BLOCK
  5
75
330
74
100
AcDbEntity
 67
     1
  8
0
100
AcDbBlockBegin
  2
*Paper_Space0
 70
     0
 10
0.0
 20
0.0
 30
0.0
  3
*Paper_Space0
  1

  0
ENDBLK
  5
76
330
74
100
AcDbEntity
 67
     1
  8
0
100
AcDbBlockEnd
  0
ENDSEC
  0
SECTION
  2
ENTITIES
  0
POINT
  5
7B
330
70
100
AcDbEntity
  8
Ringo-Row-keyboard v13 v8_Ringo-Row-keyboard v13_Sketch1
100
AcDbPoint
 10
121.3106433153896
 20
-56.82130494138393
 30
0.0
  0
POINT
  5
7D
330
70
100
AcDbEntity
  8
Ringo-Row-keyboard v13 v8_Ringo-Row-keyboard v13_Sketch2
100
AcDbPoint
 10
121.3106433153896
 20
-56.82130494138393
 30
0.0
  0
POINT
  5
7F
330
70
100
AcDbEntity
  8
Ringo-Row-keyboard v13 v8_Ringo-Row-keyboard v13_Sketch3
100
AcDbPoint
 10
121.3106433153896
 20
-56.82130494138393
 30
0.0
  0
POINT
  5
81
330
70
100
AcDbEntity
  8
Ringo-Row-keyboard v13 v8_Ringo-Row-keyboard v13_Sketch4
100
AcDbPoint
 10
117.3466688130903
 20
-61.85283939630314
 30
0.0
  0
POINT
  5
82
330
70
100
AcDbEntity
  8
Ringo-Row-keyboard v13 v8_Ringo-Row-keyboard v13_Sketch4
100
AcDbPoint
 10
107.3915359399737
 20
-52.95212706113233
 30
0.0
  0
POINT
  5
83
330
70
100
AcDbEntity
  8
Ringo-Row-keyboard v13 v8_Ringo-Row-keyboard v13_Sketch4
100
AcDbPoint
 10
106.5368807678624
 20
-50.47298511462925
 30
0.0
  0
POINT
  5
84
330
70
100
AcDbEntity
  8
Ringo-Row-keyboard v13 v8_Ringo-Row-keyboard v13_Sketch4
100
AcDbPoint
 10
123.3301059399737
 20
-57.03535706113234
 30
0.0
  0
POINT
  5
85
330
70
100
AcDbEntity
  8
Ringo-Row-keyboard v13 v8_Ringo-Row-keyboard v13_Sketch4
100
AcDbPoint
 10
121.4537659399737
 20
-52.95212706113233
 30
0.0
  0
POINT
  5
86
330
70
100
AcDbEntity
  8
Ringo-Row-keyboard v13 v8_Ringo-Row-keyboard v13_Sketch4
100
AcDbPoint
 10
134.5119059399737
 20
-52.95212706113233
 30
0.0
  0
POINT
  5
87
330
70
100
AcDbEntity
  8
Ringo-Row-keyboard v13 v8_Ringo-Row-keyboard v13_Sketch4
100
AcDbPoint
 10
133.1200639416612
 20
-61.70989793899064
 30
0.0
  0
POINT
  5
88
330
70
100
AcDbEntity
  8
Ringo-Row-keyboard v13 v8_Ringo-Row-keyboard v13_Sketch4
100
AcDbPoint
 10
115.6277859399737
 20
-57.03535706113234
 30
0.0
  0
POINT
  5
89
330
70
100
AcDbEntity
  8
Ringo-Row-keyboard v13 v8_Ringo-Row-keyboard v13_Sketch4
100
AcDbPoint
 10
132.659488491132
 20
-58.02037487589065
 30
0.0
  0
POINT
  5
8A
330
70
100
AcDbEntity
  8
Ringo-Row-keyboard v13 v8_Ringo-Row-keyboard v13_Sketch4
100
AcDbPoint
 10
133.1200659399737
 20
-61.70989706113234
 30
0.0
  0
POINT
  5
8B
330
70
100
AcDbEntity
  8
Ringo-Row-keyboard v13 v8_Ringo-Row-keyboard v13_Sketch4
100
AcDbPoint
 10
124.4696839416612
 20
-61.84695793899064
 30
0.0
  0
POINT
  5
8C
330
70
100
AcDbEntity
  8
Ringo-Row-keyboard v13 v8_Ringo-Row-keyboard v13_Sketch4
100
AcDbPoint
 10
124.4696859399737
 20
-61.84695706113234
 30
0.0
  0
POINT
  5
8D
330
70
100
AcDbEntity
  8
Ringo-Row-keyboard v13 v8_Ringo-Row-keyboard v13_Sketch4
100
AcDbPoint
 10
108.6331659399737
 20
-61.33979706113233
 30
0.0
  0
LINE
  5
8E
330
70
100
AcDbEntity
  8
Ringo-Row-keyboard v13 v8_Ringo-Row-keyboard v13_Sketch4
100
AcDbLine
 10
115.88404648779
 20
-60.96987235474492
 30
0.0
 11
115.88404648779
 21
-61.47517846812701
 31
0.0
  0
LINE
  5
8F
330
70
100
AcDbEntity
  8
Ringo-Row-keyboard v13 v8_Ringo-Row-keyboard v13_Sketch4
100
AcDbLine
 10
123.3667492478933
 20
-62.76328894694155
 30
0.0
 11
123.3667492478933
 21
-62.25823221286685
 31
0.0
  0
LINE
  5
90
330
70
100
AcDbEntity
  8
Ringo-Row-keyboard v13 v8_Ringo-Row-keyboard v13_Sketch4
100
AcDbLine
 10
116.4779605286558
 20
-61.75185651517072
 30
0.0
 11
116.4779605286558
 21
-61.95410748469003
 31
0.0
  0
LINE
  5
91
330
70
100
AcDbEntity
  8
Ringo-Row-keyboard v13 v8_Ringo-Row-keyboard v13_Sketch4
100
AcDbLine
 10
113.9168888880364
 20
-61.47261206406604
 30
0.0
 11
114.1694337081251
 21
-61.47261206406604
 31
0.0
  0
LINE
  5
92
330
70
100
AcDbEntity
  8
Ringo-Row-keyboard v13 v8_Ringo-Row-keyboard v13_Sketch4
100
AcDbLine
 10
125.2574693205422
 20
-60.96930091243847
 30
0.0
 11
125.2574693205422
 21
-61.4743932721285
 31
0.0
  0
LINE
  5
93
330
70
100
AcDbEntity
  8
Ringo-Row-keyboard v13 v8_Ringo-Row-keyboard v13_Sketch4
100
AcDbLine
 10
120.6388569507646
 20
-50.92222588781905
 30
0.0
 11
121.9531095820824
 21
-50.92222588781905
 31
0.0
  0
LINE
  5
94
330
70
100
AcDbEntity
  8
Ringo-Row-keyboard v13 v8_Ringo-Row-keyboard v13_Sketch4
100
AcDbLine
 10
132.437028738473
 20
-57.47357772845124
 30
0.0
 11
132.2349189116588
 21
-57.47357772845124
 31
0.0
  0
LINE
  5
95
330
70
100
AcDbEntity
  8
Ringo-Row-keyboard v13 v8_Ringo-Row-keyboard v13_Sketch4
100
AcDbLine
 10
132.2349189116588
 20
-58.76785470213516
 30
0.0
 11
132.2349189116588
 21
-58.56560400456711
 31
0.0
  0
LINE
  5
96
330
70
100
AcDbEntity
  8
Ringo-Row-keyboard v13 v8_Ringo-Row-keyboard v13_Sketch4
100
AcDbLine
 10
129.2856870261366
 20
-52.52336698919814
 30
0.0
 11
129.2856870261366
 21
-50.90785596319111
 31
0.0
  0
LINE
  5
97
330
70
100
AcDbEntity
  8
Ringo-Row-keyboard v13 v8_Ringo-Row-keyboard v13_Sketch4
100
AcDbLine
 10
124.4828569507645
 20
-52.53773691382605
 30
0.0
 11
124.4828569507645
 21
-50.92222588781902
 31
0.0
  0
LINE
  5
98
330
70
100
AcDbEntity
  8
Ringo-Row-keyboard v13 v8_Ringo-Row-keyboard v13_Sketch4
100
AcDbLine
 10
117.7725943023957
 20
-61.95410748469003
 30
0.0
 11
117.5704844755814
 21
-61.95410748469003
 31
0.0
  0
LINE
  5
99
330
70
100
AcDbEntity
  8
Ringo-Row-keyboard v13 v8_Ringo-Row-keyboard v13_Sketch4
100
AcDbLine
 10
116.1189065406462
 20
-62.76328894694155
 30
0.0
 11
115.8663595449474
 21
-62.76328894694155
 31
0.0
  0
LINE
  5
9A
330
70
100
AcDbEntity
  8
Ringo-Row-keyboard v13 v8_Ringo-Row-keyboard v13_Sketch4
100
AcDbLine
 10
113.8996569507646
 20
-52.53773691382606
 30
0.0
 11
113.8996569507646
 21
-50.92222588781905
 31
0.0
  0
CIRCLE
  5
9B
330
70
100
AcDbEntity
  8
Ringo-Row-keyboard v13 v8_Ringo-Row-keyboard v13_Sketch4
100
AcDbCircle
 10
-132.3361509197278
 20
-58.02037487589065
 30
0.0
 40
0.3233375714041667
210
0.0
220
0.0
230
-1.0
  0
LINE
  5
9C
330
70
100
AcDbEntity
  8
Ringo-Row-keyboard v13 v8_Ringo-Row-keyboard v13_Sketch4
100
AcDbLine
 10
109.5972955375215
 20
-58.95492072902949
 30
0.0
 11
109.5972955375215
 21
-58.42854818307574
 31
0.0
  0
LINE
  5
9D
330
70
100
AcDbEntity
  8
Ringo-Row-keyboard v13 v8_Ringo-Row-keyboard v13_Sketch4
100
AcDbLine
 10
110.5661316991982
 20
-60.35338848612447
 30
0.0
 11
110.5661316991982
 21
-60.87976130402949
 31
0.0
  0
LINE
  5
9E
330
70
100
AcDbEntity
  8
Ringo-Row-keyboard v13 v8_Ringo-Row-keyboard v13_Sketch4
100
AcDbLine
 10
115.6314994920912
 20
-60.96987235474492
 30
0.0
 11
115.88404648779
 21
-60.96987235474492
 31
0.0
  0
LINE
  5
9F
330
70
100
AcDbEntity
  8
Ringo-Row-keyboard v13 v8_Ringo-Row-keyboard v13_Sketch4
100
AcDbLine
 10
117.5704844755814
 20
-61.75185651517072
 30
0.0
 11
117.7725943023957
 21
-61.75185651517072
 31
0.0
  0
CIRCLE
  5
A0
330
70
100
AcDbEntity
  8
Ringo-Row-keyboard v13 v8_Ringo-Row-keyboard v13_Sketch4
100
AcDbCircle
 10
-124.3466367256445
 20
-61.84695793899064
 30
0.0
 40
0.1230472160166667
210
0.0
220
0.0
230
-1.0
  0
LINE
  5
A1
330
70
100
AcDbEntity
  8
Ringo-Row-keyboard v13 v8_Ringo-Row-keyboard v13_Sketch4
100
AcDbLine
 10
115.6314994920912
 20
-61.47517846812701
 30
0.0
 11
115.6314994920912
 21
-60.96987235474492
 31
0.0
  0
LINE
  5
A2
330
70
100
AcDbEntity
  8
Ringo-Row-keyboard v13 v8_Ringo-Row-keyboard v13_Sketch4
100
AcDbLine
 10
132.437028738473
 20
-57.27161203580592
 30
0.0
 11
132.437028738473
 21
-57.47357772845124
 31
0.0
  0
LINE
  5
A3
330
70
100
AcDbEntity
  8
Ringo-Row-keyboard v13 v8_Ringo-Row-keyboard v13_Sketch4
100
AcDbLine
 10
107.2148289445947
 20
-58.95492072902949
 30
0.0
 11
107.2148289445947
 21
-58.42854818307574
 31
0.0
  0
LINE
  5
A4
330
70
100
AcDbEntity
  8
Ringo-Row-keyboard v13 v8_Ringo-Row-keyboard v13_Sketch4
100
AcDbLine
 10
132.2349189116588
 20
-58.56560400456711
 30
0.0
 11
132.437028738473
 21
-58.56560400456711
 31
0.0
  0
LINE
  5
A5
330
70
100
AcDbEntity
  8
Ringo-Row-keyboard v13 v8_Ringo-Row-keyboard v13_Sketch4
100
AcDbLine
 10
132.437028738473
 20
-58.56560400456711
 30
0.0
 11
132.437028738473
 21
-58.76785470213516
 31
0.0
  0
LINE
  5
A6
330
70
100
AcDbEntity
  8
Ringo-Row-keyboard v13 v8_Ringo-Row-keyboard v13_Sketch4
100
AcDbLine
 10
115.88404648779
 20
-61.47517846812701
 30
0.0
 11
115.6314994920912
 21
-61.47517846812701
 31
0.0
  0
LINE
  5
A7
330
70
100
AcDbEntity
  8
Ringo-Row-keyboard v13 v8_Ringo-Row-keyboard v13_Sketch4
100
AcDbLine
 10
116.4779605286558
 20
-61.95410748469003
 30
0.0
 11
116.2759594823464
 21
-61.95410748469003
 31
0.0
  0
LINE
  5
A8
330
70
100
AcDbEntity
  8
Ringo-Row-keyboard v13 v8_Ringo-Row-keyboard v13_Sketch4
100
AcDbLine
 10
123.8751095820824
 20
-52.53773691382606
 30
0.0
 11
122.5608569507646
 21
-52.53773691382606
 31
0.0
  0
LINE
  5
A9
330
70
100
AcDbEntity
  8
Ringo-Row-keyboard v13 v8_Ringo-Row-keyboard v13_Sketch4
100
AcDbLine
 10
132.437028738473
 20
-58.76785470213516
 30
0.0
 11
132.2349189116588
 21
-58.76785470213516
 31
0.0
  0
LINE
  5
AA
330
70
100
AcDbEntity
  8
Ringo-Row-keyboard v13 v8_Ringo-Row-keyboard v13_Sketch4
100
AcDbLine
 10
116.2759594823464
 20
-61.95410748469003
 30
0.0
 11
116.2759594823464
 21
-61.75185651517072
 31
0.0
  0
CIRCLE
  5
AB
330
70
100
AcDbEntity
  8
Ringo-Row-keyboard v13 v8_Ringo-Row-keyboard v13_Sketch4
100
AcDbCircle
 10
-132.9970128504778
 20
-61.70990216101148
 30
0.0
 40
0.1230472160166667
210
0.0
220
0.0
230
-1.0
  0
LINE
  5
AC
330
70
100
AcDbEntity
  8
Ringo-Row-keyboard v13 v8_Ringo-Row-keyboard v13_Sketch4
100
AcDbLine
 10
117.5704844755814
 20
-61.95410748469003
 30
0.0
 11
117.5704844755814
 21
-61.75185651517072
 31
0.0
  0
LINE
  5
AD
330
70
100
AcDbEntity
  8
Ringo-Row-keyboard v13 v8_Ringo-Row-keyboard v13_Sketch4
100
AcDbLine
 10
109.8664881260743
 20
-58.95492072902949
 30
0.0
 11
109.5972955375215
 21
-58.95492072902949
 31
0.0
  0
LINE
  5
AE
330
70
100
AcDbEntity
  8
Ringo-Row-keyboard v13 v8_Ringo-Row-keyboard v13_Sketch4
100
AcDbLine
 10
107.4481408590546
 20
-60.35338848612447
 30
0.0
 11
107.7173682573691
 21
-60.35338848612447
 31
0.0
  0
LINE
  5
AF
330
70
100
AcDbEntity
  8
Ringo-Row-keyboard v13 v8_Ringo-Row-keyboard v13_Sketch4
100
AcDbLine
 10
107.7173682573691
 20
-60.35338848612447
 30
0.0
 11
107.7173682573691
 21
-60.87976130402949
 31
0.0
  0
LINE
  5
B0
330
70
100
AcDbEntity
  8
Ringo-Row-keyboard v13 v8_Ringo-Row-keyboard v13_Sketch4
100
AcDbLine
 10
127.6416794987219
 20
-60.97062076461837
 30
0.0
 11
127.3889562786052
 21
-60.97062076461837
 31
0.0
  0
CIRCLE
  5
B1
330
70
100
AcDbEntity
  8
Ringo-Row-keyboard v13 v8_Ringo-Row-keyboard v13_Sketch4
100
AcDbCircle
 10
-117.0233312416862
 20
-61.85283939630314
 30
0.0
 40
0.3233375714041667
210
0.0
220
0.0
230
-1.0
  0
LINE
  5
B2
330
70
100
AcDbEntity
  8
Ringo-Row-keyboard v13 v8_Ringo-Row-keyboard v13_Sketch4
100
AcDbLine
 10
118.7168569507646
 20
-50.92222588781905
 30
0.0
 11
120.0311095820824
 21
-50.92222588781905
 31
0.0
  0
LINE
  5
B3
330
70
100
AcDbEntity
  8
Ringo-Row-keyboard v13 v8_Ringo-Row-keyboard v13_Sketch4
100
AcDbLine
 10
114.1694337081251
 20
-60.96755532999136
 30
0.0
 11
113.9168888880364
 21
-60.96755532999136
 31
0.0
  0
LINE
  5
B4
330
70
100
AcDbEntity
  8
Ringo-Row-keyboard v13 v8_Ringo-Row-keyboard v13_Sketch4
100
AcDbLine
 10
114.1694337081251
 20
-61.47261206406604
 30
0.0
 11
114.1694337081251
 21
-60.96755532999136
 31
0.0
  0
LINE
  5
B5
330
70
100
AcDbEntity
  8
Ringo-Row-keyboard v13 v8_Ringo-Row-keyboard v13_Sketch4
100
AcDbLine
 10
132.2349189116588
 20
-57.47357772845124
 30
0.0
 11
132.2349189116588
 21
-57.27161203580592
 31
0.0
  0
LINE
  5
B6
330
70
100
AcDbEntity
  8
Ringo-Row-keyboard v13 v8_Ringo-Row-keyboard v13_Sketch4
100
AcDbLine
 10
123.3667492478933
 20
-62.25823221286685
 30
0.0
 11
123.1140260277766
 21
-62.25823221286685
 31
0.0
  0
LINE
  5
B7
330
70
100
AcDbEntity
  8
Ringo-Row-keyboard v13 v8_Ringo-Row-keyboard v13_Sketch4
100
AcDbLine
 10
110.2966541057226
 20
-60.87976130402949
 30
0.0
 11
110.2966541057226
 21
-60.35338848612447
 31
0.0
  0
LINE
  5
B8
330
70
100
AcDbEntity
  8
Ringo-Row-keyboard v13 v8_Ringo-Row-keyboard v13_Sketch4
100
AcDbLine
 10
107.7173682573691
 20
-60.87976130402949
 30
0.0
 11
107.4481408590546
 21
-60.87976130402949
 31
0.0
  0
LINE
  5
B9
330
70
100
AcDbEntity
  8
Ringo-Row-keyboard v13 v8_Ringo-Row-keyboard v13_Sketch4
100
AcDbLine
 10
111.5898628548488
 20
-60.96755532999136
 30
0.0
 11
111.8424098505476
 21
-60.96755532999136
 31
0.0
  0
LINE
  5
BA
330
70
100
AcDbEntity
  8
Ringo-Row-keyboard v13 v8_Ringo-Row-keyboard v13_Sketch4
100
AcDbLine
 10
117.7725943023957
 20
-61.75185651517072
 30
0.0
 11
117.7725943023957
 21
-61.95410748469003
 31
0.0
  0
LINE
  5
BB
330
70
100
AcDbEntity
  8
Ringo-Row-keyboard v13 v8_Ringo-Row-keyboard v13_Sketch4
100
AcDbLine
 10
110.2966541057226
 20
-60.35338848612447
 30
0.0
 11
110.5661316991982
 21
-60.35338848612447
 31
0.0
  0
LINE
  5
BC
330
70
100
AcDbEntity
  8
Ringo-Row-keyboard v13 v8_Ringo-Row-keyboard v13_Sketch4
100
AcDbLine
 10
132.2349189116588
 20
-57.27161203580592
 30
0.0
 11
132.437028738473
 21
-57.27161203580592
 31
0.0
  0
LINE
  5
BD
330
70
100
AcDbEntity
  8
Ringo-Row-keyboard v13 v8_Ringo-Row-keyboard v13_Sketch4
100
AcDbLine
 10
107.02052775342
 20
-51.07285508516365
 30
0.0
 11
108.636038779427
 21
-51.07285508516365
 31
0.0
  0
LINE
  5
BE
330
70
100
AcDbEntity
  8
Ringo-Row-keyboard v13 v8_Ringo-Row-keyboard v13_Sketch4
100
AcDbLine
 10
120.0311095820824
 20
-52.53773691382606
 30
0.0
 11
118.7168569507646
 21
-52.53773691382606
 31
0.0
  0
LINE
  5
BF
330
70
100
AcDbEntity
  8
Ringo-Row-keyboard v13 v8_Ringo-Row-keyboard v13_Sketch4
100
AcDbLine
 10
122.5608569507646
 20
-50.92222588781905
 30
0.0
 11
123.8751095820824
 21
-50.92222588781905
 31
0.0
  0
LINE
  5
C0
330
70
100
AcDbEntity
  8
Ringo-Row-keyboard v13 v8_Ringo-Row-keyboard v13_Sketch4
100
AcDbLine
 10
125.0047461004255
 20
-61.4743932721285
 30
0.0
 11
125.0047461004255
 21
-60.96930091243847
 31
0.0
  0
LINE
  5
C1
330
70
100
AcDbEntity
  8
Ringo-Row-keyboard v13 v8_Ringo-Row-keyboard v13_Sketch4
100
AcDbLine
 10
125.0047461004255
 20
-60.96930091243847
 30
0.0
 11
125.2574693205422
 21
-60.96930091243847
 31
0.0
  0
LINE
  5
C2
330
70
100
AcDbEntity
  8
Ringo-Row-keyboard v13 v8_Ringo-Row-keyboard v13_Sketch4
100
AcDbLine
 10
127.3889562786052
 20
-61.47571312430841
 30
0.0
 11
127.6416794987219
 21
-61.47571312430841
 31
0.0
  0
LINE
  5
C3
330
70
100
AcDbEntity
  8
Ringo-Row-keyboard v13 v8_Ringo-Row-keyboard v13_Sketch4
100
AcDbLine
 10
116.2759594823464
 20
-61.75185651517072
 30
0.0
 11
116.4779605286558
 21
-61.75185651517072
 31
0.0
  0
LINE
  5
C4
330
70
100
AcDbEntity
  8
Ringo-Row-keyboard v13 v8_Ringo-Row-keyboard v13_Sketch4
100
AcDbLine
 10
122.5608569507646
 20
-52.53773691382606
 30
0.0
 11
122.5608569507646
 21
-50.92222588781905
 31
0.0
  0
LINE
  5
C5
330
70
100
AcDbEntity
  8
Ringo-Row-keyboard v13 v8_Ringo-Row-keyboard v13_Sketch4
100
AcDbLine
 10
110.555238779427
 20
-53.48055508516363
 30
0.0
 11
110.555238779427
 21
-54.79480771648145
 31
0.0
  0
LINE
  5
C6
330
70
100
AcDbEntity
  8
Ringo-Row-keyboard v13 v8_Ringo-Row-keyboard v13_Sketch4
100
AcDbLine
 10
115.8216569507646
 20
-52.53773691382606
 30
0.0
 11
115.8216569507646
 21
-50.92222588781904
 31
0.0
  0
LINE
  5
C7
330
70
100
AcDbEntity
  8
Ringo-Row-keyboard v13 v8_Ringo-Row-keyboard v13_Sketch4
100
AcDbLine
 10
107.4840215331475
 20
-58.95492072902949
 30
0.0
 11
107.2148289445947
 21
-58.95492072902949
 31
0.0
  0
LINE
  5
C8
330
70
100
AcDbEntity
  8
Ringo-Row-keyboard v13 v8_Ringo-Row-keyboard v13_Sketch4
100
AcDbLine
 10
134.4583095820823
 20
-52.53773691382602
 30
0.0
 11
133.1440569507645
 21
-52.53773691382602
 31
0.0
  0
LINE
  5
C9
330
70
100
AcDbEntity
  8
Ringo-Row-keyboard v13 v8_Ringo-Row-keyboard v13_Sketch4
100
AcDbLine
 10
113.2919095820824
 20
-50.92222588781904
 30
0.0
 11
113.2919095820824
 21
-52.53773691382606
 31
0.0
  0
LINE
  5
CA
330
70
100
AcDbEntity
  8
Ringo-Row-keyboard v13 v8_Ringo-Row-keyboard v13_Sketch4
100
AcDbLine
 10
111.3699095820824
 20
-50.92222588781904
 30
0.0
 11
111.3699095820824
 21
-52.53773691382606
 31
0.0
  0
LINE
  5
CB
330
70
100
AcDbEntity
  8
Ringo-Row-keyboard v13 v8_Ringo-Row-keyboard v13_Sketch4
100
AcDbLine
 10
123.8751095820824
 20
-50.92222588781905
 30
0.0
 11
123.8751095820824
 21
-52.53773691382606
 31
0.0
  0
LINE
  5
CC
330
70
100
AcDbEntity
  8
Ringo-Row-keyboard v13 v8_Ringo-Row-keyboard v13_Sketch4
100
AcDbLine
 10
111.3699095820824
 20
-52.53773691382606
 30
0.0
 11
110.0556569507646
 21
-52.53773691382606
 31
0.0
  0
LINE
  5
CD
330
70
100
AcDbEntity
  8
Ringo-Row-keyboard v13 v8_Ringo-Row-keyboard v13_Sketch4
100
AcDbLine
 10
135.0394652932364
 20
-50.78523239138259
 30
0.0
 11
135.0396036837499
 21
-62.88478040878942
 31
0.0
  0
LINE
  5
CE
330
70
100
AcDbEntity
  8
Ringo-Row-keyboard v13 v8_Ringo-Row-keyboard v13_Sketch4
100
AcDbLine
 10
123.1140260277766
 20
-62.25823221286685
 30
0.0
 11
123.1140260277766
 21
-62.76328894694155
 31
0.0
  0
LINE
  5
CF
330
70
100
AcDbEntity
  8
Ringo-Row-keyboard v13 v8_Ringo-Row-keyboard v13_Sketch4
100
AcDbLine
 10
131.2220569507645
 20
-52.53773691382605
 30
0.0
 11
131.2220569507645
 21
-50.92222588781905
 31
0.0
  0
LINE
  5
D0
330
70
100
AcDbEntity
  8
Ringo-Row-keyboard v13 v8_Ringo-Row-keyboard v13_Sketch4
100
AcDbLine
 10
107.02052775342
 20
-52.38710771648146
 30
0.0
 11
107.02052775342
 21
-51.07285508516365
 31
0.0
  0
LINE
  5
D1
330
70
100
AcDbEntity
  8
Ringo-Row-keyboard v13 v8_Ringo-Row-keyboard v13_Sketch4
100
AcDbLine
 10
111.8424098505476
 20
-61.47261206406604
 30
0.0
 11
111.5898628548488
 21
-61.47261206406604
 31
0.0
  0
LINE
  5
D2
330
70
100
AcDbEntity
  8
Ringo-Row-keyboard v13 v8_Ringo-Row-keyboard v13_Sketch4
100
AcDbLine
 10
108.93972775342
 20
-54.79480771648145
 30
0.0
 11
108.93972775342
 21
-53.48055508516363
 31
0.0
  0
LINE
  5
D3
330
70
100
AcDbEntity
  8
Ringo-Row-keyboard v13 v8_Ringo-Row-keyboard v13_Sketch4
100
AcDbLine
 10
120.4787277534199
 20
-53.48055508516363
 30
0.0
 11
122.094238779427
 21
-53.48055508516363
 31
0.0
  0
LINE
  5
D4
330
70
100
AcDbEntity
  8
Ringo-Row-keyboard v13 v8_Ringo-Row-keyboard v13_Sketch4
100
AcDbLine
 10
115.8663595449474
 20
-62.25823221286685
 30
0.0
 11
116.1189065406462
 21
-62.25823221286685
 31
0.0
  0
LINE
  5
D5
330
70
100
AcDbEntity
  8
Ringo-Row-keyboard v13 v8_Ringo-Row-keyboard v13_Sketch4
100
AcDbLine
 10
132.5363095820824
 20
-52.53773691382605
 30
0.0
 11
131.2220569507645
 21
-52.53773691382605
 31
0.0
  0
LINE
  5
D6
330
70
100
AcDbEntity
  8
Ringo-Row-keyboard v13 v8_Ringo-Row-keyboard v13_Sketch4
100
AcDbLine
 10
127.6416794987219
 20
-61.47571312430841
 30
0.0
 11
127.6416794987219
 21
-60.97062076461837
 31
0.0
  0
LINE
  5
D7
330
70
100
AcDbEntity
  8
Ringo-Row-keyboard v13 v8_Ringo-Row-keyboard v13_Sketch4
100
AcDbLine
 10
116.1189065406462
 20
-62.25823221286685
 30
0.0
 11
116.1189065406462
 21
-62.76328894694155
 31
0.0
  0
LINE
  5
D8
330
70
100
AcDbEntity
  8
Ringo-Row-keyboard v13 v8_Ringo-Row-keyboard v13_Sketch4
100
AcDbLine
 10
125.7971095820824
 20
-52.53773691382605
 30
0.0
 11
124.4828569507645
 21
-52.53773691382605
 31
0.0
  0
LINE
  5
D9
330
70
100
AcDbEntity
  8
Ringo-Row-keyboard v13 v8_Ringo-Row-keyboard v13_Sketch4
100
AcDbLine
 10
113.9168888880364
 20
-60.96755532999136
 30
0.0
 11
113.9168888880364
 21
-61.47261206406604
 31
0.0
  0
LINE
  5
DA
330
70
100
AcDbEntity
  8
Ringo-Row-keyboard v13 v8_Ringo-Row-keyboard v13_Sketch4
100
AcDbLine
 10
115.2139095820824
 20
-50.92222588781905
 30
0.0
 11
115.2139095820824
 21
-52.53773691382606
 31
0.0
  0
LINE
  5
DB
330
70
100
AcDbEntity
  8
Ringo-Row-keyboard v13 v8_Ringo-Row-keyboard v13_Sketch4
100
AcDbLine
 10
109.8664881260743
 20
-58.42854818307574
 30
0.0
 11
109.8664881260743
 21
-58.95492072902949
 31
0.0
  0
LINE
  5
DC
330
70
100
AcDbEntity
  8
Ringo-Row-keyboard v13 v8_Ringo-Row-keyboard v13_Sketch4
100
AcDbLine
 10
131.2220569507645
 20
-50.92222588781905
 30
0.0
 11
132.5363095820824
 21
-50.92222588781905
 31
0.0
  0
LINE
  5
DD
330
70
100
AcDbEntity
  8
Ringo-Row-keyboard v13 v8_Ringo-Row-keyboard v13_Sketch4
100
AcDbLine
 10
121.9531095820824
 20
-50.92222588781905
 30
0.0
 11
121.9531095820824
 21
-52.53773691382606
 31
0.0
  0
LINE
  5
DE
330
70
100
AcDbEntity
  8
Ringo-Row-keyboard v13 v8_Ringo-Row-keyboard v13_Sketch4
100
AcDbLine
 10
108.636038779427
 20
-51.07285508516365
 30
0.0
 11
108.636038779427
 21
-52.38710771648146
 31
0.0
  0
LINE
  5
DF
330
70
100
AcDbEntity
  8
Ringo-Row-keyboard v13 v8_Ringo-Row-keyboard v13_Sketch4
100
AcDbLine
 10
116.63452775342
 20
-54.79480771648145
 30
0.0
 11
116.63452775342
 21
-53.48055508516363
 31
0.0
  0
LINE
  5
E0
330
70
100
AcDbEntity
  8
Ringo-Row-keyboard v13 v8_Ringo-Row-keyboard v13_Sketch4
100
AcDbLine
 10
127.3889562786052
 20
-60.97062076461837
 30
0.0
 11
127.3889562786052
 21
-61.47571312430841
 31
0.0
  0
LINE
  5
E1
330
70
100
AcDbEntity
  8
Ringo-Row-keyboard v13 v8_Ringo-Row-keyboard v13_Sketch4
100
AcDbLine
 10
124.4828569507645
 20
-50.92222588781902
 30
0.0
 11
125.7971095820824
 21
-50.92222588781902
 31
0.0
  0
LINE
  5
E2
330
70
100
AcDbEntity
  8
Ringo-Row-keyboard v13 v8_Ringo-Row-keyboard v13_Sketch4
100
AcDbLine
 10
110.5661316991982
 20
-60.87976130402949
 30
0.0
 11
110.2966541057226
 21
-60.87976130402949
 31
0.0
  0
LINE
  5
E3
330
70
100
AcDbEntity
  8
Ringo-Row-keyboard v13 v8_Ringo-Row-keyboard v13_Sketch4
100
AcDbLine
 10
117.1359095820824
 20
-52.53773691382606
 30
0.0
 11
115.8216569507646
 21
-52.53773691382606
 31
0.0
  0
LINE
  5
E4
330
70
100
AcDbEntity
  8
Ringo-Row-keyboard v13 v8_Ringo-Row-keyboard v13_Sketch4
100
AcDbLine
 10
134.4583095820823
 20
-50.92222588781902
 30
0.0
 11
134.4583095820823
 21
-52.53773691382602
 31
0.0
  0
LINE
  5
E5
330
70
100
AcDbEntity
  8
Ringo-Row-keyboard v13 v8_Ringo-Row-keyboard v13_Sketch4
100
AcDbLine
 10
116.330838779427
 20
-54.79480771648145
 30
0.0
 11
114.71532775342
 21
-54.79480771648145
 31
0.0
  0
LINE
  5
E6
330
70
100
AcDbEntity
  8
Ringo-Row-keyboard v13 v8_Ringo-Row-keyboard v13_Sketch4
100
AcDbLine
 10
128.1628277534199
 20
-54.79480771648145
 30
0.0
 11
128.1628277534199
 21
-53.48055508516363
 31
0.0
  0
LINE
  5
E7
330
70
100
AcDbEntity
  8
Ringo-Row-keyboard v13 v8_Ringo-Row-keyboard v13_Sketch4
100
AcDbLine
 10
106.8089079571761
 20
-50.53421162153222
 30
0.0
 11
134.789474439149
 21
-50.53523525096483
 31
0.0
  0
LINE
  5
E8
330
70
100
AcDbEntity
  8
Ringo-Row-keyboard v13 v8_Ringo-Row-keyboard v13_Sketch4
100
AcDbLine
 10
124.977338779427
 20
-56.71940771648144
 30
0.0
 11
123.3618277534199
 21
-56.71940771648144
 31
0.0
  0
LINE
  5
E9
330
70
100
AcDbEntity
  8
Ringo-Row-keyboard v13 v8_Ringo-Row-keyboard v13_Sketch4
100
AcDbLine
 10
127.8533387794269
 20
-53.48055508516363
 30
0.0
 11
127.8533387794269
 21
-54.79480771648145
 31
0.0
  0
LINE
  5
EA
330
70
100
AcDbEntity
  8
Ringo-Row-keyboard v13 v8_Ringo-Row-keyboard v13_Sketch4
100
AcDbLine
 10
120.0311095820824
 20
-50.92222588781905
 30
0.0
 11
120.0311095820824
 21
-52.53773691382606
 31
0.0
  0
LINE
  5
EB
330
70
100
AcDbEntity
  8
Ringo-Row-keyboard v13 v8_Ringo-Row-keyboard v13_Sketch4
100
AcDbLine
 10
118.7168569507646
 20
-52.53773691382606
 30
0.0
 11
118.7168569507646
 21
-50.92222588781905
 31
0.0
  0
LINE
  5
EC
330
70
100
AcDbEntity
  8
Ringo-Row-keyboard v13 v8_Ringo-Row-keyboard v13_Sketch4
100
AcDbLine
 10
122.094238779427
 20
-54.79480771648145
 30
0.0
 11
120.4787277534199
 21
-54.79480771648145
 31
0.0
  0
LINE
  5
ED
330
70
100
AcDbEntity
  8
Ringo-Row-keyboard v13 v8_Ringo-Row-keyboard v13_Sketch4
100
AcDbLine
 10
112.480238779427
 20
-53.48055508516363
 30
0.0
 11
112.480238779427
 21
-54.79480771648145
 31
0.0
  0
LINE
  5
EE
330
70
100
AcDbEntity
  8
Ringo-Row-keyboard v13 v8_Ringo-Row-keyboard v13_Sketch4
100
AcDbLine
 10
130.5999396574544
 20
-52.52336698919814
 30
0.0
 11
129.2856870261366
 21
-52.52336698919814
 31
0.0
  0
LINE
  5
EF
330
70
100
AcDbEntity
  8
Ringo-Row-keyboard v13 v8_Ringo-Row-keyboard v13_Sketch4
100
AcDbLine
 10
108.636038779427
 20
-52.38710771648146
 30
0.0
 11
107.02052775342
 21
-52.38710771648146
 31
0.0
  0
LINE
  5
F0
330
70
100
AcDbEntity
  8
Ringo-Row-keyboard v13 v8_Ringo-Row-keyboard v13_Sketch4
100
AcDbLine
 10
134.7896036837663
 20
-63.13478326820437
 30
0.0
 11
106.8088988873937
 21
-63.13478326820437
 31
0.0
  0
LINE
  5
F1
330
70
100
AcDbEntity
  8
Ringo-Row-keyboard v13 v8_Ringo-Row-keyboard v13_Sketch4
100
AcDbLine
 10
111.8424098505476
 20
-60.96755532999136
 30
0.0
 11
111.8424098505476
 21
-61.47261206406604
 31
0.0
  0
LINE
  5
F2
330
70
100
AcDbEntity
  8
Ringo-Row-keyboard v13 v8_Ringo-Row-keyboard v13_Sketch4
100
AcDbLine
 10
123.1140260277766
 20
-62.76328894694155
 30
0.0
 11
123.3667492478933
 21
-62.76328894694155
 31
0.0
  0
LINE
  5
F3
330
70
100
AcDbEntity
  8
Ringo-Row-keyboard v13 v8_Ringo-Row-keyboard v13_Sketch4
100
AcDbLine
 10
132.6614387794269
 20
-55.40515508516363
 30
0.0
 11
132.6614387794269
 21
-56.71940771648144
 31
0.0
  0
LINE
  5
F4
330
70
100
AcDbEntity
  8
Ringo-Row-keyboard v13 v8_Ringo-Row-keyboard v13_Sketch4
100
AcDbLine
 10
111.5898628548488
 20
-61.47261206406604
 30
0.0
 11
111.5898628548488
 21
-60.96755532999136
 31
0.0
  0
LINE
  5
F5
330
70
100
AcDbEntity
  8
Ringo-Row-keyboard v13 v8_Ringo-Row-keyboard v13_Sketch4
100
AcDbLine
 10
107.2148289445947
 20
-58.42854818307574
 30
0.0
 11
107.4840215331475
 21
-58.42854818307574
 31
0.0
  0
LINE
  5
F6
330
70
100
AcDbEntity
  8
Ringo-Row-keyboard v13 v8_Ringo-Row-keyboard v13_Sketch4
100
AcDbLine
 10
121.9531095820824
 20
-52.53773691382606
 30
0.0
 11
120.6388569507646
 21
-52.53773691382606
 31
0.0
  0
LINE
  5
F7
330
70
100
AcDbEntity
  8
Ringo-Row-keyboard v13 v8_Ringo-Row-keyboard v13_Sketch4
100
AcDbLine
 10
107.4840215331475
 20
-58.42854818307574
 30
0.0
 11
107.4840215331475
 21
-58.95492072902949
 31
0.0
  0
LINE
  5
F8
330
70
100
AcDbEntity
  8
Ringo-Row-keyboard v13 v8_Ringo-Row-keyboard v13_Sketch4
100
AcDbLine
 10
125.7971095820824
 20
-50.92222588781902
 30
0.0
 11
125.7971095820824
 21
-52.53773691382605
 31
0.0
  0
LINE
  5
F9
330
70
100
AcDbEntity
  8
Ringo-Row-keyboard v13 v8_Ringo-Row-keyboard v13_Sketch4
100
AcDbLine
 10
125.2574693205422
 20
-61.4743932721285
 30
0.0
 11
125.0047461004255
 21
-61.4743932721285
 31
0.0
  0
LINE
  5
FA
330
70
100
AcDbEntity
  8
Ringo-Row-keyboard v13 v8_Ringo-Row-keyboard v13_Sketch4
100
AcDbLine
 10
115.6314994920912
 20
-60.96987235474492
 30
0.0
 11
115.88404648779
 21
-60.96987235474492
 31
0.0
  0
LINE
  5
FB
330
70
100
AcDbEntity
  8
Ringo-Row-keyboard v13 v8_Ringo-Row-keyboard v13_Sketch4
100
AcDbLine
 10
120.6388569507646
 20
-52.53773691382606
 30
0.0
 11
120.6388569507646
 21
-50.92222588781905
 31
0.0
  0
LINE
  5
FC
330
70
100
AcDbEntity
  8
Ringo-Row-keyboard v13 v8_Ringo-Row-keyboard v13_Sketch4
100
AcDbLine
 10
115.8663595449474
 20
-62.76328894694155
 30
0.0
 11
115.8663595449474
 21
-62.25823221286685
 31
0.0
  0
LINE
  5
FD
330
70
100
AcDbEntity
  8
Ringo-Row-keyboard v13 v8_Ringo-Row-keyboard v13_Sketch4
100
AcDbLine
 10
106.5588988873937
 20
-62.88478326977688
 30
0.0
 11
106.5588988112798
 21
-50.78421162293745
 31
0.0
  0
LINE
  5
FE
330
70
100
AcDbEntity
  8
Ringo-Row-keyboard v13 v8_Ringo-Row-keyboard v13_Sketch4
100
AcDbLine
 10
110.0556569507646
 20
-52.53773691382606
 30
0.0
 11
110.0556569507646
 21
-50.92222588781904
 31
0.0
  0
LINE
  5
FF
330
70
100
AcDbEntity
  8
Ringo-Row-keyboard v13 v8_Ringo-Row-keyboard v13_Sketch4
100
AcDbLine
 10
107.4481408590546
 20
-60.87976130402949
 30
0.0
 11
107.4481408590546
 21
-60.35338848612447
 31
0.0
  0
LINE
  5
100
330
70
100
AcDbEntity
  8
Ringo-Row-keyboard v13 v8_Ringo-Row-keyboard v13_Sketch4
100
AcDbLine
 10
111.9776569507646
 20
-52.53773691382606
 30
0.0
 11
111.9776569507646
 21
-50.92222588781904
 31
0.0
  0
LINE
  5
101
330
70
100
AcDbEntity
  8
Ringo-Row-keyboard v13 v8_Ringo-Row-keyboard v13_Sketch4
100
AcDbLine
 10
115.8216569507646
 20
-50.92222588781904
 30
0.0
 11
117.1359095820824
 21
-50.92222588781904
 31
0.0
  0
LINE
  5
102
330
70
100
AcDbEntity
  8
Ringo-Row-keyboard v13 v8_Ringo-Row-keyboard v13_Sketch4
100
AcDbLine
 10
108.93972775342
 20
-53.48055508516363
 30
0.0
 11
110.555238779427
 21
-53.48055508516363
 31
0.0
  0
LINE
  5
103
330
70
100
AcDbEntity
  8
Ringo-Row-keyboard v13 v8_Ringo-Row-keyboard v13_Sketch4
100
AcDbLine
 10
109.5972955375215
 20
-58.42854818307574
 30
0.0
 11
109.8664881260743
 21
-58.42854818307574
 31
0.0
  0
LINE
  5
104
330
70
100
AcDbEntity
  8
Ringo-Row-keyboard v13 v8_Ringo-Row-keyboard v13_Sketch4
100
AcDbLine
 10
108.636038779427
 20
-54.79480771648145
 30
0.0
 11
107.02052775342
 21
-54.79480771648145
 31
0.0
  0
LINE
  5
105
330
70
100
AcDbEntity
  8
Ringo-Row-keyboard v13 v8_Ringo-Row-keyboard v13_Sketch4
100
AcDbLine
 10
118.250038779427
 20
-54.79480771648145
 30
0.0
 11
116.63452775342
 21
-54.79480771648145
 31
0.0
  0
LINE
  5
106
330
70
100
AcDbEntity
  8
Ringo-Row-keyboard v13 v8_Ringo-Row-keyboard v13_Sketch4
100
AcDbLine
 10
117.1359095820824
 20
-50.92222588781904
 30
0.0
 11
117.1359095820824
 21
-52.53773691382606
 31
0.0
  0
LINE
  5
107
330
70
100
AcDbEntity
  8
Ringo-Row-keyboard v13 v8_Ringo-Row-keyboard v13_Sketch4
100
AcDbLine
 10
131.6975387794269
 20
-53.48055508516363
 30
0.0
 11
131.6975387794269
 21
-54.79480771648145
 31
0.0
  0
LINE
  5
108
330
70
100
AcDbEntity
  8
Ringo-Row-keyboard v13 v8_Ringo-Row-keyboard v13_Sketch4
100
AcDbLine
 10
122.3872277534199
 20
-54.79480771648145
 30
0.0
 11
122.3872277534199
 21
-53.48055508516363
 31
0.0
  0
LINE
  5
109
330
70
100
AcDbEntity
  8
Ringo-Row-keyboard v13 v8_Ringo-Row-keyboard v13_Sketch4
100
AcDbLine
 10
128.6923095820823
 20
-52.53773691382605
 30
0.0
 11
127.3780569507646
 21
-52.53773691382605
 31
0.0
  0
LINE
  5
10A
330
70
100
AcDbEntity
  8
Ringo-Row-keyboard v13 v8_Ringo-Row-keyboard v13_Sketch4
100
AcDbLine
 10
129.2856870261366
 20
-50.90785596319111
 30
0.0
 11
130.5999396574544
 21
-50.90785596319111
 31
0.0
  0
LINE
  5
10B
330
70
100
AcDbEntity
  8
Ringo-Row-keyboard v13 v8_Ringo-Row-keyboard v13_Sketch4
100
AcDbLine
 10
118.55952775342
 20
-54.79480771648145
 30
0.0
 11
118.55952775342
 21
-53.48055508516363
 31
0.0
  0
LINE
  5
10C
330
70
100
AcDbEntity
  8
Ringo-Row-keyboard v13 v8_Ringo-Row-keyboard v13_Sketch4
100
AcDbLine
 10
110.555238779427
 20
-54.79480771648145
 30
0.0
 11
108.93972775342
 21
-54.79480771648145
 31
0.0
  0
LINE
  5
10D
330
70
100
AcDbEntity
  8
Ringo-Row-keyboard v13 v8_Ringo-Row-keyboard v13_Sketch4
100
AcDbLine
 10
133.1440569507645
 20
-50.92222588781902
 30
0.0
 11
134.4583095820823
 21
-50.92222588781902
 31
0.0
  0
LINE
  5
10E
330
70
100
AcDbEntity
  8
Ringo-Row-keyboard v13 v8_Ringo-Row-keyboard v13_Sketch4
100
AcDbLine
 10
114.399438779427
 20
-54.79480771648145
 30
0.0
 11
112.78392775342
 21
-54.79480771648145
 31
0.0
  0
LINE
  5
10F
330
70
100
AcDbEntity
  8
Ringo-Row-keyboard v13 v8_Ringo-Row-keyboard v13_Sketch4
100
AcDbLine
 10
112.480238779427
 20
-54.79480771648145
 30
0.0
 11
110.86472775342
 21
-54.79480771648145
 31
0.0
  0
LINE
  5
110
330
70
100
AcDbEntity
  8
Ringo-Row-keyboard v13 v8_Ringo-Row-keyboard v13_Sketch4
100
AcDbLine
 10
112.78392775342
 20
-53.48055508516363
 30
0.0
 11
114.399438779427
 21
-53.48055508516363
 31
0.0
  0
LINE
  5
111
330
70
100
AcDbEntity
  8
Ringo-Row-keyboard v13 v8_Ringo-Row-keyboard v13_Sketch4
100
AcDbLine
 10
125.934138779427
 20
-54.79480771648145
 30
0.0
 11
124.3186277534199
 21
-54.79480771648145
 31
0.0
  0
LINE
  5
112
330
70
100
AcDbEntity
  8
Ringo-Row-keyboard v13 v8_Ringo-Row-keyboard v13_Sketch4
100
AcDbLine
 10
128.6923095820823
 20
-50.92222588781902
 30
0.0
 11
128.6923095820823
 21
-52.53773691382605
 31
0.0
  0
LINE
  5
113
330
70
100
AcDbEntity
  8
Ringo-Row-keyboard v13 v8_Ringo-Row-keyboard v13_Sketch4
100
AcDbLine
 10
118.250038779427
 20
-53.48055508516363
 30
0.0
 11
118.250038779427
 21
-54.79480771648145
 31
0.0
  0
LINE
  5
114
330
70
100
AcDbEntity
  8
Ringo-Row-keyboard v13 v8_Ringo-Row-keyboard v13_Sketch4
100
AcDbLine
 10
133.1440569507645
 20
-52.53773691382602
 30
0.0
 11
133.1440569507645
 21
-50.92222588781902
 31
0.0
  0
LINE
  5
115
330
70
100
AcDbEntity
  8
Ringo-Row-keyboard v13 v8_Ringo-Row-keyboard v13_Sketch4
100
AcDbLine
 10
127.2017277534199
 20
-55.40515508516363
 30
0.0
 11
128.817238779427
 21
-55.40515508516363
 31
0.0
  0
LINE
  5
116
330
70
100
AcDbEntity
  8
Ringo-Row-keyboard v13 v8_Ringo-Row-keyboard v13_Sketch4
100
AcDbLine
 10
132.5194277534199
 20
-53.48055508516363
 30
0.0
 11
134.1349387794269
 21
-53.48055508516363
 31
0.0
  0
LINE
  5
117
330
70
100
AcDbEntity
  8
Ringo-Row-keyboard v13 v8_Ringo-Row-keyboard v13_Sketch4
100
AcDbLine
 10
123.058138779427
 20
-55.40515508516363
 30
0.0
 11
123.058138779427
 21
-56.71940771648144
 31
0.0
  0
LINE
  5
118
330
70
100
AcDbEntity
  8
Ringo-Row-keyboard v13 v8_Ringo-Row-keyboard v13_Sketch4
100
AcDbLine
 10
129.7783387794269
 20
-54.79480771648145
 30
0.0
 11
128.1628277534199
 21
-54.79480771648145
 31
0.0
  0
LINE
  5
119
330
70
100
AcDbEntity
  8
Ringo-Row-keyboard v13 v8_Ringo-Row-keyboard v13_Sketch4
100
AcDbLine
 10
119.213938779427
 20
-55.40515508516363
 30
0.0
 11
119.213938779427
 21
-56.71940771648144
 31
0.0
  0
LINE
  5
11A
330
70
100
AcDbEntity
  8
Ringo-Row-keyboard v13 v8_Ringo-Row-keyboard v13_Sketch4
100
AcDbLine
 10
115.2139095820824
 20
-52.53773691382606
 30
0.0
 11
113.8996569507646
 21
-52.53773691382606
 31
0.0
  0
LINE
  5
11B
330
70
100
AcDbEntity
  8
Ringo-Row-keyboard v13 v8_Ringo-Row-keyboard v13_Sketch4
100
AcDbLine
 10
113.2919095820824
 20
-52.53773691382606
 30
0.0
 11
111.9776569507646
 21
-52.53773691382606
 31
0.0
  0
LINE
  5
11C
330
70
100
AcDbEntity
  8
Ringo-Row-keyboard v13 v8_Ringo-Row-keyboard v13_Sketch4
100
AcDbLine
 10
113.438338779427
 20
-55.40515508516363
 30
0.0
 11
113.438338779427
 21
-56.71940771648144
 31
0.0
  0
LINE
  5
11D
330
70
100
AcDbEntity
  8
Ringo-Row-keyboard v13 v8_Ringo-Row-keyboard v13_Sketch4
100
AcDbLine
 10
125.458538779427
 20
-57.33095508516362
 30
0.0
 11
125.458538779427
 21
-58.64520771648144
 31
0.0
  0
LINE
  5
11E
330
70
100
AcDbEntity
  8
Ringo-Row-keyboard v13 v8_Ringo-Row-keyboard v13_Sketch4
100
AcDbLine
 10
127.3780569507646
 20
-52.53773691382605
 30
0.0
 11
127.3780569507646
 21
-50.92222588781902
 31
0.0
  0
LINE
  5
11F
330
70
100
AcDbEntity
  8
Ringo-Row-keyboard v13 v8_Ringo-Row-keyboard v13_Sketch4
100
AcDbLine
 10
119.51762775342
 20
-55.40515508516363
 30
0.0
 11
121.133138779427
 21
-55.40515508516363
 31
0.0
  0
LINE
  5
120
330
70
100
AcDbEntity
  8
Ringo-Row-keyboard v13 v8_Ringo-Row-keyboard v13_Sketch4
100
AcDbLine
 10
128.817238779427
 20
-55.40515508516363
 30
0.0
 11
128.817238779427
 21
-56.71940771648144
 31
0.0
  0
LINE
  5
121
330
70
100
AcDbEntity
  8
Ringo-Row-keyboard v13 v8_Ringo-Row-keyboard v13_Sketch4
100
AcDbLine
 10
110.86472775342
 20
-54.79480771648145
 30
0.0
 11
110.86472775342
 21
-53.48055508516363
 31
0.0
  0
LINE
  5
122
330
70
100
AcDbEntity
  8
Ringo-Row-keyboard v13 v8_Ringo-Row-keyboard v13_Sketch4
100
AcDbLine
 10
114.71532775342
 20
-54.79480771648145
 30
0.0
 11
114.71532775342
 21
-53.48055508516363
 31
0.0
  0
LINE
  5
123
330
70
100
AcDbEntity
  8
Ringo-Row-keyboard v13 v8_Ringo-Row-keyboard v13_Sketch4
100
AcDbLine
 10
114.71532775342
 20
-53.48055508516363
 30
0.0
 11
116.330838779427
 21
-53.48055508516363
 31
0.0
  0
LINE
  5
124
330
70
100
AcDbEntity
  8
Ringo-Row-keyboard v13 v8_Ringo-Row-keyboard v13_Sketch4
100
AcDbLine
 10
121.133138779427
 20
-55.40515508516363
 30
0.0
 11
121.133138779427
 21
-56.71940771648144
 31
0.0
  0
LINE
  5
125
330
70
100
AcDbEntity
  8
Ringo-Row-keyboard v13 v8_Ringo-Row-keyboard v13_Sketch4
100
AcDbLine
 10
120.4787277534199
 20
-54.79480771648145
 30
0.0
 11
120.4787277534199
 21
-53.48055508516363
 31
0.0
  0
LINE
  5
126
330
70
100
AcDbEntity
  8
Ringo-Row-keyboard v13 v8_Ringo-Row-keyboard v13_Sketch4
100
AcDbLine
 10
117.282538779427
 20
-56.71940771648144
 30
0.0
 11
115.66702775342
 21
-56.71940771648144
 31
0.0
  0
LINE
  5
127
330
70
100
AcDbEntity
  8
Ringo-Row-keyboard v13 v8_Ringo-Row-keyboard v13_Sketch4
100
AcDbLine
 10
125.934138779427
 20
-53.48055508516363
 30
0.0
 11
125.934138779427
 21
-54.79480771648145
 31
0.0
  0
LINE
  5
128
330
70
100
AcDbEntity
  8
Ringo-Row-keyboard v13 v8_Ringo-Row-keyboard v13_Sketch4
100
AcDbLine
 10
129.6021277534199
 20
-58.64520771648144
 30
0.0
 11
129.6021277534199
 21
-57.33095508516362
 31
0.0
  0
LINE
  5
129
330
70
100
AcDbEntity
  8
Ringo-Row-keyboard v13 v8_Ringo-Row-keyboard v13_Sketch4
100
AcDbLine
 10
115.363338779427
 20
-55.40515508516363
 30
0.0
 11
115.363338779427
 21
-56.71940771648144
 31
0.0
  0
LINE
  5
12A
330
70
100
AcDbEntity
  8
Ringo-Row-keyboard v13 v8_Ringo-Row-keyboard v13_Sketch4
100
AcDbLine
 10
111.519138779427
 20
-55.40515508516363
 30
0.0
 11
111.519138779427
 21
-56.71940771648144
 31
0.0
  0
LINE
  5
12B
330
70
100
AcDbEntity
  8
Ringo-Row-keyboard v13 v8_Ringo-Row-keyboard v13_Sketch4
100
AcDbLine
 10
107.02052775342
 20
-54.79480771648145
 30
0.0
 11
107.02052775342
 21
-53.48055508516363
 31
0.0
  0
LINE
  5
12C
330
70
100
AcDbEntity
  8
Ringo-Row-keyboard v13 v8_Ringo-Row-keyboard v13_Sketch4
100
AcDbLine
 10
123.058138779427
 20
-56.71940771648144
 30
0.0
 11
121.4426277534199
 21
-56.71940771648144
 31
0.0
  0
LINE
  5
12D
330
70
100
AcDbEntity
  8
Ringo-Row-keyboard v13 v8_Ringo-Row-keyboard v13_Sketch4
100
AcDbLine
 10
130.5999396574544
 20
-50.90785596319111
 30
0.0
 11
130.5999396574544
 21
-52.52336698919814
 31
0.0
  0
LINE
  5
12E
330
70
100
AcDbEntity
  8
Ringo-Row-keyboard v13 v8_Ringo-Row-keyboard v13_Sketch4
100
AcDbLine
 10
132.5363095820824
 20
-50.92222588781905
 30
0.0
 11
132.5363095820824
 21
-52.53773691382605
 31
0.0
  0
LINE
  5
12F
330
70
100
AcDbEntity
  8
Ringo-Row-keyboard v13 v8_Ringo-Row-keyboard v13_Sketch4
100
AcDbLine
 10
122.3872277534199
 20
-53.48055508516363
 30
0.0
 11
124.002738779427
 21
-53.48055508516363
 31
0.0
  0
LINE
  5
130
330
70
100
AcDbEntity
  8
Ringo-Row-keyboard v13 v8_Ringo-Row-keyboard v13_Sketch4
100
AcDbLine
 10
110.86472775342
 20
-53.48055508516363
 30
0.0
 11
112.480238779427
 21
-53.48055508516363
 31
0.0
  0
LINE
  5
131
330
70
100
AcDbEntity
  8
Ringo-Row-keyboard v13 v8_Ringo-Row-keyboard v13_Sketch4
100
AcDbLine
 10
112.78392775342
 20
-54.79480771648145
 30
0.0
 11
112.78392775342
 21
-53.48055508516363
 31
0.0
  0
LINE
  5
132
330
70
100
AcDbEntity
  8
Ringo-Row-keyboard v13 v8_Ringo-Row-keyboard v13_Sketch4
100
AcDbLine
 10
116.63452775342
 20
-53.48055508516363
 30
0.0
 11
118.250038779427
 21
-53.48055508516363
 31
0.0
  0
LINE
  5
133
330
70
100
AcDbEntity
  8
Ringo-Row-keyboard v13 v8_Ringo-Row-keyboard v13_Sketch4
100
AcDbLine
 10
124.002738779427
 20
-53.48055508516363
 30
0.0
 11
124.002738779427
 21
-54.79480771648145
 31
0.0
  0
LINE
  5
134
330
70
100
AcDbEntity
  8
Ringo-Row-keyboard v13 v8_Ringo-Row-keyboard v13_Sketch4
100
AcDbLine
 10
127.3780569507646
 20
-50.92222588781902
 30
0.0
 11
128.6923095820823
 21
-50.92222588781902
 31
0.0
  0
LINE
  5
135
330
70
100
AcDbEntity
  8
Ringo-Row-keyboard v13 v8_Ringo-Row-keyboard v13_Sketch4
100
AcDbLine
 10
116.330838779427
 20
-53.48055508516363
 30
0.0
 11
116.330838779427
 21
-54.79480771648145
 31
0.0
  0
LINE
  5
136
330
70
100
AcDbEntity
  8
Ringo-Row-keyboard v13 v8_Ringo-Row-keyboard v13_Sketch4
100
AcDbLine
 10
113.74782775342
 20
-55.40515508516363
 30
0.0
 11
115.363338779427
 21
-55.40515508516363
 31
0.0
  0
LINE
  5
137
330
70
100
AcDbEntity
  8
Ringo-Row-keyboard v13 v8_Ringo-Row-keyboard v13_Sketch4
100
AcDbLine
 10
120.175038779427
 20
-53.48055508516363
 30
0.0
 11
120.175038779427
 21
-54.79480771648145
 31
0.0
  0
LINE
  5
138
330
70
100
AcDbEntity
  8
Ringo-Row-keyboard v13 v8_Ringo-Row-keyboard v13_Sketch4
100
AcDbLine
 10
113.74782775342
 20
-56.71940771648144
 30
0.0
 11
113.74782775342
 21
-55.40515508516363
 31
0.0
  0
LINE
  5
139
330
70
100
AcDbEntity
  8
Ringo-Row-keyboard v13 v8_Ringo-Row-keyboard v13_Sketch4
100
AcDbLine
 10
132.8893915870957
 20
-55.78856555665604
 30
0.0
 11
132.8893915870957
 21
-55.46184167859404
 31
0.0
  0
LINE
  5
13A
330
70
100
AcDbEntity
  8
Ringo-Row-keyboard v13 v8_Ringo-Row-keyboard v13_Sketch4
100
AcDbLine
 10
119.695138779427
 20
-58.64520771648144
 30
0.0
 11
118.07962775342
 21
-58.64520771648144
 31
0.0
  0
LINE
  5
13B
330
70
100
AcDbEntity
  8
Ringo-Row-keyboard v13 v8_Ringo-Row-keyboard v13_Sketch4
100
AcDbLine
 10
130.7364387794269
 20
-55.40515508516363
 30
0.0
 11
130.7364387794269
 21
-56.71940771648144
 31
0.0
  0
LINE
  5
13C
330
70
100
AcDbEntity
  8
Ringo-Row-keyboard v13 v8_Ringo-Row-keyboard v13_Sketch4
100
AcDbLine
 10
129.1209277534199
 20
-56.71940771648144
 30
0.0
 11
129.1209277534199
 21
-55.40515508516363
 31
0.0
  0
LINE
  5
13D
330
70
100
AcDbEntity
  8
Ringo-Row-keyboard v13 v8_Ringo-Row-keyboard v13_Sketch4
100
AcDbLine
 10
122.094238779427
 20
-53.48055508516363
 30
0.0
 11
122.094238779427
 21
-54.79480771648145
 31
0.0
  0
LINE
  5
13E
330
70
100
AcDbEntity
  8
Ringo-Row-keyboard v13 v8_Ringo-Row-keyboard v13_Sketch4
100
AcDbLine
 10
118.55952775342
 20
-53.48055508516363
 30
0.0
 11
120.175038779427
 21
-53.48055508516363
 31
0.0
  0
LINE
  5
13F
330
70
100
AcDbEntity
  8
Ringo-Row-keyboard v13 v8_Ringo-Row-keyboard v13_Sketch4
100
AcDbLine
 10
114.399438779427
 20
-53.48055508516363
 30
0.0
 11
114.399438779427
 21
-54.79480771648145
 31
0.0
  0
LINE
  5
140
330
70
100
AcDbEntity
  8
Ringo-Row-keyboard v13 v8_Ringo-Row-keyboard v13_Sketch4
100
AcDbLine
 10
120.175038779427
 20
-54.79480771648145
 30
0.0
 11
118.55952775342
 21
-54.79480771648145
 31
0.0
  0
LINE
  5
141
330
70
100
AcDbEntity
  8
Ringo-Row-keyboard v13 v8_Ringo-Row-keyboard v13_Sketch4
100
AcDbLine
 10
111.9776569507646
 20
-50.92222588781904
 30
0.0
 11
113.2919095820824
 21
-50.92222588781904
 31
0.0
  0
LINE
  5
142
330
70
100
AcDbEntity
  8
Ringo-Row-keyboard v13 v8_Ringo-Row-keyboard v13_Sketch4
100
AcDbLine
 10
110.0556569507646
 20
-50.92222588781904
 30
0.0
 11
111.3699095820824
 21
-50.92222588781904
 31
0.0
  0
LINE
  5
143
330
70
100
AcDbEntity
  8
Ringo-Row-keyboard v13 v8_Ringo-Row-keyboard v13_Sketch4
100
AcDbLine
 10
113.8996569507646
 20
-50.92222588781905
 30
0.0
 11
115.2139095820824
 21
-50.92222588781905
 31
0.0
  0
LINE
  5
144
330
70
100
AcDbEntity
  8
Ringo-Row-keyboard v13 v8_Ringo-Row-keyboard v13_Sketch4
100
AcDbLine
 10
121.4426277534199
 20
-55.40515508516363
 30
0.0
 11
123.058138779427
 21
-55.40515508516363
 31
0.0
  0
LINE
  5
145
330
70
100
AcDbEntity
  8
Ringo-Row-keyboard v13 v8_Ringo-Row-keyboard v13_Sketch4
100
AcDbLine
 10
132.6614387794269
 20
-56.71940771648144
 30
0.0
 11
131.0459277534199
 21
-56.71940771648144
 31
0.0
  0
LINE
  5
146
330
70
100
AcDbEntity
  8
Ringo-Row-keyboard v13 v8_Ringo-Row-keyboard v13_Sketch4
100
AcDbLine
 10
123.539338779427
 20
-57.33095508516362
 30
0.0
 11
123.539338779427
 21
-58.64520771648144
 31
0.0
  0
LINE
  5
147
330
70
100
AcDbEntity
  8
Ringo-Row-keyboard v13 v8_Ringo-Row-keyboard v13_Sketch4
100
AcDbLine
 10
119.9988277534199
 20
-57.33095508516362
 30
0.0
 11
121.614338779427
 21
-57.33095508516362
 31
0.0
  0
LINE
  5
148
330
70
100
AcDbEntity
  8
Ringo-Row-keyboard v13 v8_Ringo-Row-keyboard v13_Sketch4
100
AcDbLine
 10
125.2703277534199
 20
-55.40515508516363
 30
0.0
 11
126.885838779427
 21
-55.40515508516363
 31
0.0
  0
LINE
  5
149
330
70
100
AcDbEntity
  8
Ringo-Row-keyboard v13 v8_Ringo-Row-keyboard v13_Sketch4
100
AcDbLine
 10
127.367038779427
 20
-58.64520771648144
 30
0.0
 11
125.7515277534199
 21
-58.64520771648144
 31
0.0
  0
LINE
  5
14A
330
70
100
AcDbEntity
  8
Ringo-Row-keyboard v13 v8_Ringo-Row-keyboard v13_Sketch4
100
AcDbLine
 10
124.3186277534199
 20
-53.48055508516363
 30
0.0
 11
125.934138779427
 21
-53.48055508516363
 31
0.0
  0
LINE
  5
14B
330
70
100
AcDbEntity
  8
Ringo-Row-keyboard v13 v8_Ringo-Row-keyboard v13_Sketch4
100
AcDbLine
 10
123.3618277534199
 20
-55.40515508516363
 30
0.0
 11
124.977338779427
 21
-55.40515508516363
 31
0.0
  0
LINE
  5
14C
330
70
100
AcDbEntity
  8
Ringo-Row-keyboard v13 v8_Ringo-Row-keyboard v13_Sketch4
100
AcDbLine
 10
125.458538779427
 20
-58.64520771648144
 30
0.0
 11
123.8430277534199
 21
-58.64520771648144
 31
0.0
  0
LINE
  5
14D
330
70
100
AcDbEntity
  8
Ringo-Row-keyboard v13 v8_Ringo-Row-keyboard v13_Sketch4
100
AcDbLine
 10
125.7515277534199
 20
-57.33095508516362
 30
0.0
 11
127.367038779427
 21
-57.33095508516362
 31
0.0
  0
LINE
  5
14E
330
70
100
AcDbEntity
  8
Ringo-Row-keyboard v13 v8_Ringo-Row-keyboard v13_Sketch4
100
AcDbLine
 10
115.66702775342
 20
-55.40515508516363
 30
0.0
 11
117.282538779427
 21
-55.40515508516363
 31
0.0
  0
LINE
  5
14F
330
70
100
AcDbEntity
  8
Ringo-Row-keyboard v13 v8_Ringo-Row-keyboard v13_Sketch4
100
AcDbLine
 10
121.4426277534199
 20
-56.71940771648144
 30
0.0
 11
121.4426277534199
 21
-55.40515508516363
 31
0.0
  0
LINE
  5
150
330
70
100
AcDbEntity
  8
Ringo-Row-keyboard v13 v8_Ringo-Row-keyboard v13_Sketch4
100
AcDbLine
 10
117.5984277534199
 20
-55.40515508516363
 30
0.0
 11
119.213938779427
 21
-55.40515508516363
 31
0.0
  0
LINE
  5
151
330
70
100
AcDbEntity
  8
Ringo-Row-keyboard v13 v8_Ringo-Row-keyboard v13_Sketch4
100
AcDbLine
 10
112.30402775342
 20
-57.33095508516362
 30
0.0
 11
113.919538779427
 21
-57.33095508516362
 31
0.0
  0
LINE
  5
152
330
70
100
AcDbEntity
  8
Ringo-Row-keyboard v13 v8_Ringo-Row-keyboard v13_Sketch4
100
AcDbLine
 10
133.0840401168572
 20
-57.85774282585196
 30
0.0
 11
133.0840401168572
 21
-56.24223179984494
 31
0.0
  0
LINE
  5
153
330
70
100
AcDbEntity
  8
Ringo-Row-keyboard v13 v8_Ringo-Row-keyboard v13_Sketch4
100
AcDbLine
 10
126.885838779427
 20
-55.40515508516363
 30
0.0
 11
126.885838779427
 21
-56.71940771648144
 31
0.0
  0
LINE
  5
154
330
70
100
AcDbEntity
  8
Ringo-Row-keyboard v13 v8_Ringo-Row-keyboard v13_Sketch4
100
AcDbLine
 10
134.398292748175
 20
-57.85774282585196
 30
0.0
 11
133.0840401168572
 21
-57.85774282585196
 31
0.0
  0
LINE
  5
155
330
70
100
AcDbEntity
  8
Ringo-Row-keyboard v13 v8_Ringo-Row-keyboard v13_Sketch4
100
AcDbLine
 10
114.22902775342
 20
-57.33095508516362
 30
0.0
 11
115.844538779427
 21
-57.33095508516362
 31
0.0
  0
LINE
  5
156
330
70
100
AcDbEntity
  8
Ringo-Row-keyboard v13 v8_Ringo-Row-keyboard v13_Sketch4
100
AcDbLine
 10
111.519138779427
 20
-56.71940771648144
 30
0.0
 11
109.90362775342
 21
-56.71940771648144
 31
0.0
  0
LINE
  5
157
330
70
100
AcDbEntity
  8
Ringo-Row-keyboard v13 v8_Ringo-Row-keyboard v13_Sketch4
100
AcDbLine
 10
130.7364387794269
 20
-56.71940771648144
 30
0.0
 11
129.1209277534199
 21
-56.71940771648144
 31
0.0
  0
LINE
  5
158
330
70
100
AcDbEntity
  8
Ringo-Row-keyboard v13 v8_Ringo-Row-keyboard v13_Sketch4
100
AcDbLine
 10
111.82282775342
 20
-56.71940771648144
 30
0.0
 11
111.82282775342
 21
-55.40515508516363
 31
0.0
  0
LINE
  5
159
330
70
100
AcDbEntity
  8
Ringo-Row-keyboard v13 v8_Ringo-Row-keyboard v13_Sketch4
100
AcDbLine
 10
134.1349387794269
 20
-54.79480771648145
 30
0.0
 11
132.5194277534199
 21
-54.79480771648145
 31
0.0
  0
LINE
  5
15A
330
70
100
AcDbEntity
  8
Ringo-Row-keyboard v13 v8_Ringo-Row-keyboard v13_Sketch4
100
AcDbLine
 10
131.0459277534199
 20
-55.40515508516363
 30
0.0
 11
132.6614387794269
 21
-55.40515508516363
 31
0.0
  0
LINE
  5
15B
330
70
100
AcDbEntity
  8
Ringo-Row-keyboard v13 v8_Ringo-Row-keyboard v13_Sketch4
100
AcDbLine
 10
124.002738779427
 20
-54.79480771648145
 30
0.0
 11
122.3872277534199
 21
-54.79480771648145
 31
0.0
  0
LINE
  5
15C
330
70
100
AcDbEntity
  8
Ringo-Row-keyboard v13 v8_Ringo-Row-keyboard v13_Sketch4
100
AcDbLine
 10
126.2378277534199
 20
-53.48055508516363
 30
0.0
 11
127.8533387794269
 21
-53.48055508516363
 31
0.0
  0
LINE
  5
15D
330
70
100
AcDbEntity
  8
Ringo-Row-keyboard v13 v8_Ringo-Row-keyboard v13_Sketch4
100
AcDbLine
 10
113.438338779427
 20
-56.71940771648144
 30
0.0
 11
111.82282775342
 21
-56.71940771648144
 31
0.0
  0
LINE
  5
15E
330
70
100
AcDbEntity
  8
Ringo-Row-keyboard v13 v8_Ringo-Row-keyboard v13_Sketch4
100
AcDbLine
 10
119.51762775342
 20
-56.71940771648144
 30
0.0
 11
119.51762775342
 21
-55.40515508516363
 31
0.0
  0
LINE
  5
15F
330
70
100
AcDbEntity
  8
Ringo-Row-keyboard v13 v8_Ringo-Row-keyboard v13_Sketch4
100
AcDbLine
 10
126.2378277534199
 20
-54.79480771648145
 30
0.0
 11
126.2378277534199
 21
-53.48055508516363
 31
0.0
  0
LINE
  5
160
330
70
100
AcDbEntity
  8
Ringo-Row-keyboard v13 v8_Ringo-Row-keyboard v13_Sketch4
100
AcDbLine
 10
131.6975387794269
 20
-54.79480771648145
 30
0.0
 11
130.0820277534199
 21
-54.79480771648145
 31
0.0
  0
LINE
  5
161
330
70
100
AcDbEntity
  8
Ringo-Row-keyboard v13 v8_Ringo-Row-keyboard v13_Sketch4
100
AcDbLine
 10
126.885838779427
 20
-56.71940771648144
 30
0.0
 11
125.2703277534199
 21
-56.71940771648144
 31
0.0
  0
LINE
  5
162
330
70
100
AcDbEntity
  8
Ringo-Row-keyboard v13 v8_Ringo-Row-keyboard v13_Sketch4
100
AcDbLine
 10
131.0459277534199
 20
-56.71940771648144
 30
0.0
 11
131.0459277534199
 21
-55.40515508516363
 31
0.0
  0
LINE
  5
163
330
70
100
AcDbEntity
  8
Ringo-Row-keyboard v13 v8_Ringo-Row-keyboard v13_Sketch4
100
AcDbLine
 10
124.3186277534199
 20
-54.79480771648145
 30
0.0
 11
124.3186277534199
 21
-53.48055508516363
 31
0.0
  0
LINE
  5
164
330
70
100
AcDbEntity
  8
Ringo-Row-keyboard v13 v8_Ringo-Row-keyboard v13_Sketch4
100
AcDbLine
 10
109.90362775342
 20
-55.40515508516363
 30
0.0
 11
111.519138779427
 21
-55.40515508516363
 31
0.0
  0
LINE
  5
165
330
70
100
AcDbEntity
  8
Ringo-Row-keyboard v13 v8_Ringo-Row-keyboard v13_Sketch4
100
AcDbLine
 10
123.3618277534199
 20
-56.71940771648144
 30
0.0
 11
123.3618277534199
 21
-55.40515508516363
 31
0.0
  0
LINE
  5
166
330
70
100
AcDbEntity
  8
Ringo-Row-keyboard v13 v8_Ringo-Row-keyboard v13_Sketch4
100
AcDbLine
 10
127.2017277534199
 20
-56.71940771648144
 30
0.0
 11
127.2017277534199
 21
-55.40515508516363
 31
0.0
  0
LINE
  5
167
330
70
100
AcDbEntity
  8
Ringo-Row-keyboard v13 v8_Ringo-Row-keyboard v13_Sketch4
100
AcDbLine
 10
116.14822775342
 20
-58.64520771648144
 30
0.0
 11
116.14822775342
 21
-57.33095508516362
 31
0.0
  0
LINE
  5
168
330
70
100
AcDbEntity
  8
Ringo-Row-keyboard v13 v8_Ringo-Row-keyboard v13_Sketch4
100
AcDbLine
 10
117.5984277534199
 20
-56.71940771648144
 30
0.0
 11
117.5984277534199
 21
-55.40515508516363
 31
0.0
  0
LINE
  5
169
330
70
100
AcDbEntity
  8
Ringo-Row-keyboard v13 v8_Ringo-Row-keyboard v13_Sketch4
100
AcDbLine
 10
109.90362775342
 20
-56.71940771648144
 30
0.0
 11
109.90362775342
 21
-55.40515508516363
 31
0.0
  0
LINE
  5
16A
330
70
100
AcDbEntity
  8
Ringo-Row-keyboard v13 v8_Ringo-Row-keyboard v13_Sketch4
100
AcDbLine
 10
131.217638779427
 20
-57.33095508516362
 30
0.0
 11
131.217638779427
 21
-58.64520771648144
 31
0.0
  0
LINE
  5
16B
330
70
100
AcDbEntity
  8
Ringo-Row-keyboard v13 v8_Ringo-Row-keyboard v13_Sketch4
100
AcDbLine
 10
108.636038779427
 20
-53.48055508516363
 30
0.0
 11
108.636038779427
 21
-54.79480771648145
 31
0.0
  0
LINE
  5
16C
330
70
100
AcDbEntity
  8
Ringo-Row-keyboard v13 v8_Ringo-Row-keyboard v13_Sketch4
100
AcDbLine
 10
109.112438779427
 20
-55.40515508516363
 30
0.0
 11
109.112438779427
 21
-56.71940771648144
 31
0.0
  0
LINE
  5
16D
330
70
100
AcDbEntity
  8
Ringo-Row-keyboard v13 v8_Ringo-Row-keyboard v13_Sketch4
100
AcDbLine
 10
107.49692775342
 20
-55.40515508516363
 30
0.0
 11
109.112438779427
 21
-55.40515508516363
 31
0.0
  0
LINE
  5
16E
330
70
100
AcDbEntity
  8
Ringo-Row-keyboard v13 v8_Ringo-Row-keyboard v13_Sketch4
100
AcDbLine
 10
115.66702775342
 20
-56.71940771648144
 30
0.0
 11
115.66702775342
 21
-55.40515508516363
 31
0.0
  0
LINE
  5
16F
330
70
100
AcDbEntity
  8
Ringo-Row-keyboard v13 v8_Ringo-Row-keyboard v13_Sketch4
100
AcDbLine
 10
129.7783387794269
 20
-53.48055508516363
 30
0.0
 11
129.7783387794269
 21
-54.79480771648145
 31
0.0
  0
LINE
  5
170
330
70
100
AcDbEntity
  8
Ringo-Row-keyboard v13 v8_Ringo-Row-keyboard v13_Sketch4
100
AcDbLine
 10
130.0820277534199
 20
-53.48055508516363
 30
0.0
 11
131.6975387794269
 21
-53.48055508516363
 31
0.0
  0
LINE
  5
171
330
70
100
AcDbEntity
  8
Ringo-Row-keyboard v13 v8_Ringo-Row-keyboard v13_Sketch4
100
AcDbLine
 10
115.363338779427
 20
-56.71940771648144
 30
0.0
 11
113.74782775342
 21
-56.71940771648144
 31
0.0
  0
LINE
  5
172
330
70
100
AcDbEntity
  8
Ringo-Row-keyboard v13 v8_Ringo-Row-keyboard v13_Sketch4
100
AcDbLine
 10
127.8533387794269
 20
-54.79480771648145
 30
0.0
 11
126.2378277534199
 21
-54.79480771648145
 31
0.0
  0
LINE
  5
173
330
70
100
AcDbEntity
  8
Ringo-Row-keyboard v13 v8_Ringo-Row-keyboard v13_Sketch4
100
AcDbLine
 10
134.1349387794269
 20
-53.48055508516363
 30
0.0
 11
134.1349387794269
 21
-54.79480771648145
 31
0.0
  0
LINE
  5
174
330
70
100
AcDbEntity
  8
Ringo-Row-keyboard v13 v8_Ringo-Row-keyboard v13_Sketch4
100
AcDbLine
 10
129.1209277534199
 20
-55.40515508516363
 30
0.0
 11
130.7364387794269
 21
-55.40515508516363
 31
0.0
  0
LINE
  5
175
330
70
100
AcDbEntity
  8
Ringo-Row-keyboard v13 v8_Ringo-Row-keyboard v13_Sketch4
100
AcDbLine
 10
129.6021277534199
 20
-57.33095508516362
 30
0.0
 11
131.217638779427
 21
-57.33095508516362
 31
0.0
  0
LINE
  5
176
330
70
100
AcDbEntity
  8
Ringo-Row-keyboard v13 v8_Ringo-Row-keyboard v13_Sketch4
100
AcDbLine
 10
121.9238277534199
 20
-58.64520771648144
 30
0.0
 11
121.9238277534199
 21
-57.33095508516362
 31
0.0
  0
LINE
  5
177
330
70
100
AcDbEntity
  8
Ringo-Row-keyboard v13 v8_Ringo-Row-keyboard v13_Sketch4
100
AcDbLine
 10
128.1628277534199
 20
-53.48055508516363
 30
0.0
 11
129.7783387794269
 21
-53.48055508516363
 31
0.0
  0
LINE
  5
178
330
70
100
AcDbEntity
  8
Ringo-Row-keyboard v13 v8_Ringo-Row-keyboard v13_Sketch4
100
AcDbLine
 10
111.82282775342
 20
-55.40515508516363
 30
0.0
 11
113.438338779427
 21
-55.40515508516363
 31
0.0
  0
LINE
  5
179
330
70
100
AcDbEntity
  8
Ringo-Row-keyboard v13 v8_Ringo-Row-keyboard v13_Sketch4
100
AcDbLine
 10
117.282538779427
 20
-55.40515508516363
 30
0.0
 11
117.282538779427
 21
-56.71940771648144
 31
0.0
  0
LINE
  5
17A
330
70
100
AcDbEntity
  8
Ringo-Row-keyboard v13 v8_Ringo-Row-keyboard v13_Sketch4
100
AcDbLine
 10
132.5194277534199
 20
-54.79480771648145
 30
0.0
 11
132.5194277534199
 21
-53.48055508516363
 31
0.0
  0
LINE
  5
17B
330
70
100
AcDbEntity
  8
Ringo-Row-keyboard v13 v8_Ringo-Row-keyboard v13_Sketch4
100
AcDbLine
 10
112.30402775342
 20
-58.64520771648144
 30
0.0
 11
112.30402775342
 21
-57.33095508516362
 31
0.0
  0
LINE
  5
17C
330
70
100
AcDbEntity
  8
Ringo-Row-keyboard v13 v8_Ringo-Row-keyboard v13_Sketch4
100
AcDbLine
 10
116.14822775342
 20
-57.33095508516362
 30
0.0
 11
117.763738779427
 21
-57.33095508516362
 31
0.0
  0
LINE
  5
17D
330
70
100
AcDbEntity
  8
Ringo-Row-keyboard v13 v8_Ringo-Row-keyboard v13_Sketch4
100
AcDbLine
 10
115.844538779427
 20
-57.33095508516362
 30
0.0
 11
115.844538779427
 21
-58.64520771648144
 31
0.0
  0
LINE
  5
17E
330
70
100
AcDbEntity
  8
Ringo-Row-keyboard v13 v8_Ringo-Row-keyboard v13_Sketch4
100
AcDbLine
 10
125.2703277534199
 20
-56.71940771648144
 30
0.0
 11
125.2703277534199
 21
-55.40515508516363
 31
0.0
  0
LINE
  5
17F
330
70
100
AcDbEntity
  8
Ringo-Row-keyboard v13 v8_Ringo-Row-keyboard v13_Sketch4
100
AcDbLine
 10
112.000338779427
 20
-57.33095508516362
 30
0.0
 11
112.000338779427
 21
-58.64520771648144
 31
0.0
  0
LINE
  5
180
330
70
100
AcDbEntity
  8
Ringo-Row-keyboard v13 v8_Ringo-Row-keyboard v13_Sketch4
100
AcDbLine
 10
133.0840401168572
 20
-56.24223179984494
 30
0.0
 11
134.398292748175
 21
-56.24223179984494
 31
0.0
  0
LINE
  5
181
330
70
100
AcDbEntity
  8
Ringo-Row-keyboard v13 v8_Ringo-Row-keyboard v13_Sketch4
100
AcDbLine
 10
130.0820277534199
 20
-54.79480771648145
 30
0.0
 11
130.0820277534199
 21
-53.48055508516363
 31
0.0
  0
LINE
  5
182
330
70
100
AcDbEntity
  8
Ringo-Row-keyboard v13 v8_Ringo-Row-keyboard v13_Sketch4
100
AcDbLine
 10
119.213938779427
 20
-56.71940771648144
 30
0.0
 11
117.5984277534199
 21
-56.71940771648144
 31
0.0
  0
LINE
  5
183
330
70
100
AcDbEntity
  8
Ringo-Row-keyboard v13 v8_Ringo-Row-keyboard v13_Sketch4
100
AcDbLine
 10
121.133138779427
 20
-56.71940771648144
 30
0.0
 11
119.51762775342
 21
-56.71940771648144
 31
0.0
  0
LINE
  5
184
330
70
100
AcDbEntity
  8
Ringo-Row-keyboard v13 v8_Ringo-Row-keyboard v13_Sketch4
100
AcDbLine
 10
112.000338779427
 20
-58.64520771648144
 30
0.0
 11
110.38482775342
 21
-58.64520771648144
 31
0.0
  0
LINE
  5
185
330
70
100
AcDbEntity
  8
Ringo-Row-keyboard v13 v8_Ringo-Row-keyboard v13_Sketch4
100
AcDbLine
 10
110.38482775342
 20
-57.33095508516362
 30
0.0
 11
112.000338779427
 21
-57.33095508516362
 31
0.0
  0
LINE
  5
186
330
70
100
AcDbEntity
  8
Ringo-Row-keyboard v13 v8_Ringo-Row-keyboard v13_Sketch4
100
AcDbLine
 10
126.420238779427
 20
-60.57100771648143
 30
0.0
 11
124.8047277534199
 21
-60.57100771648143
 31
0.0
  0
LINE
  5
187
330
70
100
AcDbEntity
  8
Ringo-Row-keyboard v13 v8_Ringo-Row-keyboard v13_Sketch4
100
AcDbLine
 10
111.34652775342
 20
-59.25675508516362
 30
0.0
 11
112.962038779427
 21
-59.25675508516362
 31
0.0
  0
LINE
  5
188
330
70
100
AcDbEntity
  8
Ringo-Row-keyboard v13 v8_Ringo-Row-keyboard v13_Sketch4
100
AcDbLine
 10
119.04132775342
 20
-59.25675508516362
 30
0.0
 11
120.656838779427
 21
-59.25675508516362
 31
0.0
  0
LINE
  5
189
330
70
100
AcDbEntity
  8
Ringo-Row-keyboard v13 v8_Ringo-Row-keyboard v13_Sketch4
100
AcDbLine
 10
126.420238779427
 20
-59.25675508516362
 30
0.0
 11
126.420238779427
 21
-60.57100771648143
 31
0.0
  0
LINE
  5
18A
330
70
100
AcDbEntity
  8
Ringo-Row-keyboard v13 v8_Ringo-Row-keyboard v13_Sketch4
100
AcDbLine
 10
114.881238779427
 20
-59.25675508516362
 30
0.0
 11
114.881238779427
 21
-60.57100771648143
 31
0.0
  0
LINE
  5
18B
330
70
100
AcDbEntity
  8
Ringo-Row-keyboard v13 v8_Ringo-Row-keyboard v13_Sketch4
100
AcDbLine
 10
109.349338779427
 20
-58.64520771648144
 30
0.0
 11
107.73382775342
 21
-58.64520771648144
 31
0.0
  0
LINE
  5
18C
330
70
100
AcDbEntity
  8
Ringo-Row-keyboard v13 v8_Ringo-Row-keyboard v13_Sketch4
100
AcDbLine
 10
113.26572775342
 20
-60.57100771648143
 30
0.0
 11
113.26572775342
 21
-59.25675508516362
 31
0.0
  0
LINE
  5
18D
330
70
100
AcDbEntity
  8
Ringo-Row-keyboard v13 v8_Ringo-Row-keyboard v13_Sketch4
100
AcDbLine
 10
119.695138779427
 20
-57.33095508516362
 30
0.0
 11
119.695138779427
 21
-58.64520771648144
 31
0.0
  0
LINE
  5
18E
330
70
100
AcDbEntity
  8
Ringo-Row-keyboard v13 v8_Ringo-Row-keyboard v13_Sketch4
100
AcDbLine
 10
107.49692775342
 20
-56.71940771648144
 30
0.0
 11
107.49692775342
 21
-55.40515508516363
 31
0.0
  0
LINE
  5
18F
330
70
100
AcDbEntity
  8
Ringo-Row-keyboard v13 v8_Ringo-Row-keyboard v13_Sketch4
100
AcDbLine
 10
129.298438779427
 20
-58.64520771648144
 30
0.0
 11
127.6829277534199
 21
-58.64520771648144
 31
0.0
  0
LINE
  5
190
330
70
100
AcDbEntity
  8
Ringo-Row-keyboard v13 v8_Ringo-Row-keyboard v13_Sketch4
100
AcDbLine
 10
123.8430277534199
 20
-58.64520771648144
 30
0.0
 11
123.8430277534199
 21
-57.33095508516362
 31
0.0
  0
LINE
  5
191
330
70
100
AcDbEntity
  8
Ringo-Row-keyboard v13 v8_Ringo-Row-keyboard v13_Sketch4
100
AcDbLine
 10
113.919538779427
 20
-58.64520771648144
 30
0.0
 11
112.30402775342
 21
-58.64520771648144
 31
0.0
  0
LINE
  5
192
330
70
100
AcDbEntity
  8
Ringo-Row-keyboard v13 v8_Ringo-Row-keyboard v13_Sketch4
100
AcDbLine
 10
121.614338779427
 20
-58.64520771648144
 30
0.0
 11
119.9988277534199
 21
-58.64520771648144
 31
0.0
  0
LINE
  5
193
330
70
100
AcDbEntity
  8
Ringo-Row-keyboard v13 v8_Ringo-Row-keyboard v13_Sketch4
100
AcDbLine
 10
133.4155150256933
 20
-55.46184167859404
 30
0.0
 11
133.4155150256933
 21
-55.78856555665604
 31
0.0
  0
LINE
  5
194
330
70
100
AcDbEntity
  8
Ringo-Row-keyboard v13 v8_Ringo-Row-keyboard v13_Sketch4
100
AcDbLine
 10
109.349338779427
 20
-57.33095508516362
 30
0.0
 11
109.349338779427
 21
-58.64520771648144
 31
0.0
  0
LINE
  5
195
330
70
100
AcDbEntity
  8
Ringo-Row-keyboard v13 v8_Ringo-Row-keyboard v13_Sketch4
100
AcDbLine
 10
107.73382775342
 20
-57.33095508516362
 30
0.0
 11
109.349338779427
 21
-57.33095508516362
 31
0.0
  0
LINE
  5
196
330
70
100
AcDbEntity
  8
Ringo-Row-keyboard v13 v8_Ringo-Row-keyboard v13_Sketch4
100
AcDbLine
 10
131.217638779427
 20
-58.64520771648144
 30
0.0
 11
129.6021277534199
 21
-58.64520771648144
 31
0.0
  0
LINE
  5
197
330
70
100
AcDbEntity
  8
Ringo-Row-keyboard v13 v8_Ringo-Row-keyboard v13_Sketch4
100
AcDbLine
 10
125.7515277534199
 20
-58.64520771648144
 30
0.0
 11
125.7515277534199
 21
-57.33095508516362
 31
0.0
  0
LINE
  5
198
330
70
100
AcDbEntity
  8
Ringo-Row-keyboard v13 v8_Ringo-Row-keyboard v13_Sketch4
100
AcDbLine
 10
123.539338779427
 20
-58.64520771648144
 30
0.0
 11
121.9238277534199
 21
-58.64520771648144
 31
0.0
  0
LINE
  5
199
330
70
100
AcDbEntity
  8
Ringo-Row-keyboard v13 v8_Ringo-Row-keyboard v13_Sketch4
100
AcDbLine
 10
134.398292748175
 20
-56.24223179984494
 30
0.0
 11
134.398292748175
 21
-57.85774282585196
 31
0.0
  0
LINE
  5
19A
330
70
100
AcDbEntity
  8
Ringo-Row-keyboard v13 v8_Ringo-Row-keyboard v13_Sketch4
100
AcDbLine
 10
109.814338779427
 20
-59.25675508516362
 30
0.0
 11
109.814338779427
 21
-60.57100771648143
 31
0.0
  0
LINE
  5
19B
330
70
100
AcDbEntity
  8
Ringo-Row-keyboard v13 v8_Ringo-Row-keyboard v13_Sketch4
100
AcDbLine
 10
110.38482775342
 20
-58.64520771648144
 30
0.0
 11
110.38482775342
 21
-57.33095508516362
 31
0.0
  0
LINE
  5
19C
330
70
100
AcDbEntity
  8
Ringo-Row-keyboard v13 v8_Ringo-Row-keyboard v13_Sketch4
100
AcDbLine
 10
127.6829277534199
 20
-57.33095508516362
 30
0.0
 11
129.298438779427
 21
-57.33095508516362
 31
0.0
  0
LINE
  5
19D
330
70
100
AcDbEntity
  8
Ringo-Row-keyboard v13 v8_Ringo-Row-keyboard v13_Sketch4
100
AcDbLine
 10
122.8855277534199
 20
-60.57100771648143
 30
0.0
 11
122.8855277534199
 21
-59.25675508516362
 31
0.0
  0
LINE
  5
19E
330
70
100
AcDbEntity
  8
Ringo-Row-keyboard v13 v8_Ringo-Row-keyboard v13_Sketch4
100
AcDbLine
 10
121.9238277534199
 20
-57.33095508516362
 30
0.0
 11
123.539338779427
 21
-57.33095508516362
 31
0.0
  0
LINE
  5
19F
330
70
100
AcDbEntity
  8
Ringo-Row-keyboard v13 v8_Ringo-Row-keyboard v13_Sketch4
100
AcDbLine
 10
118.07962775342
 20
-58.64520771648144
 30
0.0
 11
118.07962775342
 21
-57.33095508516362
 31
0.0
  0
LINE
  5
1A0
330
70
100
AcDbEntity
  8
Ringo-Row-keyboard v13 v8_Ringo-Row-keyboard v13_Sketch4
100
AcDbLine
 10
132.1915387794269
 20
-60.57100771648143
 30
0.0
 11
130.5760277534199
 21
-60.57100771648143
 31
0.0
  0
LINE
  5
1A1
330
70
100
AcDbEntity
  8
Ringo-Row-keyboard v13 v8_Ringo-Row-keyboard v13_Sketch4
100
AcDbLine
 10
115.844538779427
 20
-58.64520771648144
 30
0.0
 11
114.22902775342
 21
-58.64520771648144
 31
0.0
  0
LINE
  5
1A2
330
70
100
AcDbEntity
  8
Ringo-Row-keyboard v13 v8_Ringo-Row-keyboard v13_Sketch4
100
AcDbLine
 10
114.22902775342
 20
-58.64520771648144
 30
0.0
 11
114.22902775342
 21
-57.33095508516362
 31
0.0
  0
LINE
  5
1A3
330
70
100
AcDbEntity
  8
Ringo-Row-keyboard v13 v8_Ringo-Row-keyboard v13_Sketch4
100
AcDbLine
 10
121.614338779427
 20
-57.33095508516362
 30
0.0
 11
121.614338779427
 21
-58.64520771648144
 31
0.0
  0
LINE
  5
1A4
330
70
100
AcDbEntity
  8
Ringo-Row-keyboard v13 v8_Ringo-Row-keyboard v13_Sketch4
100
AcDbLine
 10
127.6829277534199
 20
-58.64520771648144
 30
0.0
 11
127.6829277534199
 21
-57.33095508516362
 31
0.0
  0
LINE
  5
1A5
330
70
100
AcDbEntity
  8
Ringo-Row-keyboard v13 v8_Ringo-Row-keyboard v13_Sketch4
100
AcDbLine
 10
122.5760387794269
 20
-60.57100771648143
 30
0.0
 11
120.9605277534199
 21
-60.57100771648143
 31
0.0
  0
LINE
  5
1A6
330
70
100
AcDbEntity
  8
Ringo-Row-keyboard v13 v8_Ringo-Row-keyboard v13_Sketch4
100
AcDbLine
 10
109.112438779427
 20
-56.71940771648144
 30
0.0
 11
107.49692775342
 21
-56.71940771648144
 31
0.0
  0
LINE
  5
1A7
330
70
100
AcDbEntity
  8
Ringo-Row-keyboard v13 v8_Ringo-Row-keyboard v13_Sketch4
100
AcDbLine
 10
122.5760387794269
 20
-59.25675508516362
 30
0.0
 11
122.5760387794269
 21
-60.57100771648143
 31
0.0
  0
LINE
  5
1A8
330
70
100
AcDbEntity
  8
Ringo-Row-keyboard v13 v8_Ringo-Row-keyboard v13_Sketch4
100
AcDbLine
 10
112.962038779427
 20
-59.25675508516362
 30
0.0
 11
112.962038779427
 21
-60.57100771648143
 31
0.0
  0
LINE
  5
1A9
330
70
100
AcDbEntity
  8
Ringo-Row-keyboard v13 v8_Ringo-Row-keyboard v13_Sketch4
100
AcDbLine
 10
113.919538779427
 20
-57.33095508516362
 30
0.0
 11
113.919538779427
 21
-58.64520771648144
 31
0.0
  0
LINE
  5
1AA
330
70
100
AcDbEntity
  8
Ringo-Row-keyboard v13 v8_Ringo-Row-keyboard v13_Sketch4
100
AcDbLine
 10
129.298438779427
 20
-57.33095508516362
 30
0.0
 11
129.298438779427
 21
-58.64520771648144
 31
0.0
  0
LINE
  5
1AB
330
70
100
AcDbEntity
  8
Ringo-Row-keyboard v13 v8_Ringo-Row-keyboard v13_Sketch4
100
AcDbLine
 10
119.04132775342
 20
-60.57100771648143
 30
0.0
 11
119.04132775342
 21
-59.25675508516362
 31
0.0
  0
LINE
  5
1AC
330
70
100
AcDbEntity
  8
Ringo-Row-keyboard v13 v8_Ringo-Row-keyboard v13_Sketch4
100
AcDbLine
 10
133.4155150256933
 20
-55.78856555665604
 30
0.0
 11
132.8893915870957
 21
-55.78856555665604
 31
0.0
  0
LINE
  5
1AD
330
70
100
AcDbEntity
  8
Ringo-Row-keyboard v13 v8_Ringo-Row-keyboard v13_Sketch4
100
AcDbLine
 10
107.02052775342
 20
-53.48055508516363
 30
0.0
 11
108.636038779427
 21
-53.48055508516363
 31
0.0
  0
LINE
  5
1AE
330
70
100
AcDbEntity
  8
Ringo-Row-keyboard v13 v8_Ringo-Row-keyboard v13_Sketch4
100
AcDbLine
 10
134.3762387794269
 20
-60.57100771648143
 30
0.0
 11
132.7607277534199
 21
-60.57100771648143
 31
0.0
  0
LINE
  5
1AF
330
70
100
AcDbEntity
  8
Ringo-Row-keyboard v13 v8_Ringo-Row-keyboard v13_Sketch4
100
AcDbLine
 10
113.26572775342
 20
-59.25675508516362
 30
0.0
 11
114.881238779427
 21
-59.25675508516362
 31
0.0
  0
LINE
  5
1B0
330
70
100
AcDbEntity
  8
Ringo-Row-keyboard v13 v8_Ringo-Row-keyboard v13_Sketch4
100
AcDbLine
 10
128.817238779427
 20
-56.71940771648144
 30
0.0
 11
127.2017277534199
 21
-56.71940771648144
 31
0.0
  0
LINE
  5
1B1
330
70
100
AcDbEntity
  8
Ringo-Row-keyboard v13 v8_Ringo-Row-keyboard v13_Sketch4
100
AcDbLine
 10
130.5760277534199
 20
-60.57100771648143
 30
0.0
 11
130.5760277534199
 21
-59.25675508516362
 31
0.0
  0
LINE
  5
1B2
330
70
100
AcDbEntity
  8
Ringo-Row-keyboard v13 v8_Ringo-Row-keyboard v13_Sketch4
100
AcDbLine
 10
117.1099277534199
 20
-59.25675508516362
 30
0.0
 11
118.725438779427
 21
-59.25675508516362
 31
0.0
  0
LINE
  5
1B3
330
70
100
AcDbEntity
  8
Ringo-Row-keyboard v13 v8_Ringo-Row-keyboard v13_Sketch4
100
AcDbLine
 10
130.2601387794269
 20
-59.25675508516362
 30
0.0
 11
130.2601387794269
 21
-60.57100771648143
 31
0.0
  0
LINE
  5
1B4
330
70
100
AcDbEntity
  8
Ringo-Row-keyboard v13 v8_Ringo-Row-keyboard v13_Sketch4
100
AcDbLine
 10
119.9988277534199
 20
-58.64520771648144
 30
0.0
 11
119.9988277534199
 21
-57.33095508516362
 31
0.0
  0
LINE
  5
1B5
330
70
100
AcDbEntity
  8
Ringo-Row-keyboard v13 v8_Ringo-Row-keyboard v13_Sketch4
100
AcDbLine
 10
117.763738779427
 20
-57.33095508516362
 30
0.0
 11
117.763738779427
 21
-58.64520771648144
 31
0.0
  0
LINE
  5
1B6
330
70
100
AcDbEntity
  8
Ringo-Row-keyboard v13 v8_Ringo-Row-keyboard v13_Sketch4
100
AcDbLine
 10
112.07192775342
 20
-62.49680771648143
 30
0.0
 11
112.07192775342
 21
-61.18255508516361
 31
0.0
  0
LINE
  5
1B7
330
70
100
AcDbEntity
  8
Ringo-Row-keyboard v13 v8_Ringo-Row-keyboard v13_Sketch4
100
AcDbLine
 10
108.19882775342
 20
-59.25675508516362
 30
0.0
 11
109.814338779427
 21
-59.25675508516362
 31
0.0
  0
LINE
  5
1B8
330
70
100
AcDbEntity
  8
Ringo-Row-keyboard v13 v8_Ringo-Row-keyboard v13_Sketch4
100
AcDbLine
 10
111.277238779427
 20
-61.18255508516361
 30
0.0
 11
111.277238779427
 21
-62.49680771648143
 31
0.0
  0
LINE
  5
1B9
330
70
100
AcDbEntity
  8
Ringo-Row-keyboard v13 v8_Ringo-Row-keyboard v13_Sketch4
100
AcDbLine
 10
118.07962775342
 20
-57.33095508516362
 30
0.0
 11
119.695138779427
 21
-57.33095508516362
 31
0.0
  0
LINE
  5
1BA
330
70
100
AcDbEntity
  8
Ringo-Row-keyboard v13 v8_Ringo-Row-keyboard v13_Sketch4
100
AcDbLine
 10
109.112438779427
 20
-56.71940771648144
 30
0.0
 11
107.49692775342
 21
-56.71940771648144
 31
0.0
  0
LINE
  5
1BB
330
70
100
AcDbEntity
  8
Ringo-Row-keyboard v13 v8_Ringo-Row-keyboard v13_Sketch4
100
AcDbLine
 10
107.73382775342
 20
-58.64520771648144
 30
0.0
 11
107.73382775342
 21
-57.33095508516362
 31
0.0
  0
LINE
  5
1BC
330
70
100
AcDbEntity
  8
Ringo-Row-keyboard v13 v8_Ringo-Row-keyboard v13_Sketch4
100
AcDbLine
 10
126.7132277534199
 20
-60.57100771648143
 30
0.0
 11
126.7132277534199
 21
-59.25675508516362
 31
0.0
  0
LINE
  5
1BD
330
70
100
AcDbEntity
  8
Ringo-Row-keyboard v13 v8_Ringo-Row-keyboard v13_Sketch4
100
AcDbLine
 10
128.3287387794269
 20
-60.57100771648143
 30
0.0
 11
126.7132277534199
 21
-60.57100771648143
 31
0.0
  0
LINE
  5
1BE
330
70
100
AcDbEntity
  8
Ringo-Row-keyboard v13 v8_Ringo-Row-keyboard v13_Sketch4
100
AcDbLine
 10
127.367038779427
 20
-57.33095508516362
 30
0.0
 11
127.367038779427
 21
-58.64520771648144
 31
0.0
  0
LINE
  5
1BF
330
70
100
AcDbEntity
  8
Ringo-Row-keyboard v13 v8_Ringo-Row-keyboard v13_Sketch4
100
AcDbLine
 10
134.3762387794269
 20
-59.25675508516362
 30
0.0
 11
134.3762387794269
 21
-60.57100771648143
 31
0.0
  0
LINE
  5
1C0
330
70
100
AcDbEntity
  8
Ringo-Row-keyboard v13 v8_Ringo-Row-keyboard v13_Sketch4
100
AcDbLine
 10
117.763738779427
 20
-58.64520771648144
 30
0.0
 11
116.14822775342
 21
-58.64520771648144
 31
0.0
  0
LINE
  5
1C1
330
70
100
AcDbEntity
  8
Ringo-Row-keyboard v13 v8_Ringo-Row-keyboard v13_Sketch4
100
AcDbLine
 10
123.8430277534199
 20
-57.33095508516362
 30
0.0
 11
125.458538779427
 21
-57.33095508516362
 31
0.0
  0
LINE
  5
1C2
330
70
100
AcDbEntity
  8
Ringo-Row-keyboard v13 v8_Ringo-Row-keyboard v13_Sketch4
100
AcDbLine
 10
124.977338779427
 20
-55.40515508516363
 30
0.0
 11
124.977338779427
 21
-56.71940771648144
 31
0.0
  0
LINE
  5
1C3
330
70
100
AcDbEntity
  8
Ringo-Row-keyboard v13 v8_Ringo-Row-keyboard v13_Sketch4
100
AcDbLine
 10
132.8893915870957
 20
-55.46184167859404
 30
0.0
 11
133.4155150256933
 21
-55.46184167859404
 31
0.0
  0
LINE
  5
1C4
330
70
100
AcDbEntity
  8
Ringo-Row-keyboard v13 v8_Ringo-Row-keyboard v13_Sketch4
100
AcDbLine
 10
128.3287387794269
 20
-59.25675508516362
 30
0.0
 11
128.3287387794269
 21
-60.57100771648143
 31
0.0
  0
LINE
  5
1C5
330
70
100
AcDbEntity
  8
Ringo-Row-keyboard v13 v8_Ringo-Row-keyboard v13_Sketch4
100
AcDbLine
 10
121.3562277534199
 20
-61.18255508516361
 30
0.0
 11
122.971738779427
 21
-61.18255508516361
 31
0.0
  0
LINE
  5
1C6
330
70
100
AcDbEntity
  8
Ringo-Row-keyboard v13 v8_Ringo-Row-keyboard v13_Sketch4
100
AcDbLine
 10
124.501038779427
 20
-59.25675508516362
 30
0.0
 11
124.501038779427
 21
-60.57100771648143
 31
0.0
  0
LINE
  5
1C7
330
70
100
AcDbEntity
  8
Ringo-Row-keyboard v13 v8_Ringo-Row-keyboard v13_Sketch4
100
AcDbLine
 10
124.8047277534199
 20
-60.57100771648143
 30
0.0
 11
124.8047277534199
 21
-59.25675508516362
 31
0.0
  0
LINE
  5
1C8
330
70
100
AcDbEntity
  8
Ringo-Row-keyboard v13 v8_Ringo-Row-keyboard v13_Sketch4
100
AcDbLine
 10
115.19072775342
 20
-59.25675508516362
 30
0.0
 11
116.806238779427
 21
-59.25675508516362
 31
0.0
  0
LINE
  5
1C9
330
70
100
AcDbEntity
  8
Ringo-Row-keyboard v13 v8_Ringo-Row-keyboard v13_Sketch4
100
AcDbLine
 10
116.806238779427
 20
-60.57100771648143
 30
0.0
 11
115.19072775342
 21
-60.57100771648143
 31
0.0
  0
LINE
  5
1CA
330
70
100
AcDbEntity
  8
Ringo-Row-keyboard v13 v8_Ringo-Row-keyboard v13_Sketch4
100
AcDbLine
 10
125.2574693205422
 20
-61.4743932721285
 30
0.0
 11
125.0047461004255
 21
-61.4743932721285
 31
0.0
  0
LINE
  5
1CB
330
70
100
AcDbEntity
  8
Ringo-Row-keyboard v13 v8_Ringo-Row-keyboard v13_Sketch4
100
AcDbLine
 10
132.1915387794269
 20
-59.25675508516362
 30
0.0
 11
132.1915387794269
 21
-60.57100771648143
 31
0.0
  0
LINE
  5
1CC
330
70
100
AcDbEntity
  8
Ringo-Row-keyboard v13 v8_Ringo-Row-keyboard v13_Sketch4
100
AcDbLine
 10
116.806238779427
 20
-59.25675508516362
 30
0.0
 11
116.806238779427
 21
-60.57100771648143
 31
0.0
  0
LINE
  5
1CD
330
70
100
AcDbEntity
  8
Ringo-Row-keyboard v13 v8_Ringo-Row-keyboard v13_Sketch4
100
AcDbLine
 10
123.6624197191205
 20
-61.47555326449339
 30
0.0
 11
123.4096964990038
 21
-61.47555326449339
 31
0.0
  0
LINE
  5
1CE
330
70
100
AcDbEntity
  8
Ringo-Row-keyboard v13 v8_Ringo-Row-keyboard v13_Sketch4
100
AcDbLine
 10
127.130438779427
 20
-61.18255508516361
 30
0.0
 11
127.130438779427
 21
-62.49680771648143
 31
0.0
  0
LINE
  5
1CF
330
70
100
AcDbEntity
  8
Ringo-Row-keyboard v13 v8_Ringo-Row-keyboard v13_Sketch4
100
AcDbLine
 10
132.0677387794269
 20
-62.49680771648143
 30
0.0
 11
130.4522277534199
 21
-62.49680771648143
 31
0.0
  0
LINE
  5
1D0
330
70
100
AcDbEntity
  8
Ringo-Row-keyboard v13 v8_Ringo-Row-keyboard v13_Sketch4
100
AcDbLine
 10
117.1099277534199
 20
-60.57100771648143
 30
0.0
 11
117.1099277534199
 21
-59.25675508516362
 31
0.0
  0
LINE
  5
1D1
330
70
100
AcDbEntity
  8
Ringo-Row-keyboard v13 v8_Ringo-Row-keyboard v13_Sketch4
100
AcDbLine
 10
127.9468277534199
 20
-62.49680771648143
 30
0.0
 11
127.9468277534199
 21
-61.18255508516361
 31
0.0
  0
LINE
  5
1D2
330
70
100
AcDbEntity
  8
Ringo-Row-keyboard v13 v8_Ringo-Row-keyboard v13_Sketch4
100
AcDbLine
 10
123.4096964990038
 20
-61.47555326449339
 30
0.0
 11
123.4096964990038
 21
-60.97046090480336
 31
0.0
  0
LINE
  5
1D3
330
70
100
AcDbEntity
  8
Ringo-Row-keyboard v13 v8_Ringo-Row-keyboard v13_Sketch4
100
AcDbLine
 10
127.9468277534199
 20
-61.18255508516361
 30
0.0
 11
129.5623387794269
 21
-61.18255508516361
 31
0.0
  0
LINE
  5
1D4
330
70
100
AcDbEntity
  8
Ringo-Row-keyboard v13 v8_Ringo-Row-keyboard v13_Sketch4
100
AcDbLine
 10
123.6624197191205
 20
-60.97046090480335
 30
0.0
 11
123.6624197191205
 21
-61.47555326449339
 31
0.0
  0
LINE
  5
1D5
330
70
100
AcDbEntity
  8
Ringo-Row-keyboard v13 v8_Ringo-Row-keyboard v13_Sketch4
100
AcDbLine
 10
127.130438779427
 20
-62.49680771648143
 30
0.0
 11
125.5149277534199
 21
-62.49680771648143
 31
0.0
  0
LINE
  5
1D6
330
70
100
AcDbEntity
  8
Ringo-Row-keyboard v13 v8_Ringo-Row-keyboard v13_Sketch4
100
AcDbLine
 10
111.34652775342
 20
-60.57100771648143
 30
0.0
 11
111.34652775342
 21
-59.25675508516362
 31
0.0
  0
LINE
  5
1D7
330
70
100
AcDbEntity
  8
Ringo-Row-keyboard v13 v8_Ringo-Row-keyboard v13_Sketch4
100
AcDbLine
 10
126.7132277534199
 20
-59.25675508516362
 30
0.0
 11
128.3287387794269
 21
-59.25675508516362
 31
0.0
  0
LINE
  5
1D8
330
70
100
AcDbEntity
  8
Ringo-Row-keyboard v13 v8_Ringo-Row-keyboard v13_Sketch4
100
AcDbLine
 10
132.0677387794269
 20
-61.18255508516361
 30
0.0
 11
132.0677387794269
 21
-62.49680771648143
 31
0.0
  0
LINE
  5
1D9
330
70
100
AcDbEntity
  8
Ringo-Row-keyboard v13 v8_Ringo-Row-keyboard v13_Sketch4
100
AcDbLine
 10
118.725438779427
 20
-60.57100771648143
 30
0.0
 11
117.1099277534199
 21
-60.57100771648143
 31
0.0
  0
LINE
  5
1DA
330
70
100
AcDbEntity
  8
Ringo-Row-keyboard v13 v8_Ringo-Row-keyboard v13_Sketch4
100
AcDbLine
 10
123.4096964990038
 20
-60.97046090480336
 30
0.0
 11
123.6624197191205
 21
-60.97046090480335
 31
0.0
  0
LINE
  5
1DB
330
70
100
AcDbEntity
  8
Ringo-Row-keyboard v13 v8_Ringo-Row-keyboard v13_Sketch4
100
AcDbLine
 10
121.3562277534199
 20
-62.49680771648143
 30
0.0
 11
121.3562277534199
 21
-61.18255508516361
 31
0.0
  0
LINE
  5
1DC
330
70
100
AcDbEntity
  8
Ringo-Row-keyboard v13 v8_Ringo-Row-keyboard v13_Sketch4
100
AcDbLine
 10
125.0047461004255
 20
-60.96930091243847
 30
0.0
 11
125.2574693205422
 21
-60.96930091243847
 31
0.0
  0
LINE
  5
1DD
330
70
100
AcDbEntity
  8
Ringo-Row-keyboard v13 v8_Ringo-Row-keyboard v13_Sketch4
100
AcDbLine
 10
129.5623387794269
 20
-61.18255508516361
 30
0.0
 11
129.5623387794269
 21
-62.49680771648143
 31
0.0
  0
LINE
  5
1DE
330
70
100
AcDbEntity
  8
Ringo-Row-keyboard v13 v8_Ringo-Row-keyboard v13_Sketch4
100
AcDbLine
 10
113.687438779427
 20
-62.49680771648143
 30
0.0
 11
112.07192775342
 21
-62.49680771648143
 31
0.0
  0
LINE
  5
1DF
330
70
100
AcDbEntity
  8
Ringo-Row-keyboard v13 v8_Ringo-Row-keyboard v13_Sketch4
100
AcDbLine
 10
111.277238779427
 20
-62.49680771648143
 30
0.0
 11
109.66172775342
 21
-62.49680771648143
 31
0.0
  0
LINE
  5
1E0
330
70
100
AcDbEntity
  8
Ringo-Row-keyboard v13 v8_Ringo-Row-keyboard v13_Sketch4
100
AcDbLine
 10
128.6446277534199
 20
-60.57100771648143
 30
0.0
 11
128.6446277534199
 21
-59.25675508516362
 31
0.0
  0
LINE
  5
1E1
330
70
100
AcDbEntity
  8
Ringo-Row-keyboard v13 v8_Ringo-Row-keyboard v13_Sketch4
100
AcDbLine
 10
118.725438779427
 20
-59.25675508516362
 30
0.0
 11
118.725438779427
 21
-60.57100771648143
 31
0.0
  0
LINE
  5
1E2
330
70
100
AcDbEntity
  8
Ringo-Row-keyboard v13 v8_Ringo-Row-keyboard v13_Sketch4
100
AcDbLine
 10
122.971738779427
 20
-62.49680771648143
 30
0.0
 11
121.3562277534199
 21
-62.49680771648143
 31
0.0
  0
LINE
  5
1E3
330
70
100
AcDbEntity
  8
Ringo-Row-keyboard v13 v8_Ringo-Row-keyboard v13_Sketch4
100
AcDbLine
 10
130.5760277534199
 20
-59.25675508516362
 30
0.0
 11
132.1915387794269
 21
-59.25675508516362
 31
0.0
  0
LINE
  5
1E4
330
70
100
AcDbEntity
  8
Ringo-Row-keyboard v13 v8_Ringo-Row-keyboard v13_Sketch4
100
AcDbLine
 10
124.8047277534199
 20
-59.25675508516362
 30
0.0
 11
126.420238779427
 21
-59.25675508516362
 31
0.0
  0
LINE
  5
1E5
330
70
100
AcDbEntity
  8
Ringo-Row-keyboard v13 v8_Ringo-Row-keyboard v13_Sketch4
100
AcDbLine
 10
130.4522277534199
 20
-61.18255508516361
 30
0.0
 11
132.0677387794269
 21
-61.18255508516361
 31
0.0
  0
LINE
  5
1E6
330
70
100
AcDbEntity
  8
Ringo-Row-keyboard v13 v8_Ringo-Row-keyboard v13_Sketch4
100
AcDbLine
 10
123.6624197191205
 20
-60.97046090480335
 30
0.0
 11
123.6624197191205
 21
-61.47555326449339
 31
0.0
  0
LINE
  5
1E7
330
70
100
AcDbEntity
  8
Ringo-Row-keyboard v13 v8_Ringo-Row-keyboard v13_Sketch4
100
AcDbLine
 10
122.8855277534199
 20
-59.25675508516362
 30
0.0
 11
124.501038779427
 21
-59.25675508516362
 31
0.0
  0
LINE
  5
1E8
330
70
100
AcDbEntity
  8
Ringo-Row-keyboard v13 v8_Ringo-Row-keyboard v13_Sketch4
100
AcDbLine
 10
132.7607277534199
 20
-59.25675508516362
 30
0.0
 11
134.3762387794269
 21
-59.25675508516362
 31
0.0
  0
LINE
  5
1E9
330
70
100
AcDbEntity
  8
Ringo-Row-keyboard v13 v8_Ringo-Row-keyboard v13_Sketch4
100
AcDbLine
 10
122.971738779427
 20
-61.18255508516361
 30
0.0
 11
122.971738779427
 21
-62.49680771648143
 31
0.0
  0
LINE
  5
1EA
330
70
100
AcDbEntity
  8
Ringo-Row-keyboard v13 v8_Ringo-Row-keyboard v13_Sketch4
100
AcDbLine
 10
129.5623387794269
 20
-62.49680771648143
 30
0.0
 11
127.9468277534199
 21
-62.49680771648143
 31
0.0
  0
LINE
  5
1EB
330
70
100
AcDbEntity
  8
Ringo-Row-keyboard v13 v8_Ringo-Row-keyboard v13_Sketch4
100
AcDbLine
 10
125.2574693205422
 20
-60.96930091243847
 30
0.0
 11
125.2574693205422
 21
-61.4743932721285
 31
0.0
  0
LINE
  5
1EC
330
70
100
AcDbEntity
  8
Ringo-Row-keyboard v13 v8_Ringo-Row-keyboard v13_Sketch4
100
AcDbLine
 10
112.962038779427
 20
-60.57100771648143
 30
0.0
 11
111.34652775342
 21
-60.57100771648143
 31
0.0
  0
LINE
  5
1ED
330
70
100
AcDbEntity
  8
Ringo-Row-keyboard v13 v8_Ringo-Row-keyboard v13_Sketch4
100
AcDbLine
 10
112.07192775342
 20
-61.18255508516361
 30
0.0
 11
113.687438779427
 21
-61.18255508516361
 31
0.0
  0
LINE
  5
1EE
330
70
100
AcDbEntity
  8
Ringo-Row-keyboard v13 v8_Ringo-Row-keyboard v13_Sketch4
100
AcDbLine
 10
123.6624197191205
 20
-61.47555326449339
 30
0.0
 11
123.4096964990038
 21
-61.47555326449339
 31
0.0
  0
LINE
  5
1EF
330
70
100
AcDbEntity
  8
Ringo-Row-keyboard v13 v8_Ringo-Row-keyboard v13_Sketch4
100
AcDbLine
 10
125.5149277534199
 20
-62.49680771648143
 30
0.0
 11
125.5149277534199
 21
-61.18255508516361
 31
0.0
  0
LINE
  5
1F0
330
70
100
AcDbEntity
  8
Ringo-Row-keyboard v13 v8_Ringo-Row-keyboard v13_Sketch4
100
AcDbLine
 10
124.501038779427
 20
-60.57100771648143
 30
0.0
 11
122.8855277534199
 21
-60.57100771648143
 31
0.0
  0
LINE
  5
1F1
330
70
100
AcDbEntity
  8
Ringo-Row-keyboard v13 v8_Ringo-Row-keyboard v13_Sketch4
100
AcDbLine
 10
132.7607277534199
 20
-60.57100771648143
 30
0.0
 11
132.7607277534199
 21
-59.25675508516362
 31
0.0
  0
LINE
  5
1F2
330
70
100
AcDbEntity
  8
Ringo-Row-keyboard v13 v8_Ringo-Row-keyboard v13_Sketch4
100
AcDbLine
 10
130.4522277534199
 20
-62.49680771648143
 30
0.0
 11
130.4522277534199
 21
-61.18255508516361
 31
0.0
  0
LINE
  5
1F3
330
70
100
AcDbEntity
  8
Ringo-Row-keyboard v13 v8_Ringo-Row-keyboard v13_Sketch4
100
AcDbLine
 10
123.4096964990038
 20
-61.47555326449339
 30
0.0
 11
123.4096964990038
 21
-60.97046090480336
 31
0.0
  0
LINE
  5
1F4
330
70
100
AcDbEntity
  8
Ringo-Row-keyboard v13 v8_Ringo-Row-keyboard v13_Sketch4
100
AcDbLine
 10
125.5149277534199
 20
-61.18255508516361
 30
0.0
 11
127.130438779427
 21
-61.18255508516361
 31
0.0
  0
LINE
  5
1F5
330
70
100
AcDbEntity
  8
Ringo-Row-keyboard v13 v8_Ringo-Row-keyboard v13_Sketch4
100
AcDbLine
 10
125.0047461004255
 20
-61.4743932721285
 30
0.0
 11
125.0047461004255
 21
-60.96930091243847
 31
0.0
  0
LINE
  5
1F6
330
70
100
AcDbEntity
  8
Ringo-Row-keyboard v13 v8_Ringo-Row-keyboard v13_Sketch4
100
AcDbLine
 10
120.656838779427
 20
-59.25675508516362
 30
0.0
 11
120.656838779427
 21
-60.57100771648143
 31
0.0
  0
LINE
  5
1F7
330
70
100
AcDbEntity
  8
Ringo-Row-keyboard v13 v8_Ringo-Row-keyboard v13_Sketch4
100
AcDbLine
 10
113.687438779427
 20
-61.18255508516361
 30
0.0
 11
113.687438779427
 21
-62.49680771648143
 31
0.0
  0
LINE
  5
1F8
330
70
100
AcDbEntity
  8
Ringo-Row-keyboard v13 v8_Ringo-Row-keyboard v13_Sketch4
100
AcDbLine
 10
109.66172775342
 20
-61.18255508516361
 30
0.0
 11
111.277238779427
 21
-61.18255508516361
 31
0.0
  0
LINE
  5
1F9
330
70
100
AcDbEntity
  8
Ringo-Row-keyboard v13 v8_Ringo-Row-keyboard v13_Sketch4
100
AcDbLine
 10
120.656838779427
 20
-60.57100771648143
 30
0.0
 11
119.04132775342
 21
-60.57100771648143
 31
0.0
  0
LINE
  5
1FA
330
70
100
AcDbEntity
  8
Ringo-Row-keyboard v13 v8_Ringo-Row-keyboard v13_Sketch4
100
AcDbLine
 10
128.6446277534199
 20
-59.25675508516362
 30
0.0
 11
130.2601387794269
 21
-59.25675508516362
 31
0.0
  0
LINE
  5
1FB
330
70
100
AcDbEntity
  8
Ringo-Row-keyboard v13 v8_Ringo-Row-keyboard v13_Sketch4
100
AcDbLine
 10
123.4096964990038
 20
-60.97046090480336
 30
0.0
 11
123.6624197191205
 21
-60.97046090480335
 31
0.0
  0
LINE
  5
1FC
330
70
100
AcDbEntity
  8
Ringo-Row-keyboard v13 v8_Ringo-Row-keyboard v13_Sketch4
100
AcDbLine
 10
109.66172775342
 20
-62.49680771648143
 30
0.0
 11
109.66172775342
 21
-61.18255508516361
 31
0.0
  0
LINE
  5
1FD
330
70
100
AcDbEntity
  8
Ringo-Row-keyboard v13 v8_Ringo-Row-keyboard v13_Sketch4
100
AcDbLine
 10
130.2601387794269
 20
-60.57100771648143
 30
0.0
 11
128.6446277534199
 21
-60.57100771648143
 31
0.0
  0
LINE
  5
1FE
330
70
100
AcDbEntity
  8
Ringo-Row-keyboard v13 v8_Ringo-Row-keyboard v13_Sketch4
100
AcDbLine
 10
108.19882775342
 20
-60.57100771648143
 30
0.0
 11
108.19882775342
 21
-59.25675508516362
 31
0.0
  0
LINE
  5
1FF
330
70
100
AcDbEntity
  8
Ringo-Row-keyboard v13 v8_Ringo-Row-keyboard v13_Sketch4
100
AcDbLine
 10
115.19072775342
 20
-60.57100771648143
 30
0.0
 11
115.19072775342
 21
-59.25675508516362
 31
0.0
  0
LINE
  5
200
330
70
100
AcDbEntity
  8
Ringo-Row-keyboard v13 v8_Ringo-Row-keyboard v13_Sketch4
100
AcDbLine
 10
114.881238779427
 20
-60.57100771648143
 30
0.0
 11
113.26572775342
 21
-60.57100771648143
 31
0.0
  0
LINE
  5
201
330
70
100
AcDbEntity
  8
Ringo-Row-keyboard v13 v8_Ringo-Row-keyboard v13_Sketch4
100
AcDbLine
 10
120.9605277534199
 20
-59.25675508516362
 30
0.0
 11
122.5760387794269
 21
-59.25675508516362
 31
0.0
  0
LINE
  5
202
330
70
100
AcDbEntity
  8
Ringo-Row-keyboard v13 v8_Ringo-Row-keyboard v13_Sketch4
100
AcDbLine
 10
120.9605277534199
 20
-60.57100771648143
 30
0.0
 11
120.9605277534199
 21
-59.25675508516362
 31
0.0
  0
LINE
  5
203
330
70
100
AcDbEntity
  8
Ringo-Row-keyboard v13 v8_Ringo-Row-keyboard v13_Sketch4
100
AcDbLine
 10
109.814338779427
 20
-60.57100771648143
 30
0.0
 11
108.19882775342
 21
-60.57100771648143
 31
0.0
  0
LINE
  5
204
330
70
100
AcDbEntity
  8
Ringo-Row-keyboard v13 v8_Ringo-Row-keyboard v13_Sketch4
100
AcDbLine
 10
133.4155150256933
 20
-58.63336555665603
 30
0.0
 11
132.8893915870957
 21
-58.63336555665603
 31
0.0
  0
LINE
  5
205
330
70
100
AcDbEntity
  8
Ringo-Row-keyboard v13 v8_Ringo-Row-keyboard v13_Sketch4
100
AcDbLine
 10
132.8893915870957
 20
-58.63336555665603
 30
0.0
 11
132.8893915870957
 21
-58.30664167859405
 31
0.0
  0
CIRCLE
  5
206
330
70
100
AcDbEntity
  8
Ringo-Row-keyboard v13 v8_Ringo-Row-keyboard v13_Sketch4
100
AcDbCircle
 10
-132.9970167256445
 20
-61.70989793899064
 30
0.0
 40
0.1230472160166667
210
0.0
220
0.0
230
-1.0
  0
CIRCLE
  5
207
330
70
100
AcDbEntity
  8
Ringo-Row-keyboard v13 v8_Ringo-Row-keyboard v13_Sketch4
100
AcDbCircle
 10
115.5047387239571
 20
-57.03535706113234
 30
0.0
 40
0.123047216016667
  0
LINE
  5
208
330
70
100
AcDbEntity
  8
Ringo-Row-keyboard v13 v8_Ringo-Row-keyboard v13_Sketch4
100
AcDbLine
 10
133.4155150256933
 20
-55.46184167859404
 30
0.0
 11
133.4155150256933
 21
-55.78856555665604
 31
0.0
  0
CIRCLE
  5
209
330
70
100
AcDbEntity
  8
Ringo-Row-keyboard v13 v8_Ringo-Row-keyboard v13_Sketch4
100
AcDbCircle
 10
124.3466387239571
 20
-61.84695706113234
 30
0.0
 40
0.123047216016667
  0
CIRCLE
  5
20A
330
70
100
AcDbEntity
  8
Ringo-Row-keyboard v13 v8_Ringo-Row-keyboard v13_Sketch4
100
AcDbCircle
 10
108.510118723957
 20
-61.33979706113233
 30
0.0
 40
0.123047216016667
  0
LINE
  5
20B
330
70
100
AcDbEntity
  8
Ringo-Row-keyboard v13 v8_Ringo-Row-keyboard v13_Sketch4
100
AcDbLine
 10
132.8893915870957
 20
-55.78856555665604
 30
0.0
 11
132.8893915870957
 21
-55.46184167859404
 31
0.0
  0
CIRCLE
  5
20C
330
70
100
AcDbEntity
  8
Ringo-Row-keyboard v13 v8_Ringo-Row-keyboard v13_Sketch4
100
AcDbCircle
 10
115.5047387239571
 20
-57.03535706113234
 30
0.0
 40
0.123047216016667
  0
CIRCLE
  5
20D
330
70
100
AcDbEntity
  8
Ringo-Row-keyboard v13 v8_Ringo-Row-keyboard v13_Sketch4
100
AcDbCircle
 10
107.268488723957
 20
-52.95212706113233
 30
0.0
 40
0.123047216016667
  0
LINE
  5
20E
330
70
100
AcDbEntity
  8
Ringo-Row-keyboard v13 v8_Ringo-Row-keyboard v13_Sketch4
100
AcDbLine
 10
132.6614387794269
 20
-55.40515508516363
 30
0.0
 11
132.6614387794269
 21
-56.71940771648144
 31
0.0
  0
ARC
  5
20F
330
70
100
AcDbEntity
  8
Ringo-Row-keyboard v13 v8_Ringo-Row-keyboard v13_Sketch4
100
AcDbCircle
 10
106.8088988873937
 20
-62.88478326820436
 30
0.0
 40
0.25
100
AcDbArc
 50
180.0000003603958
 51
270.0
  0
CIRCLE
  5
210
330
70
100
AcDbEntity
  8
Ringo-Row-keyboard v13 v8_Ringo-Row-keyboard v13_Sketch4
100
AcDbCircle
 10
121.330718723957
 20
-52.95212706113233
 30
0.0
 40
0.123047216016667
  0
LINE
  5
211
330
70
100
AcDbEntity
  8
Ringo-Row-keyboard v13 v8_Ringo-Row-keyboard v13_Sketch4
100
AcDbLine
 10
132.6614387794269
 20
-55.40515508516363
 30
0.0
 11
132.6614387794269
 21
-56.71940771648144
 31
0.0
  0
CIRCLE
  5
212
330
70
100
AcDbEntity
  8
Ringo-Row-keyboard v13 v8_Ringo-Row-keyboard v13_Sketch4
100
AcDbCircle
 10
121.330718723957
 20
-52.95212706113233
 30
0.0
 40
0.123047216016667
  0
ARC
  5
213
330
70
100
AcDbEntity
  8
Ringo-Row-keyboard v13 v8_Ringo-Row-keyboard v13_Sketch4
100
AcDbCircle
 10
106.8088988112798
 20
-50.78421162136492
 30
0.0
 40
0.2499999999999826
100
AcDbArc
 50
89.99790391497793
 51
180.0000003603974
  0
CIRCLE
  5
214
330
70
100
AcDbEntity
  8
Ringo-Row-keyboard v13 v8_Ringo-Row-keyboard v13_Sketch4
100
AcDbCircle
 10
108.510118723957
 20
-61.33979706113233
 30
0.0
 40
0.123047216016667
  0
LINE
  5
215
330
70
100
AcDbEntity
  8
Ringo-Row-keyboard v13 v8_Ringo-Row-keyboard v13_Sketch4
100
AcDbLine
 10
132.8893915870957
 20
-58.30664167859405
 30
0.0
 11
133.4155150256933
 21
-58.30664167859405
 31
0.0
  0
ARC
  5
216
330
70
100
AcDbEntity
  8
Ringo-Row-keyboard v13 v8_Ringo-Row-keyboard v13_Sketch4
100
AcDbCircle
 10
134.7894652932528
 20
-50.78523525079756
 30
0.0
 40
0.2500000000000101
100
AcDbArc
 50
0.0006553296353168
 51
89.99790391498445
  0
ARC
  5
217
330
70
100
AcDbEntity
  8
Ringo-Row-keyboard v13 v8_Ringo-Row-keyboard v13_Sketch4
100
AcDbCircle
 10
134.7896036837663
 20
-62.88478326820435
 30
0.0
 40
0.2500000000000156
100
AcDbArc
 50
270.0
 51
0.0006553296304314
  0
CIRCLE
  5
218
330
70
100
AcDbEntity
  8
Ringo-Row-keyboard v13 v8_Ringo-Row-keyboard v13_Sketch4
100
AcDbCircle
 10
134.388858723957
 20
-52.95212706113233
 30
0.0
 40
0.123047216016667
  0
LINE
  5
219
330
70
100
AcDbEntity
  8
Ringo-Row-keyboard v13 v8_Ringo-Row-keyboard v13_Sketch4
100
AcDbLine
 10
133.4155150256933
 20
-58.30664167859405
 30
0.0
 11
133.4155150256933
 21
-58.63336555665603
 31
0.0
  0
CIRCLE
  5
21A
330
70
100
AcDbEntity
  8
Ringo-Row-keyboard v13 v8_Ringo-Row-keyboard v13_Sketch4
100
AcDbCircle
 10
124.3466387239571
 20
-61.84695706113234
 30
0.0
 40
0.123047216016667
  0
LINE
  5
21B
330
70
100
AcDbEntity
  8
Ringo-Row-keyboard v13 v8_Ringo-Row-keyboard v13_Sketch4
100
AcDbLine
 10
133.4155150256933
 20
-55.78856555665604
 30
0.0
 11
132.8893915870957
 21
-55.78856555665604
 31
0.0
  0
CIRCLE
  5
21C
330
70
100
AcDbEntity
  8
Ringo-Row-keyboard v13 v8_Ringo-Row-keyboard v13_Sketch4
100
AcDbCircle
 10
134.388858723957
 20
-52.95212706113233
 30
0.0
 40
0.123047216016667
  0
CIRCLE
  5
21D
330
70
100
AcDbEntity
  8
Ringo-Row-keyboard v13 v8_Ringo-Row-keyboard v13_Sketch4
100
AcDbCircle
 10
107.268488723957
 20
-52.95212706113233
 30
0.0
 40
0.123047216016667
  0
CIRCLE
  5
21E
330
70
100
AcDbEntity
  8
Ringo-Row-keyboard v13 v8_Ringo-Row-keyboard v13_Sketch4
100
AcDbCircle
 10
123.207058723957
 20
-57.03535706113234
 30
0.0
 40
0.123047216016667
  0
CIRCLE
  5
21F
330
70
100
AcDbEntity
  8
Ringo-Row-keyboard v13 v8_Ringo-Row-keyboard v13_Sketch4
100
AcDbCircle
 10
123.207058723957
 20
-57.03535706113234
 30
0.0
 40
0.123047216016667
  0
LINE
  5
220
330
70
100
AcDbEntity
  8
Ringo-Row-keyboard v13 v8_Ringo-Row-keyboard v13_Sketch4
100
AcDbLine
 10
132.8893915870957
 20
-55.46184167859404
 30
0.0
 11
133.4155150256933
 21
-55.46184167859404
 31
0.0
  0
POINT
  5
222
330
70
100
AcDbEntity
  8
Ringo-Row-keyboard v13 v8_Ringo-Row-keyboard v13_Sketch6
100
AcDbPoint
 10
121.3106433153896
 20
-56.82130494138393
 30
0.0
  0
POINT
  5
224
330
70
100
AcDbEntity
  8
Ringo-Row-keyboard v13 v8_Ringo-Row-keyboard v13_Sketch7
100
AcDbPoint
 10
121.3106433153896
 20
-56.82130494138393
 30
0.0
  0
POINT
  5
226
330
70
100
AcDbEntity
  8
Ringo-Row-keyboard v13 v8_Ringo-Row-keyboard v13_Sketch8
100
AcDbPoint
 10
121.3106433153896
 20
-56.82130494138393
 30
0.0
  0
ENDSEC
  0
SECTION
  2
OBJECTS
  0
DICTIONARY
  5
C
330
0
100
AcDbDictionary
281
     1
  3
ACAD_COLOR
350
63
  3
ACAD_DETAILVIEWSTYLE
350
6A
  3
ACAD_GROUP
350
D
  3
ACAD_LAYOUT
350
62
  3
ACAD_MATERIAL
350
10
  3
ACAD_MLEADERSTYLE
350
66
  3
ACAD_MLINESTYLE
350
5F
  3
ACAD_PLOTSETTINGS
350
61
  3
ACAD_PLOTSTYLENAME
350
E
  3
ACAD_SCALELIST
350
42
  3
ACAD_SECTIONVIEWSTYLE
350
68
  3
ACAD_TABLESTYLE
350
64
  3
ACAD_VISUALSTYLE
350
29
  3
ACDB_RECOMPOSE_DATA
350
22F
  3
AcDbVariableDictionary
350
227
  0
DICTIONARY
  5
63
102
{ACAD_REACTORS
330
C
102
}
330
C
100
AcDbDictionary
281
     1
  0
DICTIONARY
  5
6A
102
{ACAD_REACTORS
330
C
102
}
330
C
100
AcDbDictionary
281
     1
  3
Imperial24
350
6B
  0
DICTIONARY
  5
D
102
{ACAD_REACTORS
330
C
102
}
330
C
100
AcDbDictionary
281
     1
  0
DICTIONARY
  5
62
102
{ACAD_REACTORS
330
C
102
}
330
C
100
AcDbDictionary
281
     1
  3
Layout1
350
6F
  3
Layout2
350
77
  3
Model
350
73
  0
DICTIONARY
  5
10
102
{ACAD_REACTORS
330
C
102
}
330
C
100
AcDbDictionary
281
     1
  3
ByBlock
350
19
  3
ByLayer
350
11
  3
Global
350
21
  0
DICTIONARY
  5
66
102
{ACAD_REACTORS
330
C
102
}
330
C
100
AcDbDictionary
281
     1
  3
Standard
350
67
  0
DICTIONARY
  5
5F
102
{ACAD_REACTORS
330
C
102
}
330
C
100
AcDbDictionary
281
     1
  3
Standard
350
60
  0
DICTIONARY
  5
61
102
{ACAD_REACTORS
330
C
102
}
330
C
100
AcDbDictionary
281
     1
  0
ACDBDICTIONARYWDFLT
  5
E
102
{ACAD_REACTORS
330
C
102
}
330
C
100
AcDbDictionary
281
     1
  3
Normal
350
F
100
AcDbDictionaryWithDefault
340
F
  0
DICTIONARY
  5
42
102
{ACAD_REACTORS
330
C
102
}
330
C
100
AcDbDictionary
281
     1
  3
A0
350
43
  3
A1
350
44
  3
A2
350
45
  3
A3
350
46
  3
A4
350
47
  3
A5
350
48
  3
A6
350
49
  3
A7
350
4A
  3
A8
350
4B
  3
A9
350
4C
  3
B0
350
4D
  3
B1
350
4E
  3
B2
350
4F
  3
B3
350
50
  3
B4
350
51
  3
B5
350
52
  3
B6
350
53
  0
DICTIONARY
  5
68
102
{ACAD_REACTORS
330
C
102
}
330
C
100
AcDbDictionary
281
     1
  3
Imperial24
350
69
  0
DICTIONARY
  5
64
102
{ACAD_REACTORS
330
C
102
}
330
C
100
AcDbDictionary
281
     1
  3
Standard
350
65
  0
DICTIONARY
  5
29
102
{ACAD_REACTORS
330
C
102
}
330
C
100
AcDbDictionary
281
     1
  3
2dWireframe
350
2F
  3
Basic
350
2E
  3
Brighten
350
35
  3
ColorChange
350
39
  3
Conceptual
350
32
  3
Dim
350
34
  3
EdgeColorOff
350
41
  3
Facepattern
350
38
  3
Flat
350
2A
  3
FlatWithEdges
350
2B
  3
Gouraud
350
2C
  3
GouraudWithEdges
350
2D
  3
Hidden
350
31
  3
JitterOff
350
3F
  3
Linepattern
350
37
  3
OverhangOff
350
40
  3
Realistic
350
33
  3
Shaded
350
3E
  3
Shaded with edges
350
3D
  3
Shades of Gray
350
3A
  3
Sketchy
350
3B
  3
Thicken
350
36
  3
Wireframe
350
30
  3
X-Ray
350
3C
  0
XRECORD
  5
22F
102
{ACAD_REACTORS
330
C
102
}
330
C
100
AcDbXrecord
280
     1
 90
        1
330
65
  0
DICTIONARY
  5
227
102
{ACAD_REACTORS
330
C
102
}
330
C
100
AcDbDictionary
281
     1
  3
CANNOSCALE
350
22C
  3
CMLEADERSTYLE
350
229
  3
CTABLESTYLE
350
228
  3
CVIEWDETAILSTYLE
350
22A
  3
CVIEWSECTIONSTYLE
350
22B
  0
ACDBDETAILVIEWSTYLE
  5
6B
102
{ACAD_XDICTIONARY
360
232
102
}
102
{ACAD_REACTORS
330
6A
102
}
330
6A
100
AcDbModelDocViewStyle
 70
     0
  3
Imperial24
290
     0
100
AcDbDetailViewStyle
 70
     0
 71
     0
 90
        3
 71
     1
340
55
 62
   256
 40
0.24
340
0
 62
   256
 40
0.24
300

 40
0.36
280
     3
 71
     2
340
5D
 90
       25
 62
   256
 71
     3
340
55
 62
   256
 40
0.24
 90
        1
 40
0.75
 90
        1
300
%<\AcVar ViewType \f "%tc1">% %<\AcVar ViewDetailId>%\PSCALE %<\AcVar ViewScale \f "%sn">%
 71
     4
340
5D
 90
       25
 62
   256
340
5D
 90
       25
 62
   256
280
     0
  0
LAYOUT
  5
6F
102
{ACAD_REACTORS
330
62
102
}
330
62
100
AcDbPlotSettings
  1

  2

  4

  6

 40
0.0
 41
0.0
 42
0.0
 43
0.0
 44
0.0
 45
0.0
 46
0.0
 47
0.0
 48
0.0
 49
0.0
140
0.0
141
0.0
142
1.0
143
1.0
 70
   688
 72
     0
 73
     0
 74
     5
  7

 75
    16
147
1.0
 76
     0
 77
     2
 78
   300
148
0.0
149
0.0
100
AcDbLayout
  1
Layout1
 70
     1
 71
     1
 10
0.0
 20
0.0
 11
12.0
 21
9.0
 12
0.0
 22
0.0
 32
0.0
 14
0.0
 24
0.0
 34
0.0
 15
0.0
 25
0.0
 35
0.0
146
0.0
 13
0.0
 23
0.0
 33
0.0
 16
1.0
 26
0.0
 36
0.0
 17
0.0
 27
1.0
 37
0.0
 76
     0
330
6C
  0
LAYOUT
  5
77
102
{ACAD_REACTORS
330
62
102
}
330
62
100
AcDbPlotSettings
  1

  2

  4

  6

 40
0.0
 41
0.0
 42
0.0
 43
0.0
 44
0.0
 45
0.0
 46
0.0
 47
0.0
 48
0.0
 49
0.0
140
0.0
141
0.0
142
1.0
143
1.0
 70
   688
 72
     0
 73
     0
 74
     5
  7

 75
    16
147
1.0
 76
     0
 77
     2
 78
   300
148
0.0
149
0.0
100
AcDbLayout
  1
Layout2
 70
     1
 71
     2
 10
0.0
 20
0.0
 11
12.0
 21
9.0
 12
0.0
 22
0.0
 32
0.0
 14
0.0
 24
0.0
 34
0.0
 15
0.0
 25
0.0
 35
0.0
146
0.0
 13
0.0
 23
0.0
 33
0.0
 16
1.0
 26
0.0
 36
0.0
 17
0.0
 27
1.0
 37
0.0
 76
     0
330
74
  0
LAYOUT
  5
73
102
{ACAD_REACTORS
330
62
102
}
330
62
100
AcDbPlotSettings
  1

  2

  4

  6

 40
0.0
 41
0.0
 42
0.0
 43
0.0
 44
0.0
 45
0.0
 46
0.0
 47
0.0
 48
0.0
 49
0.0
140
0.0
141
0.0
142
1.0
143
1.0
 70
  1712
 72
     0
 73
     0
 74
     0
  7

 75
     0
147
1.0
 76
     0
 77
     2
 78
   300
148
0.0
149
0.0
100
AcDbLayout
  1
Model
 70
     1
 71
     0
 10
0.0
 20
0.0
 11
12.0
 21
9.0
 12
0.0
 22
0.0
 32
0.0
 14
0.0
 24
0.0
 34
0.0
 15
0.0
 25
0.0
 35
0.0
146
0.0
 13
0.0
 23
0.0
 33
0.0
 16
1.0
 26
0.0
 36
0.0
 17
0.0
 27
1.0
 37
0.0
 76
     0
330
70
  0
MATERIAL
  5
19
102
{ACAD_XDICTIONARY
360
1A
102
}
102
{ACAD_REACTORS
330
10
102
}
330
10
100
AcDbMaterial
  1
ByBlock
 72
     0
 43
0.0208333333333333
 43
0.0
 43
0.0
 43
0.0
 43
0.0
 43
0.0208333333333333
 43
0.0
 43
0.0
 43
0.0
 43
0.0
 43
1.0
 43
0.0
 43
0.0
 43
0.0
 43
0.0
 43
1.0
 77
     0
 47
0.0208333333333333
 47
0.0
 47
0.0
 47
0.0
 47
0.0
 47
0.0208333333333333
 47
0.0
 47
0.0
 47
0.0
 47
0.0
 47
1.0
 47
0.0
 47
0.0
 47
0.0
 47
0.0
 47
1.0
171
     0
 49
0.0208333333333333
 49
0.0
 49
0.0
 49
0.0
 49
0.0
 49
0.0208333333333333
 49
0.0
 49
0.0
 49
0.0
 49
0.0
 49
1.0
 49
0.0
 49
0.0
 49
0.0
 49
0.0
 49
1.0
175
     0
142
0.0208333333333333
142
0.0
142
0.0
142
0.0
142
0.0
142
0.0208333333333333
142
0.0
142
0.0
142
0.0
142
0.0
142
1.0
142
0.0
142
0.0
142
0.0
142
0.0
142
1.0
179
     0
144
0.0208333333333333
144
0.0
144
0.0
144
0.0
144
0.0
144
0.0208333333333333
144
0.0
144
0.0
144
0.0
144
0.0
144
1.0
144
0.0
144
0.0
144
0.0
144
0.0
144
1.0
147
0.0208333333333333
147
0.0
147
0.0
147
0.0
147
0.0
147
0.0208333333333333
147
0.0
147
0.0
147
0.0
147
0.0
147
1.0
147
0.0
147
0.0
147
0.0
147
0.0
147
1.0
  0
MATERIAL
  5
11
102
{ACAD_XDICTIONARY
360
12
102
}
102
{ACAD_REACTORS
330
10
102
}
330
10
100
AcDbMaterial
  1
ByLayer
 72
     0
 43
0.0208333333333333
 43
0.0
 43
0.0
 43
0.0
 43
0.0
 43
0.0208333333333333
 43
0.0
 43
0.0
 43
0.0
 43
0.0
 43
1.0
 43
0.0
 43
0.0
 43
0.0
 43
0.0
 43
1.0
 77
     0
 47
0.0208333333333333
 47
0.0
 47
0.0
 47
0.0
 47
0.0
 47
0.0208333333333333
 47
0.0
 47
0.0
 47
0.0
 47
0.0
 47
1.0
 47
0.0
 47
0.0
 47
0.0
 47
0.0
 47
1.0
171
     0
 49
0.0208333333333333
 49
0.0
 49
0.0
 49
0.0
 49
0.0
 49
0.0208333333333333
 49
0.0
 49
0.0
 49
0.0
 49
0.0
 49
1.0
 49
0.0
 49
0.0
 49
0.0
 49
0.0
 49
1.0
175
     0
142
0.0208333333333333
142
0.0
142
0.0
142
0.0
142
0.0
142
0.0208333333333333
142
0.0
142
0.0
142
0.0
142
0.0
142
1.0
142
0.0
142
0.0
142
0.0
142
0.0
142
1.0
179
     0
144
0.0208333333333333
144
0.0
144
0.0
144
0.0
144
0.0
144
0.0208333333333333
144
0.0
144
0.0
144
0.0
144
0.0
144
1.0
144
0.0
144
0.0
144
0.0
144
0.0
144
1.0
147
0.0208333333333333
147
0.0
147
0.0
147
0.0
147
0.0
147
0.0208333333333333
147
0.0
147
0.0
147
0.0
147
0.0
147
1.0
147
0.0
147
0.0
147
0.0
147
0.0
147
1.0
  0
MATERIAL
  5
21
102
{ACAD_XDICTIONARY
360
22
102
}
102
{ACAD_REACTORS
330
10
102
}
330
10
100
AcDbMaterial
  1
Global
 72
     0
 43
0.0208333333333333
 43
0.0
 43
0.0
 43
0.0
 43
0.0
 43
0.0208333333333333
 43
0.0
 43
0.0
 43
0.0
 43
0.0
 43
1.0
 43
0.0
 43
0.0
 43
0.0
 43
0.0
 43
1.0
 77
     0
 47
0.0208333333333333
 47
0.0
 47
0.0
 47
0.0
 47
0.0
 47
0.0208333333333333
 47
0.0
 47
0.0
 47
0.0
 47
0.0
 47
1.0
 47
0.0
 47
0.0
 47
0.0
 47
0.0
 47
1.0
171
     0
 49
0.0208333333333333
 49
0.0
 49
0.0
 49
0.0
 49
0.0
 49
0.0208333333333333
 49
0.0
 49
0.0
 49
0.0
 49
0.0
 49
1.0
 49
0.0
 49
0.0
 49
0.0
 49
0.0
 49
1.0
175
     0
142
0.0208333333333333
142
0.0
142
0.0
142
0.0
142
0.0
142
0.0208333333333333
142
0.0
142
0.0
142
0.0
142
0.0
142
1.0
142
0.0
142
0.0
142
0.0
142
0.0
142
1.0
179
     0
144
0.0208333333333333
144
0.0
144
0.0
144
0.0
144
0.0
144
0.0208333333333333
144
0.0
144
0.0
144
0.0
144
0.0
144
1.0
144
0.0
144
0.0
144
0.0
144
0.0
144
1.0
147
0.0208333333333333
147
0.0
147
0.0
147
0.0
147
0.0
147
0.0208333333333333
147
0.0
147
0.0
147
0.0
147
0.0
147
1.0
147
0.0
147
0.0
147
0.0
147
0.0
147
1.0
  0
MLEADERSTYLE
  5
67
102
{ACAD_REACTORS
330
66
102
}
330
66
100
AcDbMLeaderStyle
179
     2
170
     2
171
     1
172
     0
 90
        2
 40
0.0
 41
0.0
173
     1
 91
-1056964608
340
5B
 92
       -2
290
     1
 42
0.09
291
     1
 43
0.36
  3
Standard
 44
0.18
300

342
55
174
     1
178
     6
175
     1
176
     0
 93
-1056964608
 45
0.18
292
     0
297
     0
 46
0.18
 94
-1056964608
 47
1.0
 49
1.0
140
1.0
293
     1
141
0.0
294
     1
177
     0
142
1.0
295
     0
296
     0
143
0.125
271
     0
272
     9
273
     9
298
     1
  0
MLINESTYLE
  5
60
102
{ACAD_REACTORS
330
5F
102
}
330
5F
100
AcDbMlineStyle
  2
STANDARD
 70
     0
  3

 62
   256
 51
90.0
 52
90.0
 71
     2
 49
0.5
 62
   256
  6
BYLAYER
 49
-0.5
 62
   256
  6
BYLAYER
  0
ACDBPLACEHOLDER
  5
F
102
{ACAD_REACTORS
330
E
102
}
330
E
  0
SCALE
  5
43
102
{ACAD_REACTORS
330
42
102
}
330
42
100
AcDbScale
 70
     0
300
1:1
140
1.0
141
1.0
290
     1
  0
SCALE
  5
44
102
{ACAD_REACTORS
330
42
102
}
330
42
100
AcDbScale
 70
     0
300
1/128" = 1'-0"
140
0.0078125
141
12.0
290
     0
  0
SCALE
  5
45
102
{ACAD_REACTORS
330
42
102
}
330
42
100
AcDbScale
 70
     0
300
1/64" = 1'-0"
140
0.015625
141
12.0
290
     0
  0
SCALE
  5
46
102
{ACAD_REACTORS
330
42
102
}
330
42
100
AcDbScale
 70
     0
300
1/32" = 1'-0"
140
0.03125
141
12.0
290
     0
  0
SCALE
  5
47
102
{ACAD_REACTORS
330
42
102
}
330
42
100
AcDbScale
 70
     0
300
1/16" = 1'-0"
140
0.0625
141
12.0
290
     0
  0
SCALE
  5
48
102
{ACAD_REACTORS
330
42
102
}
330
42
100
AcDbScale
 70
     0
300
3/32" = 1'-0"
140
0.09375
141
12.0
290
     0
  0
SCALE
  5
49
102
{ACAD_REACTORS
330
42
102
}
330
42
100
AcDbScale
 70
     0
300
1/8" = 1'-0"
140
0.125
141
12.0
290
     0
  0
SCALE
  5
4A
102
{ACAD_REACTORS
330
42
102
}
330
42
100
AcDbScale
 70
     0
300
3/16" = 1'-0"
140
0.1875
141
12.0
290
     0
  0
SCALE
  5
4B
102
{ACAD_REACTORS
330
42
102
}
330
42
100
AcDbScale
 70
     0
300
1/4" = 1'-0"
140
0.25
141
12.0
290
     0
  0
SCALE
  5
4C
102
{ACAD_REACTORS
330
42
102
}
330
42
100
AcDbScale
 70
     0
300
3/8" = 1'-0"
140
0.375
141
12.0
290
     0
  0
SCALE
  5
4D
102
{ACAD_REACTORS
330
42
102
}
330
42
100
AcDbScale
 70
     0
300
1/2" = 1'-0"
140
0.5
141
12.0
290
     0
  0
SCALE
  5
4E
102
{ACAD_REACTORS
330
42
102
}
330
42
100
AcDbScale
 70
     0
300
3/4" = 1'-0"
140
0.75
141
12.0
290
     0
  0
SCALE
  5
4F
102
{ACAD_REACTORS
330
42
102
}
330
42
100
AcDbScale
 70
     0
300
1" = 1'-0"
140
1.0
141
12.0
290
     0
  0
SCALE
  5
50
102
{ACAD_REACTORS
330
42
102
}
330
42
100
AcDbScale
 70
     0
300
1-1/2" = 1'-0"
140
1.5
141
12.0
290
     0
  0
SCALE
  5
51
102
{ACAD_REACTORS
330
42
102
}
330
42
100
AcDbScale
 70
     0
300
3" = 1'-0"
140
3.0
141
12.0
290
     0
  0
SCALE
  5
52
102
{ACAD_REACTORS
330
42
102
}
330
42
100
AcDbScale
 70
     0
300
6" = 1'-0"
140
6.0
141
12.0
290
     0
  0
SCALE
  5
53
102
{ACAD_REACTORS
330
42
102
}
330
42
100
AcDbScale
 70
     0
300
1'-0" = 1'-0"
140
12.0
141
12.0
290
     0
  0
ACDBSECTIONVIEWSTYLE
  5
69
102
{ACAD_XDICTIONARY
360
230
102
}
102
{ACAD_REACTORS
330
68
102
}
330
68
100
AcDbModelDocViewStyle
 70
     0
  3
Imperial24
290
     0
100
AcDbSectionViewStyle
 70
     0
 71
     0
 90
       78
 71
     1
340
55
 62
   256
 40
0.24
340
0
340
0
 62
   256
 40
0.24
300
I, O, Q, S, X, Z
 40
0.48
 90
        3
 40
0.18
 90
        1
 71
     2
340
5D
 90
       25
 62
   256
340
5D
 90
       50
 62
   256
 40
0.24
 40
0.0
 40
0.24
 71
     3
340
55
 62
   256
 40
0.24
 90
        1
 40
0.75
 90
        1
300
%<\AcVar ViewType \f "%tc1">% %<\AcVar ViewSectionStartId>%-%<\AcVar ViewSectionEndId>%\PSCALE %<\AcVar ViewScale \f "%sn">%
 71
     4
 62
   256
 62
   257
300
ANSI31
 40
1.0
 90
        0
290
     0
290
     0
 90
        6
 40
0.0
 40
1.570796326794896
 40
0.2617993877991494
 40
1.308996938995747
 40
-0.2617993877991494
 40
1.832595714594046
  0
TABLESTYLE
  5
65
102
{ACAD_XDICTIONARY
360
22D
102
}
102
{ACAD_REACTORS
330
64
102
}
330
64
100
AcDbTableStyle
280
     0
  3
Standard
 70
     0
 71
     0
 40
0.06
 41
0.06
280
     0
281
     0
  7
Standard
140
0.18
170
     2
 62
     0
 63
     7
283
     0
 90
      512
 91
        0
  1

274
    -2
284
     1
 64
     0
275
    -2
285
     1
 65
     0
276
    -2
286
     1
 66
     0
277
    -2
287
     1
 67
     0
278
    -2
288
     1
 68
     0
279
    -2
289
     1
 69
     0
  7
Standard
140
0.25
170
     5
 62
     0
 63
     7
283
     0
 90
      512
 91
        0
  1

274
    -2
284
     1
 64
     0
275
    -2
285
     1
 65
     0
276
    -2
286
     1
 66
     0
277
    -2
287
     1
 67
     0
278
    -2
288
     1
 68
     0
279
    -2
289
     1
 69
     0
  7
Standard
140
0.18
170
     5
 62
     0
 63
     7
283
     0
 90
      512
 91
        0
  1

274
    -2
284
     1
 64
     0
275
    -2
285
     1
 65
     0
276
    -2
286
     1
 66
     0
277
    -2
287
     1
 67
     0
278
    -2
288
     1
 68
     0
279
    -2
289
     1
 69
     0
  0
VISUALSTYLE
  5
2F
102
{ACAD_REACTORS
330
29
102
}
330
29
100
AcDbVisualStyle
  2
2dWireframe
 70
     4
177
     3
291
     0
 70
    58
 90
        0
176
     1
 90
        2
176
     1
 90
        0
176
     1
 90
        0
176
     1
 40
0.6
176
     1
 40
30.0
176
     1
 62
     7
420
 16777215
176
     1
 90
        1
176
     1
 90
        4
176
     1
 62
     7
176
     1
 62
   257
176
     1
 90
        1
176
     1
 90
        1
176
     1
 40
1.0
176
     1
 90
        0
176
     1
 62
   257
176
     1
 40
1.0
176
     1
 90
        1
176
     1
 90
        6
176
     1
 90
        2
176
     1
 62
     7
176
     1
 90
        5
176
     1
 90
        0
176
     1
 90
        0
176
     1
290
     0
176
     1
 90
        1
176
     1
 40
0.0
176
     1
 90
        0
176
     1
290
     1
176
     1
290
     1
176
     1
290
     0
176
     1
290
     0
176
     1
290
     0
176
     1
290
     0
176
     1
290
     0
176
     1
290
     0
176
     1
290
     0
176
     1
 90
       50
176
     1
 40
0.0
176
     1
 40
1.0
176
     1
 90
        0
176
     1
 62
    18
420
        0
176
     1
 90
       50
176
     1
 90
        3
176
     1
 62
     5
420
      255
176
     1
290
     0
176
     1
 90
       50
176
     1
 90
       50
176
     1
 90
       50
176
     1
290
     0
176
     1
 90
       50
176
     1
 62
   256
176
     0
 40
1.0
176
     0
 90
        2
176
     1
  1
strokes_ogs.tif
176
     1
290
     0
176
     1
 40
1.0
176
     1
 40
1.0
176
     1
1001
ACAD
1000
AcDbSavedByObjectVersion
1070
     0
  0
VISUALSTYLE
  5
2E
102
{ACAD_REACTORS
330
29
102
}
330
29
100
AcDbVisualStyle
  2
Basic
 70
     7
177
     3
291
     1
 70
    58
 90
        1
176
     1
 90
        0
176
     1
 90
        1
176
     1
 90
        0
176
     1
 40
0.6
176
     1
 40
30.0
176
     1
 62
     7
420
 16777215
176
     1
 90
        0
176
     1
 90
        4
176
     1
 62
     7
176
     1
 62
   257
176
     1
 90
        1
176
     1
 90
        1
176
     1
 40
1.0
176
     1
 90
        8
176
     1
 62
     7
176
     1
 40
1.0
176
     1
 90
        1
176
     1
 90
        6
176
     1
 90
        2
176
     1
 62
     7
176
     1
 90
        5
176
     1
 90
        0
176
     1
 90
        0
176
     1
290
     0
176
     1
 90
        1
176
     1
 40
0.0
176
     1
 90
        0
176
     1
290
     0
176
     1
290
     1
176
     1
290
     1
176
     1
290
     0
176
     1
290
     0
176
     1
290
     0
176
     1
290
     0
176
     1
290
     0
176
     1
290
     0
176
     1
 90
       50
176
     1
 40
0.0
176
     1
 40
1.0
176
     1
 90
        0
176
     1
 62
    18
420
        0
176
     1
 90
       50
176
     1
 90
        3
176
     1
 62
     5
420
      255
176
     1
290
     0
176
     1
 90
       50
176
     1
 90
       50
176
     1
 90
       50
176
     1
290
     0
176
     1
 90
       50
176
     1
 62
   256
176
     0
 40
1.0
176
     0
 90
        2
176
     1
  1
strokes_ogs.tif
176
     1
290
     0
176
     1
 40
1.0
176
     1
 40
1.0
176
     1
1001
ACAD
1000
AcDbSavedByObjectVersion
1070
     0
  0
VISUALSTYLE
  5
35
102
{ACAD_REACTORS
330
29
102
}
330
29
100
AcDbVisualStyle
  2
Brighten
 70
    12
177
     3
291
     1
 70
    58
 90
        2
176
     1
 90
        2
176
     1
 90
        0
176
     1
 90
        0
176
     1
 40
0.6
176
     1
 40
30.0
176
     1
 62
     7
420
 16777215
176
     1
 90
        1
176
     1
 90
        4
176
     1
 62
     7
176
     1
 62
   257
176
     1
 90
        1
176
     1
 90
        1
176
     1
 40
1.0
176
     1
 90
        8
176
     1
 62
     7
176
     1
 40
1.0
176
     1
 90
        1
176
     1
 90
        6
176
     1
 90
        2
176
     1
 62
     7
176
     1
 90
        5
176
     1
 90
        0
176
     1
 90
        0
176
     1
290
     0
176
     1
 90
        1
176
     1
 40
50.0
176
     1
 90
        0
176
     1
290
     0
176
     1
290
     1
176
     1
290
     1
176
     1
290
     0
176
     1
290
     0
176
     1
290
     0
176
     1
290
     0
176
     1
290
     0
176
     1
290
     0
176
     1
 90
       50
176
     1
 40
0.0
176
     1
 40
1.0
176
     1
 90
        0
176
     1
 62
    18
420
        0
176
     1
 90
       50
176
     1
 90
        3
176
     1
 62
     5
420
      255
176
     1
290
     0
176
     1
 90
       50
176
     1
 90
       50
176
     1
 90
       50
176
     1
290
     0
176
     1
 90
       50
176
     1
 62
   256
176
     0
 40
1.0
176
     0
 90
        2
176
     1
  1
strokes_ogs.tif
176
     1
290
     0
176
     1
 40
1.0
176
     1
 40
1.0
176
     1
1001
ACAD
1000
AcDbSavedByObjectVersion
1070
     0
  0
VISUALSTYLE
  5
39
102
{ACAD_REACTORS
330
29
102
}
330
29
100
AcDbVisualStyle
  2
ColorChange
 70
    16
177
     3
291
     1
 70
    58
 90
        2
176
     1
 90
        2
176
     1
 90
        3
176
     1
 90
        0
176
     1
 40
0.6
176
     1
 40
30.0
176
     1
 62
     8
420
  8421504
176
     1
 90
        1
176
     1
 90
        4
176
     1
 62
     7
176
     1
 62
   257
176
     1
 90
        1
176
     1
 90
        1
176
     1
 40
1.0
176
     1
 90
        8
176
     1
 62
     8
420
  8421504
176
     1
 40
1.0
176
     1
 90
        1
176
     1
 90
        6
176
     1
 90
        2
176
     1
 62
     7
176
     1
 90
        5
176
     1
 90
        0
176
     1
 90
        0
176
     1
290
     0
176
     1
 90
        1
176
     1
 40
0.0
176
     1
 90
        0
176
     1
290
     0
176
     1
290
     1
176
     1
290
     1
176
     1
290
     0
176
     1
290
     0
176
     1
290
     0
176
     1
290
     0
176
     1
290
     0
176
     1
290
     0
176
     1
 90
       50
176
     1
 40
0.0
176
     1
 40
1.0
176
     1
 90
        0
176
     1
 62
    18
420
        0
176
     1
 90
       50
176
     1
 90
        3
176
     1
 62
     5
420
      255
176
     1
290
     0
176
     1
 90
       50
176
     1
 90
       50
176
     1
 90
       50
176
     1
290
     0
176
     1
 90
       50
176
     1
 62
   256
176
     0
 40
1.0
176
     0
 90
        2
176
     1
  1
strokes_ogs.tif
176
     1
290
     0
176
     1
 40
1.0
176
     1
 40
1.0
176
     1
1001
ACAD
1000
AcDbSavedByObjectVersion
1070
     0
  0
VISUALSTYLE
  5
32
102
{ACAD_REACTORS
330
29
102
}
330
29
100
AcDbVisualStyle
  2
Conceptual
 70
     9
177
     3
291
     0
 70
    58
 90
        3
176
     1
 90
        2
176
     1
 90
        0
176
     1
 90
        0
176
     1
 40
0.6
176
     1
 40
30.0
176
     1
 62
     7
420
 16777215
176
     1
 90
        2
176
     1
 90
        2
176
     1
 62
     7
176
     1
 62
   257
176
     1
 90
        1
176
     1
 90
        1
176
     1
 40
179.0
176
     1
 90
        8
176
     1
 62
     7
176
     1
 40
1.0
176
     1
 90
        1
176
     1
 90
        6
176
     1
 90
        2
176
     1
 62
     7
176
     1
 90
        3
176
     1
 90
        0
176
     1
 90
        0
176
     1
290
     0
176
     1
 90
        1
176
     1
 40
0.0
176
     1
 90
        0
176
     1
290
     0
176
     1
290
     1
176
     1
290
     1
176
     1
290
     0
176
     1
290
     0
176
     1
290
     0
176
     1
290
     0
176
     1
290
     0
176
     1
290
     0
176
     1
 90
       50
176
     1
 40
0.0
176
     1
 40
1.0
176
     1
 90
        0
176
     1
 62
    18
420
        0
176
     1
 90
       50
176
     1
 90
        3
176
     1
 62
     5
420
      255
176
     1
290
     0
176
     1
 90
       50
176
     1
 90
       50
176
     1
 90
       50
176
     1
290
     0
176
     1
 90
       50
176
     1
 62
   256
176
     0
 40
1.0
176
     0
 90
        2
176
     1
  1
strokes_ogs.tif
176
     1
290
     0
176
     1
 40
1.0
176
     1
 40
1.0
176
     1
1001
ACAD
1000
AcDbSavedByObjectVersion
1070
     0
  0
VISUALSTYLE
  5
34
102
{ACAD_REACTORS
330
29
102
}
330
29
100
AcDbVisualStyle
  2
Dim
 70
    11
177
     3
291
     1
 70
    58
 90
        2
176
     1
 90
        2
176
     1
 90
        0
176
     1
 90
        0
176
     1
 40
0.6
176
     1
 40
30.0
176
     1
 62
     7
420
 16777215
176
     1
 90
        1
176
     1
 90
        4
176
     1
 62
     7
176
     1
 62
   257
176
     1
 90
        1
176
     1
 90
        1
176
     1
 40
1.0
176
     1
 90
        8
176
     1
 62
     7
176
     1
 40
1.0
176
     1
 90
        1
176
     1
 90
        6
176
     1
 90
        2
176
     1
 62
     7
176
     1
 90
        5
176
     1
 90
        0
176
     1
 90
        0
176
     1
290
     0
176
     1
 90
        1
176
     1
 40
-50.0
176
     1
 90
        0
176
     1
290
     0
176
     1
290
     1
176
     1
290
     1
176
     1
290
     0
176
     1
290
     0
176
     1
290
     0
176
     1
290
     0
176
     1
290
     0
176
     1
290
     0
176
     1
 90
       50
176
     1
 40
0.0
176
     1
 40
1.0
176
     1
 90
        0
176
     1
 62
    18
420
        0
176
     1
 90
       50
176
     1
 90
        3
176
     1
 62
     5
420
      255
176
     1
290
     0
176
     1
 90
       50
176
     1
 90
       50
176
     1
 90
       50
176
     1
290
     0
176
     1
 90
       50
176
     1
 62
   256
176
     0
 40
1.0
176
     0
 90
        2
176
     1
  1
strokes_ogs.tif
176
     1
290
     0
176
     1
 40
1.0
176
     1
 40
1.0
176
     1
1001
ACAD
1000
AcDbSavedByObjectVersion
1070
     0
  0
VISUALSTYLE
  5
41
102
{ACAD_REACTORS
330
29
102
}
330
29
100
AcDbVisualStyle
  2
EdgeColorOff
 70
    22
177
     3
291
     1
 70
    58
 90
        2
176
     0
 90
        2
176
     0
 90
        0
176
     0
 90
        0
176
     0
 40
0.6
176
     0
 40
30.0
176
     0
 62
     7
420
 16777215
176
     0
 90
        1
176
     0
 90
        4
176
     0
 62
     7
176
     0
 62
   257
176
     0
 90
        1
176
     0
 90
        1
176
     0
 40
1.0
176
     0
 90
        8
176
     2
 62
     7
176
     0
 40
1.0
176
     0
 90
        1
176
     0
 90
        6
176
     0
 90
        2
176
     0
 62
     7
176
     0
 90
        5
176
     0
 90
        0
176
     0
 90
        0
176
     0
290
     0
176
     0
 90
        1
176
     0
 40
0.0
176
     0
 90
        0
176
     0
290
     0
176
     0
290
     1
176
     0
290
     1
176
     0
290
     0
176
     0
290
     0
176
     0
290
     0
176
     0
290
     0
176
     0
290
     0
176
     0
290
     0
176
     0
 90
       50
176
     0
 40
0.0
176
     0
 40
1.0
176
     0
 90
        0
176
     0
 62
    18
420
        0
176
     0
 90
       50
176
     0
 90
        3
176
     0
 62
     5
420
      255
176
     0
290
     0
176
     0
 90
       50
176
     0
 90
       50
176
     0
 90
       50
176
     0
290
     0
176
     0
 90
       50
176
     0
 62
   256
176
     0
 40
1.0
176
     0
 90
        2
176
     0
  1
strokes_ogs.tif
176
     0
290
     0
176
     0
 40
1.0
176
     0
 40
1.0
176
     0
1001
ACAD
1000
AcDbSavedByObjectVersion
1070
     0
  0
VISUALSTYLE
  5
38
102
{ACAD_REACTORS
330
29
102
}
330
29
100
AcDbVisualStyle
  2
Facepattern
 70
    15
177
     3
291
     1
 70
    58
 90
        2
176
     1
 90
        2
176
     1
 90
        0
176
     1
 90
        0
176
     1
 40
0.6
176
     1
 40
30.0
176
     1
 62
     7
420
 16777215
176
     1
 90
        1
176
     1
 90
        4
176
     1
 62
     7
176
     1
 62
   257
176
     1
 90
        1
176
     1
 90
        1
176
     1
 40
1.0
176
     1
 90
        8
176
     1
 62
     7
176
     1
 40
1.0
176
     1
 90
        1
176
     1
 90
        6
176
     1
 90
        2
176
     1
 62
     7
176
     1
 90
        5
176
     1
 90
        0
176
     1
 90
        0
176
     1
290
     0
176
     1
 90
        1
176
     1
 40
0.0
176
     1
 90
        0
176
     1
290
     0
176
     1
290
     1
176
     1
290
     1
176
     1
290
     0
176
     1
290
     0
176
     1
290
     0
176
     1
290
     0
176
     1
290
     0
176
     1
290
     0
176
     1
 90
       50
176
     1
 40
0.0
176
     1
 40
1.0
176
     1
 90
        0
176
     1
 62
    18
420
        0
176
     1
 90
       50
176
     1
 90
        3
176
     1
 62
     5
420
      255
176
     1
290
     0
176
     1
 90
       50
176
     1
 90
       50
176
     1
 90
       50
176
     1
290
     0
176
     1
 90
       50
176
     1
 62
   256
176
     0
 40
1.0
176
     0
 90
        2
176
     1
  1
strokes_ogs.tif
176
     1
290
     0
176
     1
 40
1.0
176
     1
 40
1.0
176
     1
1001
ACAD
1000
AcDbSavedByObjectVersion
1070
     0
  0
VISUALSTYLE
  5
2A
102
{ACAD_REACTORS
330
29
102
}
330
29
100
AcDbVisualStyle
  2
Flat
 70
     0
177
     3
291
     1
 70
    58
 90
        2
176
     1
 90
        1
176
     1
 90
        1
176
     1
 90
        2
176
     1
 40
0.6
176
     1
 40
30.0
176
     1
 62
     7
420
 16777215
176
     1
 90
        0
176
     1
 90
        0
176
     1
 62
     7
176
     1
 62
   257
176
     1
 90
        1
176
     1
 90
        1
176
     1
 40
1.0
176
     1
 90
        8
176
     1
 62
     7
176
     1
 40
1.0
176
     1
 90
        1
176
     1
 90
        6
176
     1
 90
        2
176
     1
 62
     7
176
     1
 90
        5
176
     1
 90
        0
176
     1
 90
        0
176
     1
290
     0
176
     1
 90
       13
176
     1
 40
0.0
176
     1
 90
        0
176
     1
290
     0
176
     1
290
     1
176
     1
290
     1
176
     1
290
     0
176
     1
290
     0
176
     1
290
     0
176
     1
290
     0
176
     1
290
     0
176
     1
290
     0
176
     1
 90
       50
176
     1
 40
0.0
176
     1
 40
1.0
176
     1
 90
        0
176
     1
 62
    18
420
        0
176
     1
 90
       50
176
     1
 90
        3
176
     1
 62
     5
420
      255
176
     1
290
     0
176
     1
 90
       50
176
     1
 90
       50
176
     1
 90
       50
176
     1
290
     0
176
     1
 90
       50
176
     1
 62
   256
176
     0
 40
1.0
176
     0
 90
        2
176
     1
  1
strokes_ogs.tif
176
     1
290
     0
176
     1
 40
1.0
176
     1
 40
1.0
176
     1
1001
ACAD
1000
AcDbSavedByObjectVersion
1070
     0
  0
VISUALSTYLE
  5
2B
102
{ACAD_REACTORS
330
29
102
}
330
29
100
AcDbVisualStyle
  2
FlatWithEdges
 70
     1
177
     3
291
     1
 70
    58
 90
        2
176
     1
 90
        1
176
     1
 90
        1
176
     1
 90
        2
176
     1
 40
0.6
176
     1
 40
30.0
176
     1
 62
     7
420
 16777215
176
     1
 90
        1
176
     1
 90
        0
176
     1
 62
     7
176
     1
 62
   257
176
     1
 90
        1
176
     1
 90
        1
176
     1
 40
1.0
176
     1
 90
        0
176
     1
 62
   257
176
     1
 40
1.0
176
     1
 90
        1
176
     1
 90
        6
176
     1
 90
        2
176
     1
 62
     7
176
     1
 90
        5
176
     1
 90
        0
176
     1
 90
        0
176
     1
290
     0
176
     1
 90
       13
176
     1
 40
0.0
176
     1
 90
        0
176
     1
290
     0
176
     1
290
     1
176
     1
290
     1
176
     1
290
     0
176
     1
290
     0
176
     1
290
     0
176
     1
290
     0
176
     1
290
     0
176
     1
290
     0
176
     1
 90
       50
176
     1
 40
0.0
176
     1
 40
1.0
176
     1
 90
        0
176
     1
 62
    18
420
        0
176
     1
 90
       50
176
     1
 90
        3
176
     1
 62
     5
420
      255
176
     1
290
     0
176
     1
 90
       50
176
     1
 90
       50
176
     1
 90
       50
176
     1
290
     0
176
     1
 90
       50
176
     1
 62
   256
176
     0
 40
1.0
176
     0
 90
        2
176
     1
  1
strokes_ogs.tif
176
     1
290
     0
176
     1
 40
1.0
176
     1
 40
1.0
176
     1
1001
ACAD
1000
AcDbSavedByObjectVersion
1070
     0
  0
VISUALSTYLE
  5
2C
102
{ACAD_REACTORS
330
29
102
}
330
29
100
AcDbVisualStyle
  2
Gouraud
 70
     2
177
     3
291
     1
 70
    58
 90
        2
176
     1
 90
        2
176
     1
 90
        1
176
     1
 90
        2
176
     1
 40
0.6
176
     1
 40
30.0
176
     1
 62
     7
420
 16777215
176
     1
 90
        0
176
     1
 90
        0
176
     1
 62
     7
176
     1
 62
   257
176
     1
 90
        1
176
     1
 90
        1
176
     1
 40
1.0
176
     1
 90
        0
176
     1
 62
     7
176
     1
 40
1.0
176
     1
 90
        1
176
     1
 90
        6
176
     1
 90
        2
176
     1
 62
     7
176
     1
 90
        5
176
     1
 90
        0
176
     1
 90
        0
176
     1
290
     0
176
     1
 90
       13
176
     1
 40
0.0
176
     1
 90
        0
176
     1
290
     0
176
     1
290
     1
176
     1
290
     1
176
     1
290
     0
176
     1
290
     0
176
     1
290
     0
176
     1
290
     0
176
     1
290
     0
176
     1
290
     0
176
     1
 90
       50
176
     1
 40
0.0
176
     1
 40
1.0
176
     1
 90
        0
176
     1
 62
    18
420
        0
176
     1
 90
       50
176
     1
 90
        3
176
     1
 62
     5
420
      255
176
     1
290
     0
176
     1
 90
       50
176
     1
 90
       50
176
     1
 90
       50
176
     1
290
     0
176
     1
 90
       50
176
     1
 62
   256
176
     0
 40
1.0
176
     0
 90
        2
176
     1
  1
strokes_ogs.tif
176
     1
290
     0
176
     1
 40
1.0
176
     1
 40
1.0
176
     1
1001
ACAD
1000
AcDbSavedByObjectVersion
1070
     0
  0
VISUALSTYLE
  5
2D
102
{ACAD_REACTORS
330
29
102
}
330
29
100
AcDbVisualStyle
  2
GouraudWithEdges
 70
     3
177
     3
291
     1
 70
    58
 90
        2
176
     1
 90
        2
176
     1
 90
        1
176
     1
 90
        2
176
     1
 40
0.6
176
     1
 40
30.0
176
     1
 62
     7
420
 16777215
176
     1
 90
        1
176
     1
 90
        0
176
     1
 62
     7
176
     1
 62
   257
176
     1
 90
        1
176
     1
 90
        1
176
     1
 40
1.0
176
     1
 90
        0
176
     1
 62
   257
176
     1
 40
1.0
176
     1
 90
        1
176
     1
 90
        6
176
     1
 90
        2
176
     1
 62
     7
176
     1
 90
        5
176
     1
 90
        0
176
     1
 90
        0
176
     1
290
     0
176
     1
 90
       13
176
     1
 40
0.0
176
     1
 90
        0
176
     1
290
     0
176
     1
290
     1
176
     1
290
     1
176
     1
290
     0
176
     1
290
     0
176
     1
290
     0
176
     1
290
     0
176
     1
290
     0
176
     1
290
     0
176
     1
 90
       50
176
     1
 40
0.0
176
     1
 40
1.0
176
     1
 90
        0
176
     1
 62
    18
420
        0
176
     1
 90
       50
176
     1
 90
        3
176
     1
 62
     5
420
      255
176
     1
290
     0
176
     1
 90
       50
176
     1
 90
       50
176
     1
 90
       50
176
     1
290
     0
176
     1
 90
       50
176
     1
 62
   256
176
     0
 40
1.0
176
     0
 90
        2
176
     1
  1
strokes_ogs.tif
176
     1
290
     0
176
     1
 40
1.0
176
     1
 40
1.0
176
     1
1001
ACAD
1000
AcDbSavedByObjectVersion
1070
     0
  0
VISUALSTYLE
  5
31
102
{ACAD_REACTORS
330
29
102
}
330
29
100
AcDbVisualStyle
  2
Hidden
 70
     6
177
     3
291
     0
 70
    58
 90
        1
176
     1
 90
        2
176
     1
 90
        2
176
     1
 90
        0
176
     1
 40
0.6
176
     1
 40
30.0
176
     1
 62
     7
420
 16777215
176
     1
 90
        2
176
     1
 90
        2
176
     1
 62
     7
176
     1
 62
   257
176
     1
 90
        2
176
     1
 90
        1
176
     1
 40
40.0
176
     1
 90
        0
176
     1
 62
   257
176
     1
 40
1.0
176
     1
 90
        1
176
     1
 90
        6
176
     1
 90
        2
176
     1
 62
     7
176
     1
 90
        3
176
     1
 90
        0
176
     1
 90
        0
176
     1
290
     0
176
     1
 90
        1
176
     1
 40
0.0
176
     1
 90
        0
176
     1
290
     0
176
     1
290
     1
176
     1
290
     1
176
     1
290
     0
176
     1
290
     0
176
     1
290
     0
176
     1
290
     0
176
     1
290
     0
176
     1
290
     0
176
     1
 90
       50
176
     1
 40
0.0
176
     1
 40
1.0
176
     1
 90
        0
176
     1
 62
    18
420
        0
176
     1
 90
       50
176
     1
 90
        3
176
     1
 62
     5
420
      255
176
     1
290
     0
176
     1
 90
       50
176
     1
 90
       50
176
     1
 90
       50
176
     1
290
     0
176
     1
 90
       50
176
     1
 62
   256
176
     0
 40
1.0
176
     0
 90
        2
176
     1
  1
strokes_ogs.tif
176
     1
290
     0
176
     1
 40
1.0
176
     1
 40
1.0
176
     1
1001
ACAD
1000
AcDbSavedByObjectVersion
1070
     0
  0
VISUALSTYLE
  5
3F
102
{ACAD_REACTORS
330
29
102
}
330
29
100
AcDbVisualStyle
  2
JitterOff
 70
    20
177
     3
291
     1
 70
    58
 90
        2
176
     0
 90
        2
176
     0
 90
        0
176
     0
 90
        0
176
     0
 40
0.6
176
     0
 40
30.0
176
     0
 62
     7
420
 16777215
176
     0
 90
        1
176
     0
 90
        4
176
     0
 62
     7
176
     0
 62
   257
176
     0
 90
        1
176
     0
 90
        1
176
     0
 40
1.0
176
     0
 90
       10
176
     2
 62
     7
176
     0
 40
1.0
176
     0
 90
        1
176
     0
 90
        6
176
     0
 90
        2
176
     0
 62
     7
176
     0
 90
        5
176
     0
 90
        0
176
     0
 90
        0
176
     0
290
     0
176
     0
 90
        1
176
     0
 40
0.0
176
     0
 90
        0
176
     0
290
     0
176
     0
290
     1
176
     0
290
     1
176
     0
290
     0
176
     0
290
     0
176
     0
290
     0
176
     0
290
     0
176
     0
290
     0
176
     0
290
     0
176
     0
 90
       50
176
     0
 40
0.0
176
     0
 40
1.0
176
     0
 90
        0
176
     0
 62
    18
420
        0
176
     0
 90
       50
176
     0
 90
        3
176
     0
 62
     5
420
      255
176
     0
290
     0
176
     0
 90
       50
176
     0
 90
       50
176
     0
 90
       50
176
     0
290
     0
176
     0
 90
       50
176
     0
 62
   256
176
     0
 40
1.0
176
     0
 90
        2
176
     0
  1
strokes_ogs.tif
176
     0
290
     0
176
     0
 40
1.0
176
     0
 40
1.0
176
     0
1001
ACAD
1000
AcDbSavedByObjectVersion
1070
     0
  0
VISUALSTYLE
  5
37
102
{ACAD_REACTORS
330
29
102
}
330
29
100
AcDbVisualStyle
  2
Linepattern
 70
    14
177
     3
291
     1
 70
    58
 90
        2
176
     1
 90
        2
176
     1
 90
        0
176
     1
 90
        0
176
     1
 40
0.6
176
     1
 40
30.0
176
     1
 62
     7
420
 16777215
176
     1
 90
        1
176
     1
 90
        4
176
     1
 62
     7
176
     1
 62
   257
176
     1
 90
        7
176
     1
 90
        7
176
     1
 40
1.0
176
     1
 90
        8
176
     1
 62
     7
176
     1
 40
1.0
176
     1
 90
        1
176
     1
 90
        6
176
     1
 90
        2
176
     1
 62
     7
176
     1
 90
        5
176
     1
 90
        0
176
     1
 90
        0
176
     1
290
     0
176
     1
 90
        1
176
     1
 40
0.0
176
     1
 90
        0
176
     1
290
     0
176
     1
290
     1
176
     1
290
     1
176
     1
290
     0
176
     1
290
     0
176
     1
290
     0
176
     1
290
     0
176
     1
290
     0
176
     1
290
     0
176
     1
 90
       50
176
     1
 40
0.0
176
     1
 40
1.0
176
     1
 90
        0
176
     1
 62
    18
420
        0
176
     1
 90
       50
176
     1
 90
        3
176
     1
 62
     5
420
      255
176
     1
290
     0
176
     1
 90
       50
176
     1
 90
       50
176
     1
 90
       50
176
     1
290
     0
176
     1
 90
       50
176
     1
 62
   256
176
     0
 40
1.0
176
     0
 90
        2
176
     1
  1
strokes_ogs.tif
176
     1
290
     0
176
     1
 40
1.0
176
     1
 40
1.0
176
     1
1001
ACAD
1000
AcDbSavedByObjectVersion
1070
     0
  0
VISUALSTYLE
  5
40
102
{ACAD_REACTORS
330
29
102
}
330
29
100
AcDbVisualStyle
  2
OverhangOff
 70
    21
177
     3
291
     1
 70
    58
 90
        2
176
     0
 90
        2
176
     0
 90
        0
176
     0
 90
        0
176
     0
 40
0.6
176
     0
 40
30.0
176
     0
 62
     7
420
 16777215
176
     0
 90
        1
176
     0
 90
        4
176
     0
 62
     7
176
     0
 62
   257
176
     0
 90
        1
176
     0
 90
        1
176
     0
 40
1.0
176
     0
 90
        9
176
     2
 62
     7
176
     0
 40
1.0
176
     0
 90
        1
176
     0
 90
        6
176
     0
 90
        2
176
     0
 62
     7
176
     0
 90
        5
176
     0
 90
        0
176
     0
 90
        0
176
     0
290
     0
176
     0
 90
        1
176
     0
 40
0.0
176
     0
 90
        0
176
     0
290
     0
176
     0
290
     1
176
     0
290
     1
176
     0
290
     0
176
     0
290
     0
176
     0
290
     0
176
     0
290
     0
176
     0
290
     0
176
     0
290
     0
176
     0
 90
       50
176
     0
 40
0.0
176
     0
 40
1.0
176
     0
 90
        0
176
     0
 62
    18
420
        0
176
     0
 90
       50
176
     0
 90
        3
176
     0
 62
     5
420
      255
176
     0
290
     0
176
     0
 90
       50
176
     0
 90
       50
176
     0
 90
       50
176
     0
290
     0
176
     0
 90
       50
176
     0
 62
   256
176
     0
 40
1.0
176
     0
 90
        2
176
     0
  1
strokes_ogs.tif
176
     0
290
     0
176
     0
 40
1.0
176
     0
 40
1.0
176
     0
1001
ACAD
1000
AcDbSavedByObjectVersion
1070
     0
  0
VISUALSTYLE
  5
33
102
{ACAD_REACTORS
330
29
102
}
330
29
100
AcDbVisualStyle
  2
Realistic
 70
     8
177
     3
291
     0
 70
    58
 90
        2
176
     1
 90
        3
176
     1
 90
        0
176
     1
 90
        2
176
     1
 40
0.6
176
     1
 40
30.0
176
     1
 62
     7
420
 16777215
176
     1
 90
        0
176
     1
 90
        0
176
     1
 62
     7
176
     1
 62
   257
176
     1
 90
        1
176
     1
 90
        1
176
     1
 40
1.0
176
     1
 90
        8
176
     1
 62
   257
176
     1
 40
1.0
176
     1
 90
        1
176
     1
 90
        6
176
     1
 90
        2
176
     1
 62
     7
176
     1
 90
        3
176
     1
 90
        0
176
     1
 90
        0
176
     1
290
     0
176
     1
 90
       13
176
     1
 40
0.0
176
     1
 90
        0
176
     1
290
     0
176
     1
290
     1
176
     1
290
     1
176
     1
290
     0
176
     1
290
     0
176
     1
290
     0
176
     1
290
     0
176
     1
290
     0
176
     1
290
     0
176
     1
 90
       50
176
     1
 40
0.0
176
     1
 40
1.0
176
     1
 90
        0
176
     1
 62
    18
420
        0
176
     1
 90
       50
176
     1
 90
        3
176
     1
 62
     5
420
      255
176
     1
290
     0
176
     1
 90
       50
176
     1
 90
       50
176
     1
 90
       50
176
     1
290
     0
176
     1
 90
       50
176
     1
 62
   256
176
     0
 40
1.0
176
     0
 90
        2
176
     1
  1
strokes_ogs.tif
176
     1
290
     0
176
     1
 40
1.0
176
     1
 40
1.0
176
     1
1001
ACAD
1000
AcDbSavedByObjectVersion
1070
     0
  0
VISUALSTYLE
  5
3E
102
{ACAD_REACTORS
330
29
102
}
330
29
100
AcDbVisualStyle
  2
Shaded
 70
    27
177
     3
291
     0
 70
    58
 90
        2
176
     1
 90
        2
176
     1
 90
        1
176
     1
 90
        2
176
     1
 40
0.6
176
     1
 40
30.0
176
     1
 62
     7
420
 16777215
176
     1
 90
        0
176
     1
 90
        4
176
     1
 62
     7
176
     1
 62
   257
176
     1
 90
        1
176
     1
 90
        1
176
     1
 40
1.0
176
     1
 90
        8
176
     1
 62
   257
176
     1
 40
1.0
176
     1
 90
        1
176
     1
 90
        6
176
     1
 90
        2
176
     1
 62
     8
420
  7895160
176
     1
 90
        3
176
     1
 90
        0
176
     1
 90
        0
176
     1
290
     0
176
     1
 90
        5
176
     1
 40
0.0
176
     1
 90
        0
176
     1
290
     0
176
     1
290
     1
176
     1
290
     1
176
     1
290
     0
176
     1
290
     0
176
     1
290
     0
176
     1
290
     0
176
     1
290
     0
176
     1
290
     0
176
     1
 90
       50
176
     1
 40
0.0
176
     1
 40
1.0
176
     1
 90
        0
176
     1
 62
    18
420
        0
176
     1
 90
       50
176
     1
 90
        3
176
     1
 62
     5
420
      255
176
     1
290
     0
176
     1
 90
       50
176
     1
 90
       50
176
     1
 90
       50
176
     1
290
     0
176
     1
 90
       50
176
     1
 62
   256
176
     0
 40
1.0
176
     0
 90
        2
176
     1
  1
strokes_ogs.tif
176
     1
290
     0
176
     1
 40
1.0
176
     1
 40
1.0
176
     1
1001
ACAD
1000
AcDbSavedByObjectVersion
1070
     0
  0
VISUALSTYLE
  5
3D
102
{ACAD_REACTORS
330
29
102
}
330
29
100
AcDbVisualStyle
  2
Shaded with edges
 70
    26
177
     3
291
     0
 70
    58
 90
        2
176
     1
 90
        2
176
     1
 90
        1
176
     1
 90
        2
176
     1
 40
0.6
176
     1
 40
30.0
176
     1
 62
     7
420
 16777215
176
     1
 90
        1
176
     1
 90
        2
176
     1
 62
     7
176
     1
 62
   257
176
     1
 90
        2
176
     1
 90
        1
176
     1
 40
1.0
176
     1
 90
        8
176
     1
 62
   257
176
     1
 40
1.0
176
     1
 90
        1
176
     1
 90
        6
176
     1
 90
        2
176
     1
 62
     7
176
     1
 90
        3
176
     1
 90
        0
176
     1
 90
        0
176
     1
290
     0
176
     1
 90
        5
176
     1
 40
0.0
176
     1
 90
        0
176
     1
290
     0
176
     1
290
     1
176
     1
290
     1
176
     1
290
     0
176
     1
290
     0
176
     1
290
     0
176
     1
290
     0
176
     1
290
     0
176
     1
290
     0
176
     1
 90
       50
176
     1
 40
0.0
176
     1
 40
1.0
176
     1
 90
        0
176
     1
 62
    18
420
        0
176
     1
 90
       50
176
     1
 90
        3
176
     1
 62
     5
420
      255
176
     1
290
     0
176
     1
 90
       50
176
     1
 90
       50
176
     1
 90
       50
176
     1
290
     0
176
     1
 90
       50
176
     1
 62
   256
176
     0
 40
1.0
176
     0
 90
        2
176
     1
  1
strokes_ogs.tif
176
     1
290
     0
176
     1
 40
1.0
176
     1
 40
1.0
176
     1
1001
ACAD
1000
AcDbSavedByObjectVersion
1070
     0
  0
VISUALSTYLE
  5
3A
102
{ACAD_REACTORS
330
29
102
}
330
29
100
AcDbVisualStyle
  2
Shades of Gray
 70
    23
177
     3
291
     0
 70
    58
 90
        2
176
     1
 90
        2
176
     1
 90
        3
176
     1
 90
        0
176
     1
 40
0.6
176
     1
 40
30.0
176
     1
 62
     7
420
 16777215
176
     1
 90
        2
176
     1
 90
        2
176
     1
 62
     7
176
     1
 62
     7
176
     1
 90
        1
176
     1
 90
        1
176
     1
 40
40.0
176
     1
 90
        8
176
     1
 62
     7
176
     1
 40
1.0
176
     1
 90
        1
176
     1
 90
        6
176
     1
 90
        2
176
     1
 62
     7
176
     1
 90
        3
176
     1
 90
        0
176
     1
 90
        0
176
     1
290
     0
176
     1
 90
        1
176
     1
 40
0.0
176
     1
 90
        0
176
     1
290
     0
176
     1
290
     1
176
     1
290
     1
176
     1
290
     0
176
     1
290
     0
176
     1
290
     0
176
     1
290
     0
176
     1
290
     0
176
     1
290
     0
176
     1
 90
       50
176
     1
 40
0.0
176
     1
 40
1.0
176
     1
 90
        0
176
     1
 62
    18
420
        0
176
     1
 90
       50
176
     1
 90
        3
176
     1
 62
     5
420
      255
176
     1
290
     0
176
     1
 90
       50
176
     1
 90
       50
176
     1
 90
       50
176
     1
290
     0
176
     1
 90
       50
176
     1
 62
   256
176
     0
 40
1.0
176
     0
 90
        2
176
     1
  1
strokes_ogs.tif
176
     1
290
     0
176
     1
 40
1.0
176
     1
 40
1.0
176
     1
1001
ACAD
1000
AcDbSavedByObjectVersion
1070
     0
  0
VISUALSTYLE
  5
3B
102
{ACAD_REACTORS
330
29
102
}
330
29
100
AcDbVisualStyle
  2
Sketchy
 70
    24
177
     3
291
     0
 70
    58
 90
        1
176
     1
 90
        2
176
     1
 90
        2
176
     1
 90
        0
176
     1
 40
0.6
176
     1
 40
30.0
176
     1
 62
     7
420
 16777215
176
     1
 90
        2
176
     1
 90
        2
176
     1
 62
     7
176
     1
 62
     7
176
     1
 90
        1
176
     1
 90
        1
176
     1
 40
40.0
176
     1
 90
       11
176
     1
 62
     7
176
     1
 40
1.0
176
     1
 90
        1
176
     1
 90
        6
176
     1
 90
        2
176
     1
 62
     7
176
     1
 90
        6
176
     1
 90
        0
176
     1
 90
        0
176
     1
290
     0
176
     1
 90
        1
176
     1
 40
0.0
176
     1
 90
        0
176
     1
290
     0
176
     1
290
     1
176
     1
290
     1
176
     1
290
     0
176
     1
290
     0
176
     1
290
     0
176
     1
290
     0
176
     1
290
     0
176
     1
290
     0
176
     1
 90
       50
176
     1
 40
0.0
176
     1
 40
1.0
176
     1
 90
        0
176
     1
 62
    18
420
        0
176
     1
 90
       50
176
     1
 90
        3
176
     1
 62
     5
420
      255
176
     1
290
     0
176
     1
 90
       50
176
     1
 90
       50
176
     1
 90
       50
176
     1
290
     0
176
     1
 90
       50
176
     1
 62
   256
176
     0
 40
1.0
176
     0
 90
        2
176
     1
  1
strokes_ogs.tif
176
     1
290
     0
176
     1
 40
1.0
176
     1
 40
1.0
176
     1
1001
ACAD
1000
AcDbSavedByObjectVersion
1070
     0
  0
VISUALSTYLE
  5
36
102
{ACAD_REACTORS
330
29
102
}
330
29
100
AcDbVisualStyle
  2
Thicken
 70
    13
177
     3
291
     1
 70
    58
 90
        2
176
     1
 90
        2
176
     1
 90
        0
176
     1
 90
        0
176
     1
 40
0.6
176
     1
 40
30.0
176
     1
 62
     7
420
 16777215
176
     1
 90
        1
176
     1
 90
        4
176
     1
 62
     7
176
     1
 62
   257
176
     1
 90
        1
176
     1
 90
        1
176
     1
 40
1.0
176
     1
 90
       12
176
     1
 62
     7
176
     1
 40
1.0
176
     1
 90
        1
176
     1
 90
        6
176
     1
 90
        2
176
     1
 62
     7
176
     1
 90
        5
176
     1
 90
        0
176
     1
 90
        0
176
     1
290
     0
176
     1
 90
        1
176
     1
 40
0.0
176
     1
 90
        0
176
     1
290
     0
176
     1
290
     1
176
     1
290
     1
176
     1
290
     0
176
     1
290
     0
176
     1
290
     0
176
     1
290
     0
176
     1
290
     0
176
     1
290
     0
176
     1
 90
       50
176
     1
 40
0.0
176
     1
 40
1.0
176
     1
 90
        0
176
     1
 62
    18
420
        0
176
     1
 90
       50
176
     1
 90
        3
176
     1
 62
     5
420
      255
176
     1
290
     0
176
     1
 90
       50
176
     1
 90
       50
176
     1
 90
       50
176
     1
290
     0
176
     1
 90
       50
176
     1
 62
   256
176
     0
 40
1.0
176
     0
 90
        2
176
     1
  1
strokes_ogs.tif
176
     1
290
     0
176
     1
 40
1.0
176
     1
 40
1.0
176
     1
1001
ACAD
1000
AcDbSavedByObjectVersion
1070
     0
  0
VISUALSTYLE
  5
30
102
{ACAD_REACTORS
330
29
102
}
330
29
100
AcDbVisualStyle
  2
Wireframe
 70
     5
177
     3
291
     0
 70
    58
 90
        0
176
     1
 90
        2
176
     1
 90
        0
176
     1
 90
        0
176
     1
 40
0.6
176
     1
 40
30.0
176
     1
 62
     7
420
 16777215
176
     1
 90
        1
176
     1
 90
        4
176
     1
 62
     7
176
     1
 62
   257
176
     1
 90
        1
176
     1
 90
        1
176
     1
 40
1.0
176
     1
 90
        0
176
     1
 62
   257
176
     1
 40
1.0
176
     1
 90
        1
176
     1
 90
        6
176
     1
 90
        2
176
     1
 62
     7
176
     1
 90
        3
176
     1
 90
        0
176
     1
 90
        0
176
     1
290
     0
176
     1
 90
        1
176
     1
 40
0.0
176
     1
 90
        0
176
     1
290
     0
176
     1
290
     1
176
     1
290
     1
176
     1
290
     0
176
     1
290
     0
176
     1
290
     0
176
     1
290
     0
176
     1
290
     0
176
     1
290
     0
176
     1
 90
       50
176
     1
 40
0.0
176
     1
 40
1.0
176
     1
 90
        0
176
     1
 62
    18
420
        0
176
     1
 90
       50
176
     1
 90
        3
176
     1
 62
     5
420
      255
176
     1
290
     0
176
     1
 90
       50
176
     1
 90
       50
176
     1
 90
       50
176
     1
290
     0
176
     1
 90
       50
176
     1
 62
   256
176
     0
 40
1.0
176
     0
 90
        2
176
     1
  1
strokes_ogs.tif
176
     1
290
     0
176
     1
 40
1.0
176
     1
 40
1.0
176
     1
1001
ACAD
1000
AcDbSavedByObjectVersion
1070
     0
  0
VISUALSTYLE
  5
3C
102
{ACAD_REACTORS
330
29
102
}
330
29
100
AcDbVisualStyle
  2
X-Ray
 70
    25
177
     3
291
     0
 70
    58
 90
        2
176
     1
 90
        2
176
     1
 90
        1
176
     1
 90
        1
176
     1
 40
0.5
176
     1
 40
30.0
176
     1
 62
     7
420
 16777215
176
     1
 90
        1
176
     1
 90
        0
176
     1
 62
     7
176
     1
 62
   257
176
     1
 90
        1
176
     1
 90
        1
176
     1
 40
1.0
176
     1
 90
        8
176
     1
 62
     7
176
     1
 40
1.0
176
     1
 90
        1
176
     1
 90
        6
176
     1
 90
        2
176
     1
 62
     7
176
     1
 90
        3
176
     1
 90
        0
176
     1
 90
        0
176
     1
290
     0
176
     1
 90
       13
176
     1
 40
0.0
176
     1
 90
        0
176
     1
290
     0
176
     1
290
     1
176
     1
290
     1
176
     1
290
     0
176
     1
290
     0
176
     1
290
     0
176
     1
290
     0
176
     1
290
     0
176
     1
290
     0
176
     1
 90
       50
176
     1
 40
0.0
176
     1
 40
1.0
176
     1
 90
        0
176
     1
 62
    18
420
        0
176
     1
 90
       50
176
     1
 90
        3
176
     1
 62
     5
420
      255
176
     1
290
     0
176
     1
 90
       50
176
     1
 90
       50
176
     1
 90
       50
176
     1
290
     0
176
     1
 90
       50
176
     1
 62
   256
176
     0
 40
1.0
176
     0
 90
        2
176
     1
  1
strokes_ogs.tif
176
     1
290
     0
176
     1
 40
1.0
176
     1
 40
1.0
176
     1
1001
ACAD
1000
AcDbSavedByObjectVersion
1070
     0
  0
DICTIONARYVAR
  5
22C
102
{ACAD_REACTORS
330
227
102
}
330
227
100
DictionaryVariables
280
     0
  1
1:1
  0
DICTIONARYVAR
  5
229
102
{ACAD_REACTORS
330
227
102
}
330
227
100
DictionaryVariables
280
     0
  1
STANDARD
  0
DICTIONARYVAR
  5
228
102
{ACAD_REACTORS
330
227
102
}
330
227
100
DictionaryVariables
280
     0
  1
STANDARD
  0
DICTIONARYVAR
  5
22A
102
{ACAD_REACTORS
330
227
102
}
330
227
100
DictionaryVariables
280
     0
  1
Imperial24
  0
DICTIONARYVAR
  5
22B
102
{ACAD_REACTORS
330
227
102
}
330
227
100
DictionaryVariables
280
     0
  1
Imperial24
  0
DICTIONARY
  5
232
330
6B
100
AcDbDictionary
280
     1
281
     1
  3
ACAD_XREC_ROUNDTRIP
360
233
  0
DICTIONARY
  5
1A
330
19
100
AcDbDictionary
280
     1
281
     1
  3
BUMPTILE
360
1C
  3
DIFFUSETILE
360
1B
  3
OPACITYTILE
360
1F
  3
REFLECTIONTILE
360
1E
  3
REFRACTIONTILE
360
20
  3
SPECULARTILE
360
1D
  0
DICTIONARY
  5
12
330
11
100
AcDbDictionary
280
     1
281
     1
  3
BUMPTILE
360
14
  3
DIFFUSETILE
360
13
  3
OPACITYTILE
360
17
  3
REFLECTIONTILE
360
16
  3
REFRACTIONTILE
360
18
  3
SPECULARTILE
360
15
  0
DICTIONARY
  5
22
330
21
100
AcDbDictionary
280
     1
281
     1
  3
BUMPTILE
360
24
  3
DIFFUSETILE
360
23
  3
OPACITYTILE
360
27
  3
REFLECTIONTILE
360
26
  3
REFRACTIONTILE
360
28
  3
SPECULARTILE
360
25
  0
DICTIONARY
  5
230
330
69
100
AcDbDictionary
280
     1
281
     1
  3
ACAD_XREC_ROUNDTRIP
360
231
  0
DICTIONARY
  5
22D
330
65
100
AcDbDictionary
280
     1
281
     1
  3
ACAD_ROUNDTRIP_2008_TABLESTYLE_CELLSTYLEMAP
360
22E
  0
XRECORD
  5
233
102
{ACAD_REACTORS
330
232
102
}
330
232
100
AcDbXrecord
280
     1
102
DISPLAYNAME
  1
Imperial24
102
FLAGS
 90
        0
  0
XRECORD
  5
1C
102
{ACAD_REACTORS
330
1A
102
}
330
1A
100
AcDbXrecord
280
     1
270
     1
271
     1
  0
XRECORD
  5
1B
102
{ACAD_REACTORS
330
1A
102
}
330
1A
100
AcDbXrecord
280
     1
270
     1
271
     1
  0
XRECORD
  5
1F
102
{ACAD_REACTORS
330
1A
102
}
330
1A
100
AcDbXrecord
280
     1
270
     1
271
     1
  0
XRECORD
  5
1E
102
{ACAD_REACTORS
330
1A
102
}
330
1A
100
AcDbXrecord
280
     1
270
     1
271
     1
  0
XRECORD
  5
20
102
{ACAD_REACTORS
330
1A
102
}
330
1A
100
AcDbXrecord
280
     1
270
     1
271
     1
  0
XRECORD
  5
1D
102
{ACAD_REACTORS
330
1A
102
}
330
1A
100
AcDbXrecord
280
     1
270
     1
271
     1
  0
XRECORD
  5
14
102
{ACAD_REACTORS
330
12
102
}
330
12
100
AcDbXrecord
280
     1
270
     1
271
     1
  0
XRECORD
  5
13
102
{ACAD_REACTORS
330
12
102
}
330
12
100
AcDbXrecord
280
     1
270
     1
271
     1
  0
XRECORD
  5
17
102
{ACAD_REACTORS
330
12
102
}
330
12
100
AcDbXrecord
280
     1
270
     1
271
     1
  0
XRECORD
  5
16
102
{ACAD_REACTORS
330
12
102
}
330
12
100
AcDbXrecord
280
     1
270
     1
271
     1
  0
XRECORD
  5
18
102
{ACAD_REACTORS
330
12
102
}
330
12
100
AcDbXrecord
280
     1
270
     1
271
     1
  0
XRECORD
  5
15
102
{ACAD_REACTORS
330
12
102
}
330
12
100
AcDbXrecord
280
     1
270
     1
271
     1
  0
XRECORD
  5
24
102
{ACAD_REACTORS
330
22
102
}
330
22
100
AcDbXrecord
280
     1
270
     1
271
     1
  0
XRECORD
  5
23
102
{ACAD_REACTORS
330
22
102
}
330
22
100
AcDbXrecord
280
     1
270
     1
271
     1
  0
XRECORD
  5
27
102
{ACAD_REACTORS
330
22
102
}
330
22
100
AcDbXrecord
280
     1
270
     1
271
     1
  0
XRECORD
  5
26
102
{ACAD_REACTORS
330
22
102
}
330
22
100
AcDbXrecord
280
     1
270
     1
271
     1
  0
XRECORD
  5
28
102
{ACAD_REACTORS
330
22
102
}
330
22
100
AcDbXrecord
280
     1
270
     1
271
     1
  0
XRECORD
  5
25
102
{ACAD_REACTORS
330
22
102
}
330
22
100
AcDbXrecord
280
     1
270
     1
271
     1
  0
XRECORD
  5
231
102
{ACAD_REACTORS
330
230
102
}
330
230
100
AcDbXrecord
280
     1
102
DISPLAYNAME
  1
Imperial24
102
FLAGS
 90
        0
  0
CELLSTYLEMAP
  5
22E
102
{ACAD_REACTORS
330
22D
102
}
330
22D
100
AcDbCellStyleMap
 90
        3
300
CELLSTYLE
  1
TABLEFORMAT_BEGIN
 90
        5
170
     1
 91
        0
 92
    32768
 62
   257
 93
        1
300
CONTENTFORMAT
  1
CONTENTFORMAT_BEGIN
 90
        0
 91
        0
 92
      512
 93
        0
300

 40
0.0
140
1.0
 94
        5
 62
     0
340
55
144
0.25
309
CONTENTFORMAT_END
171
     0
 94
        0
309
TABLEFORMAT_END
  1
CELLSTYLE_BEGIN
 90
        1
 91
        1
300
_TITLE
309
CELLSTYLE_END
300
CELLSTYLE
  1
TABLEFORMAT_BEGIN
 90
        5
170
     1
 91
        0
 92
        0
 62
   257
 93
        1
300
CONTENTFORMAT
  1
CONTENTFORMAT_BEGIN
 90
        0
 91
        0
 92
      512
 93
        0
300

 40
0.0
140
1.0
 94
        5
 62
     0
340
55
144
0.18
309
CONTENTFORMAT_END
171
     0
 94
        0
309
TABLEFORMAT_END
  1
CELLSTYLE_BEGIN
 90
        2
 91
        1
300
_HEADER
309
CELLSTYLE_END
300
CELLSTYLE
  1
TABLEFORMAT_BEGIN
 90
        5
170
     1
 91
        0
 92
        0
 62
   257
 93
        1
300
CONTENTFORMAT
  1
CONTENTFORMAT_BEGIN
 90
        0
 91
        0
 92
      512
 93
        0
300

 40
0.0
140
1.0
 94
        2
 62
     0
340
55
144
0.18
309
CONTENTFORMAT_END
171
     0
 94
        0
309
TABLEFORMAT_END
  1
CELLSTYLE_BEGIN
 90
        3
 91
        2
300
_DATA
309
CELLSTYLE_END
  0
ENDSEC
  0
EOF
