  0
SECTION
  2
HEADER
  9
$ACADVER
  1
AC1027
  9
$ACADMAINTVER
 70
   125
  9
$DWGCODEPAGE
  3
ANSI_1252
  9
$REQUIREDVERSIONS
160
                 0
  9
$INSBASE
 10
0.0
 20
0.0
 30
0.0
  9
$EXTMIN
 10
1.000000000000000E+20
 20
1.000000000000000E+20
 30
1.000000000000000E+20
  9
$EXTMAX
 10
-1.000000000000000E+20
 20
-1.000000000000000E+20
 30
-1.000000000000000E+20
  9
$LIMMIN
 10
0.0
 20
0.0
  9
$LIMMAX
 10
12.0
 20
9.0
  9
$ORTHOMODE
 70
     0
  9
$REGENMODE
 70
     1
  9
$FILLMODE
 70
     1
  9
$QTEXTMODE
 70
     0
  9
$MIRRTEXT
 70
     0
  9
$LTSCALE
 40
1.0
  9
$ATTMODE
 70
     1
  9
$TEXTSIZE
 40
0.2
  9
$TRACEWID
 40
0.05
  9
$TEXTSTYLE
  7
Standard
  9
$CLAYER
  8
0
  9
$CELTYPE
  6
ByLayer
  9
$CECOLOR
 62
   256
  9
$CELTSCALE
 40
1.0
  9
$DISPSILH
 70
     0
  9
$DIMSCALE
 40
1.0
  9
$DIMASZ
 40
0.18
  9
$DIMEXO
 40
0.0625
  9
$DIMDLI
 40
0.38
  9
$DIMRND
 40
0.0
  9
$DIMDLE
 40
0.0
  9
$DIMEXE
 40
0.18
  9
$DIMTP
 40
0.0
  9
$DIMTM
 40
0.0
  9
$DIMTXT
 40
0.18
  9
$DIMCEN
 40
0.09
  9
$DIMTSZ
 40
0.0
  9
$DIMTOL
 70
     0
  9
$DIMLIM
 70
     0
  9
$DIMTIH
 70
     1
  9
$DIMTOH
 70
     1
  9
$DIMSE1
 70
     0
  9
$DIMSE2
 70
     0
  9
$DIMTAD
 70
     0
  9
$DIMZIN
 70
     0
  9
$DIMBLK
  1

  9
$DIMASO
 70
     1
  9
$DIMSHO
 70
     1
  9
$DIMPOST
  1

  9
$DIMAPOST
  1

  9
$DIMALT
 70
     0
  9
$DIMALTD
 70
     2
  9
$DIMALTF
 40
25.4
  9
$DIMLFAC
 40
1.0
  9
$DIMTOFL
 70
     0
  9
$DIMTVP
 40
0.0
  9
$DIMTIX
 70
     0
  9
$DIMSOXD
 70
     0
  9
$DIMSAH
 70
     0
  9
$DIMBLK1
  1

  9
$DIMBLK2
  1

  9
$DIMSTYLE
  2
Standard
  9
$DIMCLRD
 70
     0
  9
$DIMCLRE
 70
     0
  9
$DIMCLRT
 70
     0
  9
$DIMTFAC
 40
1.0
  9
$DIMGAP
 40
0.09
  9
$DIMJUST
 70
     0
  9
$DIMSD1
 70
     0
  9
$DIMSD2
 70
     0
  9
$DIMTOLJ
 70
     1
  9
$DIMTZIN
 70
     0
  9
$DIMALTZ
 70
     0
  9
$DIMALTTZ
 70
     0
  9
$DIMUPT
 70
     0
  9
$DIMDEC
 70
     4
  9
$DIMTDEC
 70
     4
  9
$DIMALTU
 70
     2
  9
$DIMALTTD
 70
     2
  9
$DIMTXSTY
  7
Standard
  9
$DIMAUNIT
 70
     0
  9
$DIMADEC
 70
     0
  9
$DIMALTRND
 40
0.0
  9
$DIMAZIN
 70
     0
  9
$DIMDSEP
 70
    46
  9
$DIMATFIT
 70
     3
  9
$DIMFRAC
 70
     0
  9
$DIMLDRBLK
  1

  9
$DIMLUNIT
 70
     2
  9
$DIMLWD
 70
    -2
  9
$DIMLWE
 70
    -2
  9
$DIMTMOVE
 70
     0
  9
$DIMFXL
 40
1.0
  9
$DIMFXLON
 70
     0
  9
$DIMJOGANG
 40
0.7853981633974483
  9
$DIMTFILL
 70
     0
  9
$DIMTFILLCLR
 70
     0
  9
$DIMARCSYM
 70
     0
  9
$DIMLTYPE
  6

  9
$DIMLTEX1
  6

  9
$DIMLTEX2
  6

  9
$DIMTXTDIRECTION
 70
     0
  9
$LUNITS
 70
     2
  9
$LUPREC
 70
     4
  9
$SKETCHINC
 40
0.1
  9
$FILLETRAD
 40
0.0
  9
$AUNITS
 70
     0
  9
$AUPREC
 70
     0
  9
$MENU
  1
.
  9
$ELEVATION
 40
0.0
  9
$PELEVATION
 40
0.0
  9
$THICKNESS
 40
0.0
  9
$LIMCHECK
 70
     0
  9
$CHAMFERA
 40
0.0
  9
$CHAMFERB
 40
0.0
  9
$CHAMFERC
 40
0.0
  9
$CHAMFERD
 40
0.0
  9
$SKPOLY
 70
     0
  9
$TDCREATE
 40
2459042.719282408
  9
$TDUCREATE
 40
2459042.719282408
  9
$TDUPDATE
 40
2459042.719282408
  9
$TDUUPDATE
 40
2459042.719282408
  9
$TDINDWG
 40
0.0000000000
  9
$TDUSRTIMER
 40
0.0000000000
  9
$USRTIMER
 70
     1
  9
$ANGBASE
 50
0.0
  9
$ANGDIR
 70
     0
  9
$PDMODE
 70
     0
  9
$PDSIZE
 40
0.0
  9
$PLINEWID
 40
0.0
  9
$SPLFRAME
 70
     0
  9
$SPLINETYPE
 70
     6
  9
$SPLINESEGS
 70
     8
  9
$HANDSEED
  5
236
  9
$SURFTAB1
 70
     6
  9
$SURFTAB2
 70
     6
  9
$SURFTYPE
 70
     6
  9
$SURFU
 70
     6
  9
$SURFV
 70
     6
  9
$UCSBASE
  2

  9
$UCSNAME
  2

  9
$UCSORG
 10
0.0
 20
0.0
 30
0.0
  9
$UCSXDIR
 10
1.0
 20
0.0
 30
0.0
  9
$UCSYDIR
 10
0.0
 20
1.0
 30
0.0
  9
$UCSORTHOREF
  2

  9
$UCSORTHOVIEW
 70
     0
  9
$UCSORGTOP
 10
0.0
 20
0.0
 30
0.0
  9
$UCSORGBOTTOM
 10
0.0
 20
0.0
 30
0.0
  9
$UCSORGLEFT
 10
0.0
 20
0.0
 30
0.0
  9
$UCSORGRIGHT
 10
0.0
 20
0.0
 30
0.0
  9
$UCSORGFRONT
 10
0.0
 20
0.0
 30
0.0
  9
$UCSORGBACK
 10
0.0
 20
0.0
 30
0.0
  9
$PUCSBASE
  2

  9
$PUCSNAME
  2

  9
$PUCSORG
 10
0.0
 20
0.0
 30
0.0
  9
$PUCSXDIR
 10
1.0
 20
0.0
 30
0.0
  9
$PUCSYDIR
 10
0.0
 20
1.0
 30
0.0
  9
$PUCSORTHOREF
  2

  9
$PUCSORTHOVIEW
 70
     0
  9
$PUCSORGTOP
 10
0.0
 20
0.0
 30
0.0
  9
$PUCSORGBOTTOM
 10
0.0
 20
0.0
 30
0.0
  9
$PUCSORGLEFT
 10
0.0
 20
0.0
 30
0.0
  9
$PUCSORGRIGHT
 10
0.0
 20
0.0
 30
0.0
  9
$PUCSORGFRONT
 10
0.0
 20
0.0
 30
0.0
  9
$PUCSORGBACK
 10
0.0
 20
0.0
 30
0.0
  9
$USERI1
 70
     0
  9
$USERI2
 70
     0
  9
$USERI3
 70
     0
  9
$USERI4
 70
     0
  9
$USERI5
 70
     0
  9
$USERR1
 40
0.0
  9
$USERR2
 40
0.0
  9
$USERR3
 40
0.0
  9
$USERR4
 40
0.0
  9
$USERR5
 40
0.0
  9
$WORLDVIEW
 70
     1
  9
$SHADEDGE
 70
     3
  9
$SHADEDIF
 70
    70
  9
$TILEMODE
 70
     1
  9
$MAXACTVP
 70
    64
  9
$PINSBASE
 10
0.0
 20
0.0
 30
0.0
  9
$PLIMCHECK
 70
     0
  9
$PEXTMIN
 10
1.000000000000000E+20
 20
1.000000000000000E+20
 30
1.000000000000000E+20
  9
$PEXTMAX
 10
-1.000000000000000E+20
 20
-1.000000000000000E+20
 30
-1.000000000000000E+20
  9
$PLIMMIN
 10
0.0
 20
0.0
  9
$PLIMMAX
 10
12.0
 20
9.0
  9
$UNITMODE
 70
     0
  9
$VISRETAIN
 70
     1
  9
$PLINEGEN
 70
     0
  9
$PSLTSCALE
 70
     1
  9
$TREEDEPTH
 70
  3020
  9
$CMLSTYLE
  2
Standard
  9
$CMLJUST
 70
     0
  9
$CMLSCALE
 40
1.0
  9
$PROXYGRAPHICS
 70
     1
  9
$MEASUREMENT
 70
     0
  9
$CELWEIGHT
370
    -1
  9
$ENDCAPS
280
     0
  9
$JOINSTYLE
280
     0
  9
$LWDISPLAY
290
     0
  9
$INSUNITS
 70
     5
  9
$HYPERLINKBASE
  1

  9
$STYLESHEET
  1

  9
$XEDIT
290
     1
  9
$CEPSNTYPE
380
     0
  9
$PSTYLEMODE
290
     1
  9
$FINGERPRINTGUID
  2
{99A23EC7-DC89-6746-8469-5DB5D3C4B5E8}
  9
$VERSIONGUID
  2
{39BCDEEE-D1FA-1847-BCDC-D92ABD18A82B}
  9
$EXTNAMES
290
     1
  9
$PSVPSCALE
 40
0.0
  9
$OLESTARTUP
290
     0
  9
$SORTENTS
280
   127
  9
$INDEXCTL
280
     0
  9
$HIDETEXT
280
     1
  9
$XCLIPFRAME
280
     2
  9
$HALOGAP
280
     0
  9
$OBSCOLOR
 70
   257
  9
$OBSLTYPE
280
     0
  9
$INTERSECTIONDISPLAY
280
     0
  9
$INTERSECTIONCOLOR
 70
   257
  9
$DIMASSOC
280
     2
  9
$PROJECTNAME
  1

  9
$CAMERADISPLAY
290
     0
  9
$LENSLENGTH
 40
50.0
  9
$CAMERAHEIGHT
 40
0.0
  9
$STEPSPERSEC
 40
2.0
  9
$STEPSIZE
 40
6.0
  9
$3DDWFPREC
 40
2.0
  9
$PSOLWIDTH
 40
0.25
  9
$PSOLHEIGHT
 40
4.0
  9
$LOFTANG1
 40
1.570796326794896
  9
$LOFTANG2
 40
1.570796326794896
  9
$LOFTMAG1
 40
0.0
  9
$LOFTMAG2
 40
0.0
  9
$LOFTPARAM
 70
     7
  9
$LOFTNORMALS
280
     1
  9
$LATITUDE
 40
37.795
  9
$LONGITUDE
 40
-122.394
  9
$NORTHDIRECTION
 40
0.0
  9
$TIMEZONE
 70
 -8000
  9
$LIGHTGLYPHDISPLAY
280
     1
  9
$TILEMODELIGHTSYNCH
280
     1
  9
$CMATERIAL
347
11
  9
$SOLIDHIST
280
     0
  9
$SHOWHIST
280
     1
  9
$DWFFRAME
280
     2
  9
$DGNFRAME
280
     0
  9
$REALWORLDSCALE
290
     1
  9
$INTERFERECOLOR
 62
     1
  9
$INTERFEREOBJVS
345
33
  9
$INTERFEREVPVS
346
30
  9
$CSHADOW
280
     0
  9
$SHADOWPLANELOCATION
 40
0.0
  0
ENDSEC
  0
SECTION
  2
CLASSES
  0
CLASS
  1
ACDBDICTIONARYWDFLT
  2
AcDbDictionaryWithDefault
  3
ObjectDBX Classes
 90
        0
 91
        1
280
     0
281
     0
  0
CLASS
  1
MATERIAL
  2
AcDbMaterial
  3
ObjectDBX Classes
 90
     1153
 91
        3
280
     0
281
     0
  0
CLASS
  1
VISUALSTYLE
  2
AcDbVisualStyle
  3
ObjectDBX Classes
 90
     4095
 91
       24
280
     0
281
     0
  0
CLASS
  1
SCALE
  2
AcDbScale
  3
ObjectDBX Classes
 90
     1153
 91
       17
280
     0
281
     0
  0
CLASS
  1
TABLESTYLE
  2
AcDbTableStyle
  3
ObjectDBX Classes
 90
     4095
 91
        1
280
     0
281
     0
  0
CLASS
  1
MLEADERSTYLE
  2
AcDbMLeaderStyle
  3
ACDB_MLEADERSTYLE_CLASS
 90
     4095
 91
        1
280
     0
281
     0
  0
CLASS
  1
ACDBSECTIONVIEWSTYLE
  2
AcDbSectionViewStyle
  3
ObjectDBX Classes
 90
     1025
 91
        1
280
     0
281
     0
  0
CLASS
  1
ACDBDETAILVIEWSTYLE
  2
AcDbDetailViewStyle
  3
ObjectDBX Classes
 90
     1025
 91
        1
280
     0
281
     0
  0
CLASS
  1
DICTIONARYVAR
  2
AcDbDictionaryVar
  3
ObjectDBX Classes
 90
        0
 91
        5
280
     0
281
     0
  0
CLASS
  1
CELLSTYLEMAP
  2
AcDbCellStyleMap
  3
ObjectDBX Classes
 90
     1152
 91
        1
280
     0
281
     0
  0
ENDSEC
  0
SECTION
  2
TABLES
  0
TABLE
  2
VPORT
  5
8
330
0
100
AcDbSymbolTable
 70
     1
1001
ACAD
1000
DbSaveVer
1071
      224
  0
VPORT
  5
57
330
8
100
AcDbSymbolTableRecord
100
AcDbViewportTableRecord
  2
*Active
 70
     0
 10
0.0
 20
0.0
 11
1.0
 21
1.0
 12
500.0
 22
500.0
 13
0.0
 23
0.0
 14
1.0
 24
1.0
 15
0.0
 25
0.0
 16
0.0
 26
0.0
 36
1.0
 17
0.0
 27
0.0
 37
0.0
 40
12.0
 41
1.0
 42
50.0
 43
0.0
 44
0.0
 50
0.0
 51
0.0
 71
     0
 72
   100
 73
     1
 74
     1
 75
     0
 76
     0
 77
     0
 78
     0
281
     0
 65
     1
110
0.0
120
0.0
130
0.0
111
1.0
121
0.0
131
0.0
112
0.0
122
1.0
132
0.0
 79
     0
146
0.0
 60
     3
 61
     5
292
     1
282
     1
141
0.0
142
0.0
 63
   250
421
  3355443
  0
ENDTAB
  0
TABLE
  2
LTYPE
  5
5
330
0
100
AcDbSymbolTable
 70
     1
  0
LTYPE
  5
5B
330
5
100
AcDbSymbolTableRecord
100
AcDbLinetypeTableRecord
  2
ByBlock
 70
     0
  3

 72
    65
 73
     0
 40
0.0
  0
LTYPE
  5
5C
330
5
100
AcDbSymbolTableRecord
100
AcDbLinetypeTableRecord
  2
ByLayer
 70
     0
  3

 72
    65
 73
     0
 40
0.0
  0
LTYPE
  5
5D
330
5
100
AcDbSymbolTableRecord
100
AcDbLinetypeTableRecord
  2
Continuous
 70
     0
  3
Solid line
 72
    65
 73
     0
 40
0.0
  0
ENDTAB
  0
TABLE
  2
LAYER
  5
2
330
0
100
AcDbSymbolTable
 70
     8
  0
LAYER
  5
54
330
2
100
AcDbSymbolTableRecord
100
AcDbLayerTableRecord
  2
0
 70
     0
 62
     7
  6
Continuous
370
    -3
390
F
347
21
348
0
  0
LAYER
  5
7A
330
2
100
AcDbSymbolTableRecord
100
AcDbLayerTableRecord
  2
Ringo-Row-keyboard v13 v4_Ringo-Row-keyboard v13_Sketch1
 70
     0
 62
     7
  6
Continuous
370
    -3
390
F
347
21
348
0
1001
NFusion_SketchTransform
1000
1.000000;0.000000;0.000000;0.000000;0.000000;1.000000;0.000000;0.000000;0.000000;0.000000;1.000000;0.000000;0.000000;0.000000;0.000000;1.000000
  0
LAYER
  5
7C
330
2
100
AcDbSymbolTableRecord
100
AcDbLayerTableRecord
  2
Ringo-Row-keyboard v13 v4_Ringo-Row-keyboard v13_Sketch2
 70
     0
 62
     7
  6
Continuous
370
    -3
390
F
347
21
348
0
1001
NFusion_SketchTransform
1000
1.000000;0.000000;0.000000;0.000000;0.000000;1.000000;0.000000;0.000000;0.000000;0.000000;1.000000;0.000000;0.000000;0.000000;0.000000;1.000000
  0
LAYER
  5
7E
330
2
100
AcDbSymbolTableRecord
100
AcDbLayerTableRecord
  2
Ringo-Row-keyboard v13 v4_Ringo-Row-keyboard v13_Sketch3
 70
     0
 62
     7
  6
Continuous
370
    -3
390
F
347
21
348
0
1001
NFusion_SketchTransform
1000
1.000000;0.000000;0.000000;0.000000;0.000000;1.000000;0.000000;0.000000;0.000000;0.000000;1.000000;0.000000;0.000000;0.000000;0.000000;1.000000
  0
LAYER
  5
80
330
2
100
AcDbSymbolTableRecord
100
AcDbLayerTableRecord
  2
Ringo-Row-keyboard v13 v4_Ringo-Row-keyboard v13_Sketch4
 70
     0
 62
     7
  6
Continuous
370
    -3
390
F
347
21
348
0
1001
NFusion_SketchTransform
1000
1.000000;0.000000;0.000000;0.299000;0.000000;1.000000;0.000000;-0.110000;0.000000;0.000000;1.000000;0.000000;0.000000;0.000000;0.000000;1.000000
  0
LAYER
  5
223
330
2
100
AcDbSymbolTableRecord
100
AcDbLayerTableRecord
  2
Ringo-Row-keyboard v13 v4_Ringo-Row-keyboard v13_Sketch6
 70
     0
 62
     7
  6
Continuous
370
    -3
390
F
347
21
348
0
1001
NFusion_SketchTransform
1000
1.000000;0.000000;0.000000;0.000000;0.000000;1.000000;0.000000;0.000000;0.000000;0.000000;1.000000;0.000000;0.000000;0.000000;0.000000;1.000000
  0
LAYER
  5
225
330
2
100
AcDbSymbolTableRecord
100
AcDbLayerTableRecord
  2
Ringo-Row-keyboard v13 v4_Ringo-Row-keyboard v13_Sketch7
 70
     0
 62
     7
  6
Continuous
370
    -3
390
F
347
21
348
0
1001
NFusion_SketchTransform
1000
1.000000;0.000000;0.000000;0.000000;0.000000;1.000000;0.000000;0.000000;0.000000;0.000000;1.000000;0.000000;0.000000;0.000000;0.000000;1.000000
  0
LAYER
  5
227
330
2
100
AcDbSymbolTableRecord
100
AcDbLayerTableRecord
  2
Ringo-Row-keyboard v13 v4_Ringo-Row-keyboard v13_Sketch8
 70
     0
 62
     7
  6
Continuous
370
    -3
390
F
347
21
348
0
1001
NFusion_SketchTransform
1000
1.000000;0.000000;0.000000;0.000000;0.000000;1.000000;0.000000;0.000000;0.000000;0.000000;1.000000;0.000000;0.000000;0.000000;0.000000;1.000000
  0
ENDTAB
  0
TABLE
  2
STYLE
  5
3
330
0
100
AcDbSymbolTable
 70
     2
  0
STYLE
  5
55
330
3
100
AcDbSymbolTableRecord
100
AcDbTextStyleTableRecord
  2
Standard
 70
     0
 40
0.0
 41
1.0
 50
0.0
 71
     0
 42
0.2
  3
txt
  4

  0
STYLE
  5
5A
330
3
100
AcDbSymbolTableRecord
100
AcDbTextStyleTableRecord
  2
Annotative
 70
     0
 40
0.0
 41
1.0
 50
0.0
 71
     0
 42
0.2
  3
txt
  4

1001
AcadAnnotative
1000
AnnotativeData
1002
{
1070
     1
1070
     1
1002
}
  0
ENDTAB
  0
TABLE
  2
VIEW
  5
6
330
0
100
AcDbSymbolTable
 70
     0
  0
ENDTAB
  0
TABLE
  2
UCS
  5
7
330
0
100
AcDbSymbolTable
 70
     0
  0
ENDTAB
  0
TABLE
  2
APPID
  5
9
330
0
100
AcDbSymbolTable
 70
     4
  0
APPID
  5
56
330
9
100
AcDbSymbolTableRecord
100
AcDbRegAppTableRecord
  2
ACAD
 70
     0
  0
APPID
  5
5E
330
9
100
AcDbSymbolTableRecord
100
AcDbRegAppTableRecord
  2
AcadAnnotative
 70
     0
  0
APPID
  5
78
330
9
100
AcDbSymbolTableRecord
100
AcDbRegAppTableRecord
  2
EDIT_IN_FUSION_ACAD_ADDIN
 70
     0
  0
APPID
  5
79
330
9
100
AcDbSymbolTableRecord
100
AcDbRegAppTableRecord
  2
NFusion_SketchTransform
 70
     0
  0
ENDTAB
  0
TABLE
  2
DIMSTYLE
  5
A
330
0
100
AcDbSymbolTable
 70
     2
100
AcDbDimStyleTable
 71
     0
  0
DIMSTYLE
105
58
330
A
100
AcDbSymbolTableRecord
100
AcDbDimStyleTableRecord
  2
Standard
 70
     0
340
55
  0
DIMSTYLE
105
59
330
A
100
AcDbSymbolTableRecord
100
AcDbDimStyleTableRecord
  2
Annotative
 70
     0
340
55
1001
AcadAnnotative
1000
AnnotativeData
1002
{
1070
     1
1070
     1
1002
}
  0
ENDTAB
  0
TABLE
  2
BLOCK_RECORD
  5
1
330
0
100
AcDbSymbolTable
 70
     1
  0
BLOCK_RECORD
  5
70
330
1
100
AcDbSymbolTableRecord
100
AcDbBlockTableRecord
  2
*Model_Space
340
73
 70
     0
280
     1
281
     0
  0
BLOCK_RECORD
  5
6C
330
1
100
AcDbSymbolTableRecord
100
AcDbBlockTableRecord
  2
*Paper_Space
340
6F
 70
     0
280
     1
281
     0
  0
BLOCK_RECORD
  5
74
330
1
100
AcDbSymbolTableRecord
100
AcDbBlockTableRecord
  2
*Paper_Space0
340
77
 70
     0
280
     1
281
     0
  0
ENDTAB
  0
ENDSEC
  0
SECTION
  2
BLOCKS
  0
BLOCK
  5
71
330
70
100
AcDbEntity
  8
0
100
AcDbBlockBegin
  2
*Model_Space
 70
     0
 10
0.0
 20
0.0
 30
0.0
  3
*Model_Space
  1

  0
ENDBLK
  5
72
330
70
100
AcDbEntity
  8
0
100
AcDbBlockEnd
  0
BLOCK
  5
6D
330
6C
100
AcDbEntity
 67
     1
  8
0
100
AcDbBlockBegin
  2
*Paper_Space
 70
     0
 10
0.0
 20
0.0
 30
0.0
  3
*Paper_Space
  1

  0
ENDBLK
  5
6E
330
6C
100
AcDbEntity
 67
     1
  8
0
100
AcDbBlockEnd
  0
BLOCK
  5
75
330
74
100
AcDbEntity
 67
     1
  8
0
100
AcDbBlockBegin
  2
*Paper_Space0
 70
     0
 10
0.0
 20
0.0
 30
0.0
  3
*Paper_Space0
  1

  0
ENDBLK
  5
76
330
74
100
AcDbEntity
 67
     1
  8
0
100
AcDbBlockEnd
  0
ENDSEC
  0
SECTION
  2
ENTITIES
  0
POINT
  5
7B
330
70
100
AcDbEntity
  8
Ringo-Row-keyboard v13 v4_Ringo-Row-keyboard v13_Sketch1
100
AcDbPoint
 10
0.0
 20
0.0
 30
0.0
  0
POINT
  5
7D
330
70
100
AcDbEntity
  8
Ringo-Row-keyboard v13 v4_Ringo-Row-keyboard v13_Sketch2
100
AcDbPoint
 10
0.0
 20
0.0
 30
0.0
  0
POINT
  5
7F
330
70
100
AcDbEntity
  8
Ringo-Row-keyboard v13 v4_Ringo-Row-keyboard v13_Sketch3
100
AcDbPoint
 10
0.0
 20
0.0
 30
0.0
  0
POINT
  5
81
330
70
100
AcDbEntity
  8
Ringo-Row-keyboard v13 v4_Ringo-Row-keyboard v13_Sketch4
100
AcDbPoint
 10
20.19462624584068
 20
-2.140521197484074
 30
0.0
  0
POINT
  5
82
330
70
100
AcDbEntity
  8
Ringo-Row-keyboard v13 v4_Ringo-Row-keyboard v13_Sketch4
100
AcDbPoint
 10
31.59042624584069
 20
-50.25652119748409
 30
0.0
  0
POINT
  5
83
330
70
100
AcDbEntity
  8
Ringo-Row-keyboard v13 v4_Ringo-Row-keyboard v13_Sketch4
100
AcDbPoint
 10
-56.82857375415932
 20
-2.140521197484074
 30
0.0
  0
POINT
  5
84
330
70
100
AcDbEntity
  8
Ringo-Row-keyboard v13 v4_Ringo-Row-keyboard v13_Sketch4
100
AcDbPoint
 10
118.0942262458407
 20
-48.88592119748409
 30
0.0
  0
POINT
  5
85
330
70
100
AcDbEntity
  8
Ringo-Row-keyboard v13 v4_Ringo-Row-keyboard v13_Sketch4
100
AcDbPoint
 10
118.0942062627152
 20
-48.88592997606711
 30
0.0
  0
POINT
  5
86
330
70
100
AcDbEntity
  8
Ringo-Row-keyboard v13 v4_Ringo-Row-keyboard v13_Sketch4
100
AcDbPoint
 10
1.431226245840662
 20
38.69177880251593
 30
0.0
  0
POINT
  5
87
330
70
100
AcDbEntity
  8
Ringo-Row-keyboard v13 v4_Ringo-Row-keyboard v13_Sketch4
100
AcDbPoint
 10
-126.7747737541593
 20
-45.18492119748408
 30
0.0
  0
POINT
  5
88
330
70
100
AcDbEntity
  8
Ringo-Row-keyboard v13 v4_Ringo-Row-keyboard v13_Sketch4
100
AcDbPoint
 10
132.0126262458406
 20
38.69177880251593
 30
0.0
  0
POINT
  5
89
330
70
100
AcDbEntity
  8
Ringo-Row-keyboard v13 v4_Ringo-Row-keyboard v13_Sketch4
100
AcDbPoint
 10
-39.63974502299296
 20
-50.31534454919208
 30
0.0
  0
POINT
  5
8A
330
70
100
AcDbEntity
  8
Ringo-Row-keyboard v13 v4_Ringo-Row-keyboard v13_Sketch4
100
AcDbPoint
 10
-139.1910737541593
 20
38.69177880251593
 30
0.0
  0
POINT
  5
8B
330
70
100
AcDbEntity
  8
Ringo-Row-keyboard v13 v4_Ringo-Row-keyboard v13_Sketch4
100
AcDbPoint
 10
-147.7376254752728
 20
63.48319826754676
 30
0.0
  0
POINT
  5
8C
330
70
100
AcDbEntity
  8
Ringo-Row-keyboard v13 v4_Ringo-Row-keyboard v13_Sketch4
100
AcDbPoint
 10
113.4884517574231
 20
-11.99069934506722
 30
0.0
  0
POINT
  5
8D
330
70
100
AcDbEntity
  8
Ringo-Row-keyboard v13 v4_Ringo-Row-keyboard v13_Sketch4
100
AcDbPoint
 10
31.59040626271522
 20
-50.25652997606711
 30
0.0
  0
LINE
  5
8E
330
70
100
AcDbEntity
  8
Ringo-Row-keyboard v13 v4_Ringo-Row-keyboard v13_Sketch4
100
AcDbLine
 10
-97.20780460540829
 20
-41.46250388607423
 30
0.0
 11
-94.68233464842029
 21
-41.46250388607423
 31
0.0
  0
LINE
  5
8F
330
70
100
AcDbEntity
  8
Ringo-Row-keyboard v13 v4_Ringo-Row-keyboard v13_Sketch4
100
AcDbLine
 10
78.3878443803028
 20
57.48449856220283
 30
0.0
 11
94.54295464037304
 21
57.48449856220283
 31
0.0
  0
CIRCLE
  5
90
330
70
100
AcDbEntity
  8
Ringo-Row-keyboard v13 v4_Ringo-Row-keyboard v13_Sketch4
100
AcDbCircle
 10
-30.35993410254855
 20
-50.25652997606711
 30
0.0
 40
1.230472160166667
210
0.0
220
0.0
230
-1.0
  0
LINE
  5
91
330
70
100
AcDbEntity
  8
Ringo-Row-keyboard v13 v4_Ringo-Row-keyboard v13_Sketch4
100
AcDbLine
 10
-54.26596827599656
 20
-46.53873526743082
 30
0.0
 11
-56.79143823298459
 21
-46.53873526743082
 31
0.0
  0
LINE
  5
92
330
70
100
AcDbEntity
  8
Ringo-Row-keyboard v13 v4_Ringo-Row-keyboard v13_Sketch4
100
AcDbLine
 10
27.15095464037316
 20
57.48449856220283
 30
0.0
 11
27.15095464037316
 21
44.34197224902471
 31
0.0
  0
LINE
  5
93
330
70
100
AcDbEntity
  8
Ringo-Row-keyboard v13 v4_Ringo-Row-keyboard v13_Sketch4
100
AcDbLine
 10
-27.44415561969687
 20
44.34197224902471
 30
0.0
 11
-27.44415561969687
 21
57.48449856220283
 31
0.0
  0
LINE
  5
94
330
70
100
AcDbEntity
  8
Ringo-Row-keyboard v13 v4_Ringo-Row-keyboard v13_Sketch4
100
AcDbLine
 10
-51.91736774743464
 20
-54.36927271482927
 30
0.0
 11
-51.91736774743465
 21
-59.41984005557619
 31
0.0
  0
LINE
  5
95
330
70
100
AcDbEntity
  8
Ringo-Row-keyboard v13 v4_Ringo-Row-keyboard v13_Sketch4
100
AcDbLine
 10
-51.91736774743465
 20
-59.41984005557619
 30
0.0
 11
-54.44283770442272
 21
-59.41984005557619
 31
0.0
  0
LINE
  5
96
330
70
100
AcDbEntity
  8
Ringo-Row-keyboard v13 v4_Ringo-Row-keyboard v13_Sketch4
100
AcDbLine
 10
-138.6250245633499
 20
-35.32083544740537
 30
0.0
 11
-135.9327505802057
 21
-35.32083544740537
 31
0.0
  0
LINE
  5
97
330
70
100
AcDbEntity
  8
Ringo-Row-keyboard v13 v4_Ringo-Row-keyboard v13_Sketch4
100
AcDbLine
 10
-56.79143823298459
 20
-46.53873526743082
 30
0.0
 11
-56.79143823298459
 21
-41.48567413360995
 31
0.0
  0
LINE
  5
98
330
70
100
AcDbEntity
  8
Ringo-Row-keyboard v13 v4_Ringo-Row-keyboard v13_Sketch4
100
AcDbLine
 10
109.2427559626911
 20
-6.522727870673158
 30
0.0
 11
109.2427559626911
 21
-4.503070944219949
 31
0.0
  0
LINE
  5
99
330
70
100
AcDbEntity
  8
Ringo-Row-keyboard v13 v4_Ringo-Row-keyboard v13_Sketch4
100
AcDbLine
 10
-50.34683833043231
 20
-51.32802543306108
 30
0.0
 11
-50.34683833043231
 21
-49.30551573786789
 31
0.0
  0
LINE
  5
9A
330
70
100
AcDbEntity
  8
Ringo-Row-keyboard v13 v4_Ringo-Row-keyboard v13_Sketch4
100
AcDbLine
 10
36.94102785035881
 20
-46.53088330744574
 30
0.0
 11
36.94102785035881
 21
-41.47995971054544
 31
0.0
  0
LINE
  5
9B
330
70
100
AcDbEntity
  8
Ringo-Row-keyboard v13 v4_Ringo-Row-keyboard v13_Sketch4
100
AcDbLine
 10
-110.13989209667
 20
-40.58456362645554
 30
0.0
 11
-110.13989209667
 21
-35.32083544740537
 31
0.0
  0
LINE
  5
9C
330
70
100
AcDbEntity
  8
Ringo-Row-keyboard v13 v4_Ringo-Row-keyboard v13_Sketch4
100
AcDbLine
 10
-54.26596827599656
 20
-41.48567413360995
 30
0.0
 11
-54.26596827599656
 21
-46.53873526743082
 31
0.0
  0
CIRCLE
  5
9D
330
70
100
AcDbEntity
  8
Ringo-Row-keyboard v13 v4_Ringo-Row-keyboard v13_Sketch4
100
AcDbCircle
 10
-110.2550760433815
 20
-11.99069934506722
 30
0.0
 40
3.233375714041666
210
0.0
220
0.0
230
-1.0
  0
LINE
  5
9E
330
70
100
AcDbEntity
  8
Ringo-Row-keyboard v13 v4_Ringo-Row-keyboard v13_Sketch4
100
AcDbLine
 10
-48.32682786733821
 20
-51.32802543306108
 30
0.0
 11
-50.34683833043231
 21
-51.32802543306108
 31
0.0
  0
LINE
  5
9F
330
70
100
AcDbEntity
  8
Ringo-Row-keyboard v13 v4_Ringo-Row-keyboard v13_Sketch4
100
AcDbLine
 10
109.2427559626911
 20
-17.4429906318318
 30
0.0
 11
111.2638542308338
 21
-17.4429906318318
 31
0.0
  0
LINE
  5
A0
330
70
100
AcDbEntity
  8
Ringo-Row-keyboard v13 v4_Ringo-Row-keyboard v13_Sketch4
100
AcDbLine
 10
109.2427559626911
 20
-4.503070944219949
 30
0.0
 11
111.2638542308338
 21
-4.503070944219949
 31
0.0
  0
LINE
  5
A1
330
70
100
AcDbEntity
  8
Ringo-Row-keyboard v13 v4_Ringo-Row-keyboard v13_Sketch4
100
AcDbLine
 10
111.2638542308338
 20
-4.503070944219949
 30
0.0
 11
111.2638542308338
 21
-6.522727870673158
 31
0.0
  0
LINE
  5
A2
330
70
100
AcDbEntity
  8
Ringo-Row-keyboard v13 v4_Ringo-Row-keyboard v13_Sketch4
100
AcDbLine
 10
-35.38049012993956
 20
-51.32802543306108
 30
0.0
 11
-37.40158839808214
 21
-51.32802543306108
 31
0.0
  0
LINE
  5
A3
330
70
100
AcDbEntity
  8
Ringo-Row-keyboard v13 v4_Ringo-Row-keyboard v13_Sketch4
100
AcDbLine
 10
7.930954640373215
 20
57.48449856220283
 30
0.0
 11
7.930954640373215
 21
44.34197224902471
 31
0.0
  0
LINE
  5
A4
330
70
100
AcDbEntity
  8
Ringo-Row-keyboard v13 v4_Ringo-Row-keyboard v13_Sketch4
100
AcDbLine
 10
-71.41209607264518
 20
-41.46250388607423
 30
0.0
 11
-73.93754427353226
 21
-41.46250388607423
 31
0.0
  0
LINE
  5
A5
330
70
100
AcDbEntity
  8
Ringo-Row-keyboard v13 v4_Ringo-Row-keyboard v13_Sketch4
100
AcDbLine
 10
111.2638542308338
 20
-6.522727870673158
 30
0.0
 11
109.2427559626911
 21
-6.522727870673158
 31
0.0
  0
LINE
  5
A6
330
70
100
AcDbEntity
  8
Ringo-Row-keyboard v13 v4_Ringo-Row-keyboard v13_Sketch4
100
AcDbLine
 10
-135.9327505802057
 20
-35.32083544740537
 30
0.0
 11
-135.9327505802057
 21
-40.58456362645554
 31
0.0
  0
CIRCLE
  5
A7
330
70
100
AcDbEntity
  8
Ringo-Row-keyboard v13 v4_Ringo-Row-keyboard v13_Sketch4
100
AcDbCircle
 10
-116.8636953508817
 20
-48.88597219627551
 30
0.0
 40
1.230472160166667
210
0.0
220
0.0
230
-1.0
  0
LINE
  5
A8
330
70
100
AcDbEntity
  8
Ringo-Row-keyboard v13 v4_Ringo-Row-keyboard v13_Sketch4
100
AcDbLine
 10
-135.9327505802057
 20
-40.58456362645554
 30
0.0
 11
-138.6250245633499
 21
-40.58456362645554
 31
0.0
  0
CIRCLE
  5
A9
330
70
100
AcDbEntity
  8
Ringo-Row-keyboard v13 v4_Ringo-Row-keyboard v13_Sketch4
100
AcDbCircle
 10
42.87312073703463
 20
-50.31534454919208
 30
0.0
 40
3.233375714041666
210
0.0
220
0.0
230
-1.0
  0
LINE
  5
AA
330
70
100
AcDbEntity
  8
Ringo-Row-keyboard v13 v4_Ringo-Row-keyboard v13_Sketch4
100
AcDbLine
 10
-142.9011556196965
 20
57.48449856220283
 30
0.0
 11
-126.7460453596263
 21
57.48449856220283
 31
0.0
  0
LINE
  5
AB
330
70
100
AcDbEntity
  8
Ringo-Row-keyboard v13 v4_Ringo-Row-keyboard v13_Sketch4
100
AcDbLine
 10
-73.93754427353226
 20
-46.51307122682111
 30
0.0
 11
-71.41209607264518
 21
-46.51307122682111
 31
0.0
  0
LINE
  5
AC
330
70
100
AcDbEntity
  8
Ringo-Row-keyboard v13 v4_Ringo-Row-keyboard v13_Sketch4
100
AcDbLine
 10
109.2427559626911
 20
-19.46549760751241
 30
0.0
 11
109.2427559626911
 21
-17.4429906318318
 31
0.0
  0
LINE
  5
AD
330
70
100
AcDbEntity
  8
Ringo-Row-keyboard v13 v4_Ringo-Row-keyboard v13_Sketch4
100
AcDbLine
 10
30.21584438030291
 20
57.48449856220283
 30
0.0
 11
46.3709546403731
 21
57.48449856220283
 31
0.0
  0
LINE
  5
AE
330
70
100
AcDbEntity
  8
Ringo-Row-keyboard v13 v4_Ringo-Row-keyboard v13_Sketch4
100
AcDbLine
 10
111.2638542308338
 20
-19.46549760751241
 30
0.0
 11
109.2427559626911
 21
-19.46549760751241
 31
0.0
  0
LINE
  5
AF
330
70
100
AcDbEntity
  8
Ringo-Row-keyboard v13 v4_Ringo-Row-keyboard v13_Sketch4
100
AcDbLine
 10
63.31036183332216
 20
-41.49315823234444
 30
0.0
 11
60.78312963215537
 21
-41.49315823234444
 31
0.0
  0
LINE
  5
B0
330
70
100
AcDbEntity
  8
Ringo-Row-keyboard v13 v4_Ringo-Row-keyboard v13_Sketch4
100
AcDbLine
 10
-71.41209607264518
 20
-46.51307122682111
 30
0.0
 11
-71.41209607264518
 21
-41.46250388607423
 31
0.0
  0
LINE
  5
B1
330
70
100
AcDbEntity
  8
Ringo-Row-keyboard v13 v4_Ringo-Row-keyboard v13_Sketch4
100
AcDbLine
 10
-11.28904535962672
 20
57.48449856220283
 30
0.0
 11
-11.28904535962672
 21
44.34197224902471
 31
0.0
  0
LINE
  5
B2
330
70
100
AcDbEntity
  8
Ringo-Row-keyboard v13 v4_Ringo-Row-keyboard v13_Sketch4
100
AcDbLine
 10
-50.34683833043231
 20
-49.30551573786789
 30
0.0
 11
-48.32682786733821
 21
-49.30551573786789
 31
0.0
  0
LINE
  5
B3
330
70
100
AcDbEntity
  8
Ringo-Row-keyboard v13 v4_Ringo-Row-keyboard v13_Sketch4
100
AcDbLine
 10
-110.13989209667
 20
-35.32083544740537
 30
0.0
 11
-107.4451161619141
 21
-35.32083544740537
 31
0.0
  0
LINE
  5
B4
330
70
100
AcDbEntity
  8
Ringo-Row-keyboard v13 v4_Ringo-Row-keyboard v13_Sketch4
100
AcDbLine
 10
60.78312963215537
 20
-46.54408182924483
 30
0.0
 11
63.31036183332216
 21
-46.54408182924483
 31
0.0
  0
LINE
  5
B5
330
70
100
AcDbEntity
  8
Ringo-Row-keyboard v13 v4_Ringo-Row-keyboard v13_Sketch4
100
AcDbLine
 10
-75.61615561969671
 20
57.48449856220283
 30
0.0
 11
-59.46104535962655
 21
57.48449856220283
 31
0.0
  0
LINE
  5
B6
330
70
100
AcDbEntity
  8
Ringo-Row-keyboard v13 v4_Ringo-Row-keyboard v13_Sketch4
100
AcDbLine
 10
-117.1334777786819
 20
-21.33615787645558
 30
0.0
 11
-117.1334777786819
 21
-16.07243241691811
 31
0.0
  0
LINE
  5
B7
330
70
100
AcDbEntity
  8
Ringo-Row-keyboard v13 v4_Ringo-Row-keyboard v13_Sketch4
100
AcDbLine
 10
-107.4451161619141
 20
-35.32083544740537
 30
0.0
 11
-107.4451161619141
 21
-40.58456362645554
 31
0.0
  0
LINE
  5
B8
330
70
100
AcDbEntity
  8
Ringo-Row-keyboard v13 v4_Ringo-Row-keyboard v13_Sketch4
100
AcDbLine
 10
-35.38049012993956
 20
-49.30551573786789
 30
0.0
 11
-35.38049012993956
 21
-51.32802543306108
 31
0.0
  0
LINE
  5
B9
330
70
100
AcDbEntity
  8
Ringo-Row-keyboard v13 v4_Ringo-Row-keyboard v13_Sketch4
100
AcDbLine
 10
-140.9581437079497
 20
-21.33615787645558
 30
0.0
 11
-140.9581437079497
 21
-16.07243241691811
 31
0.0
  0
LINE
  5
BA
330
70
100
AcDbEntity
  8
Ringo-Row-keyboard v13 v4_Ringo-Row-keyboard v13_Sketch4
100
AcDbLine
 10
-56.79143823298459
 20
-41.48567413360995
 30
0.0
 11
-54.26596827599656
 21
-41.48567413360995
 31
0.0
  0
LINE
  5
BB
330
70
100
AcDbEntity
  8
Ringo-Row-keyboard v13 v4_Ringo-Row-keyboard v13_Sketch4
100
AcDbLine
 10
-37.40158839808214
 20
-51.32802543306108
 30
0.0
 11
-37.40158839808214
 21
-49.30551573786789
 31
0.0
  0
LINE
  5
BC
330
70
100
AcDbEntity
  8
Ringo-Row-keyboard v13 v4_Ringo-Row-keyboard v13_Sketch4
100
AcDbLine
 10
39.46826005152568
 20
-41.47995971054544
 30
0.0
 11
39.46826005152568
 21
-46.53088330744574
 31
0.0
  0
LINE
  5
BD
330
70
100
AcDbEntity
  8
Ringo-Row-keyboard v13 v4_Ringo-Row-keyboard v13_Sketch4
100
AcDbLine
 10
-48.32682786733821
 20
-49.30551573786789
 30
0.0
 11
-48.32682786733821
 21
-51.32802543306108
 31
0.0
  0
LINE
  5
BE
330
70
100
AcDbEntity
  8
Ringo-Row-keyboard v13 v4_Ringo-Row-keyboard v13_Sketch4
100
AcDbLine
 10
36.94102785035881
 20
-41.47995971054544
 30
0.0
 11
39.46826005152568
 21
-41.47995971054544
 31
0.0
  0
LINE
  5
BF
330
70
100
AcDbEntity
  8
Ringo-Row-keyboard v13 v4_Ringo-Row-keyboard v13_Sketch4
100
AcDbLine
 10
10.995844380303
 20
44.34197224902471
 30
0.0
 11
10.995844380303
 21
57.48449856220283
 31
0.0
  0
LINE
  5
C0
330
70
100
AcDbEntity
  8
Ringo-Row-keyboard v13 v4_Ringo-Row-keyboard v13_Sketch4
100
AcDbLine
 10
137.2882197784679
 20
60.36072550001332
 30
0.0
 11
137.2896036836028
 21
-60.63475467405489
 31
0.0
  0
LINE
  5
C1
330
70
100
AcDbEntity
  8
Ringo-Row-keyboard v13 v4_Ringo-Row-keyboard v13_Sketch4
100
AcDbLine
 10
-37.40158839808214
 20
-49.30551573786789
 30
0.0
 11
-35.38049012993956
 21
-49.30551573786789
 31
0.0
  0
LINE
  5
C2
330
70
100
AcDbEntity
  8
Ringo-Row-keyboard v13 v4_Ringo-Row-keyboard v13_Sketch4
100
AcDbLine
 10
20.56105932503675
 20
-54.36927271482927
 30
0.0
 11
18.03382712386997
 21
-54.36927271482927
 31
0.0
  0
LINE
  5
C3
330
70
100
AcDbEntity
  8
Ringo-Row-keyboard v13 v4_Ringo-Row-keyboard v13_Sketch4
100
AcDbLine
 10
111.2638542308338
 20
-17.4429906318318
 30
0.0
 11
111.2638542308338
 21
-19.46549760751241
 31
0.0
  0
LINE
  5
C4
330
70
100
AcDbEntity
  8
Ringo-Row-keyboard v13 v4_Ringo-Row-keyboard v13_Sketch4
100
AcDbLine
 10
20.56105932503675
 20
-59.41984005557619
 30
0.0
 11
20.56105932503675
 21
-54.36927271482927
 31
0.0
  0
LINE
  5
C5
330
70
100
AcDbEntity
  8
Ringo-Row-keyboard v13 v4_Ringo-Row-keyboard v13_Sketch4
100
AcDbLine
 10
-114.4415518931534
 20
-21.33615787645558
 30
0.0
 11
-117.1334777786819
 21
-21.33615787645558
 31
0.0
  0
LINE
  5
C6
330
70
100
AcDbEntity
  8
Ringo-Row-keyboard v13 v4_Ringo-Row-keyboard v13_Sketch4
100
AcDbLine
 10
134.7896036837663
 20
-63.13478326820437
 30
0.0
 11
-145.0174442799596
 21
-63.13478326820438
 31
0.0
  0
LINE
  5
C7
330
70
100
AcDbEntity
  8
Ringo-Row-keyboard v13 v4_Ringo-Row-keyboard v13_Sketch4
100
AcDbLine
 10
-94.68233464842027
 20
-46.51307122682111
 30
0.0
 11
-97.20780460540829
 21
-46.51307122682111
 31
0.0
  0
LINE
  5
C8
330
70
100
AcDbEntity
  8
Ringo-Row-keyboard v13 v4_Ringo-Row-keyboard v13_Sketch4
100
AcDbLine
 10
65.42695464037308
 20
33.40749856220292
 30
0.0
 11
65.42695464037308
 21
20.2649722490248
 31
0.0
  0
LINE
  5
C9
330
70
100
AcDbEntity
  8
Ringo-Row-keyboard v13 v4_Ringo-Row-keyboard v13_Sketch4
100
AcDbLine
 10
-107.5540453596264
 20
33.40749856220292
 30
0.0
 11
-107.5540453596264
 21
20.2649722490248
 31
0.0
  0
LINE
  5
CA
330
70
100
AcDbEntity
  8
Ringo-Row-keyboard v13 v4_Ringo-Row-keyboard v13_Sketch4
100
AcDbLine
 10
-56.39615561969681
 20
57.48449856220283
 30
0.0
 11
-40.24104535962655
 21
57.48449856220283
 31
0.0
  0
LINE
  5
CB
330
70
100
AcDbEntity
  8
Ringo-Row-keyboard v13 v4_Ringo-Row-keyboard v13_Sketch4
100
AcDbLine
 10
-17.9301556196969
 20
14.16149856220299
 30
0.0
 11
-1.775045359626773
 21
14.16149856220299
 31
0.0
  0
LINE
  5
CC
330
70
100
AcDbEntity
  8
Ringo-Row-keyboard v13 v4_Ringo-Row-keyboard v13_Sketch4
100
AcDbLine
 10
-126.7460453596263
 20
20.2649722490248
 30
0.0
 11
-142.9011556196965
 21
20.2649722490248
 31
0.0
  0
LINE
  5
CD
330
70
100
AcDbEntity
  8
Ringo-Row-keyboard v13 v4_Ringo-Row-keyboard v13_Sketch4
100
AcDbLine
 10
7.930954640373215
 20
44.34197224902471
 30
0.0
 11
-8.224155619696944
 21
44.34197224902471
 31
0.0
  0
LINE
  5
CE
330
70
100
AcDbEntity
  8
Ringo-Row-keyboard v13 v4_Ringo-Row-keyboard v13_Sketch4
100
AcDbLine
 10
-97.20780460540829
 20
-46.51307122682111
 30
0.0
 11
-97.20780460540829
 21
-41.46250388607423
 31
0.0
  0
LINE
  5
CF
330
70
100
AcDbEntity
  8
Ringo-Row-keyboard v13 v4_Ringo-Row-keyboard v13_Sketch4
100
AcDbLine
 10
-49.79804535962661
 20
20.2649722490248
 30
0.0
 11
-65.95315561969674
 21
20.2649722490248
 31
0.0
  0
LINE
  5
D0
330
70
100
AcDbEntity
  8
Ringo-Row-keyboard v13 v4_Ringo-Row-keyboard v13_Sketch4
100
AcDbLine
 10
-107.4451161619141
 20
-40.58456362645554
 30
0.0
 11
-110.13989209667
 21
-40.58456362645554
 31
0.0
  0
LINE
  5
D1
330
70
100
AcDbEntity
  8
Ringo-Row-keyboard v13 v4_Ringo-Row-keyboard v13_Sketch4
100
AcDbLine
 10
-117.1334777786819
 20
-16.07243241691811
 30
0.0
 11
-114.4415518931534
 21
-16.07243241691811
 31
0.0
  0
LINE
  5
D2
330
70
100
AcDbEntity
  8
Ringo-Row-keyboard v13 v4_Ringo-Row-keyboard v13_Sketch4
100
AcDbLine
 10
-40.24104535962655
 20
57.48449856220283
 30
0.0
 11
-40.24104535962655
 21
44.34197224902471
 31
0.0
  0
LINE
  5
D3
330
70
100
AcDbEntity
  8
Ringo-Row-keyboard v13 v4_Ringo-Row-keyboard v13_Sketch4
100
AcDbLine
 10
-97.90104535962642
 20
44.34197224902471
 30
0.0
 11
-114.0561556196966
 21
44.34197224902471
 31
0.0
  0
LINE
  5
D4
330
70
100
AcDbEntity
  8
Ringo-Row-keyboard v13 v4_Ringo-Row-keyboard v13_Sketch4
100
AcDbLine
 10
27.15095464037316
 20
44.34197224902471
 30
0.0
 11
10.995844380303
 21
44.34197224902471
 31
0.0
  0
LINE
  5
D5
330
70
100
AcDbEntity
  8
Ringo-Row-keyboard v13 v4_Ringo-Row-keyboard v13_Sketch4
100
AcDbLine
 10
-94.68233464842029
 20
-41.46250388607423
 30
0.0
 11
-94.68233464842027
 21
-46.51307122682111
 31
0.0
  0
LINE
  5
D6
330
70
100
AcDbEntity
  8
Ringo-Row-keyboard v13 v4_Ringo-Row-keyboard v13_Sketch4
100
AcDbLine
 10
46.3709546403731
 20
57.48449856220283
 30
0.0
 11
46.3709546403731
 21
44.34197224902471
 31
0.0
  0
LINE
  5
D7
330
70
100
AcDbEntity
  8
Ringo-Row-keyboard v13 v4_Ringo-Row-keyboard v13_Sketch4
100
AcDbLine
 10
-78.68104535962648
 20
44.34197224902471
 30
0.0
 11
-94.83615561969665
 21
44.34197224902471
 31
0.0
  0
LINE
  5
D8
330
70
100
AcDbEntity
  8
Ringo-Row-keyboard v13 v4_Ringo-Row-keyboard v13_Sketch4
100
AcDbLine
 10
10.995844380303
 20
57.48449856220283
 30
0.0
 11
27.15095464037316
 21
57.48449856220283
 31
0.0
  0
LINE
  5
D9
330
70
100
AcDbEntity
  8
Ringo-Row-keyboard v13 v4_Ringo-Row-keyboard v13_Sketch4
100
AcDbLine
 10
18.03382712386997
 20
-59.41984005557619
 30
0.0
 11
20.56105932503675
 21
-59.41984005557619
 31
0.0
  0
LINE
  5
DA
330
70
100
AcDbEntity
  8
Ringo-Row-keyboard v13 v4_Ringo-Row-keyboard v13_Sketch4
100
AcDbLine
 10
-147.5174442799595
 20
-60.63478328392964
 30
0.0
 11
-147.5174450410981
 21
60.37093318446483
 31
0.0
  0
LINE
  5
DB
330
70
100
AcDbEntity
  8
Ringo-Row-keyboard v13 v4_Ringo-Row-keyboard v13_Sketch4
100
AcDbLine
 10
-114.4415518931534
 20
-16.07243241691811
 30
0.0
 11
-114.4415518931534
 21
-21.33615787645558
 31
0.0
  0
LINE
  5
DC
330
70
100
AcDbEntity
  8
Ringo-Row-keyboard v13 v4_Ringo-Row-keyboard v13_Sketch4
100
AcDbLine
 10
-126.7460453596263
 20
44.34197224902471
 30
0.0
 11
-142.9011556196965
 21
44.34197224902471
 31
0.0
  0
LINE
  5
DD
330
70
100
AcDbEntity
  8
Ringo-Row-keyboard v13 v4_Ringo-Row-keyboard v13_Sketch4
100
AcDbLine
 10
-126.7460453596263
 20
57.48449856220283
 30
0.0
 11
-126.7460453596263
 21
44.34197224902471
 31
0.0
  0
LINE
  5
DE
330
70
100
AcDbEntity
  8
Ringo-Row-keyboard v13 v4_Ringo-Row-keyboard v13_Sketch4
100
AcDbLine
 10
-145.0173535821356
 20
62.87093319851702
 30
0.0
 11
134.7883112375938
 21
62.86069690419097
 31
0.0
  0
LINE
  5
DF
330
70
100
AcDbEntity
  8
Ringo-Row-keyboard v13 v4_Ringo-Row-keyboard v13_Sketch4
100
AcDbLine
 10
63.31036183332216
 20
-46.54408182924483
 30
0.0
 11
63.31036183332216
 21
-41.49315823234444
 31
0.0
  0
LINE
  5
E0
330
70
100
AcDbEntity
  8
Ringo-Row-keyboard v13 v4_Ringo-Row-keyboard v13_Sketch4
100
AcDbLine
 10
-46.76115561969683
 20
20.2649722490248
 30
0.0
 11
-46.76115561969683
 21
33.40749856220292
 31
0.0
  0
LINE
  5
E1
330
70
100
AcDbEntity
  8
Ringo-Row-keyboard v13 v4_Ringo-Row-keyboard v13_Sketch4
100
AcDbLine
 10
-114.0561556196966
 20
44.34197224902471
 30
0.0
 11
-114.0561556196966
 21
57.48449856220283
 31
0.0
  0
LINE
  5
E2
330
70
100
AcDbEntity
  8
Ringo-Row-keyboard v13 v4_Ringo-Row-keyboard v13_Sketch4
100
AcDbLine
 10
-114.0561556196966
 20
57.48449856220283
 30
0.0
 11
-97.90104535962642
 21
57.48449856220283
 31
0.0
  0
LINE
  5
E3
330
70
100
AcDbEntity
  8
Ringo-Row-keyboard v13 v4_Ringo-Row-keyboard v13_Sketch4
100
AcDbLine
 10
116.8278443803027
 20
44.34197224902471
 30
0.0
 11
116.8278443803027
 21
57.48449856220283
 31
0.0
  0
LINE
  5
E4
330
70
100
AcDbEntity
  8
Ringo-Row-keyboard v13 v4_Ringo-Row-keyboard v13_Sketch4
100
AcDbLine
 10
97.60784438030279
 20
57.48449856220283
 30
0.0
 11
113.7629546403729
 21
57.48449856220283
 31
0.0
  0
LINE
  5
E5
330
70
100
AcDbEntity
  8
Ringo-Row-keyboard v13 v4_Ringo-Row-keyboard v13_Sketch4
100
AcDbLine
 10
132.9829546403729
 20
44.34197224902471
 30
0.0
 11
116.8278443803027
 21
44.34197224902471
 31
0.0
  0
LINE
  5
E6
330
70
100
AcDbEntity
  8
Ringo-Row-keyboard v13 v4_Ringo-Row-keyboard v13_Sketch4
100
AcDbLine
 10
36.66695464037312
 20
1.018972249024876
 30
0.0
 11
20.51184438030299
 21
1.018972249024876
 31
0.0
  0
LINE
  5
E7
330
70
100
AcDbEntity
  8
Ringo-Row-keyboard v13 v4_Ringo-Row-keyboard v13_Sketch4
100
AcDbLine
 10
113.7629546403729
 20
57.48449856220283
 30
0.0
 11
113.7629546403729
 21
44.34197224902471
 31
0.0
  0
LINE
  5
E8
330
70
100
AcDbEntity
  8
Ringo-Row-keyboard v13 v4_Ringo-Row-keyboard v13_Sketch4
100
AcDbLine
 10
46.3709546403731
 20
44.34197224902471
 30
0.0
 11
30.21584438030291
 21
44.34197224902471
 31
0.0
  0
LINE
  5
E9
330
70
100
AcDbEntity
  8
Ringo-Row-keyboard v13 v4_Ringo-Row-keyboard v13_Sketch4
100
AcDbLine
 10
-27.44415561969687
 20
57.48449856220283
 30
0.0
 11
-11.28904535962672
 21
57.48449856220283
 31
0.0
  0
LINE
  5
EA
330
70
100
AcDbEntity
  8
Ringo-Row-keyboard v13 v4_Ringo-Row-keyboard v13_Sketch4
100
AcDbLine
 10
18.03382712386997
 20
-54.36927271482927
 30
0.0
 11
18.03382712386997
 21
-59.41984005557619
 31
0.0
  0
LINE
  5
EB
330
70
100
AcDbEntity
  8
Ringo-Row-keyboard v13 v4_Ringo-Row-keyboard v13_Sketch4
100
AcDbLine
 10
-56.79143823298459
 20
-41.48567413360995
 30
0.0
 11
-54.26596827599656
 21
-41.48567413360995
 31
0.0
  0
LINE
  5
EC
330
70
100
AcDbEntity
  8
Ringo-Row-keyboard v13 v4_Ringo-Row-keyboard v13_Sketch4
100
AcDbLine
 10
-8.224155619696944
 20
57.48449856220283
 30
0.0
 11
7.930954640373215
 21
57.48449856220283
 31
0.0
  0
LINE
  5
ED
330
70
100
AcDbEntity
  8
Ringo-Row-keyboard v13 v4_Ringo-Row-keyboard v13_Sketch4
100
AcDbLine
 10
78.3878443803028
 20
44.34197224902471
 30
0.0
 11
78.3878443803028
 21
57.48449856220283
 31
0.0
  0
LINE
  5
EE
330
70
100
AcDbEntity
  8
Ringo-Row-keyboard v13 v4_Ringo-Row-keyboard v13_Sketch4
100
AcDbLine
 10
-94.83615561969665
 20
57.48449856220283
 30
0.0
 11
-78.68104535962648
 21
57.48449856220283
 31
0.0
  0
LINE
  5
EF
330
70
100
AcDbEntity
  8
Ringo-Row-keyboard v13 v4_Ringo-Row-keyboard v13_Sketch4
100
AcDbLine
 10
-138.2662178224212
 20
-21.33615787645558
 30
0.0
 11
-140.9581437079497
 21
-21.33615787645558
 31
0.0
  0
LINE
  5
F0
330
70
100
AcDbEntity
  8
Ringo-Row-keyboard v13 v4_Ringo-Row-keyboard v13_Sketch4
100
AcDbLine
 10
7.835954640373302
 20
20.2649722490248
 30
0.0
 11
-8.319155619696942
 21
20.2649722490248
 31
0.0
  0
LINE
  5
F1
330
70
100
AcDbEntity
  8
Ringo-Row-keyboard v13 v4_Ringo-Row-keyboard v13_Sketch4
100
AcDbLine
 10
-11.28904535962672
 20
44.34197224902471
 30
0.0
 11
-27.44415561969687
 21
44.34197224902471
 31
0.0
  0
LINE
  5
F2
330
70
100
AcDbEntity
  8
Ringo-Row-keyboard v13 v4_Ringo-Row-keyboard v13_Sketch4
100
AcDbLine
 10
-54.44283770442272
 20
-59.41984005557619
 30
0.0
 11
-54.44283770442267
 21
-54.36927271482927
 31
0.0
  0
LINE
  5
F3
330
70
100
AcDbEntity
  8
Ringo-Row-keyboard v13 v4_Ringo-Row-keyboard v13_Sketch4
100
AcDbLine
 10
-123.7091556196965
 20
20.2649722490248
 30
0.0
 11
-123.7091556196965
 21
33.40749856220292
 31
0.0
  0
LINE
  5
F4
330
70
100
AcDbEntity
  8
Ringo-Row-keyboard v13 v4_Ringo-Row-keyboard v13_Sketch4
100
AcDbLine
 10
-56.39615561969681
 20
44.34197224902471
 30
0.0
 11
-56.39615561969681
 21
57.48449856220283
 31
0.0
  0
LINE
  5
F5
330
70
100
AcDbEntity
  8
Ringo-Row-keyboard v13 v4_Ringo-Row-keyboard v13_Sketch4
100
AcDbLine
 10
-142.9011556196965
 20
44.34197224902471
 30
0.0
 11
-142.9011556196965
 21
57.48449856220283
 31
0.0
  0
LINE
  5
F6
330
70
100
AcDbEntity
  8
Ringo-Row-keyboard v13 v4_Ringo-Row-keyboard v13_Sketch4
100
AcDbLine
 10
60.78312963215537
 20
-41.49315823234444
 30
0.0
 11
60.78312963215537
 21
-46.54408182924483
 31
0.0
  0
LINE
  5
F7
330
70
100
AcDbEntity
  8
Ringo-Row-keyboard v13 v4_Ringo-Row-keyboard v13_Sketch4
100
AcDbLine
 10
-73.93754427353226
 20
-41.46250388607423
 30
0.0
 11
-73.93754427353226
 21
-46.51307122682111
 31
0.0
  0
LINE
  5
F8
330
70
100
AcDbEntity
  8
Ringo-Row-keyboard v13 v4_Ringo-Row-keyboard v13_Sketch4
100
AcDbLine
 10
-59.46104535962655
 20
44.34197224902471
 30
0.0
 11
-75.61615561969671
 21
44.34197224902471
 31
0.0
  0
LINE
  5
F9
330
70
100
AcDbEntity
  8
Ringo-Row-keyboard v13 v4_Ringo-Row-keyboard v13_Sketch4
100
AcDbLine
 10
30.21584438030291
 20
44.34197224902471
 30
0.0
 11
30.21584438030291
 21
57.48449856220283
 31
0.0
  0
LINE
  5
FA
330
70
100
AcDbEntity
  8
Ringo-Row-keyboard v13 v4_Ringo-Row-keyboard v13_Sketch4
100
AcDbLine
 10
-88.30404535962646
 20
33.40749856220292
 30
0.0
 11
-88.30404535962646
 21
20.2649722490248
 31
0.0
  0
LINE
  5
FB
330
70
100
AcDbEntity
  8
Ringo-Row-keyboard v13 v4_Ringo-Row-keyboard v13_Sketch4
100
AcDbLine
 10
-8.319155619696942
 20
33.40749856220292
 30
0.0
 11
7.835954640373302
 21
33.40749856220292
 31
0.0
  0
LINE
  5
FC
330
70
100
AcDbEntity
  8
Ringo-Row-keyboard v13 v4_Ringo-Row-keyboard v13_Sketch4
100
AcDbLine
 10
-8.224155619696944
 20
44.34197224902471
 30
0.0
 11
-8.224155619696944
 21
57.48449856220283
 31
0.0
  0
LINE
  5
FD
330
70
100
AcDbEntity
  8
Ringo-Row-keyboard v13 v4_Ringo-Row-keyboard v13_Sketch4
100
AcDbLine
 10
-138.6250245633499
 20
-40.58456362645554
 30
0.0
 11
-138.6250245633499
 21
-35.32083544740537
 31
0.0
  0
LINE
  5
FE
330
70
100
AcDbEntity
  8
Ringo-Row-keyboard v13 v4_Ringo-Row-keyboard v13_Sketch4
100
AcDbLine
 10
-138.2662178224212
 20
-16.07243241691811
 30
0.0
 11
-138.2662178224212
 21
-21.33615787645558
 31
0.0
  0
LINE
  5
FF
330
70
100
AcDbEntity
  8
Ringo-Row-keyboard v13 v4_Ringo-Row-keyboard v13_Sketch4
100
AcDbLine
 10
39.46826005152568
 20
-46.53088330744574
 30
0.0
 11
36.94102785035881
 21
-46.53088330744574
 31
0.0
  0
LINE
  5
100
330
70
100
AcDbEntity
  8
Ringo-Row-keyboard v13 v4_Ringo-Row-keyboard v13_Sketch4
100
AcDbLine
 10
97.60784438030279
 20
44.34197224902471
 30
0.0
 11
97.60784438030279
 21
57.48449856220283
 31
0.0
  0
LINE
  5
101
330
70
100
AcDbEntity
  8
Ringo-Row-keyboard v13 v4_Ringo-Row-keyboard v13_Sketch4
100
AcDbLine
 10
-140.9581437079497
 20
-16.07243241691811
 30
0.0
 11
-138.2662178224212
 21
-16.07243241691811
 31
0.0
  0
LINE
  5
102
330
70
100
AcDbEntity
  8
Ringo-Row-keyboard v13 v4_Ringo-Row-keyboard v13_Sketch4
100
AcDbLine
 10
-123.7091556196965
 20
33.40749856220292
 30
0.0
 11
-107.5540453596264
 21
33.40749856220292
 31
0.0
  0
LINE
  5
103
330
70
100
AcDbEntity
  8
Ringo-Row-keyboard v13 v4_Ringo-Row-keyboard v13_Sketch4
100
AcDbLine
 10
113.5079546403729
 20
14.16149856220299
 30
0.0
 11
113.5079546403729
 21
1.018972249024876
 31
0.0
  0
LINE
  5
104
330
70
100
AcDbEntity
  8
Ringo-Row-keyboard v13 v4_Ringo-Row-keyboard v13_Sketch4
100
AcDbLine
 10
-54.44283770442267
 20
-54.36927271482927
 30
0.0
 11
-51.91736774743464
 21
-54.36927271482927
 31
0.0
  0
LINE
  5
105
330
70
100
AcDbEntity
  8
Ringo-Row-keyboard v13 v4_Ringo-Row-keyboard v13_Sketch4
100
AcDbLine
 10
68.52184438030281
 20
20.2649722490248
 30
0.0
 11
68.52184438030281
 21
33.40749856220292
 31
0.0
  0
LINE
  5
106
330
70
100
AcDbEntity
  8
Ringo-Row-keyboard v13 v4_Ringo-Row-keyboard v13_Sketch4
100
AcDbLine
 10
113.7629546403729
 20
44.34197224902471
 30
0.0
 11
97.60784438030279
 21
44.34197224902471
 31
0.0
  0
LINE
  5
107
330
70
100
AcDbEntity
  8
Ringo-Row-keyboard v13 v4_Ringo-Row-keyboard v13_Sketch4
100
AcDbLine
 10
-142.9011556196965
 20
20.2649722490248
 30
0.0
 11
-142.9011556196965
 21
33.40749856220292
 31
0.0
  0
LINE
  5
108
330
70
100
AcDbEntity
  8
Ringo-Row-keyboard v13 v4_Ringo-Row-keyboard v13_Sketch4
100
AcDbLine
 10
-20.96704535962671
 20
14.16149856220299
 30
0.0
 11
-20.96704535962671
 21
1.018972249024876
 31
0.0
  0
LINE
  5
109
330
70
100
AcDbEntity
  8
Ringo-Row-keyboard v13 v4_Ringo-Row-keyboard v13_Sketch4
100
AcDbLine
 10
-107.5540453596264
 20
20.2649722490248
 30
0.0
 11
-123.7091556196965
 21
20.2649722490248
 31
0.0
  0
LINE
  5
10A
330
70
100
AcDbEntity
  8
Ringo-Row-keyboard v13 v4_Ringo-Row-keyboard v13_Sketch4
100
AcDbLine
 10
-65.95315561969674
 20
20.2649722490248
 30
0.0
 11
-65.95315561969674
 21
33.40749856220292
 31
0.0
  0
LINE
  5
10B
330
70
100
AcDbEntity
  8
Ringo-Row-keyboard v13 v4_Ringo-Row-keyboard v13_Sketch4
100
AcDbLine
 10
-75.61615561969671
 20
44.34197224902471
 30
0.0
 11
-75.61615561969671
 21
57.48449856220283
 31
0.0
  0
LINE
  5
10C
330
70
100
AcDbEntity
  8
Ringo-Row-keyboard v13 v4_Ringo-Row-keyboard v13_Sketch4
100
AcDbLine
 10
-27.51115561969687
 20
33.40749856220292
 30
0.0
 11
-11.3560453596267
 21
33.40749856220292
 31
0.0
  0
LINE
  5
10D
330
70
100
AcDbEntity
  8
Ringo-Row-keyboard v13 v4_Ringo-Row-keyboard v13_Sketch4
100
AcDbLine
 10
59.16784438030282
 20
57.48449856220283
 30
0.0
 11
75.32295464037307
 21
57.48449856220283
 31
0.0
  0
LINE
  5
10E
330
70
100
AcDbEntity
  8
Ringo-Row-keyboard v13 v4_Ringo-Row-keyboard v13_Sketch4
100
AcDbLine
 10
116.8278443803027
 20
57.48449856220283
 30
0.0
 11
132.9829546403729
 21
57.48449856220283
 31
0.0
  0
LINE
  5
10F
330
70
100
AcDbEntity
  8
Ringo-Row-keyboard v13 v4_Ringo-Row-keyboard v13_Sketch4
100
AcDbLine
 10
-46.76115561969683
 20
33.40749856220292
 30
0.0
 11
-30.60604535962666
 21
33.40749856220292
 31
0.0
  0
LINE
  5
110
330
70
100
AcDbEntity
  8
Ringo-Row-keyboard v13 v4_Ringo-Row-keyboard v13_Sketch4
100
AcDbLine
 10
-30.60604535962666
 20
20.2649722490248
 30
0.0
 11
-46.76115561969683
 21
20.2649722490248
 31
0.0
  0
LINE
  5
111
330
70
100
AcDbEntity
  8
Ringo-Row-keyboard v13 v4_Ringo-Row-keyboard v13_Sketch4
100
AcDbLine
 10
-97.90104535962642
 20
57.48449856220283
 30
0.0
 11
-97.90104535962642
 21
44.34197224902471
 31
0.0
  0
LINE
  5
112
330
70
100
AcDbEntity
  8
Ringo-Row-keyboard v13 v4_Ringo-Row-keyboard v13_Sketch4
100
AcDbLine
 10
46.2349546403731
 20
20.2649722490248
 30
0.0
 11
30.07984438030292
 21
20.2649722490248
 31
0.0
  0
LINE
  5
113
330
70
100
AcDbEntity
  8
Ringo-Row-keyboard v13 v4_Ringo-Row-keyboard v13_Sketch4
100
AcDbLine
 10
-49.79804535962661
 20
33.40749856220292
 30
0.0
 11
-49.79804535962661
 21
20.2649722490248
 31
0.0
  0
LINE
  5
114
330
70
100
AcDbEntity
  8
Ringo-Row-keyboard v13 v4_Ringo-Row-keyboard v13_Sketch4
100
AcDbLine
 10
75.32295464037307
 20
44.34197224902471
 30
0.0
 11
59.16784438030282
 21
44.34197224902471
 31
0.0
  0
LINE
  5
115
330
70
100
AcDbEntity
  8
Ringo-Row-keyboard v13 v4_Ringo-Row-keyboard v13_Sketch4
100
AcDbLine
 10
-78.68104535962648
 20
57.48449856220283
 30
0.0
 11
-78.68104535962648
 21
44.34197224902471
 31
0.0
  0
LINE
  5
116
330
70
100
AcDbEntity
  8
Ringo-Row-keyboard v13 v4_Ringo-Row-keyboard v13_Sketch4
100
AcDbLine
 10
132.9829546403729
 20
57.48449856220283
 30
0.0
 11
132.9829546403729
 21
44.34197224902471
 31
0.0
  0
LINE
  5
117
330
70
100
AcDbEntity
  8
Ringo-Row-keyboard v13 v4_Ringo-Row-keyboard v13_Sketch4
100
AcDbLine
 10
-11.3560453596267
 20
20.2649722490248
 30
0.0
 11
-27.51115561969687
 21
20.2649722490248
 31
0.0
  0
LINE
  5
118
330
70
100
AcDbEntity
  8
Ringo-Row-keyboard v13 v4_Ringo-Row-keyboard v13_Sketch4
100
AcDbLine
 10
-30.60604535962666
 20
33.40749856220292
 30
0.0
 11
-30.60604535962666
 21
20.2649722490248
 31
0.0
  0
LINE
  5
119
330
70
100
AcDbEntity
  8
Ringo-Row-keyboard v13 v4_Ringo-Row-keyboard v13_Sketch4
100
AcDbLine
 10
-11.3560453596267
 20
33.40749856220292
 30
0.0
 11
-11.3560453596267
 21
20.2649722490248
 31
0.0
  0
LINE
  5
11A
330
70
100
AcDbEntity
  8
Ringo-Row-keyboard v13 v4_Ringo-Row-keyboard v13_Sketch4
100
AcDbLine
 10
-65.95315561969674
 20
33.40749856220292
 30
0.0
 11
-49.79804535962661
 21
33.40749856220292
 31
0.0
  0
LINE
  5
11B
330
70
100
AcDbEntity
  8
Ringo-Row-keyboard v13 v4_Ringo-Row-keyboard v13_Sketch4
100
AcDbLine
 10
-75.62815561969671
 20
1.018972249024876
 30
0.0
 11
-75.62815561969671
 21
14.16149856220299
 31
0.0
  0
LINE
  5
11C
330
70
100
AcDbEntity
  8
Ringo-Row-keyboard v13 v4_Ringo-Row-keyboard v13_Sketch4
100
AcDbLine
 10
-69.1120453596265
 20
20.2649722490248
 30
0.0
 11
-85.2671556196967
 21
20.2649722490248
 31
0.0
  0
LINE
  5
11D
330
70
100
AcDbEntity
  8
Ringo-Row-keyboard v13 v4_Ringo-Row-keyboard v13_Sketch4
100
AcDbLine
 10
-94.83615561969665
 20
44.34197224902471
 30
0.0
 11
-94.83615561969665
 21
57.48449856220283
 31
0.0
  0
LINE
  5
11E
330
70
100
AcDbEntity
  8
Ringo-Row-keyboard v13 v4_Ringo-Row-keyboard v13_Sketch4
100
AcDbLine
 10
103.868954640373
 20
33.40749856220292
 30
0.0
 11
103.868954640373
 21
20.2649722490248
 31
0.0
  0
LINE
  5
11F
330
70
100
AcDbEntity
  8
Ringo-Row-keyboard v13 v4_Ringo-Row-keyboard v13_Sketch4
100
AcDbLine
 10
17.47495464037317
 20
14.16149856220299
 30
0.0
 11
17.47495464037317
 21
1.018972249024876
 31
0.0
  0
LINE
  5
120
330
70
100
AcDbEntity
  8
Ringo-Row-keyboard v13 v4_Ringo-Row-keyboard v13_Sketch4
100
AcDbLine
 10
-40.28104535962663
 20
1.018972249024876
 30
0.0
 11
-56.43615561969674
 21
1.018972249024876
 31
0.0
  0
LINE
  5
121
330
70
100
AcDbEntity
  8
Ringo-Row-keyboard v13 v4_Ringo-Row-keyboard v13_Sketch4
100
AcDbLine
 10
84.67695464037303
 20
20.2649722490248
 30
0.0
 11
68.52184438030281
 21
20.2649722490248
 31
0.0
  0
LINE
  5
122
330
70
100
AcDbEntity
  8
Ringo-Row-keyboard v13 v4_Ringo-Row-keyboard v13_Sketch4
100
AcDbLine
 10
26.92095464037322
 20
33.40749856220292
 30
0.0
 11
26.92095464037322
 21
20.2649722490248
 31
0.0
  0
LINE
  5
123
330
70
100
AcDbEntity
  8
Ringo-Row-keyboard v13 v4_Ringo-Row-keyboard v13_Sketch4
100
AcDbLine
 10
17.47495464037317
 20
1.018972249024876
 30
0.0
 11
1.31984438030301
 21
1.018972249024876
 31
0.0
  0
LINE
  5
124
330
70
100
AcDbEntity
  8
Ringo-Row-keyboard v13 v4_Ringo-Row-keyboard v13_Sketch4
100
AcDbLine
 10
-27.51115561969687
 20
20.2649722490248
 30
0.0
 11
-27.51115561969687
 21
33.40749856220292
 31
0.0
  0
LINE
  5
125
330
70
100
AcDbEntity
  8
Ringo-Row-keyboard v13 v4_Ringo-Row-keyboard v13_Sketch4
100
AcDbLine
 10
46.2349546403731
 20
33.40749856220292
 30
0.0
 11
46.2349546403731
 21
20.2649722490248
 31
0.0
  0
LINE
  5
126
330
70
100
AcDbEntity
  8
Ringo-Row-keyboard v13 v4_Ringo-Row-keyboard v13_Sketch4
100
AcDbLine
 10
94.54295464037304
 20
44.34197224902471
 30
0.0
 11
78.3878443803028
 21
44.34197224902471
 31
0.0
  0
LINE
  5
127
330
70
100
AcDbEntity
  8
Ringo-Row-keyboard v13 v4_Ringo-Row-keyboard v13_Sketch4
100
AcDbLine
 10
112.0878443803028
 20
33.40749856220292
 30
0.0
 11
128.2429546403729
 21
33.40749856220292
 31
0.0
  0
LINE
  5
128
330
70
100
AcDbEntity
  8
Ringo-Row-keyboard v13 v4_Ringo-Row-keyboard v13_Sketch4
100
AcDbLine
 10
-8.319155619696942
 20
20.2649722490248
 30
0.0
 11
-8.319155619696942
 21
33.40749856220292
 31
0.0
  0
LINE
  5
129
330
70
100
AcDbEntity
  8
Ringo-Row-keyboard v13 v4_Ringo-Row-keyboard v13_Sketch4
100
AcDbLine
 10
115.7874827170602
 20
10.32739384727892
 30
0.0
 11
115.7874827170602
 21
13.5946326278988
 31
0.0
  0
LINE
  5
12A
330
70
100
AcDbEntity
  8
Ringo-Row-keyboard v13 v4_Ringo-Row-keyboard v13_Sketch4
100
AcDbLine
 10
75.32295464037307
 20
57.48449856220283
 30
0.0
 11
75.32295464037307
 21
44.34197224902471
 31
0.0
  0
LINE
  5
12B
330
70
100
AcDbEntity
  8
Ringo-Row-keyboard v13 v4_Ringo-Row-keyboard v13_Sketch4
100
AcDbLine
 10
-59.47304535962654
 20
14.16149856220299
 30
0.0
 11
-59.47304535962654
 21
1.018972249024876
 31
0.0
  0
LINE
  5
12C
330
70
100
AcDbEntity
  8
Ringo-Row-keyboard v13 v4_Ringo-Row-keyboard v13_Sketch4
100
AcDbLine
 10
-75.62815561969671
 20
14.16149856220299
 30
0.0
 11
-59.47304535962654
 21
14.16149856220299
 31
0.0
  0
LINE
  5
12D
330
70
100
AcDbEntity
  8
Ringo-Row-keyboard v13 v4_Ringo-Row-keyboard v13_Sketch4
100
AcDbLine
 10
-59.46104535962655
 20
57.48449856220283
 30
0.0
 11
-59.46104535962655
 21
44.34197224902471
 31
0.0
  0
LINE
  5
12E
330
70
100
AcDbEntity
  8
Ringo-Row-keyboard v13 v4_Ringo-Row-keyboard v13_Sketch4
100
AcDbLine
 10
10.76584438030301
 20
20.2649722490248
 30
0.0
 11
10.76584438030301
 21
33.40749856220292
 31
0.0
  0
LINE
  5
12F
330
70
100
AcDbEntity
  8
Ringo-Row-keyboard v13 v4_Ringo-Row-keyboard v13_Sketch4
100
AcDbLine
 10
-1.775045359626773
 20
14.16149856220299
 30
0.0
 11
-1.775045359626773
 21
1.018972249024876
 31
0.0
  0
LINE
  5
130
330
70
100
AcDbEntity
  8
Ringo-Row-keyboard v13 v4_Ringo-Row-keyboard v13_Sketch4
100
AcDbLine
 10
58.91084438030287
 20
14.16149856220299
 30
0.0
 11
75.06595464037312
 21
14.16149856220299
 31
0.0
  0
LINE
  5
131
330
70
100
AcDbEntity
  8
Ringo-Row-keyboard v13 v4_Ringo-Row-keyboard v13_Sketch4
100
AcDbLine
 10
-85.2671556196967
 20
33.40749856220292
 30
0.0
 11
-69.1120453596265
 21
33.40749856220292
 31
0.0
  0
LINE
  5
132
330
70
100
AcDbEntity
  8
Ringo-Row-keyboard v13 v4_Ringo-Row-keyboard v13_Sketch4
100
AcDbLine
 10
-78.72304535962648
 20
14.16149856220299
 30
0.0
 11
-78.72304535962648
 21
1.018972249024876
 31
0.0
  0
LINE
  5
133
330
70
100
AcDbEntity
  8
Ringo-Row-keyboard v13 v4_Ringo-Row-keyboard v13_Sketch4
100
AcDbLine
 10
-97.91504535962644
 20
14.16149856220299
 30
0.0
 11
-97.91504535962644
 21
1.018972249024876
 31
0.0
  0
LINE
  5
134
330
70
100
AcDbEntity
  8
Ringo-Row-keyboard v13 v4_Ringo-Row-keyboard v13_Sketch4
100
AcDbLine
 10
75.06595464037312
 20
14.16149856220299
 30
0.0
 11
75.06595464037312
 21
1.018972249024876
 31
0.0
  0
LINE
  5
135
330
70
100
AcDbEntity
  8
Ringo-Row-keyboard v13 v4_Ringo-Row-keyboard v13_Sketch4
100
AcDbLine
 10
7.835954640373302
 20
33.40749856220292
 30
0.0
 11
7.835954640373302
 21
20.2649722490248
 31
0.0
  0
LINE
  5
136
330
70
100
AcDbEntity
  8
Ringo-Row-keyboard v13 v4_Ringo-Row-keyboard v13_Sketch4
100
AcDbLine
 10
10.76584438030301
 20
33.40749856220292
 30
0.0
 11
26.92095464037322
 21
33.40749856220292
 31
0.0
  0
LINE
  5
137
330
70
100
AcDbEntity
  8
Ringo-Row-keyboard v13 v4_Ringo-Row-keyboard v13_Sketch4
100
AcDbLine
 10
78.10284438030279
 20
1.018972249024876
 30
0.0
 11
78.10284438030279
 21
14.16149856220299
 31
0.0
  0
LINE
  5
138
330
70
100
AcDbEntity
  8
Ringo-Row-keyboard v13 v4_Ringo-Row-keyboard v13_Sketch4
100
AcDbLine
 10
-69.1120453596265
 20
33.40749856220292
 30
0.0
 11
-69.1120453596265
 21
20.2649722490248
 31
0.0
  0
LINE
  5
139
330
70
100
AcDbEntity
  8
Ringo-Row-keyboard v13 v4_Ringo-Row-keyboard v13_Sketch4
100
AcDbLine
 10
-40.24104535962655
 20
44.34197224902471
 30
0.0
 11
-56.39615561969681
 21
44.34197224902471
 31
0.0
  0
LINE
  5
13A
330
70
100
AcDbEntity
  8
Ringo-Row-keyboard v13 v4_Ringo-Row-keyboard v13_Sketch4
100
AcDbLine
 10
94.54295464037304
 20
57.48449856220283
 30
0.0
 11
94.54295464037304
 21
44.34197224902471
 31
0.0
  0
LINE
  5
13B
330
70
100
AcDbEntity
  8
Ringo-Row-keyboard v13 v4_Ringo-Row-keyboard v13_Sketch4
100
AcDbLine
 10
82.91484438030275
 20
-18.23902775097504
 30
0.0
 11
82.91484438030275
 21
-5.096501437796966
 31
0.0
  0
LINE
  5
13C
330
70
100
AcDbEntity
  8
Ringo-Row-keyboard v13 v4_Ringo-Row-keyboard v13_Sketch4
100
AcDbLine
 10
-85.2671556196967
 20
20.2649722490248
 30
0.0
 11
-85.2671556196967
 21
33.40749856220292
 31
0.0
  0
LINE
  5
13D
330
70
100
AcDbEntity
  8
Ringo-Row-keyboard v13 v4_Ringo-Row-keyboard v13_Sketch4
100
AcDbLine
 10
-16.15504535962671
 20
-18.23902775097504
 30
0.0
 11
-32.31015561969687
 21
-18.23902775097504
 31
0.0
  0
LINE
  5
13E
330
70
100
AcDbEntity
  8
Ringo-Row-keyboard v13 v4_Ringo-Row-keyboard v13_Sketch4
100
AcDbLine
 10
94.25795464037305
 20
14.16149856220299
 30
0.0
 11
94.25795464037305
 21
1.018972249024876
 31
0.0
  0
LINE
  5
13F
330
70
100
AcDbEntity
  8
Ringo-Row-keyboard v13 v4_Ringo-Row-keyboard v13_Sketch4
100
AcDbLine
 10
30.07984438030292
 20
33.40749856220292
 30
0.0
 11
46.2349546403731
 21
33.40749856220292
 31
0.0
  0
LINE
  5
140
330
70
100
AcDbEntity
  8
Ringo-Row-keyboard v13 v4_Ringo-Row-keyboard v13_Sketch4
100
AcDbLine
 10
-94.87815561969668
 20
1.018972249024876
 30
0.0
 11
-94.87815561969668
 21
14.16149856220299
 31
0.0
  0
LINE
  5
141
330
70
100
AcDbEntity
  8
Ringo-Row-keyboard v13 v4_Ringo-Row-keyboard v13_Sketch4
100
AcDbLine
 10
59.16784438030282
 20
44.34197224902471
 30
0.0
 11
59.16784438030282
 21
57.48449856220283
 31
0.0
  0
LINE
  5
142
330
70
100
AcDbEntity
  8
Ringo-Row-keyboard v13 v4_Ringo-Row-keyboard v13_Sketch4
100
AcDbLine
 10
-104.4591556196966
 20
20.2649722490248
 30
0.0
 11
-104.4591556196966
 21
33.40749856220292
 31
0.0
  0
LINE
  5
143
330
70
100
AcDbEntity
  8
Ringo-Row-keyboard v13 v4_Ringo-Row-keyboard v13_Sketch4
100
AcDbLine
 10
-104.4591556196966
 20
33.40749856220292
 30
0.0
 11
-88.30404535962646
 21
33.40749856220292
 31
0.0
  0
LINE
  5
144
330
70
100
AcDbEntity
  8
Ringo-Row-keyboard v13 v4_Ringo-Row-keyboard v13_Sketch4
100
AcDbLine
 10
-88.30404535962646
 20
20.2649722490248
 30
0.0
 11
-104.4591556196966
 21
20.2649722490248
 31
0.0
  0
LINE
  5
145
330
70
100
AcDbEntity
  8
Ringo-Row-keyboard v13 v4_Ringo-Row-keyboard v13_Sketch4
100
AcDbLine
 10
41.47895464037316
 20
-5.096501437796966
 30
0.0
 11
41.47895464037316
 21
-18.23902775097504
 31
0.0
  0
LINE
  5
146
330
70
100
AcDbEntity
  8
Ringo-Row-keyboard v13 v4_Ringo-Row-keyboard v13_Sketch4
100
AcDbLine
 10
128.2429546403729
 20
20.2649722490248
 30
0.0
 11
112.0878443803028
 21
20.2649722490248
 31
0.0
  0
LINE
  5
147
330
70
100
AcDbEntity
  8
Ringo-Row-keyboard v13 v4_Ringo-Row-keyboard v13_Sketch4
100
AcDbLine
 10
-56.43615561969674
 20
1.018972249024876
 30
0.0
 11
-56.43615561969674
 21
14.16149856220299
 31
0.0
  0
LINE
  5
148
330
70
100
AcDbEntity
  8
Ringo-Row-keyboard v13 v4_Ringo-Row-keyboard v13_Sketch4
100
AcDbLine
 10
112.0878443803028
 20
20.2649722490248
 30
0.0
 11
112.0878443803028
 21
33.40749856220292
 31
0.0
  0
LINE
  5
149
330
70
100
AcDbEntity
  8
Ringo-Row-keyboard v13 v4_Ringo-Row-keyboard v13_Sketch4
100
AcDbLine
 10
55.75195464037313
 20
1.018972249024876
 30
0.0
 11
39.59684438030291
 21
1.018972249024876
 31
0.0
  0
LINE
  5
14A
330
70
100
AcDbEntity
  8
Ringo-Row-keyboard v13 v4_Ringo-Row-keyboard v13_Sketch4
100
AcDbLine
 10
-114.0701556196966
 20
14.16149856220299
 30
0.0
 11
-97.91504535962644
 21
14.16149856220299
 31
0.0
  0
LINE
  5
14B
330
70
100
AcDbEntity
  8
Ringo-Row-keyboard v13 v4_Ringo-Row-keyboard v13_Sketch4
100
AcDbLine
 10
-90.06615561969667
 20
-18.23902775097504
 30
0.0
 11
-90.06615561969667
 21
-5.096501437796966
 31
0.0
  0
LINE
  5
14C
330
70
100
AcDbEntity
  8
Ringo-Row-keyboard v13 v4_Ringo-Row-keyboard v13_Sketch4
100
AcDbLine
 10
130.8764943278533
 20
-10.36437884468035
 30
0.0
 11
117.7339680146754
 21
-10.36437884468035
 31
0.0
  0
LINE
  5
14D
330
70
100
AcDbEntity
  8
Ringo-Row-keyboard v13 v4_Ringo-Row-keyboard v13_Sketch4
100
AcDbLine
 10
65.42695464037308
 20
20.2649722490248
 30
0.0
 11
49.27184438030287
 21
20.2649722490248
 31
0.0
  0
LINE
  5
14E
330
70
100
AcDbEntity
  8
Ringo-Row-keyboard v13 v4_Ringo-Row-keyboard v13_Sketch4
100
AcDbLine
 10
78.10284438030279
 20
14.16149856220299
 30
0.0
 11
94.25795464037305
 21
14.16149856220299
 31
0.0
  0
LINE
  5
14F
330
70
100
AcDbEntity
  8
Ringo-Row-keyboard v13 v4_Ringo-Row-keyboard v13_Sketch4
100
AcDbLine
 10
-1.775045359626773
 20
1.018972249024876
 30
0.0
 11
-17.9301556196969
 21
1.018972249024876
 31
0.0
  0
LINE
  5
150
330
70
100
AcDbEntity
  8
Ringo-Row-keyboard v13 v4_Ringo-Row-keyboard v13_Sketch4
100
AcDbLine
 10
-94.87815561969668
 20
14.16149856220299
 30
0.0
 11
-78.72304535962648
 21
14.16149856220299
 31
0.0
  0
LINE
  5
151
330
70
100
AcDbEntity
  8
Ringo-Row-keyboard v13 v4_Ringo-Row-keyboard v13_Sketch4
100
AcDbLine
 10
1.31984438030301
 20
14.16149856220299
 30
0.0
 11
17.47495464037317
 21
14.16149856220299
 31
0.0
  0
LINE
  5
152
330
70
100
AcDbEntity
  8
Ringo-Row-keyboard v13 v4_Ringo-Row-keyboard v13_Sketch4
100
AcDbLine
 10
113.5079546403729
 20
1.018972249024876
 30
0.0
 11
97.35284438030275
 21
1.018972249024876
 31
0.0
  0
LINE
  5
153
330
70
100
AcDbEntity
  8
Ringo-Row-keyboard v13 v4_Ringo-Row-keyboard v13_Sketch4
100
AcDbLine
 10
68.52184438030281
 20
33.40749856220292
 30
0.0
 11
84.67695464037303
 21
33.40749856220292
 31
0.0
  0
LINE
  5
154
330
70
100
AcDbEntity
  8
Ringo-Row-keyboard v13 v4_Ringo-Row-keyboard v13_Sketch4
100
AcDbLine
 10
41.47895464037316
 20
-18.23902775097504
 30
0.0
 11
25.32384438030295
 21
-18.23902775097504
 31
0.0
  0
LINE
  5
155
330
70
100
AcDbEntity
  8
Ringo-Row-keyboard v13 v4_Ringo-Row-keyboard v13_Sketch4
100
AcDbLine
 10
-51.62415561969678
 20
-5.096501437796966
 30
0.0
 11
-35.46904535962665
 21
-5.096501437796966
 31
0.0
  0
LINE
  5
156
330
70
100
AcDbEntity
  8
Ringo-Row-keyboard v13 v4_Ringo-Row-keyboard v13_Sketch4
100
AcDbLine
 10
99.06995464037297
 20
-5.096501437796966
 30
0.0
 11
99.06995464037297
 21
-18.23902775097504
 31
0.0
  0
LINE
  5
157
330
70
100
AcDbEntity
  8
Ringo-Row-keyboard v13 v4_Ringo-Row-keyboard v13_Sketch4
100
AcDbLine
 10
6.131844380302993
 20
-18.23902775097504
 30
0.0
 11
6.131844380302993
 21
-5.096501437796966
 31
0.0
  0
LINE
  5
158
330
70
100
AcDbEntity
  8
Ringo-Row-keyboard v13 v4_Ringo-Row-keyboard v13_Sketch4
100
AcDbLine
 10
60.56395464037311
 20
-18.23902775097504
 30
0.0
 11
44.40884438030289
 21
-18.23902775097504
 31
0.0
  0
LINE
  5
159
330
70
100
AcDbEntity
  8
Ringo-Row-keyboard v13 v4_Ringo-Row-keyboard v13_Sketch4
100
AcDbLine
 10
20.51184438030299
 20
14.16149856220299
 30
0.0
 11
36.66695464037312
 21
14.16149856220299
 31
0.0
  0
LINE
  5
15A
330
70
100
AcDbEntity
  8
Ringo-Row-keyboard v13 v4_Ringo-Row-keyboard v13_Sketch4
100
AcDbLine
 10
-126.7460453596263
 20
33.40749856220292
 30
0.0
 11
-126.7460453596263
 21
20.2649722490248
 31
0.0
  0
LINE
  5
15B
330
70
100
AcDbEntity
  8
Ringo-Row-keyboard v13 v4_Ringo-Row-keyboard v13_Sketch4
100
AcDbLine
 10
-121.9820453596264
 20
14.16149856220299
 30
0.0
 11
-121.9820453596264
 21
1.018972249024876
 31
0.0
  0
LINE
  5
15C
330
70
100
AcDbEntity
  8
Ringo-Row-keyboard v13 v4_Ringo-Row-keyboard v13_Sketch4
100
AcDbLine
 10
-138.1371556196965
 20
14.16149856220299
 30
0.0
 11
-121.9820453596264
 21
14.16149856220299
 31
0.0
  0
LINE
  5
15D
330
70
100
AcDbEntity
  8
Ringo-Row-keyboard v13 v4_Ringo-Row-keyboard v13_Sketch4
100
AcDbLine
 10
39.59684438030291
 20
1.018972249024876
 30
0.0
 11
39.59684438030291
 21
14.16149856220299
 31
0.0
  0
LINE
  5
15E
330
70
100
AcDbEntity
  8
Ringo-Row-keyboard v13 v4_Ringo-Row-keyboard v13_Sketch4
100
AcDbLine
 10
-70.81615561969671
 20
-5.096501437796966
 30
0.0
 11
-54.66104535962656
 21
-5.096501437796966
 31
0.0
  0
LINE
  5
15F
330
70
100
AcDbEntity
  8
Ringo-Row-keyboard v13 v4_Ringo-Row-keyboard v13_Sketch4
100
AcDbLine
 10
-56.43615561969674
 20
14.16149856220299
 30
0.0
 11
-40.28104535962663
 21
14.16149856220299
 31
0.0
  0
LINE
  5
160
330
70
100
AcDbEntity
  8
Ringo-Row-keyboard v13 v4_Ringo-Row-keyboard v13_Sketch4
100
AcDbLine
 10
49.27184438030287
 20
33.40749856220292
 30
0.0
 11
65.42695464037308
 21
33.40749856220292
 31
0.0
  0
LINE
  5
161
330
70
100
AcDbEntity
  8
Ringo-Row-keyboard v13 v4_Ringo-Row-keyboard v13_Sketch4
100
AcDbLine
 10
117.7339680146754
 20
5.790731415389814
 30
0.0
 11
130.8764943278535
 21
5.790731415389814
 31
0.0
  0
LINE
  5
162
330
70
100
AcDbEntity
  8
Ringo-Row-keyboard v13 v4_Ringo-Row-keyboard v13_Sketch4
100
AcDbLine
 10
87.71384438030276
 20
33.40749856220292
 30
0.0
 11
103.868954640373
 21
33.40749856220292
 31
0.0
  0
LINE
  5
163
330
70
100
AcDbEntity
  8
Ringo-Row-keyboard v13 v4_Ringo-Row-keyboard v13_Sketch4
100
AcDbLine
 10
26.92095464037322
 20
20.2649722490248
 30
0.0
 11
10.76584438030301
 21
20.2649722490248
 31
0.0
  0
LINE
  5
164
330
70
100
AcDbEntity
  8
Ringo-Row-keyboard v13 v4_Ringo-Row-keyboard v13_Sketch4
100
AcDbLine
 10
58.91084438030287
 20
1.018972249024876
 30
0.0
 11
58.91084438030287
 21
14.16149856220299
 31
0.0
  0
LINE
  5
165
330
70
100
AcDbEntity
  8
Ringo-Row-keyboard v13 v4_Ringo-Row-keyboard v13_Sketch4
100
AcDbLine
 10
-90.06615561969667
 20
-5.096501437796966
 30
0.0
 11
-73.9110453596265
 21
-5.096501437796966
 31
0.0
  0
LINE
  5
166
330
70
100
AcDbEntity
  8
Ringo-Row-keyboard v13 v4_Ringo-Row-keyboard v13_Sketch4
100
AcDbLine
 10
1.31984438030301
 20
1.018972249024876
 30
0.0
 11
1.31984438030301
 21
14.16149856220299
 31
0.0
  0
LINE
  5
167
330
70
100
AcDbEntity
  8
Ringo-Row-keyboard v13 v4_Ringo-Row-keyboard v13_Sketch4
100
AcDbLine
 10
-35.46904535962665
 20
-18.23902775097504
 30
0.0
 11
-51.62415561969678
 21
-18.23902775097504
 31
0.0
  0
LINE
  5
168
330
70
100
AcDbEntity
  8
Ringo-Row-keyboard v13 v4_Ringo-Row-keyboard v13_Sketch4
100
AcDbLine
 10
20.51184438030299
 20
1.018972249024876
 30
0.0
 11
20.51184438030299
 21
14.16149856220299
 31
0.0
  0
LINE
  5
169
330
70
100
AcDbEntity
  8
Ringo-Row-keyboard v13 v4_Ringo-Row-keyboard v13_Sketch4
100
AcDbLine
 10
-114.0701556196966
 20
1.018972249024876
 30
0.0
 11
-114.0701556196966
 21
14.16149856220299
 31
0.0
  0
LINE
  5
16A
330
70
100
AcDbEntity
  8
Ringo-Row-keyboard v13 v4_Ringo-Row-keyboard v13_Sketch4
100
AcDbLine
 10
-37.12215561969683
 20
14.16149856220299
 30
0.0
 11
-20.96704535962671
 21
14.16149856220299
 31
0.0
  0
LINE
  5
16B
330
70
100
AcDbEntity
  8
Ringo-Row-keyboard v13 v4_Ringo-Row-keyboard v13_Sketch4
100
AcDbLine
 10
-20.96704535962671
 20
1.018972249024876
 30
0.0
 11
-37.12215561969683
 21
1.018972249024876
 31
0.0
  0
LINE
  5
16C
330
70
100
AcDbEntity
  8
Ringo-Row-keyboard v13 v4_Ringo-Row-keyboard v13_Sketch4
100
AcDbLine
 10
97.35284438030275
 20
14.16149856220299
 30
0.0
 11
113.5079546403729
 21
14.16149856220299
 31
0.0
  0
LINE
  5
16D
330
70
100
AcDbEntity
  8
Ringo-Row-keyboard v13 v4_Ringo-Row-keyboard v13_Sketch4
100
AcDbLine
 10
82.91484438030275
 20
-5.096501437796966
 30
0.0
 11
99.06995464037297
 21
-5.096501437796966
 31
0.0
  0
LINE
  5
16E
330
70
100
AcDbEntity
  8
Ringo-Row-keyboard v13 v4_Ringo-Row-keyboard v13_Sketch4
100
AcDbLine
 10
84.67695464037303
 20
33.40749856220292
 30
0.0
 11
84.67695464037303
 21
20.2649722490248
 31
0.0
  0
LINE
  5
16F
330
70
100
AcDbEntity
  8
Ringo-Row-keyboard v13 v4_Ringo-Row-keyboard v13_Sketch4
100
AcDbLine
 10
-59.47304535962654
 20
1.018972249024876
 30
0.0
 11
-75.62815561969671
 21
1.018972249024876
 31
0.0
  0
LINE
  5
170
330
70
100
AcDbEntity
  8
Ringo-Row-keyboard v13 v4_Ringo-Row-keyboard v13_Sketch4
100
AcDbLine
 10
55.75195464037313
 20
14.16149856220299
 30
0.0
 11
55.75195464037313
 21
1.018972249024876
 31
0.0
  0
LINE
  5
171
330
70
100
AcDbEntity
  8
Ringo-Row-keyboard v13 v4_Ringo-Row-keyboard v13_Sketch4
100
AcDbLine
 10
-78.72304535962648
 20
1.018972249024876
 30
0.0
 11
-94.87815561969668
 21
1.018972249024876
 31
0.0
  0
LINE
  5
172
330
70
100
AcDbEntity
  8
Ringo-Row-keyboard v13 v4_Ringo-Row-keyboard v13_Sketch4
100
AcDbLine
 10
44.40884438030289
 20
-5.096501437796966
 30
0.0
 11
60.56395464037311
 21
-5.096501437796966
 31
0.0
  0
LINE
  5
173
330
70
100
AcDbEntity
  8
Ringo-Row-keyboard v13 v4_Ringo-Row-keyboard v13_Sketch4
100
AcDbLine
 10
117.7339680146754
 20
-10.36437884468035
 30
0.0
 11
117.7339680146754
 21
5.790731415389814
 31
0.0
  0
LINE
  5
174
330
70
100
AcDbEntity
  8
Ringo-Row-keyboard v13 v4_Ringo-Row-keyboard v13_Sketch4
100
AcDbLine
 10
-54.66104535962656
 20
-5.096501437796966
 30
0.0
 11
-54.66104535962656
 21
-18.23902775097504
 31
0.0
  0
LINE
  5
175
330
70
100
AcDbEntity
  8
Ringo-Row-keyboard v13 v4_Ringo-Row-keyboard v13_Sketch4
100
AcDbLine
 10
22.28695464037327
 20
-5.096501437796966
 30
0.0
 11
22.28695464037327
 21
-18.23902775097504
 31
0.0
  0
LINE
  5
176
330
70
100
AcDbEntity
  8
Ringo-Row-keyboard v13 v4_Ringo-Row-keyboard v13_Sketch4
100
AcDbLine
 10
-97.91504535962644
 20
1.018972249024876
 30
0.0
 11
-114.0701556196966
 21
1.018972249024876
 31
0.0
  0
LINE
  5
177
330
70
100
AcDbEntity
  8
Ringo-Row-keyboard v13 v4_Ringo-Row-keyboard v13_Sketch4
100
AcDbLine
 10
-13.11815561969692
 20
-5.096501437796966
 30
0.0
 11
3.03695464037321
 21
-5.096501437796966
 31
0.0
  0
LINE
  5
178
330
70
100
AcDbEntity
  8
Ringo-Row-keyboard v13 v4_Ringo-Row-keyboard v13_Sketch4
100
AcDbLine
 10
-54.66104535962656
 20
-18.23902775097504
 30
0.0
 11
-70.81615561969671
 21
-18.23902775097504
 31
0.0
  0
LINE
  5
179
330
70
100
AcDbEntity
  8
Ringo-Row-keyboard v13 v4_Ringo-Row-keyboard v13_Sketch4
100
AcDbLine
 10
94.25795464037305
 20
1.018972249024876
 30
0.0
 11
78.10284438030279
 21
1.018972249024876
 31
0.0
  0
LINE
  5
17A
330
70
100
AcDbEntity
  8
Ringo-Row-keyboard v13 v4_Ringo-Row-keyboard v13_Sketch4
100
AcDbLine
 10
30.07984438030292
 20
20.2649722490248
 30
0.0
 11
30.07984438030292
 21
33.40749856220292
 31
0.0
  0
LINE
  5
17B
330
70
100
AcDbEntity
  8
Ringo-Row-keyboard v13 v4_Ringo-Row-keyboard v13_Sketch4
100
AcDbLine
 10
128.2429546403729
 20
33.40749856220292
 30
0.0
 11
128.2429546403729
 21
20.2649722490248
 31
0.0
  0
LINE
  5
17C
330
70
100
AcDbEntity
  8
Ringo-Row-keyboard v13 v4_Ringo-Row-keyboard v13_Sketch4
100
AcDbLine
 10
-40.28104535962663
 20
14.16149856220299
 30
0.0
 11
-40.28104535962663
 21
1.018972249024876
 31
0.0
  0
LINE
  5
17D
330
70
100
AcDbEntity
  8
Ringo-Row-keyboard v13 v4_Ringo-Row-keyboard v13_Sketch4
100
AcDbLine
 10
39.59684438030291
 20
14.16149856220299
 30
0.0
 11
55.75195464037313
 21
14.16149856220299
 31
0.0
  0
LINE
  5
17E
330
70
100
AcDbEntity
  8
Ringo-Row-keyboard v13 v4_Ringo-Row-keyboard v13_Sketch4
100
AcDbLine
 10
-93.10304535962643
 20
-5.096501437796966
 30
0.0
 11
-93.10304535962643
 21
-18.23902775097504
 31
0.0
  0
LINE
  5
17F
330
70
100
AcDbEntity
  8
Ringo-Row-keyboard v13 v4_Ringo-Row-keyboard v13_Sketch4
100
AcDbLine
 10
103.868954640373
 20
20.2649722490248
 30
0.0
 11
87.71384438030276
 21
20.2649722490248
 31
0.0
  0
LINE
  5
180
330
70
100
AcDbEntity
  8
Ringo-Row-keyboard v13 v4_Ringo-Row-keyboard v13_Sketch4
100
AcDbLine
 10
-37.12215561969683
 20
1.018972249024876
 30
0.0
 11
-37.12215561969683
 21
14.16149856220299
 31
0.0
  0
LINE
  5
181
330
70
100
AcDbEntity
  8
Ringo-Row-keyboard v13 v4_Ringo-Row-keyboard v13_Sketch4
100
AcDbLine
 10
-17.9301556196969
 20
1.018972249024876
 30
0.0
 11
-17.9301556196969
 21
14.16149856220299
 31
0.0
  0
LINE
  5
182
330
70
100
AcDbEntity
  8
Ringo-Row-keyboard v13 v4_Ringo-Row-keyboard v13_Sketch4
100
AcDbLine
 10
87.71384438030276
 20
20.2649722490248
 30
0.0
 11
87.71384438030276
 21
33.40749856220292
 31
0.0
  0
LINE
  5
183
330
70
100
AcDbEntity
  8
Ringo-Row-keyboard v13 v4_Ringo-Row-keyboard v13_Sketch4
100
AcDbLine
 10
97.35284438030275
 20
1.018972249024876
 30
0.0
 11
97.35284438030275
 21
14.16149856220299
 31
0.0
  0
LINE
  5
184
330
70
100
AcDbEntity
  8
Ringo-Row-keyboard v13 v4_Ringo-Row-keyboard v13_Sketch4
100
AcDbLine
 10
49.27184438030287
 20
20.2649722490248
 30
0.0
 11
49.27184438030287
 21
33.40749856220292
 31
0.0
  0
LINE
  5
185
330
70
100
AcDbEntity
  8
Ringo-Row-keyboard v13 v4_Ringo-Row-keyboard v13_Sketch4
100
AcDbLine
 10
-51.62415561969678
 20
-18.23902775097504
 30
0.0
 11
-51.62415561969678
 21
-5.096501437796966
 31
0.0
  0
LINE
  5
186
330
70
100
AcDbEntity
  8
Ringo-Row-keyboard v13 v4_Ringo-Row-keyboard v13_Sketch4
100
AcDbLine
 10
-135.7681556196965
 20
-5.096501437796966
 30
0.0
 11
-119.6130453596264
 21
-5.096501437796966
 31
0.0
  0
LINE
  5
187
330
70
100
AcDbEntity
  8
Ringo-Row-keyboard v13 v4_Ringo-Row-keyboard v13_Sketch4
100
AcDbLine
 10
-138.1371556196965
 20
1.018972249024876
 30
0.0
 11
-138.1371556196965
 21
14.16149856220299
 31
0.0
  0
LINE
  5
188
330
70
100
AcDbEntity
  8
Ringo-Row-keyboard v13 v4_Ringo-Row-keyboard v13_Sketch4
100
AcDbLine
 10
130.8764943278535
 20
5.790731415389814
 30
0.0
 11
130.8764943278533
 21
-10.36437884468035
 31
0.0
  0
LINE
  5
189
330
70
100
AcDbEntity
  8
Ringo-Row-keyboard v13 v4_Ringo-Row-keyboard v13_Sketch4
100
AcDbLine
 10
108.8089546403729
 20
-37.49702775097504
 30
0.0
 11
92.65384438030286
 21
-37.49702775097504
 31
0.0
  0
LINE
  5
18A
330
70
100
AcDbEntity
  8
Ringo-Row-keyboard v13 v4_Ringo-Row-keyboard v13_Sketch4
100
AcDbLine
 10
-22.6931556196969
 20
-24.35450143779692
 30
0.0
 11
-6.53804535962675
 21
-24.35450143779692
 31
0.0
  0
LINE
  5
18B
330
70
100
AcDbEntity
  8
Ringo-Row-keyboard v13 v4_Ringo-Row-keyboard v13_Sketch4
100
AcDbLine
 10
60.56395464037311
 20
-5.096501437796966
 30
0.0
 11
60.56395464037311
 21
-18.23902775097504
 31
0.0
  0
LINE
  5
18C
330
70
100
AcDbEntity
  8
Ringo-Row-keyboard v13 v4_Ringo-Row-keyboard v13_Sketch4
100
AcDbLine
 10
-119.6130453596264
 20
-18.23902775097504
 30
0.0
 11
-135.7681556196965
 21
-18.23902775097504
 31
0.0
  0
LINE
  5
18D
330
70
100
AcDbEntity
  8
Ringo-Row-keyboard v13 v4_Ringo-Row-keyboard v13_Sketch4
100
AcDbLine
 10
51.09595464037315
 20
-24.35450143779692
 30
0.0
 11
51.09595464037315
 21
-37.49702775097504
 31
0.0
  0
LINE
  5
18E
330
70
100
AcDbEntity
  8
Ringo-Row-keyboard v13 v4_Ringo-Row-keyboard v13_Sketch4
100
AcDbLine
 10
-73.9110453596265
 20
-5.096501437796966
 30
0.0
 11
-73.9110453596265
 21
-18.23902775097504
 31
0.0
  0
LINE
  5
18F
330
70
100
AcDbEntity
  8
Ringo-Row-keyboard v13 v4_Ringo-Row-keyboard v13_Sketch4
100
AcDbLine
 10
-73.9110453596265
 20
-18.23902775097504
 30
0.0
 11
-90.06615561969667
 21
-18.23902775097504
 31
0.0
  0
LINE
  5
190
330
70
100
AcDbEntity
  8
Ringo-Row-keyboard v13 v4_Ringo-Row-keyboard v13_Sketch4
100
AcDbLine
 10
-93.10304535962643
 20
-18.23902775097504
 30
0.0
 11
-109.2581556196966
 21
-18.23902775097504
 31
0.0
  0
LINE
  5
191
330
70
100
AcDbEntity
  8
Ringo-Row-keyboard v13 v4_Ringo-Row-keyboard v13_Sketch4
100
AcDbLine
 10
99.06995464037297
 20
-18.23902775097504
 30
0.0
 11
82.91484438030275
 21
-18.23902775097504
 31
0.0
  0
LINE
  5
192
330
70
100
AcDbEntity
  8
Ringo-Row-keyboard v13 v4_Ringo-Row-keyboard v13_Sketch4
100
AcDbLine
 10
-109.2581556196966
 20
-5.096501437796966
 30
0.0
 11
-93.10304535962643
 21
-5.096501437796966
 31
0.0
  0
LINE
  5
193
330
70
100
AcDbEntity
  8
Ringo-Row-keyboard v13 v4_Ringo-Row-keyboard v13_Sketch4
100
AcDbLine
 10
-70.81615561969671
 20
-18.23902775097504
 30
0.0
 11
-70.81615561969671
 21
-5.096501437796966
 31
0.0
  0
LINE
  5
194
330
70
100
AcDbEntity
  8
Ringo-Row-keyboard v13 v4_Ringo-Row-keyboard v13_Sketch4
100
AcDbLine
 10
-114.9630453596264
 20
-24.35450143779692
 30
0.0
 11
-114.9630453596264
 21
-37.49702775097504
 31
0.0
  0
LINE
  5
195
330
70
100
AcDbEntity
  8
Ringo-Row-keyboard v13 v4_Ringo-Row-keyboard v13_Sketch4
100
AcDbLine
 10
79.87795464037304
 20
-5.096501437796966
 30
0.0
 11
79.87795464037304
 21
-18.23902775097504
 31
0.0
  0
LINE
  5
196
330
70
100
AcDbEntity
  8
Ringo-Row-keyboard v13 v4_Ringo-Row-keyboard v13_Sketch4
100
AcDbLine
 10
-22.6931556196969
 20
-37.49702775097504
 30
0.0
 11
-22.6931556196969
 21
-24.35450143779692
 31
0.0
  0
LINE
  5
197
330
70
100
AcDbEntity
  8
Ringo-Row-keyboard v13 v4_Ringo-Row-keyboard v13_Sketch4
100
AcDbLine
 10
-13.11815561969692
 20
-18.23902775097504
 30
0.0
 11
-13.11815561969692
 21
-5.096501437796966
 31
0.0
  0
LINE
  5
198
330
70
100
AcDbEntity
  8
Ringo-Row-keyboard v13 v4_Ringo-Row-keyboard v13_Sketch4
100
AcDbLine
 10
-131.1181556196965
 20
-24.35450143779692
 30
0.0
 11
-114.9630453596264
 21
-24.35450143779692
 31
0.0
  0
LINE
  5
199
330
70
100
AcDbEntity
  8
Ringo-Row-keyboard v13 v4_Ringo-Row-keyboard v13_Sketch4
100
AcDbLine
 10
15.74884438030295
 20
-37.49702775097504
 30
0.0
 11
15.74884438030295
 21
-24.35450143779692
 31
0.0
  0
LINE
  5
19A
330
70
100
AcDbEntity
  8
Ringo-Row-keyboard v13 v4_Ringo-Row-keyboard v13_Sketch4
100
AcDbLine
 10
-100.3340453596264
 20
-43.61250143779681
 30
0.0
 11
-100.3340453596264
 21
-56.75502775097497
 31
0.0
  0
LINE
  5
19B
330
70
100
AcDbEntity
  8
Ringo-Row-keyboard v13 v4_Ringo-Row-keyboard v13_Sketch4
100
AcDbLine
 10
75.06595464037312
 20
1.018972249024876
 30
0.0
 11
58.91084438030287
 21
1.018972249024876
 31
0.0
  0
LINE
  5
19C
330
70
100
AcDbEntity
  8
Ringo-Row-keyboard v13 v4_Ringo-Row-keyboard v13_Sketch4
100
AcDbLine
 10
36.66695464037312
 20
14.16149856220299
 30
0.0
 11
36.66695464037312
 21
1.018972249024876
 31
0.0
  0
LINE
  5
19D
330
70
100
AcDbEntity
  8
Ringo-Row-keyboard v13 v4_Ringo-Row-keyboard v13_Sketch4
100
AcDbLine
 10
-109.2581556196966
 20
-18.23902775097504
 30
0.0
 11
-109.2581556196966
 21
-5.096501437796966
 31
0.0
  0
LINE
  5
19E
330
70
100
AcDbEntity
  8
Ringo-Row-keyboard v13 v4_Ringo-Row-keyboard v13_Sketch4
100
AcDbLine
 10
-64.29404535962653
 20
-24.35450143779692
 30
0.0
 11
-64.29404535962653
 21
-37.49702775097504
 31
0.0
  0
LINE
  5
19F
330
70
100
AcDbEntity
  8
Ringo-Row-keyboard v13 v4_Ringo-Row-keyboard v13_Sketch4
100
AcDbLine
 10
79.87795464037304
 20
-18.23902775097504
 30
0.0
 11
63.7228443803028
 21
-18.23902775097504
 31
0.0
  0
LINE
  5
1A0
330
70
100
AcDbEntity
  8
Ringo-Row-keyboard v13 v4_Ringo-Row-keyboard v13_Sketch4
100
AcDbLine
 10
-80.44915561969668
 20
-37.49702775097504
 30
0.0
 11
-80.44915561969668
 21
-24.35450143779692
 31
0.0
  0
LINE
  5
1A1
330
70
100
AcDbEntity
  8
Ringo-Row-keyboard v13 v4_Ringo-Row-keyboard v13_Sketch4
100
AcDbLine
 10
92.65384438030286
 20
-37.49702775097504
 30
0.0
 11
92.65384438030286
 21
-24.35450143779692
 31
0.0
  0
LINE
  5
1A2
330
70
100
AcDbEntity
  8
Ringo-Row-keyboard v13 v4_Ringo-Row-keyboard v13_Sketch4
100
AcDbLine
 10
-142.9011556196965
 20
33.40749856220292
 30
0.0
 11
-126.7460453596263
 21
33.40749856220292
 31
0.0
  0
LINE
  5
1A3
330
70
100
AcDbEntity
  8
Ringo-Row-keyboard v13 v4_Ringo-Row-keyboard v13_Sketch4
100
AcDbLine
 10
-135.7681556196965
 20
-18.23902775097504
 30
0.0
 11
-135.7681556196965
 21
-5.096501437796966
 31
0.0
  0
LINE
  5
1A4
330
70
100
AcDbEntity
  8
Ringo-Row-keyboard v13 v4_Ringo-Row-keyboard v13_Sketch4
100
AcDbLine
 10
25.32384438030295
 20
-5.096501437796966
 30
0.0
 11
41.47895464037316
 21
-5.096501437796966
 31
0.0
  0
LINE
  5
1A5
330
70
100
AcDbEntity
  8
Ringo-Row-keyboard v13 v4_Ringo-Row-keyboard v13_Sketch4
100
AcDbLine
 10
70.18095464037307
 20
-37.49702775097504
 30
0.0
 11
54.02584438030297
 21
-37.49702775097504
 31
0.0
  0
LINE
  5
1A6
330
70
100
AcDbEntity
  8
Ringo-Row-keyboard v13 v4_Ringo-Row-keyboard v13_Sketch4
100
AcDbLine
 10
22.28695464037327
 20
-18.23902775097504
 30
0.0
 11
6.131844380302993
 21
-18.23902775097504
 31
0.0
  0
LINE
  5
1A7
330
70
100
AcDbEntity
  8
Ringo-Row-keyboard v13 v4_Ringo-Row-keyboard v13_Sketch4
100
AcDbLine
 10
-92.38715561969664
 20
-43.61250143779681
 30
0.0
 11
-76.23204535962649
 21
-43.61250143779681
 31
0.0
  0
LINE
  5
1A8
330
70
100
AcDbEntity
  8
Ringo-Row-keyboard v13 v4_Ringo-Row-keyboard v13_Sketch4
100
AcDbLine
 10
25.32384438030295
 20
-18.23902775097504
 30
0.0
 11
25.32384438030295
 21
-5.096501437796966
 31
0.0
  0
LINE
  5
1A9
330
70
100
AcDbEntity
  8
Ringo-Row-keyboard v13 v4_Ringo-Row-keyboard v13_Sketch4
100
AcDbLine
 10
6.131844380302993
 20
-5.096501437796966
 30
0.0
 11
22.28695464037327
 21
-5.096501437796966
 31
0.0
  0
LINE
  5
1AA
330
70
100
AcDbEntity
  8
Ringo-Row-keyboard v13 v4_Ringo-Row-keyboard v13_Sketch4
100
AcDbLine
 10
-32.31015561969687
 20
-18.23902775097504
 30
0.0
 11
-32.31015561969687
 21
-5.096501437796966
 31
0.0
  0
LINE
  5
1AB
330
70
100
AcDbEntity
  8
Ringo-Row-keyboard v13 v4_Ringo-Row-keyboard v13_Sketch4
100
AcDbLine
 10
63.7228443803028
 20
-18.23902775097504
 30
0.0
 11
63.7228443803028
 21
-5.096501437796966
 31
0.0
  0
LINE
  5
1AC
330
70
100
AcDbEntity
  8
Ringo-Row-keyboard v13 v4_Ringo-Row-keyboard v13_Sketch4
100
AcDbLine
 10
12.65395464037314
 20
-37.49702775097504
 30
0.0
 11
-3.501155619696987
 21
-37.49702775097504
 31
0.0
  0
LINE
  5
1AD
330
70
100
AcDbEntity
  8
Ringo-Row-keyboard v13 v4_Ringo-Row-keyboard v13_Sketch4
100
AcDbLine
 10
-83.48604535962648
 20
-24.35450143779692
 30
0.0
 11
-83.48604535962648
 21
-37.49702775097504
 31
0.0
  0
LINE
  5
1AE
330
70
100
AcDbEntity
  8
Ringo-Row-keyboard v13 v4_Ringo-Row-keyboard v13_Sketch4
100
AcDbLine
 10
-99.64115561969665
 20
-24.35450143779692
 30
0.0
 11
-83.48604535962648
 21
-24.35450143779692
 31
0.0
  0
LINE
  5
1AF
330
70
100
AcDbEntity
  8
Ringo-Row-keyboard v13 v4_Ringo-Row-keyboard v13_Sketch4
100
AcDbLine
 10
130.6559546403729
 20
-37.49702775097504
 30
0.0
 11
114.5008443803028
 21
-37.49702775097504
 31
0.0
  0
LINE
  5
1B0
330
70
100
AcDbEntity
  8
Ringo-Row-keyboard v13 v4_Ringo-Row-keyboard v13_Sketch4
100
AcDbLine
 10
-35.46904535962665
 20
-5.096501437796966
 30
0.0
 11
-35.46904535962665
 21
-18.23902775097504
 31
0.0
  0
LINE
  5
1B1
330
70
100
AcDbEntity
  8
Ringo-Row-keyboard v13 v4_Ringo-Row-keyboard v13_Sketch4
100
AcDbLine
 10
-119.6130453596264
 20
-5.096501437796966
 30
0.0
 11
-119.6130453596264
 21
-18.23902775097504
 31
0.0
  0
LINE
  5
1B2
330
70
100
AcDbEntity
  8
Ringo-Row-keyboard v13 v4_Ringo-Row-keyboard v13_Sketch4
100
AcDbLine
 10
-16.15504535962671
 20
-5.096501437796966
 30
0.0
 11
-16.15504535962671
 21
-18.23902775097504
 31
0.0
  0
LINE
  5
1B3
330
70
100
AcDbEntity
  8
Ringo-Row-keyboard v13 v4_Ringo-Row-keyboard v13_Sketch4
100
AcDbLine
 10
-80.44915561969668
 20
-24.35450143779692
 30
0.0
 11
-64.29404535962653
 21
-24.35450143779692
 31
0.0
  0
LINE
  5
1B4
330
70
100
AcDbEntity
  8
Ringo-Row-keyboard v13 v4_Ringo-Row-keyboard v13_Sketch4
100
AcDbLine
 10
44.40884438030289
 20
-18.23902775097504
 30
0.0
 11
44.40884438030289
 21
-5.096501437796966
 31
0.0
  0
LINE
  5
1B5
330
70
100
AcDbEntity
  8
Ringo-Row-keyboard v13 v4_Ringo-Row-keyboard v13_Sketch4
100
AcDbLine
 10
121.0487171030363
 20
10.32739384727892
 30
0.0
 11
115.7874827170602
 21
10.32739384727892
 31
0.0
  0
LINE
  5
1B6
330
70
100
AcDbEntity
  8
Ringo-Row-keyboard v13 v4_Ringo-Row-keyboard v13_Sketch4
100
AcDbLine
 10
51.09595464037315
 20
-37.49702775097504
 30
0.0
 11
34.94084438030291
 21
-37.49702775097504
 31
0.0
  0
LINE
  5
1B7
330
70
100
AcDbEntity
  8
Ringo-Row-keyboard v13 v4_Ringo-Row-keyboard v13_Sketch4
100
AcDbLine
 10
-92.38715561969664
 20
-56.75502775097497
 30
0.0
 11
-92.38715561969664
 21
-43.61250143779681
 31
0.0
  0
LINE
  5
1B8
330
70
100
AcDbEntity
  8
Ringo-Row-keyboard v13 v4_Ringo-Row-keyboard v13_Sketch4
100
AcDbLine
 10
-61.19915561969673
 20
-37.49702775097504
 30
0.0
 11
-61.19915561969673
 21
-24.35450143779692
 31
0.0
  0
LINE
  5
1B9
330
70
100
AcDbEntity
  8
Ringo-Row-keyboard v13 v4_Ringo-Row-keyboard v13_Sketch4
100
AcDbLine
 10
3.03695464037321
 20
-5.096501437796966
 30
0.0
 11
3.03695464037321
 21
-18.23902775097504
 31
0.0
  0
LINE
  5
1BA
330
70
100
AcDbEntity
  8
Ringo-Row-keyboard v13 v4_Ringo-Row-keyboard v13_Sketch4
100
AcDbLine
 10
-121.9820453596264
 20
1.018972249024876
 30
0.0
 11
-138.1371556196965
 21
1.018972249024876
 31
0.0
  0
LINE
  5
1BB
330
70
100
AcDbEntity
  8
Ringo-Row-keyboard v13 v4_Ringo-Row-keyboard v13_Sketch4
100
AcDbLine
 10
121.0487171030363
 20
13.5946326278988
 30
0.0
 11
121.0487171030363
 21
10.32739384727892
 31
0.0
  0
LINE
  5
1BC
330
70
100
AcDbEntity
  8
Ringo-Row-keyboard v13 v4_Ringo-Row-keyboard v13_Sketch4
100
AcDbLine
 10
63.7228443803028
 20
-5.096501437796966
 30
0.0
 11
79.87795464037304
 21
-5.096501437796966
 31
0.0
  0
LINE
  5
1BD
330
70
100
AcDbEntity
  8
Ringo-Row-keyboard v13 v4_Ringo-Row-keyboard v13_Sketch4
100
AcDbLine
 10
-32.31015561969687
 20
-5.096501437796966
 30
0.0
 11
-16.15504535962671
 21
-5.096501437796966
 31
0.0
  0
LINE
  5
1BE
330
70
100
AcDbEntity
  8
Ringo-Row-keyboard v13 v4_Ringo-Row-keyboard v13_Sketch4
100
AcDbLine
 10
130.6559546403729
 20
-24.35450143779692
 30
0.0
 11
130.6559546403729
 21
-37.49702775097504
 31
0.0
  0
LINE
  5
1BF
330
70
100
AcDbEntity
  8
Ringo-Row-keyboard v13 v4_Ringo-Row-keyboard v13_Sketch4
100
AcDbLine
 10
12.65395464037314
 20
-24.35450143779692
 30
0.0
 11
12.65395464037314
 21
-37.49702775097504
 31
0.0
  0
LINE
  5
1C0
330
70
100
AcDbEntity
  8
Ringo-Row-keyboard v13 v4_Ringo-Row-keyboard v13_Sketch4
100
AcDbLine
 10
54.02584438030297
 20
-37.49702775097504
 30
0.0
 11
54.02584438030297
 21
-24.35450143779692
 31
0.0
  0
LINE
  5
1C1
330
70
100
AcDbEntity
  8
Ringo-Row-keyboard v13 v4_Ringo-Row-keyboard v13_Sketch4
100
AcDbLine
 10
-121.9820453596264
 20
1.018972249024876
 30
0.0
 11
-138.1371556196965
 21
1.018972249024876
 31
0.0
  0
LINE
  5
1C2
330
70
100
AcDbEntity
  8
Ringo-Row-keyboard v13 v4_Ringo-Row-keyboard v13_Sketch4
100
AcDbLine
 10
3.03695464037321
 20
-18.23902775097504
 30
0.0
 11
-13.11815561969692
 21
-18.23902775097504
 31
0.0
  0
LINE
  5
1C3
330
70
100
AcDbEntity
  8
Ringo-Row-keyboard v13 v4_Ringo-Row-keyboard v13_Sketch4
100
AcDbLine
 10
115.7874827170602
 20
13.5946326278988
 30
0.0
 11
121.0487171030363
 21
13.5946326278988
 31
0.0
  0
LINE
  5
1C4
330
70
100
AcDbEntity
  8
Ringo-Row-keyboard v13 v4_Ringo-Row-keyboard v13_Sketch4
100
AcDbLine
 10
-42.00715561969682
 20
-24.35450143779692
 30
0.0
 11
-25.85204535962667
 21
-24.35450143779692
 31
0.0
  0
LINE
  5
1C5
330
70
100
AcDbEntity
  8
Ringo-Row-keyboard v13 v4_Ringo-Row-keyboard v13_Sketch4
100
AcDbLine
 10
89.49495464037303
 20
-24.35450143779692
 30
0.0
 11
89.49495464037303
 21
-37.49702775097504
 31
0.0
  0
LINE
  5
1C6
330
70
100
AcDbEntity
  8
Ringo-Row-keyboard v13 v4_Ringo-Row-keyboard v13_Sketch4
100
AcDbLine
 10
34.94084438030291
 20
-37.49702775097504
 30
0.0
 11
34.94084438030291
 21
-24.35450143779692
 31
0.0
  0
LINE
  5
1C7
330
70
100
AcDbEntity
  8
Ringo-Row-keyboard v13 v4_Ringo-Row-keyboard v13_Sketch4
100
AcDbLine
 10
-42.00715561969682
 20
-37.49702775097504
 30
0.0
 11
-42.00715561969682
 21
-24.35450143779692
 31
0.0
  0
LINE
  5
1C8
330
70
100
AcDbEntity
  8
Ringo-Row-keyboard v13 v4_Ringo-Row-keyboard v13_Sketch4
100
AcDbLine
 10
-25.85204535962667
 20
-37.49702775097504
 30
0.0
 11
-42.00715561969682
 21
-37.49702775097504
 31
0.0
  0
LINE
  5
1C9
330
70
100
AcDbEntity
  8
Ringo-Row-keyboard v13 v4_Ringo-Row-keyboard v13_Sketch4
100
AcDbLine
 10
16.61095464037319
 20
-43.61250143779681
 30
0.0
 11
16.61095464037319
 21
-56.75502775097497
 31
0.0
  0
LINE
  5
1CA
330
70
100
AcDbEntity
  8
Ringo-Row-keyboard v13 v4_Ringo-Row-keyboard v13_Sketch4
100
AcDbLine
 10
114.5008443803028
 20
-37.49702775097504
 30
0.0
 11
114.5008443803028
 21
-24.35450143779692
 31
0.0
  0
LINE
  5
1CB
330
70
100
AcDbEntity
  8
Ringo-Row-keyboard v13 v4_Ringo-Row-keyboard v13_Sketch4
100
AcDbLine
 10
23.51776403730827
 20
-41.49155963419425
 30
0.0
 11
23.51776403730827
 21
-46.54248323109461
 31
0.0
  0
LINE
  5
1CC
330
70
100
AcDbEntity
  8
Ringo-Row-keyboard v13 v4_Ringo-Row-keyboard v13_Sketch4
100
AcDbLine
 10
113.5079546403729
 20
14.16149856220299
 30
0.0
 11
113.5079546403729
 21
1.018972249024876
 31
0.0
  0
LINE
  5
1CD
330
70
100
AcDbEntity
  8
Ringo-Row-keyboard v13 v4_Ringo-Row-keyboard v13_Sketch4
100
AcDbLine
 10
66.36184438030281
 20
-56.75502775097497
 30
0.0
 11
66.36184438030281
 21
-43.61250143779681
 31
0.0
  0
LINE
  5
1CE
330
70
100
AcDbEntity
  8
Ringo-Row-keyboard v13 v4_Ringo-Row-keyboard v13_Sketch4
100
AcDbLine
 10
113.5079546403729
 20
14.16149856220299
 30
0.0
 11
113.5079546403729
 21
1.018972249024876
 31
0.0
  0
LINE
  5
1CF
330
70
100
AcDbEntity
  8
Ringo-Row-keyboard v13 v4_Ringo-Row-keyboard v13_Sketch4
100
AcDbLine
 10
73.33984438030293
 20
-37.49702775097504
 30
0.0
 11
73.33984438030293
 21
-24.35450143779692
 31
0.0
  0
LINE
  5
1D0
330
70
100
AcDbEntity
  8
Ringo-Row-keyboard v13 v4_Ringo-Row-keyboard v13_Sketch4
100
AcDbLine
 10
20.99053183614146
 20
-41.49155963419434
 30
0.0
 11
23.51776403730827
 21
-41.49155963419425
 31
0.0
  0
LINE
  5
1D1
330
70
100
AcDbEntity
  8
Ringo-Row-keyboard v13 v4_Ringo-Row-keyboard v13_Sketch4
100
AcDbLine
 10
70.18095464037307
 20
-24.35450143779692
 30
0.0
 11
70.18095464037307
 21
-37.49702775097504
 31
0.0
  0
LINE
  5
1D2
330
70
100
AcDbEntity
  8
Ringo-Row-keyboard v13 v4_Ringo-Row-keyboard v13_Sketch4
100
AcDbLine
 10
20.99053183614146
 20
-46.54248323109461
 30
0.0
 11
20.99053183614146
 21
-41.49155963419434
 31
0.0
  0
LINE
  5
1D3
330
70
100
AcDbEntity
  8
Ringo-Row-keyboard v13 v4_Ringo-Row-keyboard v13_Sketch4
100
AcDbLine
 10
31.9039546403732
 20
-37.49702775097504
 30
0.0
 11
15.74884438030295
 21
-37.49702775097504
 31
0.0
  0
LINE
  5
1D4
330
70
100
AcDbEntity
  8
Ringo-Row-keyboard v13 v4_Ringo-Row-keyboard v13_Sketch4
100
AcDbLine
 10
31.9039546403732
 20
-24.35450143779692
 30
0.0
 11
31.9039546403732
 21
-37.49702775097504
 31
0.0
  0
LINE
  5
1D5
330
70
100
AcDbEntity
  8
Ringo-Row-keyboard v13 v4_Ringo-Row-keyboard v13_Sketch4
100
AcDbLine
 10
-64.29404535962653
 20
-37.49702775097504
 30
0.0
 11
-80.44915561969668
 21
-37.49702775097504
 31
0.0
  0
LINE
  5
1D6
330
70
100
AcDbEntity
  8
Ringo-Row-keyboard v13 v4_Ringo-Row-keyboard v13_Sketch4
100
AcDbLine
 10
39.46826005152568
 20
-46.53088330744574
 30
0.0
 11
36.94102785035881
 21
-46.53088330744574
 31
0.0
  0
LINE
  5
1D7
330
70
100
AcDbEntity
  8
Ringo-Row-keyboard v13 v4_Ringo-Row-keyboard v13_Sketch4
100
AcDbLine
 10
-100.3340453596264
 20
-56.75502775097497
 30
0.0
 11
-116.4891556196966
 21
-56.75502775097497
 31
0.0
  0
LINE
  5
1D8
330
70
100
AcDbEntity
  8
Ringo-Row-keyboard v13 v4_Ringo-Row-keyboard v13_Sketch4
100
AcDbLine
 10
-61.19915561969673
 20
-24.35450143779692
 30
0.0
 11
-45.04404535962662
 21
-24.35450143779692
 31
0.0
  0
LINE
  5
1D9
330
70
100
AcDbEntity
  8
Ringo-Row-keyboard v13 v4_Ringo-Row-keyboard v13_Sketch4
100
AcDbLine
 10
15.74884438030295
 20
-24.35450143779692
 30
0.0
 11
31.9039546403732
 21
-24.35450143779692
 31
0.0
  0
LINE
  5
1DA
330
70
100
AcDbEntity
  8
Ringo-Row-keyboard v13 v4_Ringo-Row-keyboard v13_Sketch4
100
AcDbLine
 10
114.5008443803028
 20
-24.35450143779692
 30
0.0
 11
130.6559546403729
 21
-24.35450143779692
 31
0.0
  0
LINE
  5
1DB
330
70
100
AcDbEntity
  8
Ringo-Row-keyboard v13 v4_Ringo-Row-keyboard v13_Sketch4
100
AcDbLine
 10
-76.23204535962649
 20
-56.75502775097497
 30
0.0
 11
-92.38715561969664
 21
-56.75502775097497
 31
0.0
  0
LINE
  5
1DC
330
70
100
AcDbEntity
  8
Ringo-Row-keyboard v13 v4_Ringo-Row-keyboard v13_Sketch4
100
AcDbLine
 10
92.65384438030286
 20
-24.35450143779692
 30
0.0
 11
108.8089546403729
 21
-24.35450143779692
 31
0.0
  0
LINE
  5
1DD
330
70
100
AcDbEntity
  8
Ringo-Row-keyboard v13 v4_Ringo-Row-keyboard v13_Sketch4
100
AcDbLine
 10
23.51776403730827
 20
-46.54248323109461
 30
0.0
 11
20.99053183614146
 21
-46.54248323109461
 31
0.0
  0
LINE
  5
1DE
330
70
100
AcDbEntity
  8
Ringo-Row-keyboard v13 v4_Ringo-Row-keyboard v13_Sketch4
100
AcDbLine
 10
0.4558443803030344
 20
-56.75502775097497
 30
0.0
 11
0.4558443803030344
 21
-43.61250143779681
 31
0.0
  0
LINE
  5
1DF
330
70
100
AcDbEntity
  8
Ringo-Row-keyboard v13 v4_Ringo-Row-keyboard v13_Sketch4
100
AcDbLine
 10
82.51695464037297
 20
-43.61250143779681
 30
0.0
 11
82.51695464037297
 21
-56.75502775097497
 31
0.0
  0
LINE
  5
1E0
330
70
100
AcDbEntity
  8
Ringo-Row-keyboard v13 v4_Ringo-Row-keyboard v13_Sketch4
100
AcDbLine
 10
-116.4891556196966
 20
-43.61250143779681
 30
0.0
 11
-100.3340453596264
 21
-43.61250143779681
 31
0.0
  0
LINE
  5
1E1
330
70
100
AcDbEntity
  8
Ringo-Row-keyboard v13 v4_Ringo-Row-keyboard v13_Sketch4
100
AcDbLine
 10
91.41584438030276
 20
-43.61250143779681
 30
0.0
 11
107.570954640373
 21
-43.61250143779681
 31
0.0
  0
LINE
  5
1E2
330
70
100
AcDbEntity
  8
Ringo-Row-keyboard v13 v4_Ringo-Row-keyboard v13_Sketch4
100
AcDbLine
 10
-3.501155619696987
 20
-24.35450143779692
 30
0.0
 11
12.65395464037314
 21
-24.35450143779692
 31
0.0
  0
LINE
  5
1E3
330
70
100
AcDbEntity
  8
Ringo-Row-keyboard v13 v4_Ringo-Row-keyboard v13_Sketch4
100
AcDbLine
 10
-131.1181556196965
 20
-37.49702775097504
 30
0.0
 11
-131.1181556196965
 21
-24.35450143779692
 31
0.0
  0
LINE
  5
1E4
330
70
100
AcDbEntity
  8
Ringo-Row-keyboard v13 v4_Ringo-Row-keyboard v13_Sketch4
100
AcDbLine
 10
-76.23204535962649
 20
-43.61250143779681
 30
0.0
 11
-76.23204535962649
 21
-56.75502775097497
 31
0.0
  0
LINE
  5
1E5
330
70
100
AcDbEntity
  8
Ringo-Row-keyboard v13 v4_Ringo-Row-keyboard v13_Sketch4
100
AcDbLine
 10
-45.04404535962662
 20
-24.35450143779692
 30
0.0
 11
-45.04404535962662
 21
-37.49702775097504
 31
0.0
  0
LINE
  5
1E6
330
70
100
AcDbEntity
  8
Ringo-Row-keyboard v13 v4_Ringo-Row-keyboard v13_Sketch4
100
AcDbLine
 10
0.4558443803030344
 20
-43.61250143779681
 30
0.0
 11
16.61095464037319
 21
-43.61250143779681
 31
0.0
  0
LINE
  5
1E7
330
70
100
AcDbEntity
  8
Ringo-Row-keyboard v13 v4_Ringo-Row-keyboard v13_Sketch4
100
AcDbLine
 10
36.94102785035881
 20
-46.53088330744574
 30
0.0
 11
36.94102785035881
 21
-41.47995971054544
 31
0.0
  0
LINE
  5
1E8
330
70
100
AcDbEntity
  8
Ringo-Row-keyboard v13 v4_Ringo-Row-keyboard v13_Sketch4
100
AcDbLine
 10
23.51776403730827
 20
-41.49155963419425
 30
0.0
 11
23.51776403730827
 21
-46.54248323109461
 31
0.0
  0
LINE
  5
1E9
330
70
100
AcDbEntity
  8
Ringo-Row-keyboard v13 v4_Ringo-Row-keyboard v13_Sketch4
100
AcDbLine
 10
-45.04404535962662
 20
-37.49702775097504
 30
0.0
 11
-61.19915561969673
 21
-37.49702775097504
 31
0.0
  0
LINE
  5
1EA
330
70
100
AcDbEntity
  8
Ringo-Row-keyboard v13 v4_Ringo-Row-keyboard v13_Sketch4
100
AcDbLine
 10
89.49495464037303
 20
-37.49702775097504
 30
0.0
 11
73.33984438030293
 21
-37.49702775097504
 31
0.0
  0
LINE
  5
1EB
330
70
100
AcDbEntity
  8
Ringo-Row-keyboard v13 v4_Ringo-Row-keyboard v13_Sketch4
100
AcDbLine
 10
107.570954640373
 20
-56.75502775097497
 30
0.0
 11
91.41584438030276
 21
-56.75502775097497
 31
0.0
  0
LINE
  5
1EC
330
70
100
AcDbEntity
  8
Ringo-Row-keyboard v13 v4_Ringo-Row-keyboard v13_Sketch4
100
AcDbLine
 10
91.41584438030276
 20
-56.75502775097497
 30
0.0
 11
91.41584438030276
 21
-43.61250143779681
 31
0.0
  0
LINE
  5
1ED
330
70
100
AcDbEntity
  8
Ringo-Row-keyboard v13 v4_Ringo-Row-keyboard v13_Sketch4
100
AcDbLine
 10
58.19795464037312
 20
-56.75502775097497
 30
0.0
 11
42.04284438030291
 21
-56.75502775097497
 31
0.0
  0
LINE
  5
1EE
330
70
100
AcDbEntity
  8
Ringo-Row-keyboard v13 v4_Ringo-Row-keyboard v13_Sketch4
100
AcDbLine
 10
-25.85204535962667
 20
-24.35450143779692
 30
0.0
 11
-25.85204535962667
 21
-37.49702775097504
 31
0.0
  0
LINE
  5
1EF
330
70
100
AcDbEntity
  8
Ringo-Row-keyboard v13 v4_Ringo-Row-keyboard v13_Sketch4
100
AcDbLine
 10
34.94084438030291
 20
-24.35450143779692
 30
0.0
 11
51.09595464037315
 21
-24.35450143779692
 31
0.0
  0
LINE
  5
1F0
330
70
100
AcDbEntity
  8
Ringo-Row-keyboard v13 v4_Ringo-Row-keyboard v13_Sketch4
100
AcDbLine
 10
39.46826005152568
 20
-41.47995971054544
 30
0.0
 11
39.46826005152568
 21
-46.53088330744574
 31
0.0
  0
LINE
  5
1F1
330
70
100
AcDbEntity
  8
Ringo-Row-keyboard v13 v4_Ringo-Row-keyboard v13_Sketch4
100
AcDbLine
 10
-6.53804535962675
 20
-24.35450143779692
 30
0.0
 11
-6.53804535962675
 21
-37.49702775097504
 31
0.0
  0
LINE
  5
1F2
330
70
100
AcDbEntity
  8
Ringo-Row-keyboard v13 v4_Ringo-Row-keyboard v13_Sketch4
100
AcDbLine
 10
108.8089546403729
 20
-24.35450143779692
 30
0.0
 11
108.8089546403729
 21
-37.49702775097504
 31
0.0
  0
LINE
  5
1F3
330
70
100
AcDbEntity
  8
Ringo-Row-keyboard v13 v4_Ringo-Row-keyboard v13_Sketch4
100
AcDbLine
 10
58.19795464037312
 20
-43.61250143779681
 30
0.0
 11
58.19795464037312
 21
-56.75502775097497
 31
0.0
  0
LINE
  5
1F4
330
70
100
AcDbEntity
  8
Ringo-Row-keyboard v13 v4_Ringo-Row-keyboard v13_Sketch4
100
AcDbLine
 10
66.36184438030281
 20
-43.61250143779681
 30
0.0
 11
82.51695464037297
 21
-43.61250143779681
 31
0.0
  0
LINE
  5
1F5
330
70
100
AcDbEntity
  8
Ringo-Row-keyboard v13 v4_Ringo-Row-keyboard v13_Sketch4
100
AcDbLine
 10
82.51695464037297
 20
-56.75502775097497
 30
0.0
 11
66.36184438030281
 21
-56.75502775097497
 31
0.0
  0
LINE
  5
1F6
330
70
100
AcDbEntity
  8
Ringo-Row-keyboard v13 v4_Ringo-Row-keyboard v13_Sketch4
100
AcDbLine
 10
-83.48604535962648
 20
-37.49702775097504
 30
0.0
 11
-99.64115561969665
 21
-37.49702775097504
 31
0.0
  0
LINE
  5
1F7
330
70
100
AcDbEntity
  8
Ringo-Row-keyboard v13 v4_Ringo-Row-keyboard v13_Sketch4
100
AcDbLine
 10
20.99053183614146
 20
-41.49155963419434
 30
0.0
 11
23.51776403730827
 21
-41.49155963419425
 31
0.0
  0
LINE
  5
1F8
330
70
100
AcDbEntity
  8
Ringo-Row-keyboard v13 v4_Ringo-Row-keyboard v13_Sketch4
100
AcDbLine
 10
73.33984438030293
 20
-24.35450143779692
 30
0.0
 11
89.49495464037303
 21
-24.35450143779692
 31
0.0
  0
LINE
  5
1F9
330
70
100
AcDbEntity
  8
Ringo-Row-keyboard v13 v4_Ringo-Row-keyboard v13_Sketch4
100
AcDbLine
 10
54.02584438030297
 20
-24.35450143779692
 30
0.0
 11
70.18095464037307
 21
-24.35450143779692
 31
0.0
  0
LINE
  5
1FA
330
70
100
AcDbEntity
  8
Ringo-Row-keyboard v13 v4_Ringo-Row-keyboard v13_Sketch4
100
AcDbLine
 10
36.94102785035881
 20
-41.47995971054544
 30
0.0
 11
39.46826005152568
 21
-41.47995971054544
 31
0.0
  0
LINE
  5
1FB
330
70
100
AcDbEntity
  8
Ringo-Row-keyboard v13 v4_Ringo-Row-keyboard v13_Sketch4
100
AcDbLine
 10
-99.64115561969665
 20
-37.49702775097504
 30
0.0
 11
-99.64115561969665
 21
-24.35450143779692
 31
0.0
  0
LINE
  5
1FC
330
70
100
AcDbEntity
  8
Ringo-Row-keyboard v13 v4_Ringo-Row-keyboard v13_Sketch4
100
AcDbLine
 10
23.51776403730827
 20
-46.54248323109461
 30
0.0
 11
20.99053183614146
 21
-46.54248323109461
 31
0.0
  0
LINE
  5
1FD
330
70
100
AcDbEntity
  8
Ringo-Row-keyboard v13 v4_Ringo-Row-keyboard v13_Sketch4
100
AcDbLine
 10
-114.9630453596264
 20
-37.49702775097504
 30
0.0
 11
-131.1181556196965
 21
-37.49702775097504
 31
0.0
  0
LINE
  5
1FE
330
70
100
AcDbEntity
  8
Ringo-Row-keyboard v13 v4_Ringo-Row-keyboard v13_Sketch4
100
AcDbLine
 10
-116.4891556196966
 20
-56.75502775097497
 30
0.0
 11
-116.4891556196966
 21
-43.61250143779681
 31
0.0
  0
LINE
  5
1FF
330
70
100
AcDbEntity
  8
Ringo-Row-keyboard v13 v4_Ringo-Row-keyboard v13_Sketch4
100
AcDbLine
 10
42.04284438030291
 20
-56.75502775097497
 30
0.0
 11
42.04284438030291
 21
-43.61250143779681
 31
0.0
  0
LINE
  5
200
330
70
100
AcDbEntity
  8
Ringo-Row-keyboard v13 v4_Ringo-Row-keyboard v13_Sketch4
100
AcDbLine
 10
20.99053183614146
 20
-46.54248323109461
 30
0.0
 11
20.99053183614146
 21
-41.49155963419434
 31
0.0
  0
LINE
  5
201
330
70
100
AcDbEntity
  8
Ringo-Row-keyboard v13 v4_Ringo-Row-keyboard v13_Sketch4
100
AcDbLine
 10
107.570954640373
 20
-43.61250143779681
 30
0.0
 11
107.570954640373
 21
-56.75502775097497
 31
0.0
  0
LINE
  5
202
330
70
100
AcDbEntity
  8
Ringo-Row-keyboard v13 v4_Ringo-Row-keyboard v13_Sketch4
100
AcDbLine
 10
-3.501155619696987
 20
-37.49702775097504
 30
0.0
 11
-3.501155619696987
 21
-24.35450143779692
 31
0.0
  0
LINE
  5
203
330
70
100
AcDbEntity
  8
Ringo-Row-keyboard v13 v4_Ringo-Row-keyboard v13_Sketch4
100
AcDbLine
 10
42.04284438030291
 20
-43.61250143779681
 30
0.0
 11
58.19795464037312
 21
-43.61250143779681
 31
0.0
  0
LINE
  5
204
330
70
100
AcDbEntity
  8
Ringo-Row-keyboard v13 v4_Ringo-Row-keyboard v13_Sketch4
100
AcDbLine
 10
16.61095464037319
 20
-56.75502775097497
 30
0.0
 11
0.4558443803030344
 21
-56.75502775097497
 31
0.0
  0
LINE
  5
205
330
70
100
AcDbEntity
  8
Ringo-Row-keyboard v13 v4_Ringo-Row-keyboard v13_Sketch4
100
AcDbLine
 10
-6.53804535962675
 20
-37.49702775097504
 30
0.0
 11
-22.6931556196969
 21
-37.49702775097504
 31
0.0
  0
ARC
  5
206
330
70
100
AcDbEntity
  8
Ringo-Row-keyboard v13 v4_Ringo-Row-keyboard v13_Sketch4
100
AcDbCircle
 10
-145.0174442799595
 20
-60.63478326820438
 30
0.0
 40
2.5
100
AcDbArc
 50
180.0000003603964
 51
269.9999999999993
  0
ARC
  5
207
330
70
100
AcDbEntity
  8
Ringo-Row-keyboard v13 v4_Ringo-Row-keyboard v13_Sketch4
100
AcDbCircle
 10
-145.0174450410983
 20
60.37093320019014
 30
0.0
 40
2.499999999999826
100
AcDbArc
 50
89.99790391497661
 51
180.0000003603976
  0
LINE
  5
208
330
70
100
AcDbEntity
  8
Ringo-Row-keyboard v13 v4_Ringo-Row-keyboard v13_Sketch4
100
AcDbLine
 10
115.7874827170602
 20
13.5946326278988
 30
0.0
 11
121.0487171030363
 21
13.5946326278988
 31
0.0
  0
LINE
  5
209
330
70
100
AcDbEntity
  8
Ringo-Row-keyboard v13 v4_Ringo-Row-keyboard v13_Sketch4
100
AcDbLine
 10
115.7874827170602
 20
-18.12060615272104
 30
0.0
 11
115.7874827170602
 21
-14.85336737210117
 31
0.0
  0
LINE
  5
20A
330
70
100
AcDbEntity
  8
Ringo-Row-keyboard v13 v4_Ringo-Row-keyboard v13_Sketch4
100
AcDbLine
 10
121.0487171030363
 20
-14.85336737210117
 30
0.0
 11
121.0487171030363
 21
-18.12060615272104
 31
0.0
  0
CIRCLE
  5
20B
330
70
100
AcDbEntity
  8
Ringo-Row-keyboard v13 v4_Ringo-Row-keyboard v13_Sketch4
100
AcDbCircle
 10
130.782154085674
 20
38.69177880251593
 30
0.0
 40
1.230472160166669
  0
CIRCLE
  5
20C
330
70
100
AcDbEntity
  8
Ringo-Row-keyboard v13 v4_Ringo-Row-keyboard v13_Sketch4
100
AcDbCircle
 10
116.863754085674
 20
-48.88592119748409
 30
0.0
 40
1.230472160166669
  0
LINE
  5
20D
330
70
100
AcDbEntity
  8
Ringo-Row-keyboard v13 v4_Ringo-Row-keyboard v13_Sketch4
100
AcDbLine
 10
115.7874827170602
 20
-14.85336737210117
 30
0.0
 11
121.0487171030363
 21
-14.85336737210117
 31
0.0
  0
CIRCLE
  5
20E
330
70
100
AcDbEntity
  8
Ringo-Row-keyboard v13 v4_Ringo-Row-keyboard v13_Sketch4
100
AcDbCircle
 10
-128.005245914326
 20
-45.18492119748408
 30
0.0
 40
1.230472160166669
  0
ARC
  5
20F
330
70
100
AcDbEntity
  8
Ringo-Row-keyboard v13 v4_Ringo-Row-keyboard v13_Sketch4
100
AcDbCircle
 10
134.7896036837662
 20
-60.63478326820421
 30
0.0
 40
2.500000000000156
100
AcDbArc
 50
270.0000000000026
 51
0.00065532962978
  0
CIRCLE
  5
210
330
70
100
AcDbEntity
  8
Ringo-Row-keyboard v13 v4_Ringo-Row-keyboard v13_Sketch4
100
AcDbCircle
 10
0.2007540856739922
 20
38.69177880251593
 30
0.0
 40
1.230472160166669
  0
CIRCLE
  5
211
330
70
100
AcDbEntity
  8
Ringo-Row-keyboard v13 v4_Ringo-Row-keyboard v13_Sketch4
100
AcDbCircle
 10
-140.421545914326
 20
38.69177880251593
 30
0.0
 40
1.230472160166669
  0
LINE
  5
212
330
70
100
AcDbEntity
  8
Ringo-Row-keyboard v13 v4_Ringo-Row-keyboard v13_Sketch4
100
AcDbLine
 10
115.7874827170602
 20
10.32739384727892
 30
0.0
 11
115.7874827170602
 21
13.5946326278988
 31
0.0
  0
CIRCLE
  5
213
330
70
100
AcDbEntity
  8
Ringo-Row-keyboard v13 v4_Ringo-Row-keyboard v13_Sketch4
100
AcDbCircle
 10
0.2007540856739922
 20
38.69177880251593
 30
0.0
 40
1.230472160166669
  0
LINE
  5
214
330
70
100
AcDbEntity
  8
Ringo-Row-keyboard v13 v4_Ringo-Row-keyboard v13_Sketch4
100
AcDbLine
 10
121.0487171030363
 20
10.32739384727892
 30
0.0
 11
115.7874827170602
 21
10.32739384727892
 31
0.0
  0
CIRCLE
  5
215
330
70
100
AcDbEntity
  8
Ringo-Row-keyboard v13 v4_Ringo-Row-keyboard v13_Sketch4
100
AcDbCircle
 10
30.35995408567402
 20
-50.25652119748409
 30
0.0
 40
1.230472160166669
  0
LINE
  5
216
330
70
100
AcDbEntity
  8
Ringo-Row-keyboard v13 v4_Ringo-Row-keyboard v13_Sketch4
100
AcDbLine
 10
121.0487171030363
 20
13.5946326278988
 30
0.0
 11
121.0487171030363
 21
10.32739384727892
 31
0.0
  0
CIRCLE
  5
217
330
70
100
AcDbEntity
  8
Ringo-Row-keyboard v13 v4_Ringo-Row-keyboard v13_Sketch4
100
AcDbCircle
 10
30.35995408567402
 20
-50.25652119748409
 30
0.0
 40
1.230472160166669
  0
CIRCLE
  5
218
330
70
100
AcDbEntity
  8
Ringo-Row-keyboard v13 v4_Ringo-Row-keyboard v13_Sketch4
100
AcDbCircle
 10
130.782154085674
 20
38.69177880251593
 30
0.0
 40
1.230472160166669
  0
CIRCLE
  5
219
330
70
100
AcDbEntity
  8
Ringo-Row-keyboard v13 v4_Ringo-Row-keyboard v13_Sketch4
100
AcDbCircle
 10
-58.05904591432599
 20
-2.140521197484074
 30
0.0
 40
1.230472160166669
  0
CIRCLE
  5
21A
330
70
100
AcDbEntity
  8
Ringo-Row-keyboard v13 v4_Ringo-Row-keyboard v13_Sketch4
100
AcDbCircle
 10
-140.421545914326
 20
38.69177880251593
 30
0.0
 40
1.230472160166669
  0
LINE
  5
21B
330
70
100
AcDbEntity
  8
Ringo-Row-keyboard v13 v4_Ringo-Row-keyboard v13_Sketch4
100
AcDbLine
 10
121.0487171030363
 20
-18.12060615272104
 30
0.0
 11
115.7874827170602
 21
-18.12060615272104
 31
0.0
  0
CIRCLE
  5
21C
330
70
100
AcDbEntity
  8
Ringo-Row-keyboard v13 v4_Ringo-Row-keyboard v13_Sketch4
100
AcDbCircle
 10
-128.005245914326
 20
-45.18492119748408
 30
0.0
 40
1.230472160166669
  0
CIRCLE
  5
21D
330
70
100
AcDbEntity
  8
Ringo-Row-keyboard v13 v4_Ringo-Row-keyboard v13_Sketch4
100
AcDbCircle
 10
18.96415408567401
 20
-2.140521197484074
 30
0.0
 40
1.230472160166669
  0
CIRCLE
  5
21E
330
70
100
AcDbEntity
  8
Ringo-Row-keyboard v13 v4_Ringo-Row-keyboard v13_Sketch4
100
AcDbCircle
 10
-116.8637341025485
 20
-48.88592997606711
 30
0.0
 40
1.230472160166667
210
0.0
220
0.0
230
-1.0
  0
CIRCLE
  5
21F
330
70
100
AcDbEntity
  8
Ringo-Row-keyboard v13 v4_Ringo-Row-keyboard v13_Sketch4
100
AcDbCircle
 10
18.96415408567401
 20
-2.140521197484074
 30
0.0
 40
1.230472160166669
  0
CIRCLE
  5
220
330
70
100
AcDbEntity
  8
Ringo-Row-keyboard v13 v4_Ringo-Row-keyboard v13_Sketch4
100
AcDbCircle
 10
-58.05904591432599
 20
-2.140521197484074
 30
0.0
 40
1.230472160166669
  0
CIRCLE
  5
221
330
70
100
AcDbEntity
  8
Ringo-Row-keyboard v13 v4_Ringo-Row-keyboard v13_Sketch4
100
AcDbCircle
 10
116.863754085674
 20
-48.88592119748409
 30
0.0
 40
1.230472160166669
  0
ARC
  5
222
330
70
100
AcDbEntity
  8
Ringo-Row-keyboard v13 v4_Ringo-Row-keyboard v13_Sketch4
100
AcDbCircle
 10
134.7882197786313
 20
60.36069690586376
 30
0.0
 40
2.5000000000001
100
AcDbArc
 50
0.0006553296353168
 51
89.99790391497922
  0
POINT
  5
224
330
70
100
AcDbEntity
  8
Ringo-Row-keyboard v13 v4_Ringo-Row-keyboard v13_Sketch6
100
AcDbPoint
 10
0.0
 20
0.0
 30
0.0
  0
POINT
  5
226
330
70
100
AcDbEntity
  8
Ringo-Row-keyboard v13 v4_Ringo-Row-keyboard v13_Sketch7
100
AcDbPoint
 10
0.0
 20
0.0
 30
0.0
  0
POINT
  5
228
330
70
100
AcDbEntity
  8
Ringo-Row-keyboard v13 v4_Ringo-Row-keyboard v13_Sketch8
100
AcDbPoint
 10
0.0
 20
0.0
 30
0.0
  0
ENDSEC
  0
SECTION
  2
OBJECTS
  0
DICTIONARY
  5
C
330
0
100
AcDbDictionary
281
     1
  3
ACAD_COLOR
350
63
  3
ACAD_DETAILVIEWSTYLE
350
6A
  3
ACAD_GROUP
350
D
  3
ACAD_LAYOUT
350
62
  3
ACAD_MATERIAL
350
10
  3
ACAD_MLEADERSTYLE
350
66
  3
ACAD_MLINESTYLE
350
5F
  3
ACAD_PLOTSETTINGS
350
61
  3
ACAD_PLOTSTYLENAME
350
E
  3
ACAD_SCALELIST
350
42
  3
ACAD_SECTIONVIEWSTYLE
350
68
  3
ACAD_TABLESTYLE
350
64
  3
ACAD_VISUALSTYLE
350
29
  3
ACDB_RECOMPOSE_DATA
350
231
  3
AcDbVariableDictionary
350
229
  0
DICTIONARY
  5
63
102
{ACAD_REACTORS
330
C
102
}
330
C
100
AcDbDictionary
281
     1
  0
DICTIONARY
  5
6A
102
{ACAD_REACTORS
330
C
102
}
330
C
100
AcDbDictionary
281
     1
  3
Imperial24
350
6B
  0
DICTIONARY
  5
D
102
{ACAD_REACTORS
330
C
102
}
330
C
100
AcDbDictionary
281
     1
  0
DICTIONARY
  5
62
102
{ACAD_REACTORS
330
C
102
}
330
C
100
AcDbDictionary
281
     1
  3
Layout1
350
6F
  3
Layout2
350
77
  3
Model
350
73
  0
DICTIONARY
  5
10
102
{ACAD_REACTORS
330
C
102
}
330
C
100
AcDbDictionary
281
     1
  3
ByBlock
350
19
  3
ByLayer
350
11
  3
Global
350
21
  0
DICTIONARY
  5
66
102
{ACAD_REACTORS
330
C
102
}
330
C
100
AcDbDictionary
281
     1
  3
Standard
350
67
  0
DICTIONARY
  5
5F
102
{ACAD_REACTORS
330
C
102
}
330
C
100
AcDbDictionary
281
     1
  3
Standard
350
60
  0
DICTIONARY
  5
61
102
{ACAD_REACTORS
330
C
102
}
330
C
100
AcDbDictionary
281
     1
  0
ACDBDICTIONARYWDFLT
  5
E
102
{ACAD_REACTORS
330
C
102
}
330
C
100
AcDbDictionary
281
     1
  3
Normal
350
F
100
AcDbDictionaryWithDefault
340
F
  0
DICTIONARY
  5
42
102
{ACAD_REACTORS
330
C
102
}
330
C
100
AcDbDictionary
281
     1
  3
A0
350
43
  3
A1
350
44
  3
A2
350
45
  3
A3
350
46
  3
A4
350
47
  3
A5
350
48
  3
A6
350
49
  3
A7
350
4A
  3
A8
350
4B
  3
A9
350
4C
  3
B0
350
4D
  3
B1
350
4E
  3
B2
350
4F
  3
B3
350
50
  3
B4
350
51
  3
B5
350
52
  3
B6
350
53
  0
DICTIONARY
  5
68
102
{ACAD_REACTORS
330
C
102
}
330
C
100
AcDbDictionary
281
     1
  3
Imperial24
350
69
  0
DICTIONARY
  5
64
102
{ACAD_REACTORS
330
C
102
}
330
C
100
AcDbDictionary
281
     1
  3
Standard
350
65
  0
DICTIONARY
  5
29
102
{ACAD_REACTORS
330
C
102
}
330
C
100
AcDbDictionary
281
     1
  3
2dWireframe
350
2F
  3
Basic
350
2E
  3
Brighten
350
35
  3
ColorChange
350
39
  3
Conceptual
350
32
  3
Dim
350
34
  3
EdgeColorOff
350
41
  3
Facepattern
350
38
  3
Flat
350
2A
  3
FlatWithEdges
350
2B
  3
Gouraud
350
2C
  3
GouraudWithEdges
350
2D
  3
Hidden
350
31
  3
JitterOff
350
3F
  3
Linepattern
350
37
  3
OverhangOff
350
40
  3
Realistic
350
33
  3
Shaded
350
3E
  3
Shaded with edges
350
3D
  3
Shades of Gray
350
3A
  3
Sketchy
350
3B
  3
Thicken
350
36
  3
Wireframe
350
30
  3
X-Ray
350
3C
  0
XRECORD
  5
231
102
{ACAD_REACTORS
330
C
102
}
330
C
100
AcDbXrecord
280
     1
 90
        1
330
65
  0
DICTIONARY
  5
229
102
{ACAD_REACTORS
330
C
102
}
330
C
100
AcDbDictionary
281
     1
  3
CANNOSCALE
350
22E
  3
CMLEADERSTYLE
350
22B
  3
CTABLESTYLE
350
22A
  3
CVIEWDETAILSTYLE
350
22C
  3
CVIEWSECTIONSTYLE
350
22D
  0
ACDBDETAILVIEWSTYLE
  5
6B
102
{ACAD_XDICTIONARY
360
234
102
}
102
{ACAD_REACTORS
330
6A
102
}
330
6A
100
AcDbModelDocViewStyle
 70
     0
  3
Imperial24
290
     0
100
AcDbDetailViewStyle
 70
     0
 71
     0
 90
        3
 71
     1
340
55
 62
   256
 40
0.24
340
0
 62
   256
 40
0.24
300

 40
0.36
280
     3
 71
     2
340
5D
 90
       25
 62
   256
 71
     3
340
55
 62
   256
 40
0.24
 90
        1
 40
0.75
 90
        1
300
%<\AcVar ViewType \f "%tc1">% %<\AcVar ViewDetailId>%\PSCALE %<\AcVar ViewScale \f "%sn">%
 71
     4
340
5D
 90
       25
 62
   256
340
5D
 90
       25
 62
   256
280
     0
  0
LAYOUT
  5
6F
102
{ACAD_REACTORS
330
62
102
}
330
62
100
AcDbPlotSettings
  1

  2

  4

  6

 40
0.0
 41
0.0
 42
0.0
 43
0.0
 44
0.0
 45
0.0
 46
0.0
 47
0.0
 48
0.0
 49
0.0
140
0.0
141
0.0
142
1.0
143
1.0
 70
   688
 72
     0
 73
     0
 74
     5
  7

 75
    16
147
1.0
 76
     0
 77
     2
 78
   300
148
0.0
149
0.0
100
AcDbLayout
  1
Layout1
 70
     1
 71
     1
 10
0.0
 20
0.0
 11
12.0
 21
9.0
 12
0.0
 22
0.0
 32
0.0
 14
0.0
 24
0.0
 34
0.0
 15
0.0
 25
0.0
 35
0.0
146
0.0
 13
0.0
 23
0.0
 33
0.0
 16
1.0
 26
0.0
 36
0.0
 17
0.0
 27
1.0
 37
0.0
 76
     0
330
6C
  0
LAYOUT
  5
77
102
{ACAD_REACTORS
330
62
102
}
330
62
100
AcDbPlotSettings
  1

  2

  4

  6

 40
0.0
 41
0.0
 42
0.0
 43
0.0
 44
0.0
 45
0.0
 46
0.0
 47
0.0
 48
0.0
 49
0.0
140
0.0
141
0.0
142
1.0
143
1.0
 70
   688
 72
     0
 73
     0
 74
     5
  7

 75
    16
147
1.0
 76
     0
 77
     2
 78
   300
148
0.0
149
0.0
100
AcDbLayout
  1
Layout2
 70
     1
 71
     2
 10
0.0
 20
0.0
 11
12.0
 21
9.0
 12
0.0
 22
0.0
 32
0.0
 14
0.0
 24
0.0
 34
0.0
 15
0.0
 25
0.0
 35
0.0
146
0.0
 13
0.0
 23
0.0
 33
0.0
 16
1.0
 26
0.0
 36
0.0
 17
0.0
 27
1.0
 37
0.0
 76
     0
330
74
  0
LAYOUT
  5
73
102
{ACAD_REACTORS
330
62
102
}
330
62
100
AcDbPlotSettings
  1

  2

  4

  6

 40
0.0
 41
0.0
 42
0.0
 43
0.0
 44
0.0
 45
0.0
 46
0.0
 47
0.0
 48
0.0
 49
0.0
140
0.0
141
0.0
142
1.0
143
1.0
 70
  1712
 72
     0
 73
     0
 74
     0
  7

 75
     0
147
1.0
 76
     0
 77
     2
 78
   300
148
0.0
149
0.0
100
AcDbLayout
  1
Model
 70
     1
 71
     0
 10
0.0
 20
0.0
 11
12.0
 21
9.0
 12
0.0
 22
0.0
 32
0.0
 14
0.0
 24
0.0
 34
0.0
 15
0.0
 25
0.0
 35
0.0
146
0.0
 13
0.0
 23
0.0
 33
0.0
 16
1.0
 26
0.0
 36
0.0
 17
0.0
 27
1.0
 37
0.0
 76
     0
330
70
  0
MATERIAL
  5
19
102
{ACAD_XDICTIONARY
360
1A
102
}
102
{ACAD_REACTORS
330
10
102
}
330
10
100
AcDbMaterial
  1
ByBlock
 72
     0
 43
0.0208333333333333
 43
0.0
 43
0.0
 43
0.0
 43
0.0
 43
0.0208333333333333
 43
0.0
 43
0.0
 43
0.0
 43
0.0
 43
1.0
 43
0.0
 43
0.0
 43
0.0
 43
0.0
 43
1.0
 77
     0
 47
0.0208333333333333
 47
0.0
 47
0.0
 47
0.0
 47
0.0
 47
0.0208333333333333
 47
0.0
 47
0.0
 47
0.0
 47
0.0
 47
1.0
 47
0.0
 47
0.0
 47
0.0
 47
0.0
 47
1.0
171
     0
 49
0.0208333333333333
 49
0.0
 49
0.0
 49
0.0
 49
0.0
 49
0.0208333333333333
 49
0.0
 49
0.0
 49
0.0
 49
0.0
 49
1.0
 49
0.0
 49
0.0
 49
0.0
 49
0.0
 49
1.0
175
     0
142
0.0208333333333333
142
0.0
142
0.0
142
0.0
142
0.0
142
0.0208333333333333
142
0.0
142
0.0
142
0.0
142
0.0
142
1.0
142
0.0
142
0.0
142
0.0
142
0.0
142
1.0
179
     0
144
0.0208333333333333
144
0.0
144
0.0
144
0.0
144
0.0
144
0.0208333333333333
144
0.0
144
0.0
144
0.0
144
0.0
144
1.0
144
0.0
144
0.0
144
0.0
144
0.0
144
1.0
147
0.0208333333333333
147
0.0
147
0.0
147
0.0
147
0.0
147
0.0208333333333333
147
0.0
147
0.0
147
0.0
147
0.0
147
1.0
147
0.0
147
0.0
147
0.0
147
0.0
147
1.0
  0
MATERIAL
  5
11
102
{ACAD_XDICTIONARY
360
12
102
}
102
{ACAD_REACTORS
330
10
102
}
330
10
100
AcDbMaterial
  1
ByLayer
 72
     0
 43
0.0208333333333333
 43
0.0
 43
0.0
 43
0.0
 43
0.0
 43
0.0208333333333333
 43
0.0
 43
0.0
 43
0.0
 43
0.0
 43
1.0
 43
0.0
 43
0.0
 43
0.0
 43
0.0
 43
1.0
 77
     0
 47
0.0208333333333333
 47
0.0
 47
0.0
 47
0.0
 47
0.0
 47
0.0208333333333333
 47
0.0
 47
0.0
 47
0.0
 47
0.0
 47
1.0
 47
0.0
 47
0.0
 47
0.0
 47
0.0
 47
1.0
171
     0
 49
0.0208333333333333
 49
0.0
 49
0.0
 49
0.0
 49
0.0
 49
0.0208333333333333
 49
0.0
 49
0.0
 49
0.0
 49
0.0
 49
1.0
 49
0.0
 49
0.0
 49
0.0
 49
0.0
 49
1.0
175
     0
142
0.0208333333333333
142
0.0
142
0.0
142
0.0
142
0.0
142
0.0208333333333333
142
0.0
142
0.0
142
0.0
142
0.0
142
1.0
142
0.0
142
0.0
142
0.0
142
0.0
142
1.0
179
     0
144
0.0208333333333333
144
0.0
144
0.0
144
0.0
144
0.0
144
0.0208333333333333
144
0.0
144
0.0
144
0.0
144
0.0
144
1.0
144
0.0
144
0.0
144
0.0
144
0.0
144
1.0
147
0.0208333333333333
147
0.0
147
0.0
147
0.0
147
0.0
147
0.0208333333333333
147
0.0
147
0.0
147
0.0
147
0.0
147
1.0
147
0.0
147
0.0
147
0.0
147
0.0
147
1.0
  0
MATERIAL
  5
21
102
{ACAD_XDICTIONARY
360
22
102
}
102
{ACAD_REACTORS
330
10
102
}
330
10
100
AcDbMaterial
  1
Global
 72
     0
 43
0.0208333333333333
 43
0.0
 43
0.0
 43
0.0
 43
0.0
 43
0.0208333333333333
 43
0.0
 43
0.0
 43
0.0
 43
0.0
 43
1.0
 43
0.0
 43
0.0
 43
0.0
 43
0.0
 43
1.0
 77
     0
 47
0.0208333333333333
 47
0.0
 47
0.0
 47
0.0
 47
0.0
 47
0.0208333333333333
 47
0.0
 47
0.0
 47
0.0
 47
0.0
 47
1.0
 47
0.0
 47
0.0
 47
0.0
 47
0.0
 47
1.0
171
     0
 49
0.0208333333333333
 49
0.0
 49
0.0
 49
0.0
 49
0.0
 49
0.0208333333333333
 49
0.0
 49
0.0
 49
0.0
 49
0.0
 49
1.0
 49
0.0
 49
0.0
 49
0.0
 49
0.0
 49
1.0
175
     0
142
0.0208333333333333
142
0.0
142
0.0
142
0.0
142
0.0
142
0.0208333333333333
142
0.0
142
0.0
142
0.0
142
0.0
142
1.0
142
0.0
142
0.0
142
0.0
142
0.0
142
1.0
179
     0
144
0.0208333333333333
144
0.0
144
0.0
144
0.0
144
0.0
144
0.0208333333333333
144
0.0
144
0.0
144
0.0
144
0.0
144
1.0
144
0.0
144
0.0
144
0.0
144
0.0
144
1.0
147
0.0208333333333333
147
0.0
147
0.0
147
0.0
147
0.0
147
0.0208333333333333
147
0.0
147
0.0
147
0.0
147
0.0
147
1.0
147
0.0
147
0.0
147
0.0
147
0.0
147
1.0
  0
MLEADERSTYLE
  5
67
102
{ACAD_REACTORS
330
66
102
}
330
66
100
AcDbMLeaderStyle
179
     2
170
     2
171
     1
172
     0
 90
        2
 40
0.0
 41
0.0
173
     1
 91
-1056964608
340
5B
 92
       -2
290
     1
 42
0.09
291
     1
 43
0.36
  3
Standard
 44
0.18
300

342
55
174
     1
178
     6
175
     1
176
     0
 93
-1056964608
 45
0.18
292
     0
297
     0
 46
0.18
 94
-1056964608
 47
1.0
 49
1.0
140
1.0
293
     1
141
0.0
294
     1
177
     0
142
1.0
295
     0
296
     0
143
0.125
271
     0
272
     9
273
     9
298
     1
  0
MLINESTYLE
  5
60
102
{ACAD_REACTORS
330
5F
102
}
330
5F
100
AcDbMlineStyle
  2
STANDARD
 70
     0
  3

 62
   256
 51
90.0
 52
90.0
 71
     2
 49
0.5
 62
   256
  6
BYLAYER
 49
-0.5
 62
   256
  6
BYLAYER
  0
ACDBPLACEHOLDER
  5
F
102
{ACAD_REACTORS
330
E
102
}
330
E
  0
SCALE
  5
43
102
{ACAD_REACTORS
330
42
102
}
330
42
100
AcDbScale
 70
     0
300
1:1
140
1.0
141
1.0
290
     1
  0
SCALE
  5
44
102
{ACAD_REACTORS
330
42
102
}
330
42
100
AcDbScale
 70
     0
300
1/128" = 1'-0"
140
0.0078125
141
12.0
290
     0
  0
SCALE
  5
45
102
{ACAD_REACTORS
330
42
102
}
330
42
100
AcDbScale
 70
     0
300
1/64" = 1'-0"
140
0.015625
141
12.0
290
     0
  0
SCALE
  5
46
102
{ACAD_REACTORS
330
42
102
}
330
42
100
AcDbScale
 70
     0
300
1/32" = 1'-0"
140
0.03125
141
12.0
290
     0
  0
SCALE
  5
47
102
{ACAD_REACTORS
330
42
102
}
330
42
100
AcDbScale
 70
     0
300
1/16" = 1'-0"
140
0.0625
141
12.0
290
     0
  0
SCALE
  5
48
102
{ACAD_REACTORS
330
42
102
}
330
42
100
AcDbScale
 70
     0
300
3/32" = 1'-0"
140
0.09375
141
12.0
290
     0
  0
SCALE
  5
49
102
{ACAD_REACTORS
330
42
102
}
330
42
100
AcDbScale
 70
     0
300
1/8" = 1'-0"
140
0.125
141
12.0
290
     0
  0
SCALE
  5
4A
102
{ACAD_REACTORS
330
42
102
}
330
42
100
AcDbScale
 70
     0
300
3/16" = 1'-0"
140
0.1875
141
12.0
290
     0
  0
SCALE
  5
4B
102
{ACAD_REACTORS
330
42
102
}
330
42
100
AcDbScale
 70
     0
300
1/4" = 1'-0"
140
0.25
141
12.0
290
     0
  0
SCALE
  5
4C
102
{ACAD_REACTORS
330
42
102
}
330
42
100
AcDbScale
 70
     0
300
3/8" = 1'-0"
140
0.375
141
12.0
290
     0
  0
SCALE
  5
4D
102
{ACAD_REACTORS
330
42
102
}
330
42
100
AcDbScale
 70
     0
300
1/2" = 1'-0"
140
0.5
141
12.0
290
     0
  0
SCALE
  5
4E
102
{ACAD_REACTORS
330
42
102
}
330
42
100
AcDbScale
 70
     0
300
3/4" = 1'-0"
140
0.75
141
12.0
290
     0
  0
SCALE
  5
4F
102
{ACAD_REACTORS
330
42
102
}
330
42
100
AcDbScale
 70
     0
300
1" = 1'-0"
140
1.0
141
12.0
290
     0
  0
SCALE
  5
50
102
{ACAD_REACTORS
330
42
102
}
330
42
100
AcDbScale
 70
     0
300
1-1/2" = 1'-0"
140
1.5
141
12.0
290
     0
  0
SCALE
  5
51
102
{ACAD_REACTORS
330
42
102
}
330
42
100
AcDbScale
 70
     0
300
3" = 1'-0"
140
3.0
141
12.0
290
     0
  0
SCALE
  5
52
102
{ACAD_REACTORS
330
42
102
}
330
42
100
AcDbScale
 70
     0
300
6" = 1'-0"
140
6.0
141
12.0
290
     0
  0
SCALE
  5
53
102
{ACAD_REACTORS
330
42
102
}
330
42
100
AcDbScale
 70
     0
300
1'-0" = 1'-0"
140
12.0
141
12.0
290
     0
  0
ACDBSECTIONVIEWSTYLE
  5
69
102
{ACAD_XDICTIONARY
360
232
102
}
102
{ACAD_REACTORS
330
68
102
}
330
68
100
AcDbModelDocViewStyle
 70
     0
  3
Imperial24
290
     0
100
AcDbSectionViewStyle
 70
     0
 71
     0
 90
       78
 71
     1
340
55
 62
   256
 40
0.24
340
0
340
0
 62
   256
 40
0.24
300
I, O, Q, S, X, Z
 40
0.48
 90
        3
 40
0.18
 90
        1
 71
     2
340
5D
 90
       25
 62
   256
340
5D
 90
       50
 62
   256
 40
0.24
 40
0.0
 40
0.24
 71
     3
340
55
 62
   256
 40
0.24
 90
        1
 40
0.75
 90
        1
300
%<\AcVar ViewType \f "%tc1">% %<\AcVar ViewSectionStartId>%-%<\AcVar ViewSectionEndId>%\PSCALE %<\AcVar ViewScale \f "%sn">%
 71
     4
 62
   256
 62
   257
300
ANSI31
 40
1.0
 90
        0
290
     0
290
     0
 90
        6
 40
0.0
 40
1.570796326794896
 40
0.2617993877991494
 40
1.308996938995747
 40
-0.2617993877991494
 40
1.832595714594046
  0
TABLESTYLE
  5
65
102
{ACAD_XDICTIONARY
360
22F
102
}
102
{ACAD_REACTORS
330
64
102
}
330
64
100
AcDbTableStyle
280
     0
  3
Standard
 70
     0
 71
     0
 40
0.06
 41
0.06
280
     0
281
     0
  7
Standard
140
0.18
170
     2
 62
     0
 63
     7
283
     0
 90
      512
 91
        0
  1

274
    -2
284
     1
 64
     0
275
    -2
285
     1
 65
     0
276
    -2
286
     1
 66
     0
277
    -2
287
     1
 67
     0
278
    -2
288
     1
 68
     0
279
    -2
289
     1
 69
     0
  7
Standard
140
0.25
170
     5
 62
     0
 63
     7
283
     0
 90
      512
 91
        0
  1

274
    -2
284
     1
 64
     0
275
    -2
285
     1
 65
     0
276
    -2
286
     1
 66
     0
277
    -2
287
     1
 67
     0
278
    -2
288
     1
 68
     0
279
    -2
289
     1
 69
     0
  7
Standard
140
0.18
170
     5
 62
     0
 63
     7
283
     0
 90
      512
 91
        0
  1

274
    -2
284
     1
 64
     0
275
    -2
285
     1
 65
     0
276
    -2
286
     1
 66
     0
277
    -2
287
     1
 67
     0
278
    -2
288
     1
 68
     0
279
    -2
289
     1
 69
     0
  0
VISUALSTYLE
  5
2F
102
{ACAD_REACTORS
330
29
102
}
330
29
100
AcDbVisualStyle
  2
2dWireframe
 70
     4
177
     3
291
     0
 70
    58
 90
        0
176
     1
 90
        2
176
     1
 90
        0
176
     1
 90
        0
176
     1
 40
0.6
176
     1
 40
30.0
176
     1
 62
     7
420
 16777215
176
     1
 90
        1
176
     1
 90
        4
176
     1
 62
     7
176
     1
 62
   257
176
     1
 90
        1
176
     1
 90
        1
176
     1
 40
1.0
176
     1
 90
        0
176
     1
 62
   257
176
     1
 40
1.0
176
     1
 90
        1
176
     1
 90
        6
176
     1
 90
        2
176
     1
 62
     7
176
     1
 90
        5
176
     1
 90
        0
176
     1
 90
        0
176
     1
290
     0
176
     1
 90
        1
176
     1
 40
0.0
176
     1
 90
        0
176
     1
290
     1
176
     1
290
     1
176
     1
290
     0
176
     1
290
     0
176
     1
290
     0
176
     1
290
     0
176
     1
290
     0
176
     1
290
     0
176
     1
290
     0
176
     1
 90
       50
176
     1
 40
0.0
176
     1
 40
1.0
176
     1
 90
        0
176
     1
 62
    18
420
        0
176
     1
 90
       50
176
     1
 90
        3
176
     1
 62
     5
420
      255
176
     1
290
     0
176
     1
 90
       50
176
     1
 90
       50
176
     1
 90
       50
176
     1
290
     0
176
     1
 90
       50
176
     1
 62
   256
176
     0
 40
1.0
176
     0
 90
        2
176
     1
  1
strokes_ogs.tif
176
     1
290
     0
176
     1
 40
1.0
176
     1
 40
1.0
176
     1
1001
ACAD
1000
AcDbSavedByObjectVersion
1070
     0
  0
VISUALSTYLE
  5
2E
102
{ACAD_REACTORS
330
29
102
}
330
29
100
AcDbVisualStyle
  2
Basic
 70
     7
177
     3
291
     1
 70
    58
 90
        1
176
     1
 90
        0
176
     1
 90
        1
176
     1
 90
        0
176
     1
 40
0.6
176
     1
 40
30.0
176
     1
 62
     7
420
 16777215
176
     1
 90
        0
176
     1
 90
        4
176
     1
 62
     7
176
     1
 62
   257
176
     1
 90
        1
176
     1
 90
        1
176
     1
 40
1.0
176
     1
 90
        8
176
     1
 62
     7
176
     1
 40
1.0
176
     1
 90
        1
176
     1
 90
        6
176
     1
 90
        2
176
     1
 62
     7
176
     1
 90
        5
176
     1
 90
        0
176
     1
 90
        0
176
     1
290
     0
176
     1
 90
        1
176
     1
 40
0.0
176
     1
 90
        0
176
     1
290
     0
176
     1
290
     1
176
     1
290
     1
176
     1
290
     0
176
     1
290
     0
176
     1
290
     0
176
     1
290
     0
176
     1
290
     0
176
     1
290
     0
176
     1
 90
       50
176
     1
 40
0.0
176
     1
 40
1.0
176
     1
 90
        0
176
     1
 62
    18
420
        0
176
     1
 90
       50
176
     1
 90
        3
176
     1
 62
     5
420
      255
176
     1
290
     0
176
     1
 90
       50
176
     1
 90
       50
176
     1
 90
       50
176
     1
290
     0
176
     1
 90
       50
176
     1
 62
   256
176
     0
 40
1.0
176
     0
 90
        2
176
     1
  1
strokes_ogs.tif
176
     1
290
     0
176
     1
 40
1.0
176
     1
 40
1.0
176
     1
1001
ACAD
1000
AcDbSavedByObjectVersion
1070
     0
  0
VISUALSTYLE
  5
35
102
{ACAD_REACTORS
330
29
102
}
330
29
100
AcDbVisualStyle
  2
Brighten
 70
    12
177
     3
291
     1
 70
    58
 90
        2
176
     1
 90
        2
176
     1
 90
        0
176
     1
 90
        0
176
     1
 40
0.6
176
     1
 40
30.0
176
     1
 62
     7
420
 16777215
176
     1
 90
        1
176
     1
 90
        4
176
     1
 62
     7
176
     1
 62
   257
176
     1
 90
        1
176
     1
 90
        1
176
     1
 40
1.0
176
     1
 90
        8
176
     1
 62
     7
176
     1
 40
1.0
176
     1
 90
        1
176
     1
 90
        6
176
     1
 90
        2
176
     1
 62
     7
176
     1
 90
        5
176
     1
 90
        0
176
     1
 90
        0
176
     1
290
     0
176
     1
 90
        1
176
     1
 40
50.0
176
     1
 90
        0
176
     1
290
     0
176
     1
290
     1
176
     1
290
     1
176
     1
290
     0
176
     1
290
     0
176
     1
290
     0
176
     1
290
     0
176
     1
290
     0
176
     1
290
     0
176
     1
 90
       50
176
     1
 40
0.0
176
     1
 40
1.0
176
     1
 90
        0
176
     1
 62
    18
420
        0
176
     1
 90
       50
176
     1
 90
        3
176
     1
 62
     5
420
      255
176
     1
290
     0
176
     1
 90
       50
176
     1
 90
       50
176
     1
 90
       50
176
     1
290
     0
176
     1
 90
       50
176
     1
 62
   256
176
     0
 40
1.0
176
     0
 90
        2
176
     1
  1
strokes_ogs.tif
176
     1
290
     0
176
     1
 40
1.0
176
     1
 40
1.0
176
     1
1001
ACAD
1000
AcDbSavedByObjectVersion
1070
     0
  0
VISUALSTYLE
  5
39
102
{ACAD_REACTORS
330
29
102
}
330
29
100
AcDbVisualStyle
  2
ColorChange
 70
    16
177
     3
291
     1
 70
    58
 90
        2
176
     1
 90
        2
176
     1
 90
        3
176
     1
 90
        0
176
     1
 40
0.6
176
     1
 40
30.0
176
     1
 62
     8
420
  8421504
176
     1
 90
        1
176
     1
 90
        4
176
     1
 62
     7
176
     1
 62
   257
176
     1
 90
        1
176
     1
 90
        1
176
     1
 40
1.0
176
     1
 90
        8
176
     1
 62
     8
420
  8421504
176
     1
 40
1.0
176
     1
 90
        1
176
     1
 90
        6
176
     1
 90
        2
176
     1
 62
     7
176
     1
 90
        5
176
     1
 90
        0
176
     1
 90
        0
176
     1
290
     0
176
     1
 90
        1
176
     1
 40
0.0
176
     1
 90
        0
176
     1
290
     0
176
     1
290
     1
176
     1
290
     1
176
     1
290
     0
176
     1
290
     0
176
     1
290
     0
176
     1
290
     0
176
     1
290
     0
176
     1
290
     0
176
     1
 90
       50
176
     1
 40
0.0
176
     1
 40
1.0
176
     1
 90
        0
176
     1
 62
    18
420
        0
176
     1
 90
       50
176
     1
 90
        3
176
     1
 62
     5
420
      255
176
     1
290
     0
176
     1
 90
       50
176
     1
 90
       50
176
     1
 90
       50
176
     1
290
     0
176
     1
 90
       50
176
     1
 62
   256
176
     0
 40
1.0
176
     0
 90
        2
176
     1
  1
strokes_ogs.tif
176
     1
290
     0
176
     1
 40
1.0
176
     1
 40
1.0
176
     1
1001
ACAD
1000
AcDbSavedByObjectVersion
1070
     0
  0
VISUALSTYLE
  5
32
102
{ACAD_REACTORS
330
29
102
}
330
29
100
AcDbVisualStyle
  2
Conceptual
 70
     9
177
     3
291
     0
 70
    58
 90
        3
176
     1
 90
        2
176
     1
 90
        0
176
     1
 90
        0
176
     1
 40
0.6
176
     1
 40
30.0
176
     1
 62
     7
420
 16777215
176
     1
 90
        2
176
     1
 90
        2
176
     1
 62
     7
176
     1
 62
   257
176
     1
 90
        1
176
     1
 90
        1
176
     1
 40
179.0
176
     1
 90
        8
176
     1
 62
     7
176
     1
 40
1.0
176
     1
 90
        1
176
     1
 90
        6
176
     1
 90
        2
176
     1
 62
     7
176
     1
 90
        3
176
     1
 90
        0
176
     1
 90
        0
176
     1
290
     0
176
     1
 90
        1
176
     1
 40
0.0
176
     1
 90
        0
176
     1
290
     0
176
     1
290
     1
176
     1
290
     1
176
     1
290
     0
176
     1
290
     0
176
     1
290
     0
176
     1
290
     0
176
     1
290
     0
176
     1
290
     0
176
     1
 90
       50
176
     1
 40
0.0
176
     1
 40
1.0
176
     1
 90
        0
176
     1
 62
    18
420
        0
176
     1
 90
       50
176
     1
 90
        3
176
     1
 62
     5
420
      255
176
     1
290
     0
176
     1
 90
       50
176
     1
 90
       50
176
     1
 90
       50
176
     1
290
     0
176
     1
 90
       50
176
     1
 62
   256
176
     0
 40
1.0
176
     0
 90
        2
176
     1
  1
strokes_ogs.tif
176
     1
290
     0
176
     1
 40
1.0
176
     1
 40
1.0
176
     1
1001
ACAD
1000
AcDbSavedByObjectVersion
1070
     0
  0
VISUALSTYLE
  5
34
102
{ACAD_REACTORS
330
29
102
}
330
29
100
AcDbVisualStyle
  2
Dim
 70
    11
177
     3
291
     1
 70
    58
 90
        2
176
     1
 90
        2
176
     1
 90
        0
176
     1
 90
        0
176
     1
 40
0.6
176
     1
 40
30.0
176
     1
 62
     7
420
 16777215
176
     1
 90
        1
176
     1
 90
        4
176
     1
 62
     7
176
     1
 62
   257
176
     1
 90
        1
176
     1
 90
        1
176
     1
 40
1.0
176
     1
 90
        8
176
     1
 62
     7
176
     1
 40
1.0
176
     1
 90
        1
176
     1
 90
        6
176
     1
 90
        2
176
     1
 62
     7
176
     1
 90
        5
176
     1
 90
        0
176
     1
 90
        0
176
     1
290
     0
176
     1
 90
        1
176
     1
 40
-50.0
176
     1
 90
        0
176
     1
290
     0
176
     1
290
     1
176
     1
290
     1
176
     1
290
     0
176
     1
290
     0
176
     1
290
     0
176
     1
290
     0
176
     1
290
     0
176
     1
290
     0
176
     1
 90
       50
176
     1
 40
0.0
176
     1
 40
1.0
176
     1
 90
        0
176
     1
 62
    18
420
        0
176
     1
 90
       50
176
     1
 90
        3
176
     1
 62
     5
420
      255
176
     1
290
     0
176
     1
 90
       50
176
     1
 90
       50
176
     1
 90
       50
176
     1
290
     0
176
     1
 90
       50
176
     1
 62
   256
176
     0
 40
1.0
176
     0
 90
        2
176
     1
  1
strokes_ogs.tif
176
     1
290
     0
176
     1
 40
1.0
176
     1
 40
1.0
176
     1
1001
ACAD
1000
AcDbSavedByObjectVersion
1070
     0
  0
VISUALSTYLE
  5
41
102
{ACAD_REACTORS
330
29
102
}
330
29
100
AcDbVisualStyle
  2
EdgeColorOff
 70
    22
177
     3
291
     1
 70
    58
 90
        2
176
     0
 90
        2
176
     0
 90
        0
176
     0
 90
        0
176
     0
 40
0.6
176
     0
 40
30.0
176
     0
 62
     7
420
 16777215
176
     0
 90
        1
176
     0
 90
        4
176
     0
 62
     7
176
     0
 62
   257
176
     0
 90
        1
176
     0
 90
        1
176
     0
 40
1.0
176
     0
 90
        8
176
     2
 62
     7
176
     0
 40
1.0
176
     0
 90
        1
176
     0
 90
        6
176
     0
 90
        2
176
     0
 62
     7
176
     0
 90
        5
176
     0
 90
        0
176
     0
 90
        0
176
     0
290
     0
176
     0
 90
        1
176
     0
 40
0.0
176
     0
 90
        0
176
     0
290
     0
176
     0
290
     1
176
     0
290
     1
176
     0
290
     0
176
     0
290
     0
176
     0
290
     0
176
     0
290
     0
176
     0
290
     0
176
     0
290
     0
176
     0
 90
       50
176
     0
 40
0.0
176
     0
 40
1.0
176
     0
 90
        0
176
     0
 62
    18
420
        0
176
     0
 90
       50
176
     0
 90
        3
176
     0
 62
     5
420
      255
176
     0
290
     0
176
     0
 90
       50
176
     0
 90
       50
176
     0
 90
       50
176
     0
290
     0
176
     0
 90
       50
176
     0
 62
   256
176
     0
 40
1.0
176
     0
 90
        2
176
     0
  1
strokes_ogs.tif
176
     0
290
     0
176
     0
 40
1.0
176
     0
 40
1.0
176
     0
1001
ACAD
1000
AcDbSavedByObjectVersion
1070
     0
  0
VISUALSTYLE
  5
38
102
{ACAD_REACTORS
330
29
102
}
330
29
100
AcDbVisualStyle
  2
Facepattern
 70
    15
177
     3
291
     1
 70
    58
 90
        2
176
     1
 90
        2
176
     1
 90
        0
176
     1
 90
        0
176
     1
 40
0.6
176
     1
 40
30.0
176
     1
 62
     7
420
 16777215
176
     1
 90
        1
176
     1
 90
        4
176
     1
 62
     7
176
     1
 62
   257
176
     1
 90
        1
176
     1
 90
        1
176
     1
 40
1.0
176
     1
 90
        8
176
     1
 62
     7
176
     1
 40
1.0
176
     1
 90
        1
176
     1
 90
        6
176
     1
 90
        2
176
     1
 62
     7
176
     1
 90
        5
176
     1
 90
        0
176
     1
 90
        0
176
     1
290
     0
176
     1
 90
        1
176
     1
 40
0.0
176
     1
 90
        0
176
     1
290
     0
176
     1
290
     1
176
     1
290
     1
176
     1
290
     0
176
     1
290
     0
176
     1
290
     0
176
     1
290
     0
176
     1
290
     0
176
     1
290
     0
176
     1
 90
       50
176
     1
 40
0.0
176
     1
 40
1.0
176
     1
 90
        0
176
     1
 62
    18
420
        0
176
     1
 90
       50
176
     1
 90
        3
176
     1
 62
     5
420
      255
176
     1
290
     0
176
     1
 90
       50
176
     1
 90
       50
176
     1
 90
       50
176
     1
290
     0
176
     1
 90
       50
176
     1
 62
   256
176
     0
 40
1.0
176
     0
 90
        2
176
     1
  1
strokes_ogs.tif
176
     1
290
     0
176
     1
 40
1.0
176
     1
 40
1.0
176
     1
1001
ACAD
1000
AcDbSavedByObjectVersion
1070
     0
  0
VISUALSTYLE
  5
2A
102
{ACAD_REACTORS
330
29
102
}
330
29
100
AcDbVisualStyle
  2
Flat
 70
     0
177
     3
291
     1
 70
    58
 90
        2
176
     1
 90
        1
176
     1
 90
        1
176
     1
 90
        2
176
     1
 40
0.6
176
     1
 40
30.0
176
     1
 62
     7
420
 16777215
176
     1
 90
        0
176
     1
 90
        0
176
     1
 62
     7
176
     1
 62
   257
176
     1
 90
        1
176
     1
 90
        1
176
     1
 40
1.0
176
     1
 90
        8
176
     1
 62
     7
176
     1
 40
1.0
176
     1
 90
        1
176
     1
 90
        6
176
     1
 90
        2
176
     1
 62
     7
176
     1
 90
        5
176
     1
 90
        0
176
     1
 90
        0
176
     1
290
     0
176
     1
 90
       13
176
     1
 40
0.0
176
     1
 90
        0
176
     1
290
     0
176
     1
290
     1
176
     1
290
     1
176
     1
290
     0
176
     1
290
     0
176
     1
290
     0
176
     1
290
     0
176
     1
290
     0
176
     1
290
     0
176
     1
 90
       50
176
     1
 40
0.0
176
     1
 40
1.0
176
     1
 90
        0
176
     1
 62
    18
420
        0
176
     1
 90
       50
176
     1
 90
        3
176
     1
 62
     5
420
      255
176
     1
290
     0
176
     1
 90
       50
176
     1
 90
       50
176
     1
 90
       50
176
     1
290
     0
176
     1
 90
       50
176
     1
 62
   256
176
     0
 40
1.0
176
     0
 90
        2
176
     1
  1
strokes_ogs.tif
176
     1
290
     0
176
     1
 40
1.0
176
     1
 40
1.0
176
     1
1001
ACAD
1000
AcDbSavedByObjectVersion
1070
     0
  0
VISUALSTYLE
  5
2B
102
{ACAD_REACTORS
330
29
102
}
330
29
100
AcDbVisualStyle
  2
FlatWithEdges
 70
     1
177
     3
291
     1
 70
    58
 90
        2
176
     1
 90
        1
176
     1
 90
        1
176
     1
 90
        2
176
     1
 40
0.6
176
     1
 40
30.0
176
     1
 62
     7
420
 16777215
176
     1
 90
        1
176
     1
 90
        0
176
     1
 62
     7
176
     1
 62
   257
176
     1
 90
        1
176
     1
 90
        1
176
     1
 40
1.0
176
     1
 90
        0
176
     1
 62
   257
176
     1
 40
1.0
176
     1
 90
        1
176
     1
 90
        6
176
     1
 90
        2
176
     1
 62
     7
176
     1
 90
        5
176
     1
 90
        0
176
     1
 90
        0
176
     1
290
     0
176
     1
 90
       13
176
     1
 40
0.0
176
     1
 90
        0
176
     1
290
     0
176
     1
290
     1
176
     1
290
     1
176
     1
290
     0
176
     1
290
     0
176
     1
290
     0
176
     1
290
     0
176
     1
290
     0
176
     1
290
     0
176
     1
 90
       50
176
     1
 40
0.0
176
     1
 40
1.0
176
     1
 90
        0
176
     1
 62
    18
420
        0
176
     1
 90
       50
176
     1
 90
        3
176
     1
 62
     5
420
      255
176
     1
290
     0
176
     1
 90
       50
176
     1
 90
       50
176
     1
 90
       50
176
     1
290
     0
176
     1
 90
       50
176
     1
 62
   256
176
     0
 40
1.0
176
     0
 90
        2
176
     1
  1
strokes_ogs.tif
176
     1
290
     0
176
     1
 40
1.0
176
     1
 40
1.0
176
     1
1001
ACAD
1000
AcDbSavedByObjectVersion
1070
     0
  0
VISUALSTYLE
  5
2C
102
{ACAD_REACTORS
330
29
102
}
330
29
100
AcDbVisualStyle
  2
Gouraud
 70
     2
177
     3
291
     1
 70
    58
 90
        2
176
     1
 90
        2
176
     1
 90
        1
176
     1
 90
        2
176
     1
 40
0.6
176
     1
 40
30.0
176
     1
 62
     7
420
 16777215
176
     1
 90
        0
176
     1
 90
        0
176
     1
 62
     7
176
     1
 62
   257
176
     1
 90
        1
176
     1
 90
        1
176
     1
 40
1.0
176
     1
 90
        0
176
     1
 62
     7
176
     1
 40
1.0
176
     1
 90
        1
176
     1
 90
        6
176
     1
 90
        2
176
     1
 62
     7
176
     1
 90
        5
176
     1
 90
        0
176
     1
 90
        0
176
     1
290
     0
176
     1
 90
       13
176
     1
 40
0.0
176
     1
 90
        0
176
     1
290
     0
176
     1
290
     1
176
     1
290
     1
176
     1
290
     0
176
     1
290
     0
176
     1
290
     0
176
     1
290
     0
176
     1
290
     0
176
     1
290
     0
176
     1
 90
       50
176
     1
 40
0.0
176
     1
 40
1.0
176
     1
 90
        0
176
     1
 62
    18
420
        0
176
     1
 90
       50
176
     1
 90
        3
176
     1
 62
     5
420
      255
176
     1
290
     0
176
     1
 90
       50
176
     1
 90
       50
176
     1
 90
       50
176
     1
290
     0
176
     1
 90
       50
176
     1
 62
   256
176
     0
 40
1.0
176
     0
 90
        2
176
     1
  1
strokes_ogs.tif
176
     1
290
     0
176
     1
 40
1.0
176
     1
 40
1.0
176
     1
1001
ACAD
1000
AcDbSavedByObjectVersion
1070
     0
  0
VISUALSTYLE
  5
2D
102
{ACAD_REACTORS
330
29
102
}
330
29
100
AcDbVisualStyle
  2
GouraudWithEdges
 70
     3
177
     3
291
     1
 70
    58
 90
        2
176
     1
 90
        2
176
     1
 90
        1
176
     1
 90
        2
176
     1
 40
0.6
176
     1
 40
30.0
176
     1
 62
     7
420
 16777215
176
     1
 90
        1
176
     1
 90
        0
176
     1
 62
     7
176
     1
 62
   257
176
     1
 90
        1
176
     1
 90
        1
176
     1
 40
1.0
176
     1
 90
        0
176
     1
 62
   257
176
     1
 40
1.0
176
     1
 90
        1
176
     1
 90
        6
176
     1
 90
        2
176
     1
 62
     7
176
     1
 90
        5
176
     1
 90
        0
176
     1
 90
        0
176
     1
290
     0
176
     1
 90
       13
176
     1
 40
0.0
176
     1
 90
        0
176
     1
290
     0
176
     1
290
     1
176
     1
290
     1
176
     1
290
     0
176
     1
290
     0
176
     1
290
     0
176
     1
290
     0
176
     1
290
     0
176
     1
290
     0
176
     1
 90
       50
176
     1
 40
0.0
176
     1
 40
1.0
176
     1
 90
        0
176
     1
 62
    18
420
        0
176
     1
 90
       50
176
     1
 90
        3
176
     1
 62
     5
420
      255
176
     1
290
     0
176
     1
 90
       50
176
     1
 90
       50
176
     1
 90
       50
176
     1
290
     0
176
     1
 90
       50
176
     1
 62
   256
176
     0
 40
1.0
176
     0
 90
        2
176
     1
  1
strokes_ogs.tif
176
     1
290
     0
176
     1
 40
1.0
176
     1
 40
1.0
176
     1
1001
ACAD
1000
AcDbSavedByObjectVersion
1070
     0
  0
VISUALSTYLE
  5
31
102
{ACAD_REACTORS
330
29
102
}
330
29
100
AcDbVisualStyle
  2
Hidden
 70
     6
177
     3
291
     0
 70
    58
 90
        1
176
     1
 90
        2
176
     1
 90
        2
176
     1
 90
        0
176
     1
 40
0.6
176
     1
 40
30.0
176
     1
 62
     7
420
 16777215
176
     1
 90
        2
176
     1
 90
        2
176
     1
 62
     7
176
     1
 62
   257
176
     1
 90
        2
176
     1
 90
        1
176
     1
 40
40.0
176
     1
 90
        0
176
     1
 62
   257
176
     1
 40
1.0
176
     1
 90
        1
176
     1
 90
        6
176
     1
 90
        2
176
     1
 62
     7
176
     1
 90
        3
176
     1
 90
        0
176
     1
 90
        0
176
     1
290
     0
176
     1
 90
        1
176
     1
 40
0.0
176
     1
 90
        0
176
     1
290
     0
176
     1
290
     1
176
     1
290
     1
176
     1
290
     0
176
     1
290
     0
176
     1
290
     0
176
     1
290
     0
176
     1
290
     0
176
     1
290
     0
176
     1
 90
       50
176
     1
 40
0.0
176
     1
 40
1.0
176
     1
 90
        0
176
     1
 62
    18
420
        0
176
     1
 90
       50
176
     1
 90
        3
176
     1
 62
     5
420
      255
176
     1
290
     0
176
     1
 90
       50
176
     1
 90
       50
176
     1
 90
       50
176
     1
290
     0
176
     1
 90
       50
176
     1
 62
   256
176
     0
 40
1.0
176
     0
 90
        2
176
     1
  1
strokes_ogs.tif
176
     1
290
     0
176
     1
 40
1.0
176
     1
 40
1.0
176
     1
1001
ACAD
1000
AcDbSavedByObjectVersion
1070
     0
  0
VISUALSTYLE
  5
3F
102
{ACAD_REACTORS
330
29
102
}
330
29
100
AcDbVisualStyle
  2
JitterOff
 70
    20
177
     3
291
     1
 70
    58
 90
        2
176
     0
 90
        2
176
     0
 90
        0
176
     0
 90
        0
176
     0
 40
0.6
176
     0
 40
30.0
176
     0
 62
     7
420
 16777215
176
     0
 90
        1
176
     0
 90
        4
176
     0
 62
     7
176
     0
 62
   257
176
     0
 90
        1
176
     0
 90
        1
176
     0
 40
1.0
176
     0
 90
       10
176
     2
 62
     7
176
     0
 40
1.0
176
     0
 90
        1
176
     0
 90
        6
176
     0
 90
        2
176
     0
 62
     7
176
     0
 90
        5
176
     0
 90
        0
176
     0
 90
        0
176
     0
290
     0
176
     0
 90
        1
176
     0
 40
0.0
176
     0
 90
        0
176
     0
290
     0
176
     0
290
     1
176
     0
290
     1
176
     0
290
     0
176
     0
290
     0
176
     0
290
     0
176
     0
290
     0
176
     0
290
     0
176
     0
290
     0
176
     0
 90
       50
176
     0
 40
0.0
176
     0
 40
1.0
176
     0
 90
        0
176
     0
 62
    18
420
        0
176
     0
 90
       50
176
     0
 90
        3
176
     0
 62
     5
420
      255
176
     0
290
     0
176
     0
 90
       50
176
     0
 90
       50
176
     0
 90
       50
176
     0
290
     0
176
     0
 90
       50
176
     0
 62
   256
176
     0
 40
1.0
176
     0
 90
        2
176
     0
  1
strokes_ogs.tif
176
     0
290
     0
176
     0
 40
1.0
176
     0
 40
1.0
176
     0
1001
ACAD
1000
AcDbSavedByObjectVersion
1070
     0
  0
VISUALSTYLE
  5
37
102
{ACAD_REACTORS
330
29
102
}
330
29
100
AcDbVisualStyle
  2
Linepattern
 70
    14
177
     3
291
     1
 70
    58
 90
        2
176
     1
 90
        2
176
     1
 90
        0
176
     1
 90
        0
176
     1
 40
0.6
176
     1
 40
30.0
176
     1
 62
     7
420
 16777215
176
     1
 90
        1
176
     1
 90
        4
176
     1
 62
     7
176
     1
 62
   257
176
     1
 90
        7
176
     1
 90
        7
176
     1
 40
1.0
176
     1
 90
        8
176
     1
 62
     7
176
     1
 40
1.0
176
     1
 90
        1
176
     1
 90
        6
176
     1
 90
        2
176
     1
 62
     7
176
     1
 90
        5
176
     1
 90
        0
176
     1
 90
        0
176
     1
290
     0
176
     1
 90
        1
176
     1
 40
0.0
176
     1
 90
        0
176
     1
290
     0
176
     1
290
     1
176
     1
290
     1
176
     1
290
     0
176
     1
290
     0
176
     1
290
     0
176
     1
290
     0
176
     1
290
     0
176
     1
290
     0
176
     1
 90
       50
176
     1
 40
0.0
176
     1
 40
1.0
176
     1
 90
        0
176
     1
 62
    18
420
        0
176
     1
 90
       50
176
     1
 90
        3
176
     1
 62
     5
420
      255
176
     1
290
     0
176
     1
 90
       50
176
     1
 90
       50
176
     1
 90
       50
176
     1
290
     0
176
     1
 90
       50
176
     1
 62
   256
176
     0
 40
1.0
176
     0
 90
        2
176
     1
  1
strokes_ogs.tif
176
     1
290
     0
176
     1
 40
1.0
176
     1
 40
1.0
176
     1
1001
ACAD
1000
AcDbSavedByObjectVersion
1070
     0
  0
VISUALSTYLE
  5
40
102
{ACAD_REACTORS
330
29
102
}
330
29
100
AcDbVisualStyle
  2
OverhangOff
 70
    21
177
     3
291
     1
 70
    58
 90
        2
176
     0
 90
        2
176
     0
 90
        0
176
     0
 90
        0
176
     0
 40
0.6
176
     0
 40
30.0
176
     0
 62
     7
420
 16777215
176
     0
 90
        1
176
     0
 90
        4
176
     0
 62
     7
176
     0
 62
   257
176
     0
 90
        1
176
     0
 90
        1
176
     0
 40
1.0
176
     0
 90
        9
176
     2
 62
     7
176
     0
 40
1.0
176
     0
 90
        1
176
     0
 90
        6
176
     0
 90
        2
176
     0
 62
     7
176
     0
 90
        5
176
     0
 90
        0
176
     0
 90
        0
176
     0
290
     0
176
     0
 90
        1
176
     0
 40
0.0
176
     0
 90
        0
176
     0
290
     0
176
     0
290
     1
176
     0
290
     1
176
     0
290
     0
176
     0
290
     0
176
     0
290
     0
176
     0
290
     0
176
     0
290
     0
176
     0
290
     0
176
     0
 90
       50
176
     0
 40
0.0
176
     0
 40
1.0
176
     0
 90
        0
176
     0
 62
    18
420
        0
176
     0
 90
       50
176
     0
 90
        3
176
     0
 62
     5
420
      255
176
     0
290
     0
176
     0
 90
       50
176
     0
 90
       50
176
     0
 90
       50
176
     0
290
     0
176
     0
 90
       50
176
     0
 62
   256
176
     0
 40
1.0
176
     0
 90
        2
176
     0
  1
strokes_ogs.tif
176
     0
290
     0
176
     0
 40
1.0
176
     0
 40
1.0
176
     0
1001
ACAD
1000
AcDbSavedByObjectVersion
1070
     0
  0
VISUALSTYLE
  5
33
102
{ACAD_REACTORS
330
29
102
}
330
29
100
AcDbVisualStyle
  2
Realistic
 70
     8
177
     3
291
     0
 70
    58
 90
        2
176
     1
 90
        3
176
     1
 90
        0
176
     1
 90
        2
176
     1
 40
0.6
176
     1
 40
30.0
176
     1
 62
     7
420
 16777215
176
     1
 90
        0
176
     1
 90
        0
176
     1
 62
     7
176
     1
 62
   257
176
     1
 90
        1
176
     1
 90
        1
176
     1
 40
1.0
176
     1
 90
        8
176
     1
 62
   257
176
     1
 40
1.0
176
     1
 90
        1
176
     1
 90
        6
176
     1
 90
        2
176
     1
 62
     7
176
     1
 90
        3
176
     1
 90
        0
176
     1
 90
        0
176
     1
290
     0
176
     1
 90
       13
176
     1
 40
0.0
176
     1
 90
        0
176
     1
290
     0
176
     1
290
     1
176
     1
290
     1
176
     1
290
     0
176
     1
290
     0
176
     1
290
     0
176
     1
290
     0
176
     1
290
     0
176
     1
290
     0
176
     1
 90
       50
176
     1
 40
0.0
176
     1
 40
1.0
176
     1
 90
        0
176
     1
 62
    18
420
        0
176
     1
 90
       50
176
     1
 90
        3
176
     1
 62
     5
420
      255
176
     1
290
     0
176
     1
 90
       50
176
     1
 90
       50
176
     1
 90
       50
176
     1
290
     0
176
     1
 90
       50
176
     1
 62
   256
176
     0
 40
1.0
176
     0
 90
        2
176
     1
  1
strokes_ogs.tif
176
     1
290
     0
176
     1
 40
1.0
176
     1
 40
1.0
176
     1
1001
ACAD
1000
AcDbSavedByObjectVersion
1070
     0
  0
VISUALSTYLE
  5
3E
102
{ACAD_REACTORS
330
29
102
}
330
29
100
AcDbVisualStyle
  2
Shaded
 70
    27
177
     3
291
     0
 70
    58
 90
        2
176
     1
 90
        2
176
     1
 90
        1
176
     1
 90
        2
176
     1
 40
0.6
176
     1
 40
30.0
176
     1
 62
     7
420
 16777215
176
     1
 90
        0
176
     1
 90
        4
176
     1
 62
     7
176
     1
 62
   257
176
     1
 90
        1
176
     1
 90
        1
176
     1
 40
1.0
176
     1
 90
        8
176
     1
 62
   257
176
     1
 40
1.0
176
     1
 90
        1
176
     1
 90
        6
176
     1
 90
        2
176
     1
 62
     8
420
  7895160
176
     1
 90
        3
176
     1
 90
        0
176
     1
 90
        0
176
     1
290
     0
176
     1
 90
        5
176
     1
 40
0.0
176
     1
 90
        0
176
     1
290
     0
176
     1
290
     1
176
     1
290
     1
176
     1
290
     0
176
     1
290
     0
176
     1
290
     0
176
     1
290
     0
176
     1
290
     0
176
     1
290
     0
176
     1
 90
       50
176
     1
 40
0.0
176
     1
 40
1.0
176
     1
 90
        0
176
     1
 62
    18
420
        0
176
     1
 90
       50
176
     1
 90
        3
176
     1
 62
     5
420
      255
176
     1
290
     0
176
     1
 90
       50
176
     1
 90
       50
176
     1
 90
       50
176
     1
290
     0
176
     1
 90
       50
176
     1
 62
   256
176
     0
 40
1.0
176
     0
 90
        2
176
     1
  1
strokes_ogs.tif
176
     1
290
     0
176
     1
 40
1.0
176
     1
 40
1.0
176
     1
1001
ACAD
1000
AcDbSavedByObjectVersion
1070
     0
  0
VISUALSTYLE
  5
3D
102
{ACAD_REACTORS
330
29
102
}
330
29
100
AcDbVisualStyle
  2
Shaded with edges
 70
    26
177
     3
291
     0
 70
    58
 90
        2
176
     1
 90
        2
176
     1
 90
        1
176
     1
 90
        2
176
     1
 40
0.6
176
     1
 40
30.0
176
     1
 62
     7
420
 16777215
176
     1
 90
        1
176
     1
 90
        2
176
     1
 62
     7
176
     1
 62
   257
176
     1
 90
        2
176
     1
 90
        1
176
     1
 40
1.0
176
     1
 90
        8
176
     1
 62
   257
176
     1
 40
1.0
176
     1
 90
        1
176
     1
 90
        6
176
     1
 90
        2
176
     1
 62
     7
176
     1
 90
        3
176
     1
 90
        0
176
     1
 90
        0
176
     1
290
     0
176
     1
 90
        5
176
     1
 40
0.0
176
     1
 90
        0
176
     1
290
     0
176
     1
290
     1
176
     1
290
     1
176
     1
290
     0
176
     1
290
     0
176
     1
290
     0
176
     1
290
     0
176
     1
290
     0
176
     1
290
     0
176
     1
 90
       50
176
     1
 40
0.0
176
     1
 40
1.0
176
     1
 90
        0
176
     1
 62
    18
420
        0
176
     1
 90
       50
176
     1
 90
        3
176
     1
 62
     5
420
      255
176
     1
290
     0
176
     1
 90
       50
176
     1
 90
       50
176
     1
 90
       50
176
     1
290
     0
176
     1
 90
       50
176
     1
 62
   256
176
     0
 40
1.0
176
     0
 90
        2
176
     1
  1
strokes_ogs.tif
176
     1
290
     0
176
     1
 40
1.0
176
     1
 40
1.0
176
     1
1001
ACAD
1000
AcDbSavedByObjectVersion
1070
     0
  0
VISUALSTYLE
  5
3A
102
{ACAD_REACTORS
330
29
102
}
330
29
100
AcDbVisualStyle
  2
Shades of Gray
 70
    23
177
     3
291
     0
 70
    58
 90
        2
176
     1
 90
        2
176
     1
 90
        3
176
     1
 90
        0
176
     1
 40
0.6
176
     1
 40
30.0
176
     1
 62
     7
420
 16777215
176
     1
 90
        2
176
     1
 90
        2
176
     1
 62
     7
176
     1
 62
     7
176
     1
 90
        1
176
     1
 90
        1
176
     1
 40
40.0
176
     1
 90
        8
176
     1
 62
     7
176
     1
 40
1.0
176
     1
 90
        1
176
     1
 90
        6
176
     1
 90
        2
176
     1
 62
     7
176
     1
 90
        3
176
     1
 90
        0
176
     1
 90
        0
176
     1
290
     0
176
     1
 90
        1
176
     1
 40
0.0
176
     1
 90
        0
176
     1
290
     0
176
     1
290
     1
176
     1
290
     1
176
     1
290
     0
176
     1
290
     0
176
     1
290
     0
176
     1
290
     0
176
     1
290
     0
176
     1
290
     0
176
     1
 90
       50
176
     1
 40
0.0
176
     1
 40
1.0
176
     1
 90
        0
176
     1
 62
    18
420
        0
176
     1
 90
       50
176
     1
 90
        3
176
     1
 62
     5
420
      255
176
     1
290
     0
176
     1
 90
       50
176
     1
 90
       50
176
     1
 90
       50
176
     1
290
     0
176
     1
 90
       50
176
     1
 62
   256
176
     0
 40
1.0
176
     0
 90
        2
176
     1
  1
strokes_ogs.tif
176
     1
290
     0
176
     1
 40
1.0
176
     1
 40
1.0
176
     1
1001
ACAD
1000
AcDbSavedByObjectVersion
1070
     0
  0
VISUALSTYLE
  5
3B
102
{ACAD_REACTORS
330
29
102
}
330
29
100
AcDbVisualStyle
  2
Sketchy
 70
    24
177
     3
291
     0
 70
    58
 90
        1
176
     1
 90
        2
176
     1
 90
        2
176
     1
 90
        0
176
     1
 40
0.6
176
     1
 40
30.0
176
     1
 62
     7
420
 16777215
176
     1
 90
        2
176
     1
 90
        2
176
     1
 62
     7
176
     1
 62
     7
176
     1
 90
        1
176
     1
 90
        1
176
     1
 40
40.0
176
     1
 90
       11
176
     1
 62
     7
176
     1
 40
1.0
176
     1
 90
        1
176
     1
 90
        6
176
     1
 90
        2
176
     1
 62
     7
176
     1
 90
        6
176
     1
 90
        0
176
     1
 90
        0
176
     1
290
     0
176
     1
 90
        1
176
     1
 40
0.0
176
     1
 90
        0
176
     1
290
     0
176
     1
290
     1
176
     1
290
     1
176
     1
290
     0
176
     1
290
     0
176
     1
290
     0
176
     1
290
     0
176
     1
290
     0
176
     1
290
     0
176
     1
 90
       50
176
     1
 40
0.0
176
     1
 40
1.0
176
     1
 90
        0
176
     1
 62
    18
420
        0
176
     1
 90
       50
176
     1
 90
        3
176
     1
 62
     5
420
      255
176
     1
290
     0
176
     1
 90
       50
176
     1
 90
       50
176
     1
 90
       50
176
     1
290
     0
176
     1
 90
       50
176
     1
 62
   256
176
     0
 40
1.0
176
     0
 90
        2
176
     1
  1
strokes_ogs.tif
176
     1
290
     0
176
     1
 40
1.0
176
     1
 40
1.0
176
     1
1001
ACAD
1000
AcDbSavedByObjectVersion
1070
     0
  0
VISUALSTYLE
  5
36
102
{ACAD_REACTORS
330
29
102
}
330
29
100
AcDbVisualStyle
  2
Thicken
 70
    13
177
     3
291
     1
 70
    58
 90
        2
176
     1
 90
        2
176
     1
 90
        0
176
     1
 90
        0
176
     1
 40
0.6
176
     1
 40
30.0
176
     1
 62
     7
420
 16777215
176
     1
 90
        1
176
     1
 90
        4
176
     1
 62
     7
176
     1
 62
   257
176
     1
 90
        1
176
     1
 90
        1
176
     1
 40
1.0
176
     1
 90
       12
176
     1
 62
     7
176
     1
 40
1.0
176
     1
 90
        1
176
     1
 90
        6
176
     1
 90
        2
176
     1
 62
     7
176
     1
 90
        5
176
     1
 90
        0
176
     1
 90
        0
176
     1
290
     0
176
     1
 90
        1
176
     1
 40
0.0
176
     1
 90
        0
176
     1
290
     0
176
     1
290
     1
176
     1
290
     1
176
     1
290
     0
176
     1
290
     0
176
     1
290
     0
176
     1
290
     0
176
     1
290
     0
176
     1
290
     0
176
     1
 90
       50
176
     1
 40
0.0
176
     1
 40
1.0
176
     1
 90
        0
176
     1
 62
    18
420
        0
176
     1
 90
       50
176
     1
 90
        3
176
     1
 62
     5
420
      255
176
     1
290
     0
176
     1
 90
       50
176
     1
 90
       50
176
     1
 90
       50
176
     1
290
     0
176
     1
 90
       50
176
     1
 62
   256
176
     0
 40
1.0
176
     0
 90
        2
176
     1
  1
strokes_ogs.tif
176
     1
290
     0
176
     1
 40
1.0
176
     1
 40
1.0
176
     1
1001
ACAD
1000
AcDbSavedByObjectVersion
1070
     0
  0
VISUALSTYLE
  5
30
102
{ACAD_REACTORS
330
29
102
}
330
29
100
AcDbVisualStyle
  2
Wireframe
 70
     5
177
     3
291
     0
 70
    58
 90
        0
176
     1
 90
        2
176
     1
 90
        0
176
     1
 90
        0
176
     1
 40
0.6
176
     1
 40
30.0
176
     1
 62
     7
420
 16777215
176
     1
 90
        1
176
     1
 90
        4
176
     1
 62
     7
176
     1
 62
   257
176
     1
 90
        1
176
     1
 90
        1
176
     1
 40
1.0
176
     1
 90
        0
176
     1
 62
   257
176
     1
 40
1.0
176
     1
 90
        1
176
     1
 90
        6
176
     1
 90
        2
176
     1
 62
     7
176
     1
 90
        3
176
     1
 90
        0
176
     1
 90
        0
176
     1
290
     0
176
     1
 90
        1
176
     1
 40
0.0
176
     1
 90
        0
176
     1
290
     0
176
     1
290
     1
176
     1
290
     1
176
     1
290
     0
176
     1
290
     0
176
     1
290
     0
176
     1
290
     0
176
     1
290
     0
176
     1
290
     0
176
     1
 90
       50
176
     1
 40
0.0
176
     1
 40
1.0
176
     1
 90
        0
176
     1
 62
    18
420
        0
176
     1
 90
       50
176
     1
 90
        3
176
     1
 62
     5
420
      255
176
     1
290
     0
176
     1
 90
       50
176
     1
 90
       50
176
     1
 90
       50
176
     1
290
     0
176
     1
 90
       50
176
     1
 62
   256
176
     0
 40
1.0
176
     0
 90
        2
176
     1
  1
strokes_ogs.tif
176
     1
290
     0
176
     1
 40
1.0
176
     1
 40
1.0
176
     1
1001
ACAD
1000
AcDbSavedByObjectVersion
1070
     0
  0
VISUALSTYLE
  5
3C
102
{ACAD_REACTORS
330
29
102
}
330
29
100
AcDbVisualStyle
  2
X-Ray
 70
    25
177
     3
291
     0
 70
    58
 90
        2
176
     1
 90
        2
176
     1
 90
        1
176
     1
 90
        1
176
     1
 40
0.5
176
     1
 40
30.0
176
     1
 62
     7
420
 16777215
176
     1
 90
        1
176
     1
 90
        0
176
     1
 62
     7
176
     1
 62
   257
176
     1
 90
        1
176
     1
 90
        1
176
     1
 40
1.0
176
     1
 90
        8
176
     1
 62
     7
176
     1
 40
1.0
176
     1
 90
        1
176
     1
 90
        6
176
     1
 90
        2
176
     1
 62
     7
176
     1
 90
        3
176
     1
 90
        0
176
     1
 90
        0
176
     1
290
     0
176
     1
 90
       13
176
     1
 40
0.0
176
     1
 90
        0
176
     1
290
     0
176
     1
290
     1
176
     1
290
     1
176
     1
290
     0
176
     1
290
     0
176
     1
290
     0
176
     1
290
     0
176
     1
290
     0
176
     1
290
     0
176
     1
 90
       50
176
     1
 40
0.0
176
     1
 40
1.0
176
     1
 90
        0
176
     1
 62
    18
420
        0
176
     1
 90
       50
176
     1
 90
        3
176
     1
 62
     5
420
      255
176
     1
290
     0
176
     1
 90
       50
176
     1
 90
       50
176
     1
 90
       50
176
     1
290
     0
176
     1
 90
       50
176
     1
 62
   256
176
     0
 40
1.0
176
     0
 90
        2
176
     1
  1
strokes_ogs.tif
176
     1
290
     0
176
     1
 40
1.0
176
     1
 40
1.0
176
     1
1001
ACAD
1000
AcDbSavedByObjectVersion
1070
     0
  0
DICTIONARYVAR
  5
22E
102
{ACAD_REACTORS
330
229
102
}
330
229
100
DictionaryVariables
280
     0
  1
1:1
  0
DICTIONARYVAR
  5
22B
102
{ACAD_REACTORS
330
229
102
}
330
229
100
DictionaryVariables
280
     0
  1
STANDARD
  0
DICTIONARYVAR
  5
22A
102
{ACAD_REACTORS
330
229
102
}
330
229
100
DictionaryVariables
280
     0
  1
STANDARD
  0
DICTIONARYVAR
  5
22C
102
{ACAD_REACTORS
330
229
102
}
330
229
100
DictionaryVariables
280
     0
  1
Imperial24
  0
DICTIONARYVAR
  5
22D
102
{ACAD_REACTORS
330
229
102
}
330
229
100
DictionaryVariables
280
     0
  1
Imperial24
  0
DICTIONARY
  5
234
330
6B
100
AcDbDictionary
280
     1
281
     1
  3
ACAD_XREC_ROUNDTRIP
360
235
  0
DICTIONARY
  5
1A
330
19
100
AcDbDictionary
280
     1
281
     1
  3
BUMPTILE
360
1C
  3
DIFFUSETILE
360
1B
  3
OPACITYTILE
360
1F
  3
REFLECTIONTILE
360
1E
  3
REFRACTIONTILE
360
20
  3
SPECULARTILE
360
1D
  0
DICTIONARY
  5
12
330
11
100
AcDbDictionary
280
     1
281
     1
  3
BUMPTILE
360
14
  3
DIFFUSETILE
360
13
  3
OPACITYTILE
360
17
  3
REFLECTIONTILE
360
16
  3
REFRACTIONTILE
360
18
  3
SPECULARTILE
360
15
  0
DICTIONARY
  5
22
330
21
100
AcDbDictionary
280
     1
281
     1
  3
BUMPTILE
360
24
  3
DIFFUSETILE
360
23
  3
OPACITYTILE
360
27
  3
REFLECTIONTILE
360
26
  3
REFRACTIONTILE
360
28
  3
SPECULARTILE
360
25
  0
DICTIONARY
  5
232
330
69
100
AcDbDictionary
280
     1
281
     1
  3
ACAD_XREC_ROUNDTRIP
360
233
  0
DICTIONARY
  5
22F
330
65
100
AcDbDictionary
280
     1
281
     1
  3
ACAD_ROUNDTRIP_2008_TABLESTYLE_CELLSTYLEMAP
360
230
  0
XRECORD
  5
235
102
{ACAD_REACTORS
330
234
102
}
330
234
100
AcDbXrecord
280
     1
102
DISPLAYNAME
  1
Imperial24
102
FLAGS
 90
        0
  0
XRECORD
  5
1C
102
{ACAD_REACTORS
330
1A
102
}
330
1A
100
AcDbXrecord
280
     1
270
     1
271
     1
  0
XRECORD
  5
1B
102
{ACAD_REACTORS
330
1A
102
}
330
1A
100
AcDbXrecord
280
     1
270
     1
271
     1
  0
XRECORD
  5
1F
102
{ACAD_REACTORS
330
1A
102
}
330
1A
100
AcDbXrecord
280
     1
270
     1
271
     1
  0
XRECORD
  5
1E
102
{ACAD_REACTORS
330
1A
102
}
330
1A
100
AcDbXrecord
280
     1
270
     1
271
     1
  0
XRECORD
  5
20
102
{ACAD_REACTORS
330
1A
102
}
330
1A
100
AcDbXrecord
280
     1
270
     1
271
     1
  0
XRECORD
  5
1D
102
{ACAD_REACTORS
330
1A
102
}
330
1A
100
AcDbXrecord
280
     1
270
     1
271
     1
  0
XRECORD
  5
14
102
{ACAD_REACTORS
330
12
102
}
330
12
100
AcDbXrecord
280
     1
270
     1
271
     1
  0
XRECORD
  5
13
102
{ACAD_REACTORS
330
12
102
}
330
12
100
AcDbXrecord
280
     1
270
     1
271
     1
  0
XRECORD
  5
17
102
{ACAD_REACTORS
330
12
102
}
330
12
100
AcDbXrecord
280
     1
270
     1
271
     1
  0
XRECORD
  5
16
102
{ACAD_REACTORS
330
12
102
}
330
12
100
AcDbXrecord
280
     1
270
     1
271
     1
  0
XRECORD
  5
18
102
{ACAD_REACTORS
330
12
102
}
330
12
100
AcDbXrecord
280
     1
270
     1
271
     1
  0
XRECORD
  5
15
102
{ACAD_REACTORS
330
12
102
}
330
12
100
AcDbXrecord
280
     1
270
     1
271
     1
  0
XRECORD
  5
24
102
{ACAD_REACTORS
330
22
102
}
330
22
100
AcDbXrecord
280
     1
270
     1
271
     1
  0
XRECORD
  5
23
102
{ACAD_REACTORS
330
22
102
}
330
22
100
AcDbXrecord
280
     1
270
     1
271
     1
  0
XRECORD
  5
27
102
{ACAD_REACTORS
330
22
102
}
330
22
100
AcDbXrecord
280
     1
270
     1
271
     1
  0
XRECORD
  5
26
102
{ACAD_REACTORS
330
22
102
}
330
22
100
AcDbXrecord
280
     1
270
     1
271
     1
  0
XRECORD
  5
28
102
{ACAD_REACTORS
330
22
102
}
330
22
100
AcDbXrecord
280
     1
270
     1
271
     1
  0
XRECORD
  5
25
102
{ACAD_REACTORS
330
22
102
}
330
22
100
AcDbXrecord
280
     1
270
     1
271
     1
  0
XRECORD
  5
233
102
{ACAD_REACTORS
330
232
102
}
330
232
100
AcDbXrecord
280
     1
102
DISPLAYNAME
  1
Imperial24
102
FLAGS
 90
        0
  0
CELLSTYLEMAP
  5
230
102
{ACAD_REACTORS
330
22F
102
}
330
22F
100
AcDbCellStyleMap
 90
        3
300
CELLSTYLE
  1
TABLEFORMAT_BEGIN
 90
        5
170
     1
 91
        0
 92
    32768
 62
   257
 93
        1
300
CONTENTFORMAT
  1
CONTENTFORMAT_BEGIN
 90
        0
 91
        0
 92
      512
 93
        0
300

 40
0.0
140
1.0
 94
        5
 62
     0
340
55
144
0.25
309
CONTENTFORMAT_END
171
     0
 94
        0
309
TABLEFORMAT_END
  1
CELLSTYLE_BEGIN
 90
        1
 91
        1
300
_TITLE
309
CELLSTYLE_END
300
CELLSTYLE
  1
TABLEFORMAT_BEGIN
 90
        5
170
     1
 91
        0
 92
        0
 62
   257
 93
        1
300
CONTENTFORMAT
  1
CONTENTFORMAT_BEGIN
 90
        0
 91
        0
 92
      512
 93
        0
300

 40
0.0
140
1.0
 94
        5
 62
     0
340
55
144
0.18
309
CONTENTFORMAT_END
171
     0
 94
        0
309
TABLEFORMAT_END
  1
CELLSTYLE_BEGIN
 90
        2
 91
        1
300
_HEADER
309
CELLSTYLE_END
300
CELLSTYLE
  1
TABLEFORMAT_BEGIN
 90
        5
170
     1
 91
        0
 92
        0
 62
   257
 93
        1
300
CONTENTFORMAT
  1
CONTENTFORMAT_BEGIN
 90
        0
 91
        0
 92
      512
 93
        0
300

 40
0.0
140
1.0
 94
        2
 62
     0
340
55
144
0.18
309
CONTENTFORMAT_END
171
     0
 94
        0
309
TABLEFORMAT_END
  1
CELLSTYLE_BEGIN
 90
        3
 91
        2
300
_DATA
309
CELLSTYLE_END
  0
ENDSEC
  0
EOF
